<svg width="28" height="28" viewBox="0 0 28 28" fill="none" xmlns="http://www.w3.org/2000/svg">
<path d="M4.45808 17.0581L10.1391 17.1004C10.8322 17.1056 11.423 17.5946 11.5485 18.2672L12.5773 23.7791C12.6871 24.3678 12.2869 24.933 11.6885 25.0342L4.65987 26.2233C3.99898 26.3351 3.39602 25.8359 3.39286 25.1745L3.35939 18.1396C3.35654 17.5406 3.85123 17.0536 4.45808 17.0581Z" fill="#F9AC3B"/>
<path d="M11.7208 1.09785L25.371 0.00357557C25.9585 -0.0435204 26.4754 0.379972 26.5365 0.958311L27.994 14.7805C28.064 15.4441 27.5093 16.0111 26.8349 15.9653L0.673599 14.1913C0.0832367 14.1513 -0.209859 13.4672 0.171366 13.019L9.23079 2.36811C9.85601 1.63305 10.753 1.17543 11.7208 1.09785Z" fill="#47B88F"/>
<path d="M17.401 27.7432L24.8537 18.9812C25.2408 18.5259 24.9319 17.8319 24.3313 17.8077L15.338 17.4455C14.6258 17.4168 14.0767 18.0613 14.2278 18.7484L16.1386 27.4383C16.2661 28.0183 17.0134 28.1988 17.401 27.7432Z" fill="#47B88F"/>
</svg>
