<svg width="312" height="118" viewBox="0 0 312 118" fill="none" xmlns="http://www.w3.org/2000/svg">
<path d="M28.8047 34.4384L29.1599 34.4835L29.4517 34.5238C37.1279 35.6173 43.5138 39.4918 48.6114 46.1494C53.709 52.8061 55.6472 60.0214 54.4252 67.7936C53.108 70.5017 49.125 73.3424 42.4751 76.3126L42.4117 76.3414L37.7154 61.881L37.8201 61.6899C37.9151 61.5133 38.0072 61.3328 38.0975 61.1494C38.6773 60.3104 39.0325 59.4397 39.1602 58.5363C39.4981 56.1661 38.5295 54.0704 36.2552 52.2493C35.6658 51.777 35.0504 51.3517 34.4082 50.9725C34.3122 50.9158 34.2162 50.8602 34.1192 50.8054L28.8047 34.4384Z" fill="#F9AB3C"/>
<path d="M1.06732 57.9459C2.04748 50.2554 5.2174 44.1709 10.5771 39.6944C15.7764 35.3514 21.8513 33.6003 28.8046 34.4374L34.1192 50.8045C32.3604 49.8157 30.4116 49.1696 28.2718 48.8653C26.0139 48.5437 24.0315 48.7222 22.3227 49.4C18.8081 50.6269 16.6654 53.9494 15.8936 59.3667C15.042 65.3494 15.8408 68.6298 18.2916 69.2096C28.0049 70.1504 34.4782 67.7062 37.7144 61.879L42.4107 76.3395C41.6763 76.6669 40.9102 76.9962 40.1105 77.3264C30.067 81.5389 24.4654 84.08 23.3048 84.9517C21.2571 85.5814 20.1608 86.4042 20.0158 87.4198C19.7585 89.2256 20.7713 91.0112 23.0542 92.7757C25.3361 94.5401 27.4366 95.5597 29.3556 95.8323C33.0804 96.3632 38.6993 95.3206 46.2123 92.7056C48.1313 94.591 48.8984 96.8883 48.5124 99.5974C48.2072 101.742 47.2481 103.621 45.6363 105.235C44.0244 106.847 42.1217 107.671 39.93 107.704C32.5448 107.804 27.8926 107.716 25.9745 107.444C22.1364 106.897 18.7908 105.73 15.9358 103.941C3.35597 96.0454 -1.60052 80.7142 1.06732 57.9459Z" fill="#44AF89"/>
<path d="M65.6733 53.5242L65.7818 53.4426C68.9978 51.0416 73.6682 48.3421 79.7988 45.345C87.6084 41.5251 92.8817 38.5328 95.6177 36.3661C97.0999 35.1123 98.1261 32.3754 98.6964 28.1571C99.2666 22.9126 99.8925 19.6064 100.577 18.2374C102.971 14.1334 105.992 12.081 109.641 12.081C110.439 12.081 111.237 12.1952 112.036 12.4227C116.026 14.1325 117.678 16.3558 116.995 19.0928C111.865 33.1165 109.299 48.7933 109.299 66.1232L109.302 67.0899V67.113L94.0951 62.3763L94.1018 62.3235C94.5425 58.639 94.7633 55.7437 94.7633 53.6394C89.2913 53.6394 84.3885 54.8931 80.0561 57.4016C79.8602 57.512 79.6682 57.6243 79.481 57.7386L79.3869 57.7952L65.6733 53.5242Z" fill="#44AF89"/>
<path d="M56.1128 71.5961C56.1128 65.3264 58.5646 59.9101 63.4664 55.3501C64.1009 54.7616 64.8373 54.1539 65.6734 53.5241L79.387 57.7952C74.6235 60.7107 72.6229 64.5133 73.3861 69.201C73.9563 72.7357 75.7515 75.9277 78.7736 78.7779C81.7947 81.6282 85.1009 83.0538 88.6923 83.0538C90.0325 83.0538 91.3717 82.8253 92.7109 82.3693C92.7109 80.5453 92.7109 78.6061 92.7109 76.5546C92.7109 74.0461 93.0526 70.255 93.7371 65.1824C93.8696 64.2013 93.9886 63.2653 94.0961 62.3754L109.303 67.112C109.369 78.585 110.564 91.0813 112.892 104.602C112.892 105.4 112.094 106.284 110.498 107.252C108.901 108.221 107.477 108.706 106.222 108.706C103.486 108.934 101.148 107.224 99.2101 103.576C97.2718 99.9267 95.7896 97.9885 94.7633 97.761C93.7371 97.761 92.1982 97.8752 90.1457 98.1027C88.0933 98.3302 86.612 98.4454 85.699 98.4454C81.4808 98.4454 77.9461 97.4758 75.0958 95.5376C68.5966 91.2051 64.3784 88.0698 62.4401 86.1315C58.2219 81.9133 56.1118 77.0672 56.1118 71.5942L56.1128 71.5961Z" fill="#A9DF91"/>
<path d="M217.34 37.5641C219.05 37.5641 222.015 35.8256 226.233 32.3485C230.451 28.8713 232.275 26.4483 231.705 25.0803C231.25 23.8266 230.252 22.7139 228.713 21.7453C227.174 20.7766 225.721 20.2918 224.352 20.2918C223.667 20.2918 223.098 20.4061 222.642 20.6336C221.616 21.4313 220.333 23.7123 218.794 27.4745C217.255 31.2368 216.485 34.087 216.485 36.0253C216.485 37.0515 216.77 37.5651 217.341 37.5651L217.34 37.5641Z" fill="#F9AB3C"/>
<path d="M207.856 84.0521L207.855 84.1674C207.837 86.4022 208.12 89.4512 208.705 93.3152C209.446 98.2179 209.702 101.809 209.475 104.089C209.019 107.966 206.282 109.904 201.266 109.904C198.643 109.904 196.99 109.22 196.306 107.852C194.339 103.244 192.818 98.0825 191.744 92.3686L191.714 92.2093L207.856 84.0512V84.0521Z" fill="#A9DF91"/>
<path d="M227.172 74.2899L227.205 74.3178C233.883 79.9174 241.825 86.9907 251.031 95.5395C251.716 96.4515 252.057 97.3635 252.057 98.2755C252.057 100.214 250.975 101.867 248.808 103.235C247.211 105.286 245.046 106.313 242.309 106.313C240.029 106.313 238.318 105.572 237.178 104.09C234.752 101.553 226.243 94.2666 211.653 82.2339L211.576 82.1715L227.171 74.2899H227.172Z" fill="#A9DF91"/>
<path d="M191.003 42.5235C191.231 39.4448 191.003 35.0557 190.319 29.3552C189.521 22.9712 189.122 18.5811 189.122 16.1869C189.122 11.9686 189.749 8.43391 190.974 5.58367C192.342 2.16319 195.734 0.45343 201.15 0.45343C202.405 0.45343 203.573 0.624307 204.713 0.966067C206.166 2.44831 206.908 3.70207 206.908 4.72831C206.908 9.28831 206.594 17.6691 205.996 29.8678C205.454 40.2426 205.311 48.5658 205.54 54.8365C205.881 55.2925 207.193 55.521 209.474 55.521C212.78 53.0125 216.029 50.504 219.221 47.9955C223.098 45.3737 226.633 44.0624 229.825 44.0624C232.333 44.0624 234.784 44.8035 237.178 46.2858C238.66 47.0835 239.402 48.0531 239.402 49.1926C239.402 51.4726 237.919 53.3542 234.956 54.8355C233.93 55.52 230.965 57.2298 226.062 59.9658C222.186 62.1325 219.221 64.2416 217.17 66.2941C220.109 68.4982 223.443 71.1632 227.172 74.2889L211.577 82.1705L210.158 81.0013C209.588 80.5453 209.075 80.3168 208.619 80.3168C207.821 80.3168 207.593 81.0579 207.935 82.5401C207.89 82.9923 207.863 83.4963 207.856 84.0512L191.714 92.2093C190.443 85.3827 189.806 77.7699 189.806 69.3718C189.806 63.5571 190.205 54.607 191.003 42.5216V42.5235Z" fill="#44AF89"/>
<path d="M277.828 91.377L277.913 91.471C278.322 91.9078 278.806 92.3427 279.368 92.7776C281.65 94.5421 283.751 95.5616 285.669 95.8342C289.394 96.3651 295.013 95.3226 302.526 92.7075C304.445 94.593 305.212 96.8902 304.826 99.5994C304.52 101.744 303.562 103.623 301.95 105.236C300.338 106.848 298.436 107.672 296.244 107.705C288.858 107.804 284.206 107.717 282.288 107.444C278.45 106.898 275.104 105.731 272.249 103.942C268.966 101.882 266.204 99.3133 263.96 96.2403L263.86 96.1059L277.826 91.377H277.828Z" fill="#A9DF91"/>
<path d="M257.382 57.9469C258.362 50.2554 261.532 44.1709 266.89 39.6944C272.25 35.2179 278.542 33.4938 285.765 34.5229C293.441 35.6163 299.827 39.4909 304.925 46.1485C310.023 52.8051 311.96 60.0205 310.738 67.7926C309.272 70.808 304.5 73.9866 296.424 77.3274C286.38 81.5398 280.779 84.0809 279.618 84.9526C277.57 85.5824 276.474 86.4051 276.329 87.4208C276.14 88.7504 276.639 90.0685 277.826 91.376L263.86 96.1049C257.579 87.4045 255.418 74.6854 257.38 57.9459L257.382 57.9469ZM274.606 69.2105C284.716 70.1897 291.318 67.5027 294.411 61.1485C294.99 60.3094 295.346 59.4387 295.474 58.5354C295.812 56.1651 294.844 54.0694 292.569 52.2483C290.295 50.4272 287.634 49.2992 284.587 48.8653C282.329 48.5437 280.347 48.7222 278.637 49.4C275.122 50.6269 272.98 53.9494 272.208 59.3667C271.356 65.3494 272.155 68.6297 274.606 69.2096V69.2105Z" fill="#44AF89"/>
<path fill-rule="evenodd" clip-rule="evenodd" d="M123.342 16.3923C124.753 17.7661 128.446 18.6522 130.365 19.8426C131.331 24.0166 129.706 26.1267 129.824 27.4957C130.183 31.6755 128.888 32.5597 128.941 35.7402L132.961 35.7363C133.116 33.2067 131.74 30.7136 132.026 28.1936C132.46 24.3632 131.293 28.8541 131.35 20.3994L137.342 22.8906C137.406 33.6915 136.207 33.6291 140.492 35.4867C154.179 41.4176 149.277 42.2941 162.444 36.3334C168.839 33.4381 167.009 35.1363 167.353 25.3664C163.702 25.665 155.337 31.6381 152.362 31.136C152.557 28.7955 154.556 28.5498 158.733 26.7603C162.333 25.2176 180.46 17.3024 181.381 16.4576C179.21 15.2797 153.375 3.52447 152.585 3.46879C150.884 3.34975 127.315 14.8256 123.342 16.3923Z" fill="#44AF89"/>
<path fill-rule="evenodd" clip-rule="evenodd" d="M137.581 46.2915C137.183 48.8605 138.029 49.2589 139.963 50.1085L149.4 54.344C151.291 55.1581 152.779 55.5133 151.993 58.2531C149.312 58.5305 140.272 52.4144 137.595 52.8752C137.201 55.4864 138 55.8694 139.987 56.7257L149.148 60.8528C151.346 61.7859 152.414 61.6755 152.182 64.7149C148.868 65.2198 140.613 59.0969 137.592 59.5088C137.256 61.5344 137.416 62.095 139.179 63.0032C140.533 63.7011 141.93 64.2368 143.238 64.8195C153.073 69.1981 150.92 69.6752 159.13 65.8563C161.494 64.7571 165.562 63.2902 167.006 62.0624C167.363 59.8467 167.382 58.5161 166.979 56.3235C166.497 53.7046 167.377 53.3926 167.283 50.7277C167.179 47.7392 166.519 48.536 167.069 45.5917C167.545 43.0419 167.125 42.0521 166.772 39.8038C162.775 39.8019 155.453 45.295 152.262 45.2441C149.053 45.1923 140.741 39.1731 137.391 39.8153C137.422 43.1513 138.358 42.7289 144.021 45.2681C146.042 46.1744 151.191 48.0848 152.036 49.3971C152.881 50.7085 152.157 52.1648 150.363 51.4726C147.819 50.4915 139.685 45.9267 137.582 46.2925L137.581 46.2915Z" fill="#A1D890"/>
<path fill-rule="evenodd" clip-rule="evenodd" d="M154.074 89.4925L153.936 78.4544C153.936 74.5165 154.937 75.0685 158.299 73.5853C160.223 72.7376 162.913 71.0326 165.204 71C165.288 73.7994 165.953 83.9562 164.482 85.2349C164.479 85.2378 155.336 89.5942 154.073 89.4925H154.074ZM137.596 67.3174C137.039 70.2186 136.658 85.5363 138.3 86.912C139.388 87.823 151.327 92.9274 152.619 92.8813C153.597 92.8467 165.823 87.5955 166.675 86.6528C167.998 85.1907 167.367 79.6678 167.376 77.2842C167.384 74.6739 167.672 69.6848 167.215 67.3645C165.151 67.0122 161.766 69.2317 159.834 70.0544C158.418 70.6573 153.434 73.0563 152.26 73.0074C149.289 72.8816 140.187 66.9152 137.597 67.3184L137.596 67.3174Z" fill="#F9AB3C"/>
<path fill-rule="evenodd" clip-rule="evenodd" d="M167.078 92.1421C163.626 91.1763 155.937 97.4806 152.274 97.4C148.982 97.327 141.162 91.472 137.654 92.024C137.097 94.1514 139.392 97.0218 140.475 98.8102L148.017 111.563C152.002 118.389 152.226 119.277 154.724 114.917L160.412 105.364C161.725 103.145 162.9 101.083 164.134 98.9504C165.217 97.0774 167.526 94.5258 167.078 92.1411V92.1421Z" fill="#44AF89"/>
<path fill-rule="evenodd" clip-rule="evenodd" d="M154.074 89.4925C155.337 89.5942 164.48 85.2378 164.484 85.2349C165.953 83.9562 165.288 73.7994 165.205 71C162.914 71.0336 160.223 72.7376 158.3 73.5853C154.938 75.0685 153.937 74.5165 153.937 78.4544L154.075 89.4925H154.074Z" fill="#FEFEFE"/>
</svg>
