<svg width="182" height="185" viewBox="0 0 182 185" fill="none" xmlns="http://www.w3.org/2000/svg">
<path d="M171.097 118.398C171.097 118.398 169.738 121.433 167.643 126.045C161.413 139.754 148.655 167.401 145.672 170.621C136.869 180.114 125.731 179.496 119.127 172.889L122.429 157.72C122.429 157.72 122.119 154.831 130.99 145.852C137.887 138.87 145.724 123.461 148.867 116.955C149.77 115.094 150.286 113.965 150.286 113.965L153.087 114.561L171.097 118.398Z" fill="#FDBA9D"/>
<g style="mix-blend-mode:multiply" opacity="0.2">
<g style="mix-blend-mode:multiply" opacity="0.2">
<path d="M171.097 118.398C171.097 118.398 169.738 121.433 167.643 126.045C162.498 122.302 154.14 117.688 148.867 116.955L153.081 114.562L171.097 118.398Z" fill="#565554"/>
</g>
</g>
<path d="M162.863 116.956H139.448L156.158 74.3345H179.571L162.863 116.956Z" fill="#798797"/>
<path d="M130.989 145.853L124.83 158.503L118.924 170.627L111.858 113.269L108.918 89.4097L110.053 86.8989C122.326 103.954 130.989 145.853 130.989 145.853Z" fill="#007AFF"/>
<g style="mix-blend-mode:multiply" opacity="0.2">
<g style="mix-blend-mode:multiply" opacity="0.2">
<path d="M124.83 158.497L118.924 170.621L111.859 113.263L115.396 107.41C118.146 115.492 122.601 142.783 124.83 158.497Z" fill="#565554"/>
</g>
</g>
<path d="M58.6868 62.7422C58.6868 62.7422 51.6732 55.3842 54.7671 53.1793C57.861 50.9745 62.6064 49.5326 65.7687 49.1892C68.931 48.8458 83.5103 53.8519 85.7797 55.614C88.0492 57.376 92.2424 60.4032 92.2424 60.8847C92.2424 61.3662 89.6981 68.1769 89.493 68.2427C89.2878 68.3086 86.6726 68.173 85.7797 67.5547C84.8869 66.9364 80.5531 63.2948 75.7394 63.2948C70.9256 63.2948 64.463 62.4699 64.0502 63.0198C63.6373 63.5697 63.7753 63.846 62.4684 63.846C61.1614 63.846 58.6868 62.7422 58.6868 62.7422Z" fill="#142232"/>
<path d="M120.506 185H19.6982C20.9368 158.374 19.8943 91.1626 41.3478 68.39C43.825 65.7618 50.4089 61.7097 57.9915 59.5939C63.0723 58.1739 68.6034 57.6253 73.6416 58.9588C80.4797 60.766 85.7812 63.0367 90.1691 65.7514C90.6723 66.0647 91.1695 66.3836 91.6606 66.708C92.7495 67.4352 93.8028 68.1938 94.8203 68.9838C101.142 73.897 106.094 80.0274 110.055 86.8898C118.141 100.909 120.506 166.29 120.506 185Z" fill="#007AFF"/>
<g style="mix-blend-mode:multiply" opacity="0.2">
<g style="mix-blend-mode:multiply" opacity="0.2">
<path d="M94.8185 68.9868C92.7723 69.9859 91.4214 70.9231 90.6215 72.2011C89.4758 74.0251 90.6215 66.8633 90.6215 66.8633L91.6537 66.7109C92.746 67.4338 93.801 68.1924 94.8185 68.9868Z" fill="#565554"/>
</g>
</g>
<g style="mix-blend-mode:multiply" opacity="0.2">
<g style="mix-blend-mode:multiply" opacity="0.2">
<path d="M48.9907 108.081C47.0825 113.818 47.2515 143.22 53.7219 148.899C60.1923 154.578 34.9907 146.963 34.9907 146.963L48.9907 108.081Z" fill="#565554"/>
</g>
</g>
<path d="M37.2743 4.25994V38.879C37.2736 39.1362 37.1967 39.3875 37.0535 39.6011C36.9102 39.8146 36.707 39.981 36.4693 40.0792C36.2317 40.1773 35.9704 40.2029 35.7182 40.1527C35.4661 40.1024 35.2345 39.9786 35.0526 39.7969L26.514 31.2537V31.104H4.77281C3.6436 31.104 2.56065 30.6552 1.76219 29.8563C0.963718 29.0574 0.515137 27.9739 0.515137 26.8441V4.25994C0.515137 3.13013 0.963718 2.0466 1.76219 1.24771C2.56065 0.448813 3.6436 7.82436e-07 4.77281 7.82436e-07H33.0141C33.5734 -0.000338394 34.1273 0.109597 34.6442 0.323527C35.1611 0.537457 35.6307 0.851189 36.0264 1.24679C36.422 1.6424 36.7358 2.11213 36.95 2.62913C37.1641 3.14614 37.2743 3.7003 37.2743 4.25994Z" fill="#F5993F"/>
<path d="M19.6594 6.00643L21.3818 11.3107C21.4347 11.4741 21.5383 11.6164 21.6775 11.7169C21.8167 11.8174 21.9843 11.8709 22.1559 11.8697H27.7309C27.9014 11.8693 28.0676 11.9231 28.2056 12.0232C28.3436 12.1233 28.4464 12.2646 28.4992 12.4268C28.5519 12.589 28.5519 12.7638 28.4992 12.926C28.4465 13.0882 28.3437 13.2295 28.2057 13.3296L23.69 16.6085C23.5521 16.7089 23.4494 16.8504 23.3968 17.0127C23.3442 17.175 23.3443 17.3499 23.3971 17.5121L25.1195 22.8164C25.1731 22.9788 25.1737 23.154 25.1213 23.3167C25.0689 23.4795 24.9662 23.6214 24.8279 23.7219C24.6897 23.8225 24.5231 23.8765 24.3522 23.8761C24.1813 23.8758 24.0149 23.8211 23.8771 23.72L19.3613 20.4425C19.2235 20.3417 19.0572 20.2875 18.8866 20.2875C18.7159 20.2875 18.5496 20.3417 18.4118 20.4425L13.896 23.72C13.758 23.8202 13.5919 23.8741 13.4214 23.874C13.2509 23.8739 13.0848 23.8199 12.9469 23.7196C12.809 23.6193 12.7063 23.4779 12.6537 23.3156C12.601 23.1534 12.6009 22.9787 12.6536 22.8164L14.376 17.5121C14.4288 17.3499 14.4289 17.175 14.3763 17.0127C14.3237 16.8504 14.2211 16.7089 14.0831 16.6085L9.56742 13.3296C9.4294 13.2295 9.32664 13.0882 9.27391 12.926C9.22118 12.7638 9.2212 12.589 9.27395 12.4268C9.32669 12.2646 9.42946 12.1233 9.5675 12.0232C9.70554 11.9231 9.87172 11.8693 10.0422 11.8697H15.6172C15.7888 11.8709 15.9564 11.8174 16.0956 11.7169C16.2348 11.6164 16.3384 11.4741 16.3913 11.3107L18.1137 6.00643C18.1641 5.84058 18.2663 5.69531 18.4055 5.59207C18.5447 5.48884 18.7133 5.43311 18.8866 5.43311C19.0598 5.43311 19.2284 5.48884 19.3676 5.59207C19.5068 5.69531 19.6091 5.84058 19.6594 6.00643Z" fill="white"/>
<path d="M159.053 12.0991H129.501C128.814 12.0991 128.257 12.6563 128.257 13.3435V49.0689C128.257 49.7562 128.814 50.3133 129.501 50.3133H159.053C159.74 50.3133 160.296 49.7562 160.296 49.0689V13.3435C160.296 12.6563 159.74 12.0991 159.053 12.0991Z" fill="#F5993F"/>
<path d="M158.413 49.2138H130.139C129.931 49.2131 129.732 49.1301 129.586 48.983C129.439 48.836 129.356 48.6367 129.356 48.4289V13.9841C129.356 13.7762 129.439 13.577 129.586 13.4299C129.732 13.2829 129.931 13.1999 130.139 13.1992H158.413C158.621 13.1996 158.82 13.2824 158.967 13.4295C159.114 13.5766 159.197 13.776 159.197 13.9841V48.4315C159.196 48.6391 159.113 48.8379 158.966 48.9844C158.819 49.131 158.62 49.2134 158.413 49.2138ZM130.139 13.4303C129.992 13.4306 129.852 13.4891 129.748 13.5929C129.644 13.6966 129.586 13.8373 129.586 13.9841V48.4315C129.586 48.5782 129.644 48.7189 129.748 48.8227C129.852 48.9265 129.992 48.9849 130.139 48.9853H158.413C158.559 48.9853 158.7 48.9269 158.804 48.8231C158.908 48.7192 158.966 48.5784 158.966 48.4315V13.9841C158.966 13.8372 158.908 13.6963 158.804 13.5925C158.7 13.4886 158.559 13.4303 158.413 13.4303H130.139Z" fill="white"/>
<path d="M168.411 20.7012H147.103C146.513 20.7012 146.035 21.1797 146.035 21.77V52.4119C146.035 53.0022 146.513 53.4807 147.103 53.4807H168.411C169.001 53.4807 169.479 53.0022 169.479 52.4119V21.77C169.479 21.1797 169.001 20.7012 168.411 20.7012Z" fill="#CC7133"/>
<path d="M151.379 30.5708H156.369C156.862 30.5708 157.335 30.7668 157.684 31.1156C158.033 31.4645 158.228 31.9376 158.228 32.431V34.5958C158.228 34.607 158.226 34.6181 158.222 34.6284C158.218 34.6387 158.211 34.6481 158.203 34.656C158.196 34.664 158.186 34.6702 158.176 34.6745C158.166 34.6788 158.154 34.681 158.143 34.681H149.605C149.593 34.681 149.582 34.6788 149.572 34.6745C149.562 34.6702 149.552 34.664 149.544 34.656C149.537 34.6481 149.53 34.6387 149.526 34.6284C149.522 34.6181 149.52 34.607 149.52 34.5958V32.4323C149.52 32.188 149.568 31.9461 149.661 31.7204C149.754 31.4947 149.891 31.2897 150.064 31.1169C150.237 30.9442 150.442 30.8072 150.667 30.7137C150.893 30.6202 151.135 30.5721 151.379 30.5721V30.5708Z" fill="white"/>
<path d="M153.874 29.4701C154.939 29.4701 155.803 28.6061 155.803 27.5402C155.803 26.4744 154.939 25.6104 153.874 25.6104C152.809 25.6104 151.945 26.4744 151.945 27.5402C151.945 28.6061 152.809 29.4701 153.874 29.4701Z" fill="white"/>
<path d="M136.523 25.4162C136.443 25.4166 136.364 25.3898 136.3 25.34L133.761 23.3882C133.684 23.329 133.633 23.2415 133.621 23.145C133.608 23.0486 133.634 22.951 133.693 22.8738C133.753 22.7966 133.84 22.7461 133.936 22.7334C134.033 22.7206 134.13 22.7468 134.207 22.806L136.504 24.5745L140.622 20.8232C140.658 20.7891 140.699 20.7624 140.745 20.7447C140.791 20.7271 140.84 20.7188 140.889 20.7203C140.938 20.7219 140.986 20.7333 141.031 20.7539C141.075 20.7745 141.115 20.8038 141.148 20.8401C141.181 20.8764 141.207 20.919 141.223 20.9653C141.239 21.0116 141.246 21.0607 141.243 21.1097C141.24 21.1587 141.227 21.2066 141.205 21.2505C141.183 21.2944 141.153 21.3335 141.115 21.3654L136.771 25.3245C136.703 25.3846 136.614 25.4173 136.523 25.4162Z" fill="white"/>
<path d="M136.523 34.5013C136.442 34.5018 136.364 34.4749 136.3 34.4252L133.761 32.4708C133.721 32.4422 133.687 32.4058 133.661 32.3638C133.636 32.3218 133.619 32.275 133.611 32.2263C133.604 32.1776 133.607 32.128 133.619 32.0803C133.632 32.0326 133.653 31.988 133.683 31.9489C133.713 31.9099 133.751 31.8773 133.794 31.8531C133.837 31.8289 133.884 31.8136 133.933 31.8081C133.982 31.8026 134.031 31.807 134.078 31.821C134.126 31.8351 134.169 31.8585 134.207 31.8899L136.504 33.6571L140.622 29.9058C140.658 29.8717 140.699 29.845 140.745 29.8273C140.791 29.8096 140.84 29.8013 140.889 29.8029C140.938 29.8045 140.986 29.8159 141.031 29.8365C141.075 29.857 141.115 29.8864 141.148 29.9227C141.181 29.959 141.206 30.0016 141.223 30.0479C141.239 30.0942 141.246 30.1433 141.243 30.1923C141.24 30.2413 141.227 30.2891 141.205 30.3331C141.183 30.377 141.152 30.4161 141.115 30.448L136.771 34.4058C136.703 34.4673 136.615 34.5014 136.523 34.5013Z" fill="white"/>
<path d="M136.523 43.5874C136.442 43.5878 136.364 43.561 136.3 43.5112L133.761 41.5568C133.721 41.5282 133.687 41.4918 133.661 41.4498C133.636 41.4078 133.619 41.3611 133.611 41.3124C133.604 41.2637 133.607 41.214 133.619 41.1663C133.632 41.1187 133.653 41.074 133.683 41.0349C133.713 40.9959 133.751 40.9633 133.794 40.9391C133.837 40.9149 133.884 40.8996 133.933 40.8941C133.982 40.8886 134.031 40.893 134.078 40.9071C134.126 40.9211 134.169 40.9445 134.207 40.9759L136.504 42.7431L140.622 38.9918C140.695 38.9299 140.788 38.8986 140.883 38.9045C140.978 38.9105 141.067 38.9532 141.131 39.0237C141.196 39.0942 141.23 39.1869 141.227 39.2822C141.224 39.3774 141.184 39.4677 141.115 39.534L136.771 43.4919C136.703 43.5539 136.615 43.588 136.523 43.5874Z" fill="white"/>
<path d="M166.011 38.5125H149.519C149.422 38.5125 149.329 38.4739 149.26 38.4051C149.191 38.3364 149.153 38.2431 149.153 38.1459C149.153 38.0487 149.191 37.9554 149.26 37.8867C149.329 37.8179 149.422 37.7793 149.519 37.7793H166.011C166.108 37.7793 166.201 37.8179 166.27 37.8867C166.338 37.9554 166.377 38.0487 166.377 38.1459C166.377 38.2431 166.338 38.3364 166.27 38.4051C166.201 38.4739 166.108 38.5125 166.011 38.5125Z" fill="white"/>
<path d="M166.011 42.7156H149.519C149.422 42.7156 149.329 42.677 149.26 42.6083C149.191 42.5395 149.153 42.4463 149.153 42.349C149.153 42.2518 149.191 42.1586 149.26 42.0898C149.329 42.0211 149.422 41.9824 149.519 41.9824H166.011C166.059 41.9824 166.106 41.9919 166.151 42.0103C166.195 42.0288 166.236 42.0558 166.27 42.0898C166.304 42.1238 166.331 42.1643 166.349 42.2087C166.368 42.2532 166.377 42.3009 166.377 42.349C166.377 42.3972 166.368 42.4449 166.349 42.4893C166.331 42.5338 166.304 42.5742 166.27 42.6083C166.236 42.6423 166.195 42.6693 166.151 42.6877C166.106 42.7062 166.059 42.7156 166.011 42.7156Z" fill="white"/>
<path d="M166.011 46.9178H149.519C149.422 46.9178 149.329 46.8792 149.26 46.8105C149.191 46.7417 149.153 46.6485 149.153 46.5512C149.153 46.454 149.191 46.3608 149.26 46.292C149.329 46.2233 149.422 46.1846 149.519 46.1846H166.011C166.059 46.1846 166.106 46.1941 166.151 46.2125C166.195 46.231 166.236 46.258 166.27 46.292C166.304 46.326 166.331 46.3665 166.349 46.4109C166.368 46.4554 166.377 46.5031 166.377 46.5512C166.377 46.5994 166.368 46.6471 166.349 46.6915C166.331 46.736 166.304 46.7764 166.27 46.8105C166.236 46.8445 166.195 46.8715 166.151 46.8899C166.106 46.9084 166.059 46.9178 166.011 46.9178Z" fill="white"/>
<path d="M165.402 25.6104H161.004C160.802 25.6104 160.639 25.7739 160.639 25.9757V33.8579C160.639 34.0596 160.802 34.2232 161.004 34.2232H165.402C165.604 34.2232 165.767 34.0596 165.767 33.8579V25.9757C165.767 25.7739 165.604 25.6104 165.402 25.6104Z" fill="white"/>
<path d="M150.259 9.06853H147.792C147.774 8.1083 147.38 7.19347 146.695 6.52077C146.01 5.84806 145.088 5.47119 144.128 5.47119C143.168 5.47119 142.247 5.84806 141.562 6.52077C140.877 7.19347 140.483 8.1083 140.465 9.06853H137.999C137.669 9.06921 137.353 9.20089 137.12 9.43468C136.886 9.66846 136.755 9.98525 136.755 10.3155V15.1525C136.755 15.3161 136.787 15.4781 136.85 15.6293C136.912 15.7805 137.004 15.9179 137.119 16.0337C137.235 16.1495 137.372 16.2414 137.523 16.3042C137.674 16.3669 137.836 16.3993 137.999 16.3995H150.256C150.42 16.3997 150.582 16.3675 150.733 16.3049C150.884 16.2423 151.022 16.1505 151.138 16.0346C151.253 15.9188 151.345 15.7813 151.408 15.6299C151.47 15.4785 151.503 15.3163 151.502 15.1525V10.3155C151.502 9.98525 151.371 9.66846 151.138 9.43468C150.905 9.20089 150.589 9.06921 150.259 9.06853ZM144.131 10.6705C143.815 10.6708 143.505 10.577 143.242 10.4012C142.978 10.2253 142.773 9.97519 142.651 9.68248C142.53 9.38978 142.498 9.06763 142.56 8.75679C142.621 8.44595 142.774 8.16038 142.998 7.93621C143.221 7.71203 143.507 7.55933 143.817 7.49741C144.128 7.4355 144.45 7.46714 144.743 7.58836C145.035 7.70957 145.285 7.9149 145.461 8.17838C145.637 8.44185 145.731 8.75163 145.731 9.06853C145.732 9.27899 145.691 9.48751 145.611 9.68209C145.531 9.87668 145.413 10.0535 145.264 10.2024C145.116 10.3513 144.939 10.4693 144.745 10.5496C144.55 10.6299 144.342 10.671 144.131 10.6705Z" fill="#CC7133"/>
<path d="M76.5649 83.7862C76.5672 84.4025 76.3812 85.0048 76.0319 85.5124C75.6825 86.0199 75.1865 86.4086 74.6102 86.6262C74.34 86.7355 74.0536 86.7996 73.7626 86.816C73.6852 86.8267 73.6071 86.831 73.529 86.8289C73.4745 86.8322 73.4197 86.8322 73.3652 86.8289C73.0602 86.812 72.7593 86.7503 72.4723 86.6456C71.8897 86.4287 71.3876 86.0384 71.0337 85.5271C70.6798 85.0158 70.4911 84.4082 70.4932 83.7862C70.4941 83.4002 70.5695 83.018 70.7151 82.6606C70.7151 82.6606 70.7151 82.6606 70.7151 82.6477C70.7916 82.4523 70.8889 82.2658 71.0054 82.0913C71.1238 81.9118 71.2642 81.7478 71.4234 81.6033C71.9828 81.0523 72.7376 80.7455 73.5226 80.7501C73.9217 80.7492 74.317 80.8271 74.686 80.9793C75.055 81.1315 75.3904 81.355 75.673 81.637C75.9555 81.919 76.1798 82.2539 76.3328 82.6227C76.4858 82.9915 76.5647 83.3869 76.5649 83.7862Z" fill="#142232"/>
<path d="M89.7053 84.1892C89.7053 85.8674 88.5802 87.2267 87.1881 87.2267C87.1628 87.2298 87.1373 87.2298 87.112 87.2267C86.6756 87.2124 86.2542 87.0646 85.9043 86.8033C85.1651 86.2779 84.6709 85.3033 84.6709 84.1957C84.6709 82.5175 85.7972 81.1582 87.1881 81.1582C87.5114 81.1572 87.8303 81.2333 88.1183 81.3802C88.5141 81.5682 88.8522 81.8588 89.0976 82.2219C89.4991 82.7988 89.7114 83.4863 89.7053 84.1892Z" fill="#142232"/>
<path d="M78.0695 117.992L76.9006 118.479C76.7987 118.221 74.2944 112.209 73.8957 103.958C73.8389 102.75 73.9086 101.181 73.9976 99.3584C74.1808 95.3979 74.4144 90.4628 73.3654 86.8174C72.8493 85.0204 72.0185 83.5398 70.7218 82.6478C70.7983 82.4524 70.8956 82.2659 71.0121 82.0914C71.1305 81.9119 71.2709 81.748 71.4301 81.6035C73.0429 82.7046 74.0286 84.4951 74.6105 86.6212C75.6801 90.468 75.4452 95.416 75.2556 99.4216C75.173 101.206 75.0969 102.75 75.1549 103.901C75.5472 111.911 78.045 117.929 78.0695 117.992Z" fill="#DCEFF4"/>
<path d="M76.7302 118.466L77.8578 117.781C78.1159 117.626 78.4281 117.747 78.5559 118.052L80.086 121.674C80.1479 121.814 80.1597 121.972 80.1195 122.12C80.0794 122.268 79.9897 122.398 79.8654 122.487L78.3172 123.459C78.0359 123.636 77.6875 123.471 77.5856 123.113L76.4773 119.205C76.4359 119.071 76.438 118.927 76.4835 118.794C76.5289 118.661 76.6153 118.547 76.7302 118.466Z" fill="#202E51"/>
<path d="M90.117 118.055L88.8642 117.897C88.8706 117.809 89.9209 109.026 87.4282 102.01C85.3639 96.2007 84.8478 91.2282 85.9045 86.7992C86.3588 84.8886 87.1056 83.0597 88.1185 81.3774C88.5142 81.5654 88.8523 81.856 89.0977 82.2191C88.1851 83.7765 87.5155 85.4642 87.1121 87.2239C86.1574 91.3935 86.6631 96.082 88.6178 101.586C91.2162 108.893 90.1609 117.682 90.117 118.055Z" fill="#DCEFF4"/>
<path d="M88.9276 117.516L90.2836 117.842C90.4017 117.88 90.5034 117.957 90.5718 118.06C90.6403 118.164 90.6715 118.287 90.6603 118.411L90.5003 122.759C90.4874 123.108 90.2075 123.358 89.9197 123.275L87.6903 122.64C87.4322 122.565 87.2709 122.244 87.3496 121.938L88.3818 117.9C88.3921 117.839 88.4144 117.78 88.4475 117.727C88.4806 117.675 88.5238 117.63 88.5746 117.594C88.6253 117.558 88.6827 117.533 88.7433 117.52C88.8039 117.506 88.8665 117.505 88.9276 117.516Z" fill="#202E51"/>
<path d="M117.914 96.2725C114.344 99.7166 107.963 103.818 106.673 104.635L106.441 104.78L97.7012 105.322L94.8408 102.691L95.5788 101.893C98.1915 98.9486 118.835 88.9377 120.263 92.2411C120.663 93.1615 119.601 94.646 117.914 96.2725Z" fill="#FDBA9D"/>
<g style="mix-blend-mode:multiply" opacity="0.2">
<g style="mix-blend-mode:multiply" opacity="0.2">
<path d="M117.913 96.2715C114.343 99.7156 107.963 103.817 106.673 104.634L104.222 104.203C104.222 104.203 116.267 96.9518 117.913 96.2715Z" fill="#565554"/>
</g>
</g>
<path d="M114.866 121.598C115.176 122.838 115.69 126.28 112.046 128.342C110.137 129.422 107.895 130.387 105.9 130.618C104.081 130.831 102.47 130.441 101.501 128.987C101.332 128.732 101.242 128.433 101.243 128.126C101.229 124.913 110.056 119.796 110.056 119.796L105.001 104.537C108.439 103.815 111.017 105.879 111.395 108.458C111.773 111.038 112.84 110.215 113.562 112.176C114.283 114.137 112.566 114.066 112.976 115.403C113.386 116.741 115.21 117.536 115.487 118.502C115.763 119.467 114.555 120.357 114.866 121.598Z" fill="#FDBA9D"/>
<g style="mix-blend-mode:multiply" opacity="0.2">
<g style="mix-blend-mode:multiply" opacity="0.2">
<path d="M111.393 124.387C109.329 126.179 107.172 128.656 105.901 130.617C104.082 130.83 102.47 130.44 101.501 128.987C101.332 128.731 101.242 128.432 101.243 128.126L111.393 124.387Z" fill="#565554"/>
</g>
</g>
<path d="M90.1674 65.7498C89.0862 69.0971 84.7886 81.6871 81.2392 81.66C77.7557 81.6303 62.4564 64.6345 57.9897 59.5858C63.0706 58.1658 68.6017 57.6172 73.6399 58.952C80.4741 60.7696 85.7794 63.0351 90.1674 65.7498Z" fill="#F1F2F2"/>
<path d="M83.4121 61.1028C82.5347 67.9445 85.0661 74.4687 80.9607 74.2311C75.5986 73.9213 63.3236 60.2986 63.3236 60.2986C63.3236 60.2986 70.4404 41.1056 72.6131 33.5694L85.4815 54.8691C84.2739 56.857 83.6817 58.9948 83.4121 61.1028Z" fill="#FDBA9D"/>
<g style="mix-blend-mode:multiply" opacity="0.2">
<g style="mix-blend-mode:multiply" opacity="0.2">
<path d="M85.4853 54.8772C84.2738 56.8574 83.679 58.9951 83.4119 61.1031C79.74 57.4705 77.3415 50.3616 77.7776 48.668C78.2563 46.813 85.284 54.6538 85.4801 54.872L85.4853 54.8772Z" fill="#565554"/>
</g>
</g>
<path d="M71.8196 27.4487C68.2444 18.5738 72.9201 9.76346 78.7647 14.1706C79.0395 6.42522 87.5742 5.69458 89.9043 7.08358C96.7127 11.1434 96.7553 15.5363 99.6002 17.1293C104.827 20.0532 114.866 22.3574 108.264 32.1953C102.013 41.5129 100.013 32.953 100.013 32.953L77.4074 29.6496L71.8196 27.4487Z" fill="#142232"/>
<path d="M71.8196 27.4477C68.2444 18.5728 72.9201 9.76249 78.7647 14.1696C79.0395 6.42425 87.5742 5.6936 89.9043 7.0826C96.7127 11.1424 96.7553 15.5353 99.6002 17.1283C104.827 20.0522 114.866 22.3564 108.264 32.1943C102.013 41.5119 100.013 32.952 100.013 32.952L77.4074 29.6486L71.8196 27.4477Z" fill="#183E66"/>
<path d="M105.251 30.2902C105.032 35.2214 100.426 34.9646 100.426 34.9646C100.426 34.9646 102.006 28.6172 102.316 28.6172C102.625 28.6172 105.251 30.2902 105.251 30.2902Z" fill="#0D1926"/>
<path d="M102.534 29.9955C100.884 45.3726 99.3255 54.4179 90.2489 55.5551C83.7037 56.3749 74.88 48.8425 73.2298 39.9728C71.5796 31.1031 72.6105 33.5739 72.6105 33.5739L81.1723 20.9838L97.2624 20.0557L102.534 29.9955Z" fill="#FDBA9D"/>
<path d="M102.534 29.9955C100.884 45.3726 99.3255 54.4179 90.2489 55.5551C83.7037 56.3749 74.88 48.8425 73.2298 39.9728C71.5796 31.1031 72.6105 33.5739 72.6105 33.5739L81.1723 20.9838L97.2624 20.0557L102.534 29.9955Z" fill="#FDBA9D"/>
<path d="M90.9621 43.3692C90.2744 43.3692 89.4822 42.8064 88.601 41.691C88.5839 41.6713 88.5709 41.6482 88.563 41.6233C88.555 41.5984 88.5521 41.5721 88.5546 41.5461C88.557 41.5201 88.5647 41.4948 88.5772 41.4718C88.5896 41.4488 88.6066 41.4286 88.6271 41.4124C88.6476 41.3961 88.6712 41.3842 88.6964 41.3774C88.7217 41.3705 88.748 41.3688 88.7739 41.3724C88.7998 41.376 88.8247 41.3848 88.8471 41.3983C88.8695 41.4118 88.8889 41.4297 88.9042 41.4509C89.5661 42.2887 90.5131 43.2246 91.2679 42.9251C92.0226 42.6256 92.5581 41.1876 92.8161 38.8627C93.0432 36.7843 93.0342 34.0864 92.7916 31.2671C92.7895 31.2417 92.7924 31.2161 92.8001 31.1918C92.8079 31.1675 92.8204 31.1449 92.8369 31.1254C92.8533 31.106 92.8735 31.0899 92.8961 31.0782C92.9188 31.0665 92.9436 31.0594 92.969 31.0573C92.9944 31.0552 93.02 31.0581 93.0443 31.0659C93.0686 31.0736 93.0911 31.0861 93.1106 31.1026C93.13 31.1191 93.1461 31.1393 93.1577 31.1619C93.1694 31.1846 93.1765 31.2094 93.1787 31.2348C93.6148 36.2977 93.416 42.4914 91.4149 43.284C91.2709 43.3415 91.1171 43.3705 90.9621 43.3692Z" fill="#142232"/>
<path d="M77.082 26.9951C77.082 26.9951 76.2782 31.8747 77.3839 29.9642C78.4896 28.0536 80.0004 23.835 83.1317 22.8927C88.9583 21.1383 101.285 32.1806 106.081 30.0648C110.876 27.9491 96.4363 18.0957 96.2815 18.0957C96.1266 18.0957 86.3805 18.7657 84.6787 20.0566C82.9769 21.3475 81.9254 20.1418 81.1719 20.9847C80.2946 21.9658 78.3089 24.2119 78.3089 24.4159C78.3089 24.6199 77.082 26.9951 77.082 26.9951Z" fill="#183E66"/>
<path d="M72.3457 34.4695C69.1034 31.6101 69.2583 26.9668 71.5277 25.5739C73.9546 24.0829 77.6652 24.5412 77.4072 29.6493C77.1492 34.7573 72.3457 34.4695 72.3457 34.4695Z" fill="#FDBA9D"/>
<path d="M89.4761 74.0246C87.1022 77.5862 82.0485 82.8027 82.0485 82.8027L76.4787 80.1202L54.5607 69.3877C53.1931 68.0723 51.2746 66.6317 49.7753 65.5667H49.7663C48.4438 64.6243 47.4439 63.9815 47.4439 63.9815L43.0753 66.855C42.3889 63.407 43.9359 60.0546 44.7603 58.7146C45.4639 57.6186 46.2222 56.5588 47.0324 55.539C47.1988 55.3273 47.373 55.1092 47.5485 54.8936C47.5632 54.8772 47.577 54.86 47.5897 54.842C49.396 52.6475 51.7055 50.28 53.624 49.7055C55.7877 49.0601 65.5081 48.039 67.6305 48.434L67.1763 49.7055C60.2595 51.3424 58.679 52.1698 58.5423 54.3708C58.4055 56.5718 78.0011 81.6822 81.2318 81.6822C84.4624 81.6822 90.6503 62.4892 89.2104 60.2882C87.7705 58.0873 84.8172 56.1212 84.8172 56.1212L85.4778 54.8988C85.4778 54.8988 90.6877 56.666 91.8579 58.6023C95.304 64.2719 91.8462 70.4656 89.4761 74.0246Z" fill="#007AFF"/>
<g style="mix-blend-mode:multiply" opacity="0.2">
<g style="mix-blend-mode:multiply" opacity="0.2">
<path d="M48.8179 65.2139L43.0791 66.8456C42.3927 63.3977 43.9397 60.0452 44.7641 58.7053C45.4677 57.6093 46.226 56.5494 47.0361 55.5297C44.0235 59.9187 48.578 64.9764 48.8231 65.2113L48.8179 65.2139Z" fill="#565554"/>
</g>
</g>
<path d="M13.2344 167.111C18.7693 178.36 27.2628 185.137 43.6277 180.595C60.2365 175.987 87.4469 143.307 101.24 131.335C108.278 125.227 111.393 124.386 111.393 124.386C111.393 124.386 109.176 106.636 106.443 104.779C104.853 103.698 101.991 102.287 99.8741 101.293C99.1167 100.938 98.2657 100.833 97.4445 100.993C96.6233 101.154 95.8746 101.572 95.3068 102.187C84.3039 114.093 61.0416 135.54 44.7308 145.645C27.4021 156.377 16.8134 159.266 16.8134 159.266L13.2344 167.111Z" fill="#FDBA9D"/>
<path d="M48.9907 108.08C45.1395 116.613 44.1782 133.398 44.733 145.645L13.234 167.111C9.52081 155.552 11.7374 127.62 19.6979 106.705C26.4754 88.9025 33.7753 74.278 43.0816 66.8437C44.4386 65.744 45.901 64.7815 47.4476 63.9702L54.5605 69.3816L48.9907 108.08Z" fill="#007AFF"/>
<path d="M162.45 120.413C167.984 120.775 171.32 119.433 171.905 118.642C172.489 117.851 171.836 116.303 172.248 115.753C172.66 115.203 174.552 114.789 175.446 113.171C176.341 111.554 174.621 109.249 175.24 107.702C175.859 106.154 178.265 104.64 178.953 102.645C179.641 100.651 178.437 98.4138 178.953 96.8996C179.469 95.3853 181.119 94.2855 181.359 92.7687C181.599 91.2519 181.291 80.1438 177.611 79.4209C177.611 79.4209 174.999 85.9231 172.248 89.0871L168.741 103.4L166.161 105.875L164.028 111.929L163.023 116.608L162.45 120.413Z" fill="#FDBA9D"/>
<path d="M139.448 116.956L136.871 114.067L153.58 71.4453L156.158 74.3343L139.448 116.956Z" fill="#798797"/>
<path d="M156.157 74.3343H179.57L176.992 71.4453H153.579L156.157 74.3343Z" fill="#798797"/>
<path d="M89.1484 47.594H89.1342C87.0531 47.4442 85.1269 46.4102 83.7154 44.6817C82.3692 43.0312 81.6372 40.9643 81.6446 38.834C81.6446 38.8084 81.6497 38.7831 81.6596 38.7595C81.6695 38.7359 81.684 38.7145 81.7023 38.6966C81.7205 38.6787 81.7422 38.6646 81.766 38.6552C81.7897 38.6457 81.8151 38.6411 81.8407 38.6416C81.8919 38.6427 81.9407 38.6638 81.9764 38.7005C82.0122 38.7373 82.032 38.7866 82.0316 38.8379C82.0243 40.8747 82.7234 42.8511 84.0095 44.43C85.3578 46.0759 87.1886 47.0608 89.1626 47.2028C89.2139 47.2047 89.2624 47.2269 89.2974 47.2646C89.3324 47.3022 89.3509 47.3522 89.3491 47.4036C89.3472 47.4549 89.325 47.5034 89.2874 47.5384C89.2497 47.5734 89.1998 47.592 89.1484 47.5901V47.594Z" fill="#142232"/>
<path d="M72.6862 31.8556C72.6566 31.8556 72.6274 31.8489 72.6008 31.8359C72.5742 31.8229 72.5509 31.8041 72.5327 31.7807C71.1328 29.9541 71.5005 28.436 72.3043 27.6254C72.9004 27.029 73.7132 26.8573 74.1958 27.2252C74.216 27.2406 74.233 27.2599 74.2458 27.2819C74.2586 27.3039 74.267 27.3282 74.2704 27.3534C74.2738 27.3787 74.2722 27.4043 74.2657 27.4289C74.2592 27.4536 74.2479 27.4767 74.2325 27.4969C74.2171 27.5172 74.1979 27.5342 74.1759 27.547C74.1539 27.5598 74.1296 27.5682 74.1044 27.5716C74.0791 27.575 74.0535 27.5734 74.0289 27.5669C74.0043 27.5604 73.9812 27.5491 73.9609 27.5337C73.6371 27.2858 73.0294 27.4472 72.5791 27.899C71.8863 28.5935 71.5908 29.9167 72.8372 31.5445C72.8684 31.5851 72.8822 31.6364 72.8757 31.6872C72.8692 31.738 72.8428 31.7842 72.8023 31.8156C72.7689 31.841 72.7282 31.855 72.6862 31.8556Z" fill="#142232"/>
<path d="M172.248 89.0942C164.765 94.0487 152.032 90.6433 151.62 93.6356C151.209 96.6279 154.544 97.4205 156.984 98.1756C158.645 98.692 165.183 99.26 168.948 99.1051C172.712 98.9502 174.466 92.1924 174.466 92.1924L172.248 89.0942Z" fill="#FDBA9D"/>
<path d="M156.983 98.1735C152.238 96.8323 148.422 97.0388 147.907 98.8964C147.392 100.754 149.713 102.87 155.848 104.469C161.983 106.069 166.988 107.41 167.246 107.41C167.504 107.41 172.248 102.199 172.248 102.044C172.248 101.889 170.441 99.1288 170.441 99.1288L160.334 98.2768L156.983 98.1735Z" fill="#FDBA9D"/>
<path d="M153.377 103.729C148.761 102.095 144.777 107.049 150.639 109.422C156.502 111.794 164.793 114.339 164.718 114.531C164.358 115.459 167.762 110.506 167.968 110.248C168.175 109.99 166.318 105.243 166.318 105.243L153.377 103.729Z" fill="#FDBA9D"/>
<path d="M151.584 110.249C147.836 108.944 144.862 111.771 149.092 114.647C153.321 117.523 160.489 120.258 162.449 120.413C164.409 120.568 164.203 113.086 164.203 113.086L151.584 110.249Z" fill="#FDBA9D"/>
<g style="mix-blend-mode:multiply" opacity="0.2">
<g style="mix-blend-mode:multiply" opacity="0.2">
<path d="M54.5604 69.3807C49.3442 65.8488 43.3047 66.7989 43.0776 66.8428C44.4346 65.7431 45.8971 64.7805 47.4437 63.9692L54.5604 69.3807Z" fill="#565554"/>
</g>
</g>
<path d="M47.5988 54.8223L47.5562 54.87C47.5705 54.8541 47.5839 54.8373 47.5963 54.8198L47.5988 54.8223Z" fill="#565554"/>
</svg>
