<svg width="150" height="150" viewBox="0 0 150 150" fill="none" xmlns="http://www.w3.org/2000/svg">
<path d="M99.107 25.5824C99.8142 21.2061 96.8399 17.0851 92.4636 16.3778C88.0873 15.6705 83.9663 18.6449 83.259 23.0211C82.5518 27.3974 85.5261 31.5185 89.9024 32.2257C94.2786 32.933 98.3997 29.9587 99.107 25.5824Z" fill="#EBEBEB"/>
<path d="M99.1435 26.0377C99.8245 21.8747 97.0017 17.9479 92.8387 17.2669C88.6757 16.5859 84.7488 19.4087 84.0679 23.5717C83.3869 27.7347 86.2096 31.6616 90.3727 32.3425C94.5357 33.0235 98.4625 30.2008 99.1435 26.0377Z" fill="#DBDBDB"/>
<path d="M94.7537 31.2937C98.4287 29.7921 100.191 25.5956 98.6889 21.9206C97.1873 18.2457 92.9909 16.4838 89.3159 17.9854C85.6409 19.487 83.879 23.6835 85.3806 27.3584C86.8822 31.0334 91.0787 32.7953 94.7537 31.2937Z" fill="white"/>
<path d="M91.7011 18.168H91.5181V19.254H91.7011V18.168Z" fill="#EBEBEB"/>
<path d="M88.3737 19.0203L88.2152 19.1118L88.758 20.0524L88.9165 19.9609L88.3737 19.0203Z" fill="#EBEBEB"/>
<path d="M85.997 21.0691L85.9055 21.2283L86.8503 21.7713L86.9418 21.6121L85.997 21.0691Z" fill="#EBEBEB"/>
<path d="M86.0611 24.714H84.9751V24.897H86.0611V24.714Z" fill="#EBEBEB"/>
<path d="M86.7604 27.5055L85.8199 28.0487L85.9115 28.2072L86.8519 27.664L86.7604 27.5055Z" fill="#EBEBEB"/>
<path d="M88.7559 29.5639L88.2134 30.5047L88.3719 30.5961L88.9144 29.6553L88.7559 29.5639Z" fill="#EBEBEB"/>
<path d="M91.7011 30.357H91.5181V31.443H91.7011V30.357Z" fill="#EBEBEB"/>
<path d="M94.4676 29.5748L94.3091 29.6663L94.8521 30.6068L95.0106 30.5153L94.4676 29.5748Z" fill="#EBEBEB"/>
<path d="M96.4603 27.5021L96.3688 27.6606L97.3067 28.2021L97.3982 28.0436L96.4603 27.5021Z" fill="#EBEBEB"/>
<path d="M98.247 24.714H97.161V24.897H98.247V24.714Z" fill="#EBEBEB"/>
<path d="M97.3081 21.4063L96.3702 21.9478L96.4617 22.1063L97.3996 21.5648L97.3081 21.4063Z" fill="#EBEBEB"/>
<path d="M94.8549 19.0164L94.3124 19.9572L94.4709 20.0486L95.0134 19.1078L94.8549 19.0164Z" fill="#EBEBEB"/>
<path d="M92.6699 22.5092L89.5308 28.6807L89.6939 28.7637L92.833 22.5922L92.6699 22.5092Z" fill="#EBEBEB"/>
<path d="M91.2438 22.3454L91.0055 22.3931L92.344 29.0794L92.5823 29.0317L91.2438 22.3454Z" fill="#DBDBDB"/>
<path d="M68.1001 76.446H16.5961V16.968H68.1001V76.446ZM17.7931 75.246H66.9001V18.168H17.7961L17.7931 75.246Z" fill="#EBEBEB"/>
<path d="M42.48 18.483H41.28V75.846H42.48V18.483Z" fill="#EBEBEB"/>
<path d="M69.1921 19.395H15.5071V21.066H69.1921V19.395Z" fill="#EBEBEB"/>
<path d="M69.1921 21.276H15.5071V22.947H69.1921V21.276Z" fill="#EBEBEB"/>
<path d="M69.1921 23.154H15.5071V24.825H69.1921V23.154Z" fill="#EBEBEB"/>
<path d="M69.1921 25.035H15.5071V26.706H69.1921V25.035Z" fill="#EBEBEB"/>
<path d="M69.1921 26.916H15.5071V28.587H69.1921V26.916Z" fill="#EBEBEB"/>
<path d="M69.1921 28.794H15.5071V30.465H69.1921V28.794Z" fill="#EBEBEB"/>
<path d="M69.1921 30.675H15.5071V32.346H69.1921V30.675Z" fill="#EBEBEB"/>
<path d="M69.1921 32.556H15.5071V34.227H69.1921V32.556Z" fill="#EBEBEB"/>
<path d="M69.1921 34.434H15.5071V36.105H69.1921V34.434Z" fill="#EBEBEB"/>
<path d="M65.628 19.056H65.328V57.573H65.628V19.056Z" fill="#263238"/>
<path d="M66.0091 58.971H64.9441L65.2111 57.441H65.7421L66.0091 58.971Z" fill="#263238"/>
<path d="M66.7081 19.056H66.4081V74.775H66.7081V19.056Z" fill="#263238"/>
<path d="M67.0891 75.9H66.0271L66.2911 74.37H66.8251L67.0891 75.9Z" fill="#263238"/>
<path d="M71.052 16.734H13.644V20.229H71.052V16.734Z" fill="#DBDBDB"/>
<path d="M137.844 30.498H105.48V71.253H137.844V30.498Z" fill="#EBEBEB"/>
<path d="M133.725 38.919H109.488V39.69H133.725V38.919Z" fill="#DBDBDB"/>
<path d="M130.011 40.533H109.488V41.304H130.011V40.533Z" fill="#DBDBDB"/>
<path d="M125.139 42.144H109.488V42.915H125.139V42.144Z" fill="#DBDBDB"/>
<path d="M132.879 43.758H109.488V44.529H132.879V43.758Z" fill="#DBDBDB"/>
<path d="M130.89 45.369H109.488V46.14H130.89V45.369Z" fill="#DBDBDB"/>
<path d="M131.697 48.594H109.488V49.365H131.697V48.594Z" fill="#DBDBDB"/>
<path d="M117.996 50.208H109.488V50.979H117.996V50.208Z" fill="#DBDBDB"/>
<path d="M126.645 51.819H109.488V52.59H126.645V51.819Z" fill="#DBDBDB"/>
<path d="M132.879 53.433H109.488V54.204H132.879V53.433Z" fill="#DBDBDB"/>
<path d="M129.657 55.044H109.488V55.815H129.657V55.044Z" fill="#DBDBDB"/>
<path d="M131.343 58.269H109.488V59.04H131.343V58.269Z" fill="#DBDBDB"/>
<path d="M122.718 59.883H109.488V60.654H122.718V59.883Z" fill="#DBDBDB"/>
<path d="M122.718 64.764H109.488V65.535H122.718V64.764Z" fill="#DBDBDB"/>
<path d="M131.682 67.986C133.036 67.986 134.133 66.8886 134.133 65.535C134.133 64.1813 133.036 63.084 131.682 63.084C130.328 63.084 129.231 64.1813 129.231 65.535C129.231 66.8886 130.328 67.986 131.682 67.986Z" fill="#47B88F"/>
<path d="M113.1 33.639C113.394 33.6391 113.68 33.7373 113.913 33.918C113.923 33.9251 113.931 33.934 113.937 33.9443C113.943 33.9546 113.946 33.9659 113.948 33.9778C113.949 33.9896 113.948 34.0015 113.945 34.0129C113.941 34.0243 113.936 34.0349 113.928 34.044C113.921 34.0534 113.913 34.0613 113.903 34.0672C113.893 34.0732 113.882 34.0772 113.87 34.0789C113.859 34.0805 113.847 34.0799 113.836 34.077C113.825 34.0741 113.814 34.069 113.805 34.062C113.605 33.9026 113.356 33.8158 113.1 33.816C112.808 33.816 112.528 33.932 112.321 34.1385C112.115 34.345 111.999 34.625 111.999 34.917C111.999 35.209 112.115 35.489 112.321 35.6955C112.528 35.902 112.808 36.018 113.1 36.018C113.354 36.0218 113.602 35.9358 113.799 35.775C113.808 35.7672 113.819 35.7615 113.831 35.7583C113.843 35.7551 113.855 35.7545 113.867 35.7565C113.879 35.7585 113.89 35.763 113.9 35.7699C113.91 35.7767 113.919 35.7856 113.925 35.796C113.934 35.8039 113.941 35.8136 113.946 35.8244C113.951 35.8353 113.953 35.8471 113.953 35.859C113.953 35.8709 113.951 35.8827 113.946 35.8936C113.941 35.9044 113.934 35.9141 113.925 35.922C113.691 36.0997 113.406 36.1957 113.112 36.195C112.944 36.195 112.778 36.1619 112.623 36.0977C112.468 36.0335 112.327 35.9394 112.208 35.8207C112.09 35.702 111.995 35.5611 111.931 35.4061C111.867 35.251 111.834 35.0848 111.834 34.917C111.834 34.7492 111.867 34.583 111.931 34.4279C111.995 34.2729 112.09 34.132 112.208 34.0133C112.327 33.8946 112.468 33.8005 112.623 33.7363C112.778 33.6721 112.944 33.639 113.112 33.639H113.1Z" fill="#A6A6A6"/>
<path d="M115.701 33.639C115.957 33.6258 116.211 33.6896 116.43 33.8223C116.649 33.9549 116.824 34.1502 116.931 34.383C117.038 34.6158 117.073 34.8753 117.031 35.1281C116.989 35.3809 116.872 35.6152 116.695 35.8009C116.519 35.9866 116.291 36.1151 116.04 36.1698C115.79 36.2245 115.529 36.2028 115.291 36.1076C115.053 36.0125 114.849 35.8481 114.706 35.6359C114.562 35.4236 114.486 35.1732 114.486 34.917C114.481 34.753 114.508 34.5897 114.567 34.4364C114.625 34.2831 114.713 34.143 114.827 34.0241C114.94 33.9052 115.075 33.8099 115.225 33.7438C115.375 33.6777 115.537 33.6421 115.701 33.639ZM115.701 36.018C115.921 36.0306 116.14 35.9769 116.329 35.8638C116.518 35.7508 116.669 35.5836 116.762 35.3838C116.855 35.1841 116.886 34.961 116.851 34.7434C116.816 34.5259 116.716 34.3239 116.565 34.1635C116.414 34.0032 116.218 33.8919 116.003 33.8441C115.788 33.7962 115.563 33.814 115.359 33.8952C115.154 33.9763 114.978 34.1171 114.854 34.2993C114.73 34.4814 114.663 34.6966 114.663 34.917C114.655 35.2006 114.76 35.4758 114.954 35.6822C115.149 35.8886 115.418 36.0094 115.701 36.018Z" fill="#A6A6A6"/>
<path d="M117.747 34.047V36.108C117.749 36.1206 117.749 36.1335 117.746 36.1459C117.743 36.1583 117.737 36.1698 117.729 36.1796C117.72 36.1895 117.71 36.1974 117.699 36.2028C117.687 36.2083 117.674 36.2111 117.662 36.2111C117.649 36.2111 117.636 36.2083 117.625 36.2028C117.613 36.1974 117.603 36.1895 117.595 36.1796C117.586 36.1698 117.581 36.1583 117.577 36.1459C117.574 36.1335 117.574 36.1206 117.576 36.108V33.798C117.57 33.7809 117.57 33.7623 117.575 33.745C117.581 33.7277 117.591 33.7126 117.606 33.702C117.625 33.6889 117.649 33.6838 117.672 33.6877C117.695 33.6916 117.715 33.7043 117.729 33.723L119.256 35.823V33.774C119.256 33.7514 119.265 33.7298 119.28 33.7135C119.296 33.6973 119.318 33.6878 119.34 33.687C119.352 33.6866 119.363 33.6885 119.374 33.6927C119.385 33.6969 119.395 33.7033 119.404 33.7114C119.412 33.7195 119.419 33.7292 119.423 33.74C119.428 33.7508 119.43 33.7623 119.43 33.774V36.093C119.43 36.1047 119.428 36.1162 119.423 36.127C119.419 36.1378 119.412 36.1475 119.404 36.1556C119.395 36.1637 119.385 36.1701 119.374 36.1743C119.363 36.1785 119.352 36.1804 119.34 36.18C119.327 36.1799 119.315 36.1769 119.303 36.1711C119.292 36.1654 119.282 36.1572 119.274 36.147C119.271 36.1458 119.267 36.1438 119.265 36.1412C119.262 36.1386 119.26 36.1355 119.259 36.132L117.747 34.047Z" fill="#A6A6A6"/>
<path d="M120.954 33.852H120.195C120.172 33.8512 120.15 33.8414 120.133 33.8246C120.117 33.8078 120.108 33.7854 120.108 33.762C120.109 33.7392 120.118 33.7175 120.134 33.7013C120.151 33.6852 120.172 33.6758 120.195 33.675H121.887C121.91 33.6758 121.932 33.6852 121.948 33.7013C121.964 33.7175 121.973 33.7392 121.974 33.762C121.974 33.7854 121.965 33.8078 121.949 33.8246C121.933 33.8414 121.91 33.8512 121.887 33.852H121.128V36.108C121.128 36.1311 121.119 36.1532 121.103 36.1695C121.086 36.1858 121.064 36.195 121.041 36.195C121.018 36.195 120.996 36.1858 120.98 36.1695C120.963 36.1532 120.954 36.1311 120.954 36.108V33.852Z" fill="#A6A6A6"/>
<path d="M123.9 35.625C123.9 35.5496 123.882 35.4753 123.846 35.4088C123.81 35.3423 123.759 35.2857 123.696 35.244C123.605 35.1836 123.503 35.1408 123.396 35.118H123.378H122.778V36.114C122.774 36.1347 122.763 36.1534 122.747 36.1668C122.731 36.1803 122.711 36.1876 122.69 36.1876C122.669 36.1876 122.648 36.1803 122.632 36.1668C122.616 36.1534 122.605 36.1347 122.601 36.114V33.768C122.602 33.7468 122.611 33.7266 122.625 33.7107C122.639 33.6949 122.658 33.6844 122.679 33.681H123.399C123.562 33.6827 123.72 33.7396 123.846 33.8424C123.972 33.9452 124.06 34.0879 124.095 34.2471C124.13 34.4062 124.11 34.5725 124.038 34.7187C123.966 34.8649 123.846 34.9824 123.699 35.052C123.71 35.0598 123.722 35.0658 123.735 35.07C123.837 35.1247 123.922 35.2056 123.981 35.3042C124.041 35.4029 124.073 35.5157 124.074 35.631C124.069 35.7319 124.079 35.8331 124.104 35.931C124.111 35.9538 124.123 35.9744 124.14 35.991C124.16 35.9886 124.181 35.9929 124.199 36.0032C124.217 36.0134 124.231 36.0291 124.239 36.048C124.245 36.0711 124.242 36.0954 124.232 36.1168C124.221 36.1381 124.204 36.1552 124.182 36.165H124.131C124.096 36.1616 124.063 36.149 124.034 36.1284C124.006 36.1079 123.983 36.0801 123.969 36.048C123.911 35.9151 123.887 35.7696 123.9 35.625ZM123.396 33.852H122.775V34.938H123.411C123.555 34.936 123.692 34.8769 123.793 34.7737C123.893 34.6704 123.949 34.5315 123.947 34.3875C123.945 34.2435 123.885 34.1062 123.782 34.0057C123.679 33.9053 123.54 33.85 123.396 33.852Z" fill="#A6A6A6"/>
<path d="M126.264 35.544H125.115L124.893 36.144C124.887 36.1606 124.876 36.175 124.861 36.1852C124.847 36.1953 124.83 36.2009 124.812 36.201H124.779C124.757 36.1917 124.74 36.1744 124.73 36.1526C124.721 36.1309 124.72 36.1063 124.728 36.084L125.601 33.75C125.609 33.7337 125.621 33.72 125.637 33.7104C125.652 33.7009 125.67 33.6959 125.688 33.696C125.706 33.6951 125.724 33.6998 125.74 33.7094C125.755 33.7191 125.768 33.7332 125.775 33.75L126.648 36.084C126.656 36.1056 126.657 36.1296 126.648 36.1512C126.64 36.1729 126.624 36.1906 126.603 36.201H126.57C126.552 36.2007 126.534 36.1951 126.52 36.185C126.505 36.1749 126.493 36.1606 126.486 36.144L126.264 35.544ZM125.181 35.367H126.201L125.691 34.014L125.181 35.367Z" fill="#A6A6A6"/>
<path d="M128.265 33.639C128.559 33.6391 128.846 33.7373 129.078 33.918C129.088 33.9251 129.096 33.934 129.102 33.9443C129.108 33.9546 129.111 33.9659 129.113 33.9778C129.114 33.9896 129.113 34.0015 129.11 34.0129C129.106 34.0243 129.101 34.0349 129.093 34.044C129.086 34.0534 129.078 34.0613 129.068 34.0672C129.058 34.0732 129.047 34.0772 129.035 34.0789C129.024 34.0805 129.012 34.0799 129.001 34.077C128.99 34.0741 128.979 34.069 128.97 34.062C128.77 33.9026 128.521 33.8158 128.265 33.816C127.973 33.816 127.693 33.932 127.487 34.1385C127.28 34.345 127.164 34.625 127.164 34.917C127.164 35.209 127.28 35.489 127.487 35.6955C127.693 35.902 127.973 36.018 128.265 36.018C128.519 36.0218 128.767 35.9358 128.964 35.775C128.973 35.7672 128.984 35.7615 128.996 35.7583C129.008 35.7551 129.02 35.7545 129.032 35.7565C129.044 35.7585 129.055 35.763 129.065 35.7699C129.075 35.7767 129.084 35.7856 129.09 35.796C129.099 35.8039 129.106 35.8136 129.111 35.8244C129.116 35.8353 129.118 35.8471 129.118 35.859C129.118 35.8709 129.116 35.8827 129.111 35.8936C129.106 35.9044 129.099 35.9141 129.09 35.922C128.856 36.0997 128.571 36.1957 128.277 36.195C128.109 36.195 127.943 36.1619 127.788 36.0977C127.633 36.0335 127.492 35.9394 127.373 35.8207C127.255 35.702 127.161 35.5611 127.096 35.4061C127.032 35.251 126.999 35.0848 126.999 34.917C126.999 34.7492 127.032 34.583 127.096 34.4279C127.161 34.2729 127.255 34.132 127.373 34.0133C127.492 33.8946 127.633 33.8005 127.788 33.7363C127.943 33.6721 128.109 33.639 128.277 33.639H128.265Z" fill="#A6A6A6"/>
<path d="M130.5 33.852H129.741C129.718 33.8512 129.696 33.8414 129.679 33.8246C129.663 33.8078 129.654 33.7854 129.654 33.762C129.655 33.7392 129.664 33.7175 129.68 33.7013C129.697 33.6852 129.718 33.6758 129.741 33.675H131.433C131.456 33.6758 131.478 33.6852 131.494 33.7013C131.51 33.7175 131.519 33.7392 131.52 33.762C131.52 33.7737 131.519 33.7853 131.514 33.7962C131.51 33.8071 131.504 33.8171 131.496 33.8255C131.488 33.8339 131.478 33.8405 131.467 33.8451C131.456 33.8497 131.445 33.852 131.433 33.852H130.674V36.108C130.674 36.1311 130.665 36.1532 130.649 36.1695C130.632 36.1858 130.61 36.195 130.587 36.195C130.564 36.195 130.542 36.1858 130.526 36.1695C130.509 36.1532 130.5 36.1311 130.5 36.108V33.852Z" fill="#A6A6A6"/>
<path d="M77.0971 109.842H136.53L137.766 85.458H75.8611L77.0971 109.842Z" fill="#EBEBEB"/>
<path d="M133.713 96.621H108.864L108.399 88.155H134.256L133.713 96.621ZM109.149 96.321H133.431L133.935 88.455H108.717L109.149 96.321Z" fill="#DBDBDB"/>
<path d="M133.254 106.359H109.839L109.458 98.718H133.731L133.254 106.359ZM110.124 106.059H132.972L133.413 99.018H109.773L110.124 106.059Z" fill="#DBDBDB"/>
<path d="M123.681 93.3H119.505L119.244 91.257H123.945L123.681 93.3ZM119.781 93H123.429L123.615 91.557H119.595L119.781 93Z" fill="#DBDBDB"/>
<path d="M123.681 103.56H119.505L119.244 101.517H123.945L123.681 103.56ZM119.781 103.26H123.429L123.615 101.817H119.595L119.781 103.26Z" fill="#DBDBDB"/>
<path d="M104.487 96.621H79.6381L79.1731 88.155H105.03L104.487 96.621ZM79.9231 96.321H104.205L104.7 88.455H79.5001L79.9231 96.321Z" fill="#DBDBDB"/>
<path d="M104.028 106.359H80.6131L80.2321 98.718H104.505L104.028 106.359ZM80.8981 106.059H103.746L104.187 99.018H80.5471L80.8981 106.059Z" fill="#DBDBDB"/>
<path d="M94.4551 93.3H90.2791L90.0181 91.257H94.7191L94.4551 93.3ZM90.5551 93H94.2001L94.3861 91.557H90.3661L90.5551 93Z" fill="#DBDBDB"/>
<path d="M94.4551 103.56H90.2791L90.0181 101.517H94.7191L94.4551 103.56ZM90.5551 103.26H94.2001L94.3861 101.817H90.3661L90.5551 103.26Z" fill="#DBDBDB"/>
<path d="M82.4281 109.842L82.0531 112.5L81.3031 117.837H79.8361V109.842H82.4281Z" fill="#EBEBEB"/>
<path d="M82.4281 109.842L82.0531 112.5H79.8361V109.842H82.4281Z" fill="#DBDBDB"/>
<path d="M131.199 109.842L131.571 112.5L132.324 117.837H133.791V109.842H131.199Z" fill="#EBEBEB"/>
<path d="M131.199 109.842L131.571 112.5H133.791V109.842H131.199Z" fill="#DBDBDB"/>
<path d="M74.9999 141.873C104.896 141.873 129.132 138.715 129.132 134.82C129.132 130.925 104.896 127.767 74.9999 127.767C45.1036 127.767 20.8679 130.925 20.8679 134.82C20.8679 138.715 45.1036 141.873 74.9999 141.873Z" fill="#EBEBEB"/>
<path d="M25.3439 127.101C34.2943 127.101 41.5499 125.363 41.5499 123.219C41.5499 121.075 34.2943 119.337 25.3439 119.337C16.3936 119.337 9.13794 121.075 9.13794 123.219C9.13794 125.363 16.3936 127.101 25.3439 127.101Z" fill="#EBEBEB"/>
<path d="M10.02 117.837L26.265 117.765L42.51 117.738L75 117.69L107.49 117.738L123.735 117.765L139.98 117.837L123.735 117.912L107.49 117.939L75 117.987L42.51 117.939L26.265 117.912L10.02 117.837Z" fill="#263238"/>
<path d="M25.821 65.883C25.821 65.883 17.754 64.755 19.638 55.014C19.638 55.014 28.653 57.039 25.821 65.883Z" fill="#47B88F"/>
<path opacity="0.1" d="M25.821 65.883C25.821 65.883 17.754 64.755 19.638 55.014C19.638 55.014 28.653 57.039 25.821 65.883Z" fill="black"/>
<path d="M25.413 63.849C25.2554 63.3568 25.0722 62.8731 24.864 62.4C24.864 62.337 24.864 62.274 24.843 62.214C24.843 62.079 24.819 61.947 24.81 61.812C24.786 61.512 24.768 61.23 24.75 60.939C24.717 60.357 24.681 59.775 24.672 59.193C24.672 59.16 24.621 59.163 24.621 59.193C24.621 59.778 24.621 60.36 24.621 60.942C24.621 61.242 24.651 61.524 24.669 61.815C24.669 61.881 24.669 61.944 24.669 62.01C24.2156 61.0399 23.6733 60.114 23.049 59.244C22.786 58.8563 22.5026 58.4827 22.2 58.125C21.879 57.756 21.54 57.405 21.213 57.042C21.192 57.018 21.159 57.042 21.18 57.078C21.7593 57.7187 22.2794 58.4105 22.734 59.145C22.98 59.514 23.211 59.895 23.433 60.282L23.358 60.255L23.058 60.138L22.398 59.889C21.966 59.727 21.534 59.571 21.102 59.406C21.075 59.406 21.057 59.442 21.084 59.451C21.513 59.622 21.936 59.802 22.362 59.985L22.986 60.255L23.301 60.384C23.3686 60.4178 23.4402 60.443 23.514 60.459C23.676 60.759 23.838 61.044 23.988 61.344C24.3622 62.0987 24.6908 62.875 24.972 63.669C24.993 63.723 25.011 63.78 25.032 63.837C24.8189 63.7144 24.5974 63.6071 24.369 63.516L23.535 63.138C22.968 62.877 22.407 62.613 21.864 62.307C21.8585 62.3038 21.8519 62.303 21.8457 62.3047C21.8395 62.3064 21.8342 62.3104 21.831 62.316C21.8279 62.3216 21.827 62.3282 21.8287 62.3344C21.8304 62.3406 21.8345 62.3458 21.84 62.349C22.395 62.649 22.938 62.976 23.493 63.276C23.772 63.426 24.051 63.576 24.336 63.711C24.5706 63.8504 24.8257 63.9517 25.092 64.011C25.3627 64.7492 25.5411 65.518 25.623 66.3C25.713 67.401 25.704 68.511 25.731 69.615H25.758C25.839 68.613 25.884 67.602 25.89 66.597C25.8782 65.6615 25.7172 64.7338 25.413 63.849Z" fill="#263238"/>
<path d="M24.171 58.122C24.0931 58.6915 24.066 59.2667 24.09 59.841C24.09 59.856 24.114 59.856 24.114 59.841C24.147 59.271 24.153 58.701 24.219 58.134C24.222 58.104 24.174 58.092 24.171 58.122Z" fill="#263238"/>
<path d="M21.864 58.611C21.5033 58.4727 21.1559 58.302 20.826 58.101C20.799 58.083 20.775 58.128 20.802 58.143C21.1252 58.3612 21.4791 58.53 21.852 58.644C21.87 58.65 21.9 58.62 21.864 58.611Z" fill="#263238"/>
<path d="M26.079 81.345C26.079 80.445 26.055 79.563 26.046 78.672C26.028 75.711 26.004 72.75 25.95 69.789C25.908 67.437 25.853 65.087 25.785 62.739C25.7848 62.7329 25.783 62.7269 25.7799 62.7217C25.7767 62.7164 25.7723 62.7121 25.767 62.709C25.767 62.067 25.767 61.425 25.767 60.783C25.767 60.765 25.749 60.759 25.728 60.759C25.707 60.759 25.689 60.759 25.692 60.783C25.692 61.427 25.692 62.07 25.692 62.712C25.692 62.712 25.671 62.727 25.671 62.739C25.554 66.939 25.449 71.106 25.422 75.291C25.422 76.143 25.422 76.992 25.422 77.844C25.392 80.57 25.381 83.298 25.389 86.028C25.389 86.46 25.389 86.895 25.389 87.33C25.389 89.826 25.416 92.322 25.416 94.83C25.416 94.962 25.566 95.031 25.716 95.037C25.866 95.043 26.091 94.971 26.091 94.818C26.091 92.067 26.109 89.313 26.109 86.562C26.1 84.816 26.1 83.079 26.079 81.345Z" fill="#263238"/>
<path d="M22.71 78.636C22.71 78.636 18.828 75.762 15.147 77.7C11.466 79.638 10.884 87.132 10.884 87.132C10.884 87.132 16.284 87.906 19.698 84.663C22.98 81.543 22.71 78.636 22.71 78.636Z" fill="#47B88F"/>
<path d="M23.7661 78.813C23.0534 78.5289 22.2814 78.4258 21.5191 78.513C21.3625 78.4851 21.2041 78.4691 21.0451 78.465L20.4961 78.423L19.3651 78.345C18.6001 78.288 17.8321 78.24 17.0671 78.162C17.0618 78.1638 17.0572 78.1673 17.0539 78.1719C17.0507 78.1764 17.0489 78.1819 17.0489 78.1875C17.0489 78.1931 17.0507 78.1986 17.0539 78.2031C17.0572 78.2077 17.0618 78.2112 17.0671 78.213C17.8231 78.309 18.5671 78.417 19.3321 78.492C19.7221 78.531 20.1121 78.573 20.5051 78.6L20.7871 78.627C20.6731 78.654 20.5561 78.681 20.4421 78.714C19.8332 78.8913 19.2441 79.1305 18.6841 79.428C18.3841 79.482 18.0841 79.569 17.7841 79.638C17.3041 79.752 16.8271 79.875 16.3501 80.001C15.4081 80.247 14.4751 80.526 13.5391 80.799C13.5091 80.799 13.5241 80.853 13.5391 80.844C14.4721 80.616 15.4141 80.406 16.3501 80.184L17.7121 79.857L18.0691 79.773C17.0278 80.4206 16.097 81.2309 15.3121 82.173C14.5567 83.1028 13.9142 84.1189 13.3981 85.2C13.3981 85.227 13.4221 85.254 13.4401 85.227C14.0789 84.122 14.8584 83.1045 15.7591 82.2C15.7411 82.251 15.7261 82.305 15.7081 82.356L15.4921 83.04C15.3481 83.499 15.1921 83.955 15.0661 84.414C15.0661 84.444 15.1051 84.453 15.1141 84.414C15.2791 83.97 15.4351 83.514 15.5911 83.079C15.6661 82.86 15.7441 82.644 15.8191 82.425C15.8611 82.311 15.9001 82.197 15.9361 82.083C15.9361 82.05 15.9631 82.014 15.9751 81.978C16.4076 81.5581 16.8665 81.1663 17.3491 80.805C17.9898 80.3362 18.6812 79.9407 19.4101 79.626C19.4101 79.692 19.3861 79.761 19.3711 79.824C19.3321 80.001 19.2931 80.178 19.2571 80.355C19.1821 80.721 19.1101 81.09 19.0381 81.459C18.8911 82.209 18.8011 82.959 18.6601 83.721C18.6601 83.754 18.7021 83.766 18.7081 83.721C18.8821 82.965 19.1071 82.221 19.2751 81.465C19.3591 81.087 19.4431 80.709 19.5241 80.331L19.6321 79.797C19.6501 79.698 19.6741 79.599 19.6861 79.497L19.8961 79.41C20.9131 79.032 22.0381 78.759 23.1241 78.969C23.6378 79.0641 24.12 79.2849 24.5277 79.6115C24.9354 79.9381 25.2561 80.3605 25.4611 80.841C25.4971 80.925 25.6291 80.871 25.6081 80.784C25.3981 79.866 24.6211 79.173 23.7661 78.813Z" fill="#263238"/>
<path d="M17.826 82.011C17.718 82.503 17.607 82.995 17.499 83.487C17.3764 83.9583 17.2862 84.4374 17.229 84.921C17.229 84.942 17.253 84.942 17.259 84.921C17.4019 84.4481 17.5121 83.966 17.589 83.478C17.685 82.992 17.781 82.506 17.874 82.02C17.88 81.993 17.832 81.981 17.826 82.011Z" fill="#263238"/>
<path d="M14.0731 83.262C13.5781 83.511 13.1011 83.796 12.5731 84.003C12.5701 84.0042 12.5674 84.0059 12.5652 84.0082C12.5629 84.0104 12.5611 84.013 12.5598 84.016C12.5586 84.0189 12.5579 84.022 12.5579 84.0252C12.5578 84.0284 12.5584 84.0315 12.5596 84.0345C12.5608 84.0375 12.5625 84.0401 12.5648 84.0424C12.567 84.0447 12.5696 84.0465 12.5725 84.0478C12.5755 84.049 12.5786 84.0497 12.5818 84.0497C12.585 84.0498 12.5881 84.0492 12.5911 84.048C13.1075 83.8193 13.6112 83.5629 14.1001 83.28C14.1001 83.28 14.1001 83.256 14.0731 83.262Z" fill="#263238"/>
<path d="M23.583 73.356C23.583 73.356 18.84 73.656 16.632 70.533C14.424 67.41 14.922 62.937 14.922 62.937C14.922 62.937 19.905 63.537 21.882 65.79C23.859 68.043 23.583 73.356 23.583 73.356Z" fill="#47B88F"/>
<path d="M25.8 78.036C25.635 77.529 25.431 77.028 25.239 76.536C25.047 76.044 24.858 75.582 24.639 75.114C24.2166 74.1581 23.7429 73.2258 23.22 72.321C22.884 71.745 22.524 71.184 22.155 70.632C22.155 70.548 22.131 70.464 22.119 70.38C22.098 70.233 22.077 70.08 22.053 69.939C22.005 69.639 21.954 69.339 21.903 69.039C21.795 68.382 21.66 67.731 21.555 67.077C21.555 67.047 21.501 67.047 21.507 67.077C21.6 67.725 21.666 68.376 21.756 69.024C21.801 69.342 21.843 69.66 21.891 69.978L21.945 70.323C21.2216 69.2642 20.4383 68.2475 19.599 67.278L19.272 66.9C19.272 66.864 19.242 66.828 19.227 66.792C19.191 66.702 19.158 66.612 19.125 66.519C19.053 66.333 18.987 66.144 18.918 65.955C18.786 65.583 18.666 65.208 18.564 64.827C18.564 64.797 18.51 64.812 18.519 64.827C18.615 65.217 18.714 65.604 18.819 65.988C18.876 66.174 18.936 66.357 19.002 66.54C19.002 66.57 19.023 66.6 19.035 66.63C18.435 65.97 17.796 65.334 17.157 64.704C17.136 64.683 17.103 64.704 17.124 64.74C18.3496 66.0223 19.473 67.3985 20.484 68.856C20.369 68.8196 20.2517 68.7906 20.133 68.769C19.767 68.697 19.401 68.646 19.032 68.598C18.258 68.499 17.487 68.403 16.719 68.28C16.686 68.28 16.674 68.322 16.719 68.328C17.454 68.472 18.18 68.628 18.912 68.808C19.257 68.886 19.602 68.952 19.947 69.021C20.23 69.0813 20.5086 69.1605 20.781 69.258C20.856 69.369 20.937 69.477 21.012 69.588C21.36 70.092 21.693 70.611 22.02 71.13L21.537 71.037C21.171 70.965 20.802 70.899 20.436 70.839C19.713 70.719 18.987 70.593 18.273 70.431C18.243 70.431 18.231 70.473 18.273 70.479C18.999 70.65 19.716 70.848 20.436 71.04C20.784 71.133 21.135 71.217 21.486 71.295L22.011 71.409C22.0817 71.4276 22.154 71.4396 22.227 71.445C22.92 72.567 23.568 73.719 24.171 74.892C24.435 75.408 24.69 75.93 24.936 76.452C25.182 76.974 25.407 77.541 25.641 78.087C25.674 78.201 25.845 78.156 25.8 78.036Z" fill="#263238"/>
<path d="M20.952 67.137C20.862 66.684 20.766 66.237 20.652 65.781C20.652 65.751 20.598 65.766 20.604 65.781C20.694 66.225 20.781 66.681 20.862 67.116C20.9282 67.5633 21.0173 68.0069 21.129 68.445C21.1007 68.0054 21.0415 67.5683 20.952 67.137Z" fill="#263238"/>
<path d="M18.186 67.005C17.967 66.894 17.733 66.807 17.505 66.705L17.145 66.564L16.962 66.492C16.8919 66.4695 16.8245 66.4393 16.761 66.402C16.725 66.378 16.704 66.438 16.74 66.444C16.8104 66.4632 16.8779 66.4914 16.941 66.528L17.121 66.609L17.469 66.762C17.6963 66.8686 17.9297 66.9618 18.168 67.041C18.195 67.062 18.213 67.017 18.186 67.005Z" fill="#263238"/>
<path d="M28.437 69.627C28.437 69.627 31.308 64.266 35.673 63.435C40.038 62.604 42.714 67.098 42.714 67.098C42.714 67.098 39.528 71.166 35.514 71.877C31.5 72.588 28.437 69.627 28.437 69.627Z" fill="#47B88F"/>
<path d="M38.601 65.838C37.4631 65.6838 36.3087 65.698 35.175 65.88L35.37 65.775L36.339 65.277C37.0048 64.9089 37.6886 64.5744 38.388 64.275C38.421 64.26 38.388 64.215 38.37 64.23C37.686 64.548 36.978 64.83 36.294 65.13C35.949 65.286 35.613 65.451 35.28 65.628C35.064 65.742 34.827 65.85 34.614 65.988C33.6548 66.1804 32.7229 66.4897 31.839 66.909L32.385 66.309C32.79 65.862 33.192 65.394 33.639 64.989C33.663 64.968 33.639 64.935 33.603 64.956C33.147 65.37 32.664 65.754 32.22 66.186C32.007 66.396 31.8 66.612 31.599 66.837C31.5 66.948 31.398 67.062 31.299 67.182C29.7993 67.9849 28.4963 69.1103 27.4837 70.4772C26.4711 71.8441 25.7742 73.4185 25.443 75.087C25.443 75.117 25.482 75.132 25.491 75.102C26.106 73.0581 27.2075 71.1938 28.701 69.669C30.3106 68.0347 32.3351 66.87 34.557 66.3C35.875 65.9642 37.2381 65.8406 38.595 65.934C38.6077 65.9348 38.6203 65.9305 38.6298 65.9221C38.6394 65.9136 38.6452 65.9017 38.646 65.889C38.6468 65.8763 38.6425 65.8637 38.6341 65.8542C38.6256 65.8446 38.6137 65.8388 38.601 65.838Z" fill="#263238"/>
<path opacity="0.1" d="M42.714 67.098C42.714 67.098 39.528 71.166 35.514 71.877C32.457 72.417 29.943 70.824 28.914 70.038L28.692 69.675C28.692 69.675 30.759 67.935 34.671 66.93C38.583 65.925 42.714 67.098 42.714 67.098Z" fill="black"/>
<path d="M36.0631 63.927C35.7289 64.1225 35.4054 64.3358 35.0941 64.566C34.7907 64.7974 34.5086 65.0554 34.2511 65.337C34.2477 65.3423 34.2464 65.3487 34.2472 65.3549C34.248 65.3612 34.251 65.3669 34.2556 65.3712C34.2603 65.3755 34.2662 65.378 34.2725 65.3783C34.2788 65.3786 34.285 65.3768 34.2901 65.373C34.5901 65.121 34.8691 64.869 35.1721 64.632C35.4639 64.392 35.7705 64.1706 36.0901 63.969C36.0928 63.9672 36.0952 63.9649 36.0971 63.9622C36.099 63.9595 36.1003 63.9565 36.101 63.9533C36.1017 63.9501 36.1017 63.9468 36.1011 63.9436C36.1006 63.9403 36.0993 63.9373 36.0976 63.9345C36.0958 63.9317 36.0935 63.9294 36.0908 63.9275C36.0881 63.9256 36.0851 63.9243 36.0819 63.9236C36.0787 63.9229 36.0754 63.9228 36.0721 63.9234C36.0689 63.924 36.0658 63.9252 36.0631 63.927Z" fill="#263238"/>
<path d="M38.46 64.833C38.298 64.902 38.133 64.959 37.971 65.028L37.485 65.229C37.452 65.229 37.467 65.301 37.503 65.286L37.989 65.088C38.154 65.022 38.313 64.947 38.475 64.881C38.505 64.869 38.49 64.821 38.46 64.833Z" fill="#263238"/>
<path d="M27.864 76.374C27.864 76.374 28.632 81.693 32.631 83.553C36.63 85.413 41.505 83.553 41.505 83.553C41.505 83.553 39.6 72.048 27.864 76.374Z" fill="#47B88F"/>
<path d="M38.748 80.1C38.382 80.058 38.013 79.995 37.65 79.929L37.11 79.827L36.831 79.77C36.723 79.671 36.618 79.569 36.507 79.47C35.7475 78.8047 34.928 78.2112 34.059 77.697C33.5865 77.417 33.0976 77.1655 32.595 76.944H32.67L33.987 77.001C34.863 77.043 35.742 77.061 36.618 77.118C36.651 77.118 36.648 77.073 36.618 77.07C35.736 77.01 34.86 76.914 33.981 76.839L32.703 76.725L32.043 76.668L31.875 76.65C31.647 76.563 31.419 76.482 31.185 76.41C30.0949 76.0358 28.9224 75.9714 27.798 76.224C26.793 76.482 25.788 77.142 25.527 78.201C25.527 78.237 25.575 78.264 25.59 78.228C25.965 77.328 26.949 76.893 27.837 76.71C28.4307 76.5974 29.0392 76.5852 29.637 76.674C29.6773 76.948 29.7446 77.2173 29.838 77.478C29.949 77.853 30.057 78.228 30.171 78.6C30.399 79.347 30.648 80.1 30.87 80.835C30.87 80.8414 30.8725 80.8475 30.877 80.852C30.8815 80.8565 30.8876 80.859 30.894 80.859C30.9003 80.859 30.9064 80.8565 30.9109 80.852C30.9154 80.8475 30.918 80.8414 30.918 80.835C30.732 80.088 30.573 79.335 30.393 78.585C30.306 78.219 30.213 77.853 30.123 77.487C30.0707 77.2313 30.0036 76.9789 29.922 76.731C30.2723 76.7921 30.6189 76.8732 30.96 76.974C31.5735 77.1577 32.1747 77.3801 32.76 77.64C32.817 78.018 32.904 78.393 32.991 78.768C33.099 79.236 33.222 79.701 33.369 80.16C33.3707 80.1646 33.3738 80.1686 33.3778 80.1714C33.3818 80.1742 33.3866 80.1756 33.3915 80.1756C33.3964 80.1756 33.4012 80.1742 33.4052 80.1714C33.4092 80.1686 33.4123 80.1646 33.414 80.16L33.396 80.073C33.306 79.638 33.21 79.203 33.117 78.768C33.045 78.417 32.976 78.066 32.901 77.718C33.3991 77.9393 33.8857 78.1856 34.359 78.456C34.359 78.564 34.395 78.675 34.41 78.774C34.44 78.954 34.473 79.137 34.506 79.32C34.581 79.728 34.662 80.139 34.761 80.544C34.942 81.3285 35.1714 82.1009 35.448 82.857C35.4446 82.8613 35.4427 82.8665 35.4427 82.872C35.4427 82.8774 35.4446 82.8827 35.448 82.887L35.472 82.914C35.49 82.935 35.517 82.914 35.511 82.89C35.328 82.101 35.115 81.318 34.941 80.529C34.857 80.133 34.77 79.737 34.689 79.329C34.65 79.131 34.614 78.933 34.575 78.729L34.548 78.552C35.0866 78.8676 35.6065 79.2142 36.105 79.59C36.9682 80.2364 37.7669 80.9648 38.49 81.765C38.517 81.798 38.574 81.765 38.547 81.717C38.2501 81.3139 37.9327 80.9264 37.596 80.556C37.395 80.34 37.185 80.13 36.972 79.926H37.038C37.227 79.959 37.413 79.986 37.602 80.01C37.971 80.061 38.343 80.097 38.715 80.139C38.769 80.145 38.781 80.1 38.748 80.1Z" fill="#263238"/>
<path d="M35.94 81.9C35.94 81.855 35.94 81.807 35.916 81.762C35.892 81.717 35.877 81.648 35.868 81.588C35.787 81.231 35.718 80.874 35.652 80.514C35.652 80.49 35.61 80.496 35.61 80.514C35.6343 80.9902 35.7357 81.4592 35.91 81.903C35.91 81.918 35.943 81.903 35.94 81.903V81.9Z" fill="#263238"/>
<path d="M32.592 81.813C32.592 81.813 32.592 81.789 32.568 81.789C32.454 81.318 32.346 80.847 32.25 80.373C32.199 80.124 32.148 79.875 32.1 79.626C32.073 79.491 32.049 79.356 32.025 79.221C32.0146 79.1021 31.9852 78.9856 31.938 78.876C31.9363 78.8714 31.9332 78.8674 31.9292 78.8647C31.9252 78.8619 31.9204 78.8603 31.9155 78.8603C31.9106 78.8603 31.9058 78.8619 31.9018 78.8647C31.8978 78.8674 31.8947 78.8714 31.893 78.876C31.8899 79.1178 31.9243 79.3587 31.995 79.59C32.043 79.848 32.094 80.109 32.151 80.367C32.268 80.892 32.397 81.414 32.547 81.93C32.5489 81.9353 32.5523 81.9399 32.5569 81.9431C32.5614 81.9464 32.5669 81.9481 32.5725 81.9481C32.5781 81.9481 32.5836 81.9464 32.5882 81.9431C32.5927 81.9399 32.5962 81.9353 32.598 81.93L32.592 81.813Z" fill="#263238"/>
<path d="M38.4 78.561C37.668 78.462 36.939 78.357 36.207 78.261C36.177 78.261 36.165 78.306 36.207 78.309C36.936 78.417 37.668 78.507 38.4 78.609C38.4 78.615 38.415 78.567 38.4 78.561Z" fill="#263238"/>
<path d="M25.815 63.9C25.815 63.9 23.367 53.166 34.902 48.819C34.902 48.819 38.1 62.952 25.815 63.9Z" fill="#47B88F"/>
<path d="M28.305 57.813L28.428 57.738L29.082 57.372L30.42 56.625C31.299 56.13 32.169 55.62 33.054 55.125C33.084 55.125 33.054 55.068 33.03 55.083C32.13 55.566 31.23 56.019 30.345 56.49L29.022 57.189L28.482 57.489C28.866 56.76 29.277 56.046 29.73 55.356C30.33 54.435 30.993 53.556 31.68 52.704C31.6871 52.6964 31.691 52.6864 31.6907 52.6759C31.6904 52.6655 31.686 52.6557 31.6785 52.6485C31.6709 52.6413 31.6608 52.6375 31.6504 52.6378C31.64 52.638 31.6301 52.6424 31.623 52.65C30.6101 53.6328 29.715 54.7302 28.956 55.92C28.956 55.881 28.956 55.842 28.956 55.806C28.956 55.539 28.977 55.272 28.98 55.005C28.98 54.48 28.962 53.955 28.98 53.433C28.98 53.4 28.932 53.403 28.929 53.433C28.908 53.949 28.845 54.465 28.815 54.981C28.815 55.236 28.791 55.494 28.782 55.752C28.782 55.89 28.782 56.052 28.782 56.202C28.546 56.58 28.319 56.963 28.101 57.351C27.7144 58.0509 27.3698 58.7732 27.069 59.514C27.069 59.247 27.042 58.98 27.027 58.713C26.991 58.113 26.922 57.54 26.895 56.952C26.895 56.9456 26.8925 56.9395 26.888 56.935C26.8835 56.9305 26.8773 56.928 26.871 56.928C26.8646 56.928 26.8585 56.9305 26.854 56.935C26.8495 56.9395 26.847 56.9456 26.847 56.952C26.847 57.552 26.847 58.128 26.847 58.716C26.847 59.016 26.865 59.316 26.883 59.598C26.883 59.706 26.883 59.817 26.904 59.925C26.5372 60.8847 26.2463 61.8718 26.034 62.877C25.8339 63.9497 25.6907 65.0322 25.605 66.12C25.605 66.12 25.605 66.12 25.605 66.12C25.7212 65.1415 25.922 64.1749 26.205 63.231C26.346 62.724 26.505 62.22 26.661 61.731C27.141 61.506 27.6 61.224 28.062 60.966L29.511 60.174C30.474 59.646 31.434 59.109 32.427 58.644C32.454 58.644 32.427 58.587 32.4 58.602C31.395 59.055 30.381 59.502 29.4 59.985C28.908 60.234 28.425 60.498 27.945 60.768C27.546 60.993 27.132 61.218 26.745 61.479C26.856 61.143 26.973 60.81 27.102 60.483C27.456 59.5726 27.8575 58.6813 28.305 57.813Z" fill="#263238"/>
<path d="M27.333 55.356C27.3311 55.3507 27.3277 55.3461 27.3231 55.3429C27.3186 55.3396 27.3131 55.3379 27.3075 55.3379C27.3019 55.3379 27.2964 55.3396 27.2918 55.3429C27.2873 55.3461 27.2838 55.3507 27.282 55.356C27.324 55.956 27.345 56.58 27.411 57.192C27.411 57.1992 27.4138 57.206 27.4189 57.2111C27.424 57.2162 27.4308 57.219 27.438 57.219C27.4451 57.219 27.452 57.2162 27.4571 57.2111C27.4621 57.206 27.465 57.1992 27.465 57.192C27.444 56.58 27.378 55.971 27.333 55.356Z" fill="#263238"/>
<path d="M32.8621 57.408C32.1421 57.708 31.4131 57.975 30.6931 58.275C30.6751 58.275 30.6931 58.317 30.6931 58.308C31.4221 58.035 32.1391 57.738 32.8651 57.456C32.9071 57.444 32.8921 57.396 32.8621 57.408Z" fill="#263238"/>
<path d="M33.96 52.455C33.2538 52.779 32.5685 53.1467 31.908 53.556C31.9033 53.5613 31.9003 53.568 31.8997 53.5751C31.899 53.5821 31.9007 53.5893 31.9044 53.5953C31.9081 53.6014 31.9137 53.6061 31.9203 53.6088C31.9269 53.6114 31.9342 53.6118 31.941 53.61C32.61 53.217 33.291 52.842 33.984 52.497C34.014 52.5 33.987 52.443 33.96 52.455Z" fill="#263238"/>
<path d="M33.7831 87.117H17.1481V104.652H33.7831V87.117Z" fill="#455A64"/>
<path d="M16.857 93.324H16.005V123.36H16.857V93.324Z" fill="#263238"/>
<path d="M34.842 93.324H33.99V123.36H34.842V93.324Z" fill="#263238"/>
<path d="M26.301 93.324H25.449V123.36H26.301V93.324Z" fill="#263238"/>
<path d="M34.416 103.53H16.431V105.957H34.416V103.53Z" fill="#263238"/>
<path d="M100.689 113.55C100.689 113.55 100.689 126.471 100.689 126.48C100.689 128.949 100.668 131.115 100.545 132.234C100.547 132.237 100.547 132.24 100.547 132.243C100.547 132.246 100.547 132.249 100.545 132.252C100.545 132.518 100.483 132.779 100.365 133.017L100.35 133.032C99.618 133.533 79.878 134.211 79.182 134.001C78.486 133.791 79.023 131.793 79.782 131.154C80.541 130.515 87.972 126.879 87.972 126.879L88.095 113.964L100.689 113.55Z" fill="#AD6359"/>
<path d="M100.686 123.825V126.48C100.686 128.949 100.665 131.115 100.542 132.234C100.544 132.237 100.544 132.24 100.544 132.243C100.544 132.246 100.544 132.249 100.542 132.252C100.511 132.513 100.451 132.77 100.362 133.017L100.347 133.032C99.615 133.533 79.875 134.211 79.179 134.001C78.483 133.791 79.02 131.793 79.779 131.154C80.538 130.515 87.9691 126.879 87.9691 126.879L87.933 124.179L100.686 123.825Z" fill="#C7C7C7"/>
<path d="M79.179 134.001C79.875 134.211 99.615 133.536 100.35 133.032C100.632 132.846 100.701 129.963 100.686 126.48V126.369L87.945 126.669L87.96 126.885C87.96 126.885 80.52 130.524 79.77 131.163C79.02 131.802 78.48 133.8 79.179 134.001Z" fill="#263238"/>
<path d="M79.374 133.23C82.701 133.032 96.129 132.558 99.429 132.63C99.456 132.63 99.456 132.648 99.429 132.651C96.129 132.915 82.707 133.284 79.377 133.296C79.308 133.284 79.305 133.233 79.374 133.23Z" fill="#455A64"/>
<path d="M86.8861 126.954C88.1881 126.654 89.7961 126.81 90.8281 127.71C90.8701 127.746 90.8281 127.8 90.7771 127.788C89.5115 127.428 88.2112 127.203 86.8981 127.119C86.8784 127.117 86.8601 127.108 86.8464 127.094C86.8326 127.08 86.8243 127.061 86.8229 127.042C86.8214 127.022 86.827 127.002 86.8385 126.986C86.8501 126.97 86.8669 126.959 86.8861 126.954Z" fill="#455A64"/>
<path d="M85.962 127.557C87.261 127.257 88.872 127.413 89.904 128.313C89.943 128.346 89.904 128.403 89.85 128.391C88.5846 128.03 87.2841 127.806 85.971 127.722C85.9515 127.72 85.9335 127.71 85.9201 127.696C85.9067 127.682 85.8988 127.663 85.8977 127.643C85.8966 127.624 85.9025 127.604 85.9142 127.589C85.926 127.573 85.9429 127.562 85.962 127.557Z" fill="#455A64"/>
<path d="M85.035 128.157C86.337 127.857 87.945 128.016 88.977 128.913C89.019 128.949 88.977 129.006 88.926 128.994C87.6606 128.633 86.3602 128.407 85.047 128.322C85.0273 128.32 85.009 128.311 84.9953 128.297C84.9815 128.283 84.9732 128.264 84.9718 128.245C84.9703 128.225 84.9759 128.205 84.9875 128.189C84.999 128.173 85.0158 128.162 85.035 128.157Z" fill="#455A64"/>
<path d="M101.82 65.649L101.808 66.504L101.325 104.262L101.322 104.406L101.037 127.023L87.219 126.747L89.886 65.694L89.922 64.878L90.057 57.795H101.727L101.82 65.649Z" fill="#455A64"/>
<path d="M87.798 124.443C89.955 124.422 89.334 124.398 91.491 124.404C92.547 124.404 99.486 124.431 100.47 124.605C100.491 124.605 100.491 124.647 100.47 124.65C99.48 124.8 92.544 124.65 91.488 124.632C89.331 124.587 89.952 124.575 87.795 124.506C87.7883 124.504 87.7827 124.499 87.7787 124.493C87.7748 124.487 87.7729 124.48 87.7732 124.473C87.7736 124.466 87.7762 124.46 87.7806 124.454C87.7851 124.449 87.7912 124.445 87.798 124.443Z" fill="#263238"/>
<path d="M93.9869 69.621C93.9869 69.6146 93.9844 69.6085 93.9799 69.604C93.9754 69.5995 93.9693 69.597 93.9629 69.597C93.9566 69.597 93.9505 69.5995 93.946 69.604C93.9415 69.6085 93.9389 69.6146 93.9389 69.621C93.9389 73.236 93.7919 75.261 93.7049 78.873C93.6179 82.485 93.5129 86.097 93.4049 89.706C93.2099 96.927 92.9189 104.142 92.6519 111.36C92.5019 115.408 92.3149 119.454 92.0909 123.498C92.0909 123.504 92.0932 123.509 92.0971 123.513C92.101 123.517 92.1064 123.519 92.1119 123.519C92.1175 123.519 92.1229 123.517 92.1268 123.513C92.1307 123.509 92.1329 123.504 92.1329 123.498C92.6579 116.298 93.1589 109.074 93.4469 101.853C93.7349 94.632 93.9389 87.414 93.9719 80.193C94.0019 76.14 93.9779 73.674 93.9869 69.621Z" fill="#263238"/>
<path d="M101.817 65.649L101.325 104.262L92.064 57.795H101.724L101.817 65.649Z" fill="#263238"/>
<path d="M116.187 112.851C116.187 112.851 117.927 125.652 117.927 125.661C118.275 128.109 118.527 130.26 118.563 131.385C118.563 131.385 118.563 131.385 118.563 131.403C118.598 131.665 118.573 131.932 118.491 132.183C118.491 132.189 118.491 132.195 118.491 132.201C117.831 132.801 98.361 136.131 97.644 136.017C96.927 135.903 97.191 133.851 97.842 133.116C98.493 132.381 105.381 127.776 105.381 127.776L103.761 114.963L116.187 112.851Z" fill="#AD6359"/>
<path d="M117.57 123.033C117.57 123.033 117.927 125.652 117.927 125.661C118.275 128.109 118.527 130.26 118.563 131.385C118.563 131.385 118.563 131.385 118.563 131.403C118.569 131.665 118.544 131.927 118.491 132.183C118.491 132.189 118.491 132.195 118.491 132.201C117.831 132.801 98.361 136.131 97.644 136.017C96.927 135.903 97.191 133.851 97.842 133.116C98.493 132.381 105.381 127.776 105.381 127.776L104.97 125.1L117.57 123.033Z" fill="#C7C7C7"/>
<path d="M97.632 136.017C98.352 136.131 117.819 132.798 118.479 132.201C118.734 131.976 118.413 129.114 117.927 125.661L117.909 125.553L105.327 127.563L105.369 127.776C105.369 127.776 98.487 132.384 97.83 133.119C97.173 133.854 96.9 135.9 97.632 136.017Z" fill="#263238"/>
<path d="M97.722 135.225C100.992 134.583 114.222 132.3 117.522 131.925C117.549 131.925 117.552 131.94 117.522 131.946C114.297 132.654 101.04 134.829 97.74 135.291C97.662 135.3 97.653 135.24 97.722 135.225Z" fill="#455A64"/>
<path d="M104.319 127.995C105.57 127.533 107.184 127.461 108.327 128.211C108.372 128.241 108.327 128.304 108.285 128.298C106.983 128.11 105.664 128.063 104.352 128.157C104.332 128.157 104.313 128.151 104.298 128.139C104.282 128.126 104.272 128.109 104.268 128.09C104.264 128.07 104.267 128.05 104.276 128.033C104.286 128.016 104.301 128.002 104.319 127.995Z" fill="#455A64"/>
<path d="M103.482 128.715C104.733 128.253 106.347 128.181 107.49 128.934C107.535 128.961 107.49 129.024 107.448 129.018C106.146 128.831 104.827 128.784 103.515 128.877C103.495 128.877 103.476 128.871 103.461 128.859C103.445 128.846 103.435 128.829 103.431 128.81C103.427 128.79 103.43 128.77 103.439 128.753C103.449 128.736 103.464 128.722 103.482 128.715Z" fill="#455A64"/>
<path d="M102.648 129.438C103.899 128.976 105.51 128.904 106.656 129.654C106.701 129.684 106.656 129.747 106.614 129.741C105.312 129.552 103.993 129.504 102.681 129.6C102.661 129.6 102.642 129.594 102.627 129.582C102.611 129.569 102.601 129.552 102.597 129.533C102.593 129.514 102.596 129.493 102.605 129.476C102.615 129.459 102.63 129.445 102.648 129.438Z" fill="#455A64"/>
<path d="M91.245 57.783C91.296 58.023 92.112 61.809 92.958 65.061C93.573 67.437 94.206 69.525 94.569 69.741C94.98 69.984 96.984 70.872 97.656 71.151L100.725 100.5L104.874 127.674L118.44 125.574L108.786 66.102L107.214 57.783H91.245Z" fill="#455A64"/>
<path d="M104.955 124.947C107.085 124.605 106.455 124.671 108.603 124.347C109.647 124.191 116.511 123.174 117.51 123.201C117.531 123.201 117.537 123.237 117.51 123.243C116.556 123.543 109.674 124.443 108.627 124.575C106.488 124.851 107.1 124.749 104.958 125.004C104.953 125.001 104.949 124.997 104.945 124.993C104.942 124.988 104.94 124.982 104.94 124.976C104.94 124.971 104.941 124.965 104.944 124.96C104.946 124.955 104.95 124.95 104.955 124.947Z" fill="#263238"/>
<path d="M112.8 116.832C112.461 114.948 112.125 113.064 111.777 111.18C111.083 107.412 110.383 103.645 109.677 99.879C108.261 92.341 106.861 84.797 105.477 77.247C104.703 72.987 104.721 73.386 104.046 69.105C104.046 69.078 103.992 69.081 103.998 69.105C104.646 72.909 104.34 72.075 104.952 75.885C105.564 79.695 106.206 83.424 106.881 87.183C108.237 94.74 109.659 102.285 111.096 109.827C111.496 111.943 111.905 114.056 112.323 116.166C112.743 118.32 113.223 120.462 113.667 122.61C113.667 122.658 113.754 122.655 113.745 122.61C113.433 120.687 113.151 118.755 112.8 116.832Z" fill="#263238"/>
<path d="M109.071 69.387C108.711 69.294 108.324 69.264 107.958 69.207C107.658 69.159 107.358 69.105 107.058 69.042C106.493 68.941 105.959 68.7156 105.492 68.382C104.982 67.986 104.721 67.383 104.475 66.804C104.327 66.462 104.177 66.12 104.025 65.778L103.8 65.283C103.695 65.0887 103.602 64.8883 103.521 64.683C103.521 64.653 103.464 64.683 103.476 64.683C103.527 64.8232 103.569 64.9665 103.602 65.112C103.653 65.277 103.698 65.442 103.749 65.607C103.842 65.907 103.932 66.207 104.028 66.507C104.174 67.0483 104.385 67.57 104.655 68.061C105.201 68.925 106.173 69.276 107.145 69.399C107.424 69.432 107.706 69.453 107.988 69.468C108.341 69.4995 108.697 69.4995 109.05 69.468C109.058 69.4658 109.066 69.4615 109.072 69.4555C109.078 69.4494 109.082 69.4419 109.084 69.4336C109.086 69.4254 109.086 69.4167 109.084 69.4085C109.082 69.4003 109.077 69.3929 109.071 69.387Z" fill="#263238"/>
<path d="M93.504 69.222C94.9348 69.7417 96.3171 70.3862 97.635 71.148C97.6461 71.1532 97.6548 71.1626 97.659 71.1741C97.6632 71.1856 97.6627 71.1984 97.6575 71.2095C97.6523 71.2206 97.6429 71.2293 97.6314 71.2335C97.6199 71.2377 97.6071 71.2372 97.596 71.232C96.204 70.632 94.785 70.062 93.429 69.39C93.4102 69.378 93.3963 69.3597 93.3899 69.3383C93.3835 69.317 93.385 69.294 93.3941 69.2737C93.4032 69.2533 93.4192 69.2369 93.4394 69.2274C93.4596 69.2179 93.4825 69.216 93.504 69.222Z" fill="#263238"/>
<path d="M93.084 59.7C93.084 59.652 93.174 59.64 93.174 59.7C93.173 61.253 93.2511 62.805 93.408 64.35C93.471 65.067 94.047 69.027 95.292 68.739C95.499 68.691 95.592 68.484 95.637 68.172C95.6325 67.7617 95.5771 67.3536 95.472 66.957C95.334 66.126 95.223 65.295 95.154 64.458C95.0074 62.8985 95.0245 61.3279 95.205 59.772C95.205 59.7617 95.2091 59.7517 95.2164 59.7444C95.2237 59.7371 95.2336 59.733 95.244 59.733C95.2543 59.733 95.2642 59.7371 95.2716 59.7444C95.2789 59.7517 95.283 59.7617 95.283 59.772C95.2482 61.9354 95.3746 64.0984 95.661 66.243C95.817 67.272 96.336 68.823 95.259 68.982C94.182 69.141 93.459 66.546 93.318 65.835C92.9743 63.8088 92.8956 61.7465 93.084 59.7Z" fill="#263238"/>
<path d="M95.259 68.829C95.3685 69.0971 95.4617 69.3716 95.538 69.651C95.6182 69.8669 95.6578 70.0957 95.655 70.326C95.6532 70.3354 95.6487 70.344 95.6421 70.3508C95.6354 70.3576 95.6268 70.3623 95.6175 70.3642C95.6082 70.3661 95.5985 70.3652 95.5897 70.3616C95.5809 70.358 95.5733 70.3519 95.568 70.344C95.4341 70.1421 95.3328 69.9204 95.268 69.687C95.172 69.435 95.073 69.18 94.986 68.925C94.9732 68.8888 94.9754 68.849 94.992 68.8144C95.0086 68.7798 95.0383 68.7532 95.0745 68.7405C95.1107 68.7278 95.1505 68.7299 95.1851 68.7465C95.2197 68.7631 95.2462 68.7928 95.259 68.829Z" fill="#263238"/>
<path d="M108.927 66.975C107.283 66.867 89.922 64.875 89.922 64.875L90.057 57.792H91.257H107.226L108.798 66.111L108.927 66.975Z" fill="#263238"/>
<path d="M96.7679 41.526C94.7819 47.742 91.4189 54.159 90.4469 55.422C87.8399 58.818 80.0069 62.163 77.6159 62.595C76.5809 62.781 74.0999 56.106 74.7419 55.188C75.3839 54.27 85.1189 50.55 85.5959 50.055C85.9259 49.71 90.0329 44.418 92.7959 41.226C96.2489 37.257 97.2899 39.9 96.7679 41.526Z" fill="#AD6359"/>
<path d="M76.821 53.892L80.667 61.692C80.667 61.692 88.842 58.149 90.789 55.62C92.736 53.091 96.264 44.52 96.789 41.79C97.314 39.06 96.408 37.11 92.751 41.1C89.094 45.09 86.064 49.065 85.41 49.731C84.756 50.397 76.821 53.892 76.821 53.892Z" fill="#EBEBEB"/>
<path d="M77.145 53.496L81.753 61.578C81.753 61.578 88.953 58.137 90.789 55.878C92.625 53.619 95.652 46.683 96.6 42.939C97.548 39.195 96.993 36.54 92.754 41.121C88.515 45.702 86.118 49.029 85.254 49.776C84.843 50.1 77.145 53.496 77.145 53.496Z" fill="#37474F"/>
<path d="M79.086 54.243C79.3196 54.243 79.509 54.0536 79.509 53.82C79.509 53.5864 79.3196 53.397 79.086 53.397C78.8523 53.397 78.663 53.5864 78.663 53.82C78.663 54.0536 78.8523 54.243 79.086 54.243Z" fill="#263238"/>
<path d="M81.081 53.325C81.3146 53.325 81.504 53.1356 81.504 52.902C81.504 52.6684 81.3146 52.479 81.081 52.479C80.8473 52.479 80.658 52.6684 80.658 52.902C80.658 53.1356 80.8473 53.325 81.081 53.325Z" fill="#263238"/>
<path d="M96.6 42.927C95.652 46.671 92.628 53.595 90.789 55.866C90.003 56.835 88.245 58.017 86.484 59.055L95.763 38.733C97.2 38.343 97.245 40.383 96.6 42.927Z" fill="#263238"/>
<path d="M109.833 64.002C109.785 64.056 89.031 64.119 88.833 63.906C88.566 63.606 93.255 41.106 95.385 38.343C95.838 37.743 97.341 37.584 98.619 37.743C98.9523 37.7806 99.2816 37.8479 99.603 37.944H99.639C99.8982 38.0205 100.143 38.1401 100.362 38.298C103.914 41.136 106.908 51.057 107.607 54.036C108.777 58.953 110.004 63.807 109.833 64.002Z" fill="#EBEBEB"/>
<path d="M100.302 38.034C100.302 38.034 98.613 47.244 98.319 49.638C98.025 52.032 98.457 64.677 98.457 64.677L111.489 65.64C111.489 65.64 108.672 57.27 108.639 56.739C108.639 56.739 106.299 46.713 104.106 42.525C103.148 40.7907 101.855 39.2641 100.302 38.034Z" fill="#37474F"/>
<path d="M111.489 65.64L105.579 65.202L101.361 38.961V38.979L104.007 42.369C104.037 42.423 104.067 42.477 104.094 42.531C106.287 46.731 108.627 56.745 108.627 56.745C108.672 57.27 111.489 65.64 111.489 65.64Z" fill="#263238"/>
<path d="M95.2589 38.235C95.2589 38.235 93.8759 47.562 93.7259 48.333C93.5759 49.104 91.4819 64.314 91.4819 64.314L88.2209 64.416L89.9219 57.462C89.9219 57.462 93.7049 40.221 95.2589 38.235Z" fill="#37474F"/>
<path d="M97.164 43.353L96.24 41.553L95.046 42.855L95.34 44.151L96.516 44.304L97.164 43.353Z" fill="#263238"/>
<path d="M96.516 44.304L97.08 57.546L94.599 61.926L93.309 56.997L95.34 44.151L96.516 44.304Z" fill="#263238"/>
<path d="M95.996 80.9025L95.9797 96.4545L121.648 96.4814L121.664 80.9294L95.996 80.9025Z" fill="#47B88F"/>
<path opacity="0.1" d="M95.9947 80.9042L95.9871 88.2272L121.655 88.2541L121.663 80.9311L95.9947 80.9042Z" fill="black"/>
<path d="M95.3834 85.87L122.266 85.8982L122.274 78.6412L95.391 78.613L95.3834 85.87Z" fill="#47B88F"/>
<path d="M103.176 74.484L103.17 78.621L105.117 78.624L105.12 76.269L112.545 76.278L112.542 78.633H114.489L114.492 74.493L103.176 74.484Z" fill="#263238"/>
<path d="M116.821 87.6229L118.573 87.6247L118.577 84.1567L116.825 84.1549L116.821 87.6229Z" fill="#263238"/>
<path d="M99.0701 87.6085L100.822 87.6103L100.826 84.1423L99.0738 84.1405L99.0701 87.6085Z" fill="#263238"/>
<path d="M103.17 40.8C108.96 46.053 112.635 53.556 112.884 55.071C113.484 58.734 114.243 65.154 114.114 67.971C114.066 69.015 106.155 67.749 106.17 66.633C106.221 63.141 105.756 55.461 105.735 55.326C105.594 54.387 103.872 50.166 102.135 45.588C100.398 41.01 100.734 38.595 103.17 40.8Z" fill="#AD6359"/>
<path d="M105.336 77.577C105.567 77.6819 105.824 77.7138 106.073 77.6682C106.323 77.6226 106.552 77.5018 106.731 77.322C106.957 77.6887 107.304 77.9647 107.712 78.102C108.441 78.312 109.089 77.259 109.089 77.259C109.403 77.5907 109.81 77.8206 110.256 77.919C110.973 78.048 111.78 77.079 111.78 77.079C112.236 77.2227 112.729 77.1993 113.169 77.013C113.916 76.662 114.549 74.52 114.705 73.287C114.861 72.054 114.144 68.409 114.078 67.701L106.17 66.639C106.17 66.639 103.902 71.973 103.926 73.449C103.947 74.7 104.466 77.145 105.336 77.577Z" fill="#AD6359"/>
<path d="M106.611 77.25C106.272 75.933 106.341 74.586 106.335 73.242C106.335 73.2356 106.338 73.2295 106.342 73.225C106.347 73.2205 106.353 73.218 106.359 73.218C106.365 73.218 106.372 73.2205 106.376 73.225C106.381 73.2295 106.383 73.2356 106.383 73.242C106.383 74.58 106.629 75.903 106.683 77.241C106.684 77.2506 106.682 77.2602 106.676 77.2678C106.67 77.2754 106.661 77.2803 106.652 77.2815C106.642 77.2827 106.632 77.28 106.625 77.2741C106.617 77.2682 106.612 77.2596 106.611 77.25Z" fill="#263238"/>
<path d="M108.99 77.22C108.941 76.9134 108.933 76.6017 108.966 76.293C108.966 75.966 109.002 75.636 109.029 75.309C109.081 74.653 109.148 73.999 109.23 73.347C109.23 73.317 109.278 73.317 109.275 73.347C109.227 74.001 109.188 74.655 109.164 75.309C109.164 75.639 109.146 75.966 109.14 76.293C109.153 76.6033 109.133 76.914 109.08 77.22C109.077 77.2292 109.07 77.2371 109.062 77.2427C109.054 77.2483 109.045 77.2513 109.035 77.2513C109.025 77.2513 109.016 77.2483 109.008 77.2427C109 77.2371 108.993 77.2292 108.99 77.22Z" fill="#263238"/>
<path d="M111.78 77.052C111.741 76.7736 111.75 76.4907 111.804 76.215C111.834 75.915 111.861 75.615 111.888 75.315C111.942 74.715 111.993 74.115 112.023 73.515C112.023 73.485 112.071 73.485 112.071 73.515C112.041 74.115 112.02 74.733 111.987 75.342L111.933 76.242C111.939 76.5161 111.898 76.7892 111.81 77.049C111.809 77.0517 111.807 77.0539 111.804 77.0556C111.802 77.0573 111.799 77.0583 111.796 77.0586C111.793 77.0589 111.79 77.0585 111.787 77.0573C111.784 77.0562 111.782 77.0543 111.78 77.052Z" fill="#263238"/>
<path d="M105.783 66.675L114.552 67.149C114.552 67.149 113.904 57.549 113.208 54.882C112.512 52.215 106.572 43.326 103.065 40.104C99.765 37.071 99.765 39.594 101.016 43.149C102.267 46.704 105.363 55.296 105.468 55.923C105.573 56.55 105.783 66.675 105.783 66.675Z" fill="#37474F"/>
<path d="M106.176 64.905C106.512 64.875 106.851 64.905 107.187 64.905C107.523 64.905 107.859 64.92 108.195 64.935C108.843 64.962 109.491 65.001 110.139 65.043L112.08 65.172C112.749 65.217 113.433 65.229 114.096 65.328C114.101 65.3297 114.105 65.3328 114.107 65.3368C114.11 65.3408 114.112 65.3456 114.112 65.3505C114.112 65.3554 114.11 65.3602 114.107 65.3642C114.105 65.3682 114.101 65.3713 114.096 65.373C113.427 65.4 112.746 65.34 112.077 65.316L110.097 65.235C109.437 65.205 108.777 65.172 108.117 65.13C107.793 65.112 107.469 65.088 107.148 65.052C106.827 65.016 106.491 65.013 106.173 64.95C106.143 64.944 106.152 64.908 106.176 64.905Z" fill="#263238"/>
<path d="M96.552 41.313C96.894 41.298 99.165 39.513 99.852 38.139C99.9 38.043 99.723 37.065 99.567 35.868C99.474 35.142 99.387 34.329 99.363 33.582C99.363 33.429 98.847 33.729 98.847 33.729L97.887 33.993L94.719 34.875C95.0174 35.8 95.2008 36.7582 95.265 37.728C95.2685 37.8285 95.2614 37.929 95.244 38.028C95.2453 38.045 95.2453 38.062 95.244 38.079C95.175 38.67 96 41.334 96.552 41.313Z" fill="#AD6359"/>
<path d="M95.2561 38.034C95.2574 38.051 95.2574 38.068 95.2561 38.085C95.4167 38.1002 95.5784 38.1002 95.7391 38.085C98.8891 37.911 99.1501 33.885 99.1501 33.885L97.9051 33.981L94.7371 34.863C95.0355 35.788 95.2189 36.7462 95.2831 37.716C95.2858 37.8227 95.2768 37.9293 95.2561 38.034Z" fill="#263238"/>
<path d="M99.246 27.252C100.002 28.815 99.876 33.693 98.871 34.932C97.419 36.732 94.671 37.305 93.051 35.472C91.482 33.699 91.761 27.345 92.916 26.172C94.617 24.468 98.13 24.942 99.246 27.252Z" fill="#AD6359"/>
<path d="M95.064 30.81C95.064 30.81 95.088 30.81 95.088 30.84C95.07 31.167 95.106 31.548 95.388 31.662C95.388 31.662 95.388 31.683 95.388 31.68C95.037 31.623 94.995 31.119 95.064 30.81Z" fill="#263238"/>
<path d="M95.364 30.474C95.892 30.444 95.913 31.506 95.421 31.533C94.929 31.56 94.92 30.498 95.364 30.474Z" fill="#263238"/>
<path d="M93.162 30.9C93.162 30.9 93.1379 30.915 93.1379 30.93C93.1529 31.257 93.1169 31.638 92.8199 31.752V31.77C93.1859 31.71 93.231 31.2 93.162 30.9Z" fill="#263238"/>
<path d="M92.862 30.558C92.334 30.528 92.31 31.59 92.802 31.617C93.294 31.644 93.3 30.6 92.862 30.558Z" fill="#263238"/>
<path d="M95.775 29.982C95.628 29.946 95.499 29.892 95.361 29.844C95.2077 29.8168 95.0682 29.7385 94.965 29.622C94.9392 29.5799 94.9285 29.5303 94.9345 29.4813C94.9405 29.4322 94.9628 29.3867 94.998 29.352C95.0764 29.2918 95.1695 29.2537 95.2676 29.2416C95.3657 29.2295 95.4652 29.2438 95.556 29.283C95.7522 29.3349 95.9222 29.4579 96.033 29.628C96.056 29.6682 96.0669 29.7142 96.0643 29.7604C96.0618 29.8066 96.0459 29.8511 96.0186 29.8886C95.9914 29.926 95.9538 29.9547 95.9106 29.9713C95.8674 29.9879 95.8203 29.9916 95.775 29.982Z" fill="#263238"/>
<path d="M92.442 30.033C92.5841 30.0018 92.7243 29.9627 92.862 29.916C93.0152 29.8946 93.1574 29.8241 93.267 29.715C93.2949 29.674 93.3083 29.6249 93.3051 29.5754C93.3018 29.5259 93.2821 29.479 93.249 29.442C93.1736 29.3776 93.0823 29.3348 92.9847 29.3179C92.887 29.301 92.7866 29.3107 92.694 29.346C92.4957 29.3879 92.3203 29.5024 92.202 29.667C92.1772 29.706 92.1641 29.7513 92.1644 29.7975C92.1647 29.8438 92.1784 29.8889 92.2037 29.9276C92.2291 29.9662 92.265 29.9967 92.3073 30.0154C92.3496 30.0341 92.3964 30.0402 92.442 30.033Z" fill="#263238"/>
<path d="M94.0649 33.282C94.2058 33.4606 94.3909 33.5992 94.6019 33.684C94.7182 33.7274 94.845 33.7337 94.9649 33.702C95.2289 33.627 95.2289 33.402 95.1779 33.18C95.1485 33.0756 95.1072 32.975 95.0549 32.88C94.776 33.1158 94.4293 33.2566 94.0649 33.282Z" fill="#263238"/>
<path d="M94.6021 33.684C94.7183 33.7274 94.8451 33.7337 94.965 33.702C95.229 33.627 95.2291 33.402 95.1781 33.18C95.0397 33.1881 94.908 33.2421 94.8037 33.3333C94.6994 33.4246 94.6285 33.548 94.6021 33.684Z" fill="#FF9ABB"/>
<path d="M92.244 27.804C92.415 27.384 92.616 26.961 92.865 26.871C93.114 26.781 93.291 27.393 93.864 27.42C94.635 27.459 94.995 26.745 96.072 26.649C97.617 26.511 98.322 27.792 98.403 29.988C98.472 31.947 99.663 32.109 99.663 32.109C99.663 32.109 100.299 27.771 99.063 26.361C97.827 24.951 95.007 24.372 93.153 25.761C92.466 26.286 92.244 27.804 92.244 27.804Z" fill="#263238"/>
<path d="M98.658 31.356C98.658 31.356 99.525 29.673 100.275 29.961C101.025 30.249 100.518 32.589 99.738 33.006C99.6418 33.066 99.5344 33.1059 99.4223 33.1233C99.3103 33.1407 99.1958 33.1352 99.0859 33.1071C98.9761 33.0791 98.873 33.0291 98.7829 32.9602C98.6929 32.8912 98.6177 32.8048 98.562 32.706L98.658 31.356Z" fill="#AD6359"/>
<path d="M100.113 30.63C100.113 30.63 100.131 30.645 100.113 30.651C99.57 30.951 99.339 31.533 99.213 32.115C99.2382 32.0526 99.2768 31.9965 99.3261 31.9506C99.3753 31.9046 99.434 31.87 99.498 31.8492C99.562 31.8283 99.6298 31.8217 99.6967 31.8298C99.7635 31.8379 99.8278 31.8605 99.885 31.896C99.9 31.896 99.885 31.929 99.885 31.929C99.7796 31.9103 99.6711 31.9248 99.5743 31.9704C99.4776 32.0161 99.3974 32.0908 99.345 32.184C99.2572 32.3399 99.1868 32.5048 99.135 32.676C99.117 32.733 99.018 32.718 99.03 32.655C98.904 31.911 99.336 30.81 100.113 30.63Z" fill="#263238"/>
<path d="M95.241 38.148L96.372 40.926L99.804 37.416L100.782 38.538C100.782 38.538 97.428 44.1 97.407 43.857L96.261 41.475L94.62 43.137L94.743 38.97L95.241 38.148Z" fill="#EBEBEB"/>
<path d="M94.563 41.076C94.608 40.389 94.632 39.693 94.707 39.009C94.707 38.985 94.749 38.976 94.755 39.009C94.893 39.672 94.713 42.309 94.716 42.93C94.785 42.858 96.237 41.469 96.252 41.49C96.501 41.868 97.341 43.59 97.398 43.761C97.929 42.876 99.96 39.66 100.59 38.823C100.594 38.8197 100.599 38.8176 100.604 38.8172C100.609 38.8168 100.614 38.818 100.618 38.8207C100.623 38.8234 100.626 38.8274 100.628 38.8321C100.63 38.8368 100.63 38.842 100.629 38.847C100.17 39.765 97.482 44.1 97.44 44.1C96.9975 43.2809 96.597 42.4398 96.24 41.58C95.994 41.88 94.527 43.455 94.521 43.353C94.4955 42.5938 94.5095 41.8338 94.563 41.076Z" fill="#263238"/>
<path d="M56.4899 41.01C60.2639 48.459 64.0979 66.378 64.4549 68.775C64.6979 70.404 56.1329 71.877 56.1329 70.749C56.1329 69.303 54.4049 52.389 54.5699 45.705C54.6599 42.018 55.7099 39.471 56.4899 41.01Z" fill="#EB9481"/>
<path d="M56.1 70.035C55.962 71.016 56.289 74.415 56.931 76.935C57.231 78.165 58.5149 81.6 59.4779 81.435C60.4409 81.27 60.156 80.235 60.156 80.235C60.156 80.235 60.912 81.603 61.863 81.348C62.814 81.093 62.325 79.491 62.325 79.491C62.325 79.491 63.201 80.844 64.125 80.52C65.049 80.196 64.29 78.669 64.29 78.669C64.29 78.669 65.037 79.944 65.691 79.353C66.48 78.642 64.842 76.452 64.566 75.075C64.503 74.775 63.738 68.649 63.738 68.649L56.1 70.035Z" fill="#EB9481"/>
<path d="M64.302 78.648C63.102 77.034 62.856 76.119 62.706 74.148C62.7039 74.1413 62.6998 74.1354 62.6941 74.1313C62.6884 74.1271 62.6816 74.1248 62.6745 74.1248C62.6675 74.1248 62.6607 74.1271 62.655 74.1313C62.6493 74.1354 62.6451 74.1413 62.643 74.148C62.616 76.095 62.76 77.286 64.227 78.717C64.299 78.78 64.359 78.723 64.302 78.648Z" fill="#263238"/>
<path d="M62.349 79.578C61.248 77.793 60.972 76.803 60.66 74.748C60.66 74.718 60.606 74.721 60.609 74.748C60.744 76.791 60.909 77.976 62.25 79.617C62.31 79.695 62.4 79.659 62.349 79.578Z" fill="#263238"/>
<path d="M60.069 80.1C59.13 78.3 58.782 77.223 58.737 75.189C58.7347 75.1809 58.7298 75.1737 58.723 75.1686C58.7163 75.1635 58.708 75.1607 58.6995 75.1607C58.6911 75.1607 58.6828 75.1635 58.6761 75.1686C58.6693 75.1737 58.6644 75.1809 58.662 75.189C58.506 77.268 58.932 78.609 60.012 80.127C60.087 80.214 60.129 80.202 60.069 80.1Z" fill="#263238"/>
<path d="M64.4009 68.349C64.4009 68.349 65.7809 70.449 66.1829 71.52C66.5849 72.591 66.6299 77.082 65.6579 77.148C64.4039 77.232 63.8579 74.637 63.7679 73.332C63.7679 73.332 60.8639 73.527 60.0779 71.748C59.2919 69.969 64.4009 68.349 64.4009 68.349Z" fill="#EB9481"/>
<path d="M65.307 77.055C64.107 76.308 64.089 74.586 63.9 73.326C63.8981 73.3072 63.8916 73.2892 63.8812 73.2735C63.8708 73.2578 63.8568 73.2448 63.8403 73.2356C63.8238 73.2265 63.8053 73.2215 63.7865 73.221C63.7676 73.2206 63.7489 73.2247 63.732 73.233C62.511 73.233 60.786 72.879 60.048 71.823C60.0465 71.8189 60.044 71.8152 60.0409 71.8122C60.0378 71.8092 60.034 71.8068 60.0299 71.8054C60.0258 71.804 60.0214 71.8034 60.0171 71.8039C60.0127 71.8043 60.0085 71.8056 60.0048 71.8079C60.001 71.8101 59.9978 71.8131 59.9953 71.8167C59.9928 71.8202 59.9912 71.8243 59.9904 71.8286C59.9897 71.8329 59.9899 71.8373 59.991 71.8415C59.9922 71.8458 59.9942 71.8497 59.997 71.853C60.633 73.095 62.301 73.581 63.639 73.494C63.813 74.787 63.906 76.515 65.298 77.067C65.307 77.07 65.313 77.061 65.307 77.055Z" fill="#263238"/>
<path d="M65.2771 67.845L55.5481 69.345C55.5481 69.345 53.9971 51.282 53.9401 45.219C53.8831 39.156 56.0611 37.671 58.3981 43.872C60.7351 50.073 65.2771 67.845 65.2771 67.845Z" fill="#47B88F"/>
<path d="M55.5 67.824C59.481 66.924 63.798 66.591 64.548 66.48C64.584 66.48 64.587 66.531 64.548 66.534C63.81 66.606 58.914 67.527 55.5 67.884C55.473 67.887 55.47 67.83 55.5 67.824Z" fill="#263238"/>
<path d="M77.064 133.986C76.389 134.205 56.604 133.908 55.878 133.431C55.791 133.377 55.779 131.589 55.803 129.138L54.84 114.579L67.359 114.615L68.349 127.215C68.349 127.215 71.157 128.511 73.473 129.645C74.4863 130.105 75.4711 130.626 76.422 131.205C77.169 131.829 77.739 133.77 77.064 133.986Z" fill="#EB9481"/>
<path d="M77.064 133.986C76.389 134.205 56.604 133.908 55.878 133.431C55.791 133.377 55.779 131.589 55.803 129.138C60.69 130.227 73.722 131.991 74.103 130.968C74.256 130.557 73.944 130.092 73.479 129.663C74.4923 130.123 75.4771 130.644 76.428 131.223C77.169 131.829 77.739 133.77 77.064 133.986Z" fill="#263238"/>
<path d="M49.554 61.59C49.554 61.59 53.1 99.216 53.178 99.672C53.178 99.732 53.217 100.428 53.25 101.559C53.448 107.766 53.934 127.122 53.934 127.122H68.808C68.808 127.122 67.839 104.196 67.281 98.85C66.57 92.025 62.199 61.59 62.199 61.59H49.554Z" fill="#37474F"/>
<path d="M54.951 100.944C54.493 93.132 53.804 85.332 52.884 77.544C52.362 73.164 51.732 68.799 51.108 64.431C51.108 64.392 51.042 64.395 51.048 64.431C52.2 72.204 53.013 80.031 53.715 87.864C54.417 95.697 54.915 103.512 55.215 111.354C55.398 115.794 55.536 120.24 55.677 124.683C55.6807 124.702 55.6909 124.719 55.706 124.732C55.721 124.744 55.74 124.751 55.7595 124.751C55.779 124.751 55.798 124.744 55.813 124.732C55.8281 124.719 55.8383 124.702 55.842 124.683C55.644 116.775 55.416 108.855 54.951 100.944Z" fill="#263238"/>
<path d="M67.869 124.725C67.479 124.674 67.056 124.689 66.669 124.677C66.225 124.677 65.769 124.656 65.331 124.641C64.47 124.608 63.606 124.584 62.745 124.572C61.008 124.542 59.268 124.554 57.534 124.608L56.1 124.659C55.59 124.677 55.08 124.725 54.57 124.722C54.534 124.722 54.534 124.767 54.57 124.767C55.443 124.767 56.328 124.842 57.204 124.875C58.08 124.908 58.926 124.92 59.787 124.932C61.524 124.956 63.267 124.932 65.001 124.878C65.478 124.86 65.955 124.854 66.432 124.839L67.2 124.8C67.428 124.8 67.653 124.8 67.881 124.779C67.911 124.779 67.908 124.731 67.869 124.725Z" fill="#263238"/>
<path d="M60.3 61.59L53.505 110.598C53.409 106.944 53.313 103.566 53.25 101.559C53.217 100.428 53.19 99.732 53.178 99.672C53.094 99.216 49.554 61.59 49.554 61.59H60.3Z" fill="#263238"/>
<path d="M52.146 136.596C51.438 136.539 33.288 128.655 32.802 127.935C32.742 127.854 33.402 126.198 34.383 123.945L38.385 109.845L49.965 114.492L46.698 127.011C46.698 127.011 48.798 129.288 50.496 131.211C51.2544 132.027 51.9636 132.888 52.62 133.788C53.073 134.643 52.851 136.656 52.146 136.596Z" fill="#EB9481"/>
<path d="M52.146 136.596C51.438 136.539 33.288 128.655 32.802 127.935C32.742 127.854 33.402 126.198 34.383 123.945C38.478 126.831 49.827 133.467 50.583 132.669C50.883 132.351 50.772 131.799 50.508 131.223C51.2664 132.039 51.9756 132.9 52.632 133.8C53.073 134.643 52.851 136.656 52.146 136.596Z" fill="#263238"/>
<path d="M33.0811 122.493L47.5921 126.993C47.5921 126.993 54.6781 102.138 55.2211 96.3C55.7581 90.513 56.2771 78.69 56.5081 70.113C56.5081 70.113 58.9321 68.679 59.5471 67.896C60.1621 67.113 60.7141 64.296 61.9261 61.596H44.1721C39.9301 69.837 43.1221 73.503 43.1221 75.3C43.1221 83.976 41.8111 95.493 41.3941 97.2C40.5241 100.758 33.0811 122.493 33.0811 122.493Z" fill="#37474F"/>
<path d="M47.559 123.819C47.196 123.669 46.785 123.576 46.407 123.459C45.978 123.33 45.546 123.21 45.12 123.078C44.298 122.823 43.47 122.58 42.642 122.346C40.972 121.87 39.29 121.432 37.596 121.032L36.198 120.711C35.703 120.597 35.196 120.51 34.698 120.378C34.659 120.378 34.65 120.411 34.698 120.423C35.544 120.645 36.378 120.948 37.215 121.206C38.052 121.464 38.868 121.695 39.696 121.932C41.367 122.403 43.053 122.832 44.745 123.225C45.213 123.33 45.675 123.447 46.14 123.558L46.887 123.723C47.109 123.774 47.325 123.846 47.55 123.879C47.558 123.88 47.5661 123.878 47.5725 123.873C47.579 123.869 47.5833 123.861 47.5845 123.854C47.5857 123.846 47.5837 123.837 47.5789 123.831C47.5741 123.825 47.567 123.82 47.559 123.819Z" fill="#263238"/>
<path d="M59.961 67.701C59.1138 68.0903 58.3095 68.5669 57.561 69.123C56.766 69.669 56.034 70.296 55.269 70.881C55.239 70.905 55.269 70.953 55.299 70.932C56.106 70.416 56.952 69.963 57.75 69.432C58.5513 68.9459 59.3064 68.3876 60.006 67.764C60.027 67.74 60 67.686 59.961 67.701Z" fill="#263238"/>
<path d="M60.072 62.7C59.97 63.252 59.835 63.801 59.715 64.35C59.595 64.899 59.52 65.391 59.385 65.901C59.2735 66.3943 59.0225 66.8452 58.662 67.2C58.461 67.389 58.236 67.554 58.02 67.728C57.906 67.821 57.78 67.908 57.66 68.004C57.675 67.929 57.687 67.857 57.699 67.779C57.738 67.572 57.774 67.362 57.807 67.152C57.885 66.687 57.96 66.219 58.032 65.754C58.173 64.836 58.302 63.909 58.494 63C58.496 62.992 58.4948 62.9836 58.4906 62.9766C58.4863 62.9696 58.4795 62.9645 58.4715 62.9625C58.4636 62.9605 58.4552 62.9618 58.4481 62.966C58.4411 62.9702 58.436 62.977 58.434 62.985C58.206 63.885 57.954 64.785 57.756 65.685C57.657 66.129 57.309 68.325 57.294 68.481C57.279 68.637 57.264 68.802 57.258 68.964C57.2385 69.1284 57.2385 69.2946 57.258 69.459C57.258 69.498 57.318 69.492 57.333 69.459C57.4002 69.3067 57.4476 69.1464 57.474 68.982C57.513 68.826 57.549 68.667 57.576 68.508C57.576 68.451 57.594 68.391 57.603 68.331C57.819 68.199 58.02 68.031 58.224 67.881C58.428 67.731 58.662 67.581 58.869 67.395C59.2505 67.0731 59.5256 66.6432 59.658 66.162C59.7914 65.6437 59.8787 65.1146 59.919 64.581C59.988 63.957 60.039 63.33 60.126 62.709C60.135 62.7 60.078 62.67 60.072 62.7Z" fill="#263238"/>
<path d="M59.6999 38.778C59.4149 42.303 59.0609 45.927 58.2389 49.371C57.5969 52.053 56.1389 54.138 53.2289 54.417C50.5289 54.675 46.7939 54.117 44.8139 52.074C43.8899 51.123 43.6889 49.929 43.9319 48.657C44.2709 46.89 47.0219 37.326 47.8589 34.338C48.3689 32.52 48.8729 30.675 49.7009 28.965C51.4349 25.365 53.3009 25.665 53.5589 25.62C53.8019 25.506 55.3139 25.068 57.2579 25.992C57.7694 26.2308 58.2247 26.575 58.5938 27.002C58.963 27.4291 59.2377 27.9293 59.3999 28.47C60.4319 31.686 59.9759 35.478 59.6999 38.778Z" fill="#263238"/>
<path d="M52.917 26.061C50.538 26.799 49.668 29.169 48.828 31.281C47.658 34.224 46.536 37.188 45.558 40.203C45.09 41.652 44.658 43.113 44.259 44.583C43.884 45.993 43.395 47.484 43.293 48.945C43.125 51.345 45.165 52.749 47.241 53.382C47.2617 53.3888 47.2842 53.387 47.3037 53.3772C47.3231 53.3673 47.3378 53.3502 47.3445 53.3295C47.3513 53.3088 47.3496 53.2863 47.3397 53.2669C47.3299 53.2475 47.3127 53.2328 47.292 53.226C46.116 52.821 44.931 52.326 44.154 51.297C43.155 49.989 43.497 48.507 43.836 47.031C44.418 44.517 45.141 42.042 45.936 39.594C46.731 37.146 47.649 34.722 48.585 32.319C49.485 30.03 50.316 26.97 52.911 26.1C52.95 26.1 52.941 26.052 52.917 26.061Z" fill="#263238"/>
<path d="M60.063 31.167C59.889 29.28 59.181 27.366 57.33 26.571C59.712 27.705 59.946 30.51 59.964 32.826C59.984 35.268 59.915 37.706 59.757 40.14C59.607 42.483 59.403 44.838 59.04 47.157C58.647 49.659 57.87 51.957 56.106 53.814C56.1021 53.8175 56.0989 53.8218 56.0966 53.8266C56.0943 53.8314 56.093 53.8366 56.0927 53.8419C56.0924 53.8472 56.0932 53.8525 56.095 53.8575C56.0967 53.8625 56.0995 53.8671 56.103 53.871C56.1066 53.8749 56.1108 53.8781 56.1156 53.8804C56.1204 53.8827 56.1256 53.884 56.1309 53.8843C56.1362 53.8846 56.1415 53.8838 56.1465 53.882C56.1515 53.8803 56.1561 53.8775 56.16 53.874C57.849 52.401 58.65 50.163 59.061 48.021C59.5569 45.1774 59.8646 42.3041 59.982 39.42C60.138 36.705 60.315 33.9 60.063 31.167Z" fill="#263238"/>
<path d="M52.776 39.258C52.89 39.558 54.639 41.388 56.055 41.139C56.514 41.055 56.175 38.52 56.175 38.52L56.193 38.328L56.439 35.628L53.1 34.05L52.623 33.846C52.623 33.846 52.602 34.59 52.59 35.514C52.59 35.559 52.59 35.601 52.59 35.646C52.587 35.697 52.587 35.748 52.59 35.799C52.59 35.937 52.59 36.078 52.59 36.219C52.59 36.36 52.59 36.429 52.59 36.54C52.59 36.651 52.59 36.765 52.59 36.876C52.5979 37.6733 52.66 38.4691 52.776 39.258Z" fill="#EB9481"/>
<path d="M52.59 35.514C52.95 36.2161 53.4585 36.8315 54.0801 37.3174C54.7018 37.8033 55.4217 38.1482 56.19 38.328L56.436 35.628L53.1 34.05L52.623 33.846C52.623 33.846 52.602 34.59 52.59 35.514Z" fill="#263238"/>
<path d="M59.871 31.653C60.249 36.393 57.453 37.155 56.43 37.236C55.5 37.308 52.329 37.44 51.465 32.76C50.601 28.08 52.686 26.4 54.801 26.13C56.916 25.86 59.496 26.91 59.871 31.653Z" fill="#EB9481"/>
<path d="M59.073 30.645C58.9649 30.6291 58.8577 30.607 58.752 30.579C58.6348 30.5719 58.5231 30.5266 58.434 30.45C58.4114 30.4202 58.3992 30.3839 58.3992 30.3465C58.3992 30.3091 58.4114 30.2728 58.434 30.243C58.4875 30.1914 58.5537 30.1548 58.6259 30.1369C58.698 30.119 58.7736 30.1204 58.845 30.141C58.998 30.1602 59.1376 30.2376 59.235 30.357C59.2563 30.385 59.2689 30.4185 59.2714 30.4536C59.2738 30.4886 59.2659 30.5236 59.2487 30.5542C59.2314 30.5848 59.2056 30.6098 59.1744 30.6259C59.1432 30.642 59.108 30.6487 59.073 30.645Z" fill="#263238"/>
<path d="M55.917 30.711C56.028 30.696 56.127 30.666 56.238 30.642C56.3497 30.6295 56.4546 30.5823 56.538 30.507C56.5611 30.4775 56.5737 30.441 56.5737 30.4035C56.5737 30.366 56.5611 30.3296 56.538 30.3C56.4838 30.2486 56.4168 30.2126 56.3441 30.1958C56.2713 30.1789 56.1953 30.1817 56.124 30.204C55.9731 30.2282 55.8363 30.3073 55.74 30.426C55.7183 30.455 55.7058 30.4899 55.7042 30.5261C55.7026 30.5624 55.7119 30.5982 55.7311 30.629C55.7502 30.6598 55.7782 30.6841 55.8114 30.6988C55.8446 30.7134 55.8814 30.7177 55.917 30.711Z" fill="#263238"/>
<path d="M56.658 31.908C56.658 31.908 56.634 31.908 56.634 31.935C56.655 32.259 56.634 32.634 56.334 32.751C56.334 32.751 56.334 32.772 56.334 32.769C56.7 32.7 56.73 32.211 56.658 31.908Z" fill="#263238"/>
<path d="M56.358 31.578C55.836 31.557 55.83 32.601 56.313 32.622C56.796 32.643 56.796 31.596 56.358 31.578Z" fill="#263238"/>
<path d="M56.154 31.632C56.061 31.692 55.971 31.794 55.854 31.806C55.737 31.818 55.632 31.707 55.554 31.602H55.536C55.536 31.8 55.605 32.007 55.836 32.037C56.067 32.067 56.175 31.89 56.226 31.689C56.223 31.665 56.19 31.608 56.154 31.632Z" fill="#263238"/>
<path d="M58.458 31.836C58.458 31.836 58.482 31.836 58.482 31.863C58.467 32.187 58.503 32.562 58.797 32.673C58.797 32.673 58.797 32.694 58.797 32.691C58.437 32.637 58.392 32.139 58.458 31.836Z" fill="#263238"/>
<path d="M58.752 31.5C59.271 31.47 59.298 32.514 58.815 32.544C58.332 32.574 58.314 31.527 58.752 31.5Z" fill="#263238"/>
<path d="M58.971 31.566C59.055 31.617 59.139 31.716 59.238 31.722C59.337 31.728 59.433 31.611 59.505 31.5H59.52C59.52 31.698 59.469 31.908 59.28 31.95C59.091 31.992 58.98 31.821 58.92 31.626C58.911 31.599 58.938 31.542 58.971 31.566Z" fill="#263238"/>
<path d="M57.9839 33.3C57.9839 33.3 58.0529 33.783 58.0529 34.011C58.0529 34.035 57.9989 34.044 57.9209 34.05C57.7253 34.087 57.5231 34.0694 57.3368 33.999C57.1505 33.9286 56.9873 33.8082 56.8649 33.651C56.8606 33.6462 56.8583 33.6399 56.8585 33.6334C56.8588 33.627 56.8617 33.6209 56.8664 33.6165C56.8712 33.6121 56.8775 33.6098 56.884 33.6101C56.8905 33.6104 56.8966 33.6132 56.9009 33.618C57.1919 33.8161 57.5394 33.914 57.8909 33.897C57.9059 33.834 57.7439 33.072 57.7799 33.069C57.9573 33.0832 58.1319 33.1216 58.2989 33.183C58.1849 32.172 57.9089 31.188 57.8069 30.183C57.8069 30.175 57.8101 30.1674 57.8157 30.1618C57.8213 30.1562 57.829 30.153 57.8369 30.153C57.8449 30.153 57.8525 30.1562 57.8582 30.1618C57.8638 30.1674 57.8669 30.175 57.8669 30.183C58.1959 31.2292 58.42 32.3055 58.5359 33.396C58.5449 33.498 58.0739 33.33 57.9839 33.3Z" fill="#263238"/>
<path d="M58.3501 32.151C58.2781 31.377 58.6351 30.711 59.1451 30.651C59.6551 30.591 60.1321 31.191 60.2041 31.965C60.2761 32.739 59.9041 33.405 59.4091 33.465C58.9141 33.525 58.4221 32.925 58.3501 32.151ZM58.5391 32.133C58.6021 32.802 58.9831 33.315 59.3911 33.279C59.7991 33.243 60.0811 32.664 60.0181 31.995C59.9551 31.326 59.5711 30.813 59.1631 30.849C58.7551 30.885 58.4761 31.464 58.5391 32.133Z" fill="#263238"/>
<path d="M54.825 32.484C54.8186 32.2276 54.8872 31.9749 55.0224 31.7569C55.1576 31.5389 55.3535 31.3652 55.586 31.257C55.8186 31.1488 56.0776 31.1109 56.3315 31.1478C56.5853 31.1848 56.8228 31.2951 57.0148 31.4652C57.2068 31.6352 57.345 31.8576 57.4123 32.1051C57.4797 32.3526 57.4734 32.6144 57.394 32.8583C57.3147 33.1022 57.1659 33.3177 56.9659 33.4782C56.7659 33.6387 56.5233 33.7374 56.268 33.762C55.9075 33.7825 55.5535 33.6597 55.2832 33.4203C55.0129 33.1809 54.8482 32.8443 54.825 32.484ZM55.014 32.466C55.0522 32.6817 55.1524 32.8816 55.3023 33.0413C55.4522 33.2011 55.6454 33.3137 55.8583 33.3654C56.0711 33.4171 56.2945 33.4058 56.501 33.3327C56.7075 33.2596 56.8883 33.128 57.0212 32.9539C57.1542 32.7798 57.2335 32.5708 57.2497 32.3523C57.2658 32.1338 57.2179 31.9154 57.112 31.7237C57.006 31.5319 56.8465 31.3752 56.6529 31.2726C56.4594 31.1701 56.2401 31.1261 56.022 31.146C55.7135 31.1878 55.4341 31.3502 55.2451 31.5976C55.0562 31.8451 54.9731 32.1574 55.014 32.466Z" fill="#263238"/>
<path d="M57.369 32.115C58.047 31.815 58.386 32.004 58.389 32.007L58.491 31.848C58.476 31.848 58.074 31.584 57.291 31.944L57.369 32.115Z" fill="#263238"/>
<path d="M54.9 32.352L54.918 32.163C54.792 32.163 51.882 31.893 51.57 31.905C51.258 31.917 50.517 32.418 50.436 32.475L50.544 32.631C50.8522 32.3979 51.1969 32.2175 51.564 32.097H51.6C51.828 32.1 53.865 32.259 54.9 32.352Z" fill="#263238"/>
<path d="M51.6 32.421C52.113 32.391 53.451 30.972 53.493 28.488C53.493 28.488 53.301 30.717 53.136 31.044C52.971 31.371 53.883 30.246 53.943 28.245C54.575 28.6958 55.268 29.0544 56.001 29.31C56.946 29.574 57.525 29.565 57.594 29.496C57.663 29.427 56.268 28.989 55.89 28.557C55.89 28.557 58.41 29.724 59.568 29.814C59.703 29.814 59.868 27.063 58.068 25.893C56.268 24.723 53.433 25.989 52.668 26.727C52.668 26.727 51.768 26.853 50.799 28.182C49.83 29.511 51.048 32.454 51.6 32.421Z" fill="#263238"/>
<path d="M52.248 33.066C52.248 33.066 51.219 31.566 50.544 31.938C49.869 32.31 50.631 34.461 51.42 34.761C51.5186 34.8064 51.6254 34.8315 51.7339 34.8348C51.8424 34.838 51.9504 34.8193 52.0515 34.7798C52.1526 34.7403 52.2447 34.6809 52.3223 34.6049C52.3999 34.529 52.4614 34.4382 52.503 34.338L52.248 33.066Z" fill="#EB9481"/>
<path d="M50.778 32.55V32.571C51.33 32.802 51.618 33.318 51.819 33.852C51.7875 33.7959 51.7441 33.7474 51.6919 33.7099C51.6397 33.6724 51.5799 33.6467 51.5168 33.6347C51.4536 33.6227 51.3886 33.6246 51.3263 33.6404C51.2639 33.6562 51.2058 33.6854 51.156 33.726C51.156 33.726 51.156 33.759 51.171 33.756C51.2686 33.7253 51.3734 33.7259 51.4708 33.7576C51.5681 33.7894 51.6531 33.8507 51.714 33.933C51.8154 34.0704 51.9019 34.2182 51.972 34.374C51.996 34.425 52.086 34.398 52.068 34.341C52.08 33.621 51.537 32.628 50.778 32.55Z" fill="#263238"/>
<path d="M52.0829 34.653C52.0835 34.722 52.0636 34.7895 52.0258 34.8472C51.9879 34.9048 51.9337 34.9498 51.8702 34.9766C51.8067 35.0034 51.7366 35.0108 51.6689 34.9977C51.6012 34.9846 51.5389 34.9517 51.49 34.9031C51.441 34.8546 51.4075 34.7926 51.3939 34.725C51.3802 34.6574 51.3869 34.5873 51.4132 34.5235C51.4394 34.4598 51.484 34.4052 51.5413 34.3669C51.5986 34.3285 51.666 34.308 51.7349 34.308C51.8267 34.308 51.9148 34.3442 51.98 34.4089C52.0451 34.4735 52.0822 34.5612 52.0829 34.653Z" fill="white"/>
<path d="M62.7 63.195C62.7 63.195 46.722 63.432 42.756 63.153C42.756 63.153 45.99 44.823 50.256 40.191C50.4149 40.017 50.5831 39.8517 50.76 39.696C51.021 39.477 50.985 37.728 51.108 37.596C51.231 37.464 56.415 38.145 56.481 38.271C56.547 38.397 56.814 40.047 56.814 40.047C57.99 41.547 61.773 46.731 62.214 48.87C62.655 51.009 61.266 53.37 61.266 53.37L62.7 63.195Z" fill="#47B88F"/>
<path d="M49.0349 43.461C48.0899 48.015 48.6509 57.861 50.8349 59.661C54.4349 62.607 63.0869 63.468 65.5019 63.753C66.5429 63.876 68.6159 57.063 67.9019 56.184C67.1879 55.305 56.5529 53.937 56.0459 53.484C55.6949 53.16 54.0419 47.211 52.6169 43.857C50.6999 39.318 49.3799 41.781 49.0349 43.461Z" fill="#EB9481"/>
<path d="M66.102 55.635C66.102 55.635 69.294 55.602 71.382 55.68C72.549 55.722 74.538 55.98 75.381 56.4C76.638 57.033 81.498 60.483 80.685 61.68C79.95 62.763 78.504 61.338 78.504 61.338C78.504 61.338 80.232 62.745 79.173 63.597C78.114 64.449 76.401 62.415 76.401 62.415C76.401 62.415 78.339 63.783 77.121 64.581C76.065 65.277 73.848 63.141 73.848 63.141C73.848 63.141 76.041 64.341 75.027 65.172C73.908 66.072 70.182 63.288 70.182 63.288C67.512 63.888 65.829 63.888 63.867 63.567C63.507 63.507 66.102 55.635 66.102 55.635Z" fill="#EB9481"/>
<path d="M76.935 62.889L76.5 62.43C76.2308 62.1258 75.9443 61.8373 75.642 61.566C75.342 61.308 75.042 61.062 74.712 60.828C74.382 60.594 74.01 60.36 73.68 60.105C73.653 60.084 73.623 60.123 73.653 60.141C73.9807 60.3936 74.2951 60.663 74.595 60.948C74.895 61.218 75.195 61.494 75.495 61.767C75.795 62.04 76.095 62.283 76.395 62.544C76.542 62.673 76.695 62.808 76.83 62.943C76.9579 63.0816 77.0974 63.2091 77.247 63.324C77.262 63.324 77.28 63.324 77.271 63.3C77.174 63.1514 77.0614 63.0136 76.935 62.889Z" fill="#263238"/>
<path d="M78.858 61.638C78.3766 61.0565 77.8554 60.5091 77.298 60C76.7336 59.4943 76.1195 59.047 75.465 58.665C75.441 58.665 75.417 58.683 75.435 58.701C75.999 59.208 76.572 59.706 77.145 60.201C77.424 60.444 78.66 61.59 78.804 61.701C78.837 61.719 78.879 61.671 78.858 61.638Z" fill="#263238"/>
<path d="M75.1559 64.113C74.6891 63.5762 74.188 63.0702 73.6559 62.598C73.0705 62.1668 72.4538 61.7797 71.8109 61.44C71.7869 61.44 71.7629 61.464 71.7839 61.479C72.3659 61.911 72.9539 62.328 73.5149 62.787C73.7909 63.012 74.8289 63.966 75.1109 64.155C75.1409 64.173 75.1739 64.137 75.1559 64.113Z" fill="#263238"/>
<path d="M63.108 64.035L66.915 55.158C66.915 55.158 56.487 53.433 56.166 53.223C55.845 53.013 53.943 46.089 52.722 43.371C51.501 40.653 49.404 39.057 48.594 44.892C47.784 50.727 48.957 57.852 50.13 59.334C51.552 61.128 57.183 63.399 63.108 64.035Z" fill="#47B88F"/>
<path d="M57.75 62.913C56.19 62.49 54.669 61.752 53.178 61.113C51.897 60.576 50.589 59.913 49.878 58.656C49.5465 58.016 49.3148 57.329 49.191 56.619C49.026 55.827 48.891 55.026 48.777 54.219C48.639 53.299 48.515 52.377 48.405 51.453C48.351 50.979 48.297 50.505 48.249 50.031C48.201 49.557 48.114 49.083 48.096 48.606C48.096 48.5996 48.0935 48.5935 48.089 48.589C48.0845 48.5845 48.0784 48.582 48.072 48.582C48.0656 48.582 48.0595 48.5845 48.055 48.589C48.0505 48.5935 48.048 48.5996 48.048 48.606C48.081 49.044 48.048 49.485 48.084 49.926C48.084 50.226 48.12 50.502 48.141 50.79L48.057 50.607C47.9646 50.3968 47.8942 50.1777 47.847 49.953C47.847 49.926 47.796 49.938 47.802 49.953C47.856 50.178 47.91 50.406 47.973 50.628C48.003 50.736 48.039 50.844 48.081 50.952C48.1061 51.0245 48.1352 51.0956 48.168 51.165C48.24 52.027 48.333 52.885 48.447 53.739C48.558 54.567 48.687 55.389 48.834 56.211C48.9428 56.938 49.1361 57.6498 49.41 58.332C49.6824 58.9751 50.0992 59.5468 50.628 60.003C51.176 60.4529 51.7813 60.8282 52.428 61.119C53.8902 61.7945 55.4015 62.3581 56.949 62.805C58.8 63.387 59.364 63.348 57.75 62.913Z" fill="#263238"/>
<path d="M61.665 54.234C61.281 54.183 56.742 53.229 56.565 53.178C56.4764 53.151 56.3963 53.1014 56.3327 53.034C56.269 52.9667 56.224 52.884 56.202 52.794C56.061 52.428 55.938 52.053 55.806 51.684C55.578 51.048 55.346 50.415 55.11 49.785C55.11 49.644 55.083 49.485 55.068 49.362C55.053 49.239 55.023 49.026 54.996 48.858C54.936 48.495 54.828 48.138 54.783 47.775C54.783 47.739 54.726 47.751 54.735 47.775C54.8264 48.1325 54.8807 48.4984 54.897 48.867C54.912 49.011 54.921 49.167 54.93 49.302C54.792 48.933 54.651 48.564 54.504 48.198C54.333 47.772 54.138 47.343 54 46.905C54 46.875 53.946 46.89 53.955 46.905C54.111 47.298 54.222 47.715 54.345 48.105C54.468 48.495 54.6 48.915 54.732 49.32C54.99 50.115 55.263 50.904 55.539 51.696C55.671 52.077 55.8 52.464 55.941 52.842C55.9797 52.9835 56.0559 53.112 56.1615 53.2139C56.267 53.3158 56.3982 53.3874 56.541 53.421C57.33 53.634 61.188 54.273 61.656 54.291C61.704 54.321 61.716 54.24 61.665 54.234Z" fill="#263238"/>
<path d="M64.986 55.296C64.386 56.571 63.786 57.837 63.243 59.139C62.6937 60.4198 62.212 61.7286 61.8 63.06C61.7976 63.066 61.7976 63.0726 61.8002 63.0785C61.8027 63.0845 61.8075 63.0891 61.8135 63.0915C61.8194 63.0939 61.8261 63.0938 61.832 63.0913C61.8379 63.0887 61.8426 63.084 61.845 63.078C62.445 61.827 62.97 60.528 63.501 59.241C64.032 57.954 64.515 56.631 65.052 55.341C65.079 55.287 65.01 55.245 64.986 55.296Z" fill="#263238"/>
<path d="M76.2 54.282C75.741 54.54 73.113 53.814 72.048 54.612C71.343 55.14 70.653 56.412 70.503 58.071C70.35 59.784 71.703 59.697 72.204 58.971C72.8144 58.0153 73.3471 57.012 73.797 55.971C74.2787 56.067 74.7537 56.1942 75.219 56.352L76.2 54.282Z" fill="#AD6359"/>
<path d="M72.978 60.261C72.165 59.409 68.103 62.532 69.378 63.951C70.653 65.37 73.896 61.227 72.978 60.261Z" fill="#AD6359"/>
<path d="M74.334 61.482C73.521 60.63 69.459 63.753 70.734 65.172C72.009 66.591 75.252 62.448 74.334 61.482Z" fill="#AD6359"/>
<path d="M75.402 61.914C74.547 61.251 71.289 64.656 72.654 65.766C74.019 66.876 76.371 62.664 75.402 61.914Z" fill="#AD6359"/>
<path d="M76.563 62.1C75.582 61.725 73.515 65.805 75.096 66.45C76.677 67.095 77.676 62.511 76.563 62.1Z" fill="#AD6359"/>
<path d="M72.858 61.665C72.6324 61.8161 72.4196 61.9857 72.222 62.172C72.003 62.364 71.787 62.559 71.589 62.772C71.3959 62.9734 71.2146 63.1857 71.046 63.408C70.869 63.648 70.722 63.909 70.542 64.143C70.5388 64.1451 70.5361 64.1479 70.5341 64.1513C70.5322 64.1547 70.5312 64.1585 70.531 64.1623C70.5309 64.1662 70.5317 64.17 70.5334 64.1735C70.535 64.177 70.5375 64.1801 70.5406 64.1824C70.5437 64.1847 70.5473 64.1862 70.5511 64.1869C70.555 64.1875 70.5589 64.1872 70.5625 64.186C70.5662 64.1848 70.5695 64.1827 70.5722 64.1799C70.5749 64.1771 70.5769 64.1737 70.578 64.17C70.7558 63.9437 70.9493 63.7302 71.157 63.531C71.352 63.327 71.535 63.114 71.73 62.907C71.925 62.7 72.099 62.499 72.291 62.307C72.483 62.115 72.699 61.917 72.891 61.707C72.9 61.68 72.879 61.653 72.858 61.665Z" fill="#263238"/>
<path d="M74.472 62.046C74.298 62.313 73.689 63.348 73.503 63.609C73.317 63.87 73.122 64.131 72.924 64.386C72.726 64.641 72.534 64.92 72.309 65.16C72.291 65.181 72.324 65.214 72.345 65.193C72.57 64.953 72.816 64.734 73.029 64.482C73.242 64.23 73.437 63.975 73.629 63.708C73.9622 63.1789 74.2628 62.6298 74.529 62.064C74.529 62.037 74.487 62.022 74.472 62.046Z" fill="#263238"/>
<path d="M75.5999 62.628C75.4199 63.024 75.2639 63.435 75.0809 63.828C74.9909 64.023 74.8979 64.218 74.8079 64.428L74.6819 64.713C74.6423 64.8265 74.5921 64.936 74.5319 65.04C74.5139 65.064 74.5619 65.091 74.5739 65.058C74.6342 64.9393 74.7045 64.8258 74.7839 64.719C74.8349 64.629 74.8889 64.539 74.9369 64.449C75.0389 64.249 75.1319 64.054 75.2159 63.864C75.3912 63.4753 75.5376 63.0742 75.6539 62.664C75.6587 62.6568 75.6605 62.6481 75.6588 62.6396C75.6571 62.6312 75.6521 62.6238 75.6449 62.619C75.6378 62.6142 75.629 62.6125 75.6206 62.6142C75.6121 62.6159 75.6047 62.6208 75.5999 62.628Z" fill="#263238"/>
<path d="M78.249 28.53C78.1055 29.9004 77.5841 31.204 76.743 32.2954C75.9019 33.3868 74.7741 34.223 73.4854 34.7108C72.1968 35.1987 70.7979 35.3189 69.4449 35.0581C68.092 34.7974 66.838 34.1658 65.823 33.234L62.1 33.78L63.963 30.564C63.4789 29.3743 63.3111 28.0795 63.4761 26.8057C63.6411 25.5319 64.1332 24.3225 64.9044 23.2954C65.6757 22.2683 66.6998 21.4585 67.877 20.9447C69.0542 20.431 70.3445 20.2309 71.622 20.364C73.5833 20.569 75.3829 21.5442 76.6256 23.0754C77.8682 24.6066 78.4521 26.5685 78.249 28.53Z" fill="white"/>
<path d="M78.249 28.53C78.1045 29.8999 77.5856 31.2036 76.749 32.298C76.5421 32.5713 76.3176 32.8309 76.077 33.075C75.829 33.3121 75.5665 33.5335 75.291 33.738C74.742 34.1555 74.1358 34.4919 73.491 34.737C72.8499 34.9897 72.1762 35.1503 71.49 35.214C71.147 35.2464 70.8021 35.2535 70.458 35.235C70.1127 35.2262 69.7686 35.1901 69.429 35.127C68.0587 34.8803 66.7841 34.257 65.748 33.327L65.838 33.354L62.124 33.9L61.854 33.942L61.989 33.705L63.84 30.483V30.609C63.406 29.546 63.2209 28.3979 63.2989 27.2523C63.3769 26.1068 63.7159 24.9943 64.29 24C64.8689 23.0079 65.6647 22.1597 66.618 21.519C67.8028 20.7258 69.1891 20.2867 70.6145 20.2533C72.0399 20.2198 73.4453 20.5934 74.666 21.3301C75.8867 22.0669 76.8721 23.1363 77.5067 24.4131C78.1413 25.6899 78.3988 27.1211 78.249 28.539V28.53ZM78.249 28.53C78.3676 27.4101 78.2276 26.2779 77.8397 25.2206C77.4519 24.1634 76.8266 23.2092 76.0119 22.4317C75.1973 21.6541 74.215 21.0739 73.1408 20.7357C72.0666 20.3975 70.9292 20.3104 69.816 20.481C68.7142 20.6428 67.6637 21.0532 66.744 21.681C65.8356 22.3191 65.0771 23.1472 64.521 24.108C63.9715 25.0718 63.6484 26.1479 63.576 27.255C63.5078 28.3594 63.6861 29.4651 64.098 30.492L64.125 30.558L64.089 30.621L62.217 33.831L62.085 33.633L65.808 33.111H65.859L65.898 33.144C66.891 34.0738 68.1228 34.7095 69.456 34.98C69.7894 35.0464 70.1274 35.0875 70.467 35.103C70.8056 35.127 71.1454 35.127 71.484 35.103C72.1632 35.0505 72.8317 34.9031 73.47 34.665C74.1148 34.4345 74.7215 34.1089 75.27 33.699C75.828 33.3039 76.321 32.8241 76.731 32.277C77.5704 31.1905 78.0955 29.8944 78.249 28.53Z" fill="#263238"/>
<path d="M69.981 31.998L66.807 28.782L67.872 27.729L69.729 29.607L73.584 23.562L74.847 24.369L69.981 31.998Z" fill="#47B88F"/>
</svg>
