<svg width="16" height="18" viewBox="0 0 16 18" fill="none" xmlns="http://www.w3.org/2000/svg">
<path d="M14.8751 12.6536C14.2584 11.94 13.1045 10.8665 13.1045 7.34989C13.1045 4.67895 11.3656 2.54083 9.02076 2.01627V1.29989C9.02076 0.692484 8.56367 0.19989 7.99997 0.19989C7.43628 0.19989 6.97919 0.692484 6.97919 1.29989V2.01627C4.63438 2.54083 2.8954 4.67895 2.8954 7.34989C2.8954 10.8665 1.74151 11.94 1.12482 12.6536C0.933308 12.8753 0.848402 13.1404 0.849998 13.3999C0.853509 13.9636 1.26431 14.4999 1.87461 14.4999H14.1253C14.7356 14.4999 15.1468 13.9636 15.15 13.3999C15.1515 13.1404 15.0666 12.875 14.8751 12.6536ZM3.00552 12.8499C3.68286 11.8884 4.42339 10.2948 4.4269 7.36983C4.4269 7.36295 4.42499 7.35676 4.42499 7.34989C4.42499 5.22345 6.02543 3.49989 7.99997 3.49989C9.97452 3.49989 11.575 5.22345 11.575 7.34989C11.575 7.35676 11.573 7.36295 11.573 7.36983C11.5766 10.2951 12.3171 11.8888 12.9944 12.8499H3.00552ZM7.99997 17.7999C9.12737 17.7999 10.0419 16.815 10.0419 15.5999H5.95808C5.95808 16.815 6.87258 17.7999 7.99997 17.7999Z" fill="#3F434A"/>
</svg>
