<svg width="68" height="68" viewBox="0 0 68 68" fill="none" xmlns="http://www.w3.org/2000/svg">
<rect x="0.5" y="0.5" width="67" height="67" rx="7.5" fill="#F6F6F6"/>
<path d="M36.488 27.516C36.9258 27.6902 37.2353 28.0043 37.5127 28.4647L37.6042 28.6236L37.9433 29.2739L37.9545 29.2921L37.9646 29.3079L37.9934 29.3473C38.148 29.5157 38.4066 29.6174 38.5773 29.6174C40.1408 29.6174 41.4179 30.8453 41.4962 32.389L41.5 32.5394V36.8856C41.5 38.8896 39.9174 40.525 37.9342 40.6097L37.7725 40.6131H30.2275C28.223 40.6131 26.5881 39.0307 26.5034 37.0473L26.5 36.8856V32.5394C26.5 30.9258 27.8087 29.6174 29.4227 29.6174C29.5928 29.6174 29.8518 29.5155 30.0066 29.3473L30.0119 29.341L30.0186 29.3323L30.0572 29.2731L30.3954 28.6238C30.6968 28.0759 31.0248 27.7096 31.5114 27.5159C32.4032 27.1613 35.597 27.1613 36.488 27.516ZM31.9273 28.5612C31.7612 28.6273 31.6109 28.7803 31.4505 29.0455L31.381 29.1661L31.0924 29.7242L31.0213 29.8527C30.962 29.9514 30.9027 30.0347 30.835 30.1085C30.4896 30.4838 29.9939 30.7006 29.5531 30.7369L29.4227 30.7424L29.2997 30.7465C28.405 30.807 27.6897 31.5222 27.6291 32.4164L27.625 32.5394V36.8856C27.625 38.2748 28.7138 39.4101 30.0847 39.4843L30.2275 39.4881H37.7725C39.1614 39.4881 40.297 38.3989 40.3711 37.0284L40.375 36.8856V32.5394C40.375 31.5885 39.6357 30.8098 38.7003 30.7465L38.5773 30.7424L38.4467 30.7369C38.0053 30.7006 37.5095 30.4837 37.1646 30.108C37.0977 30.0351 37.0387 29.9525 36.9798 29.8547L36.9656 29.8304L36.9487 29.8003L36.8617 29.637L36.6187 29.1663C36.4547 28.8685 36.3045 28.6865 36.1423 28.595L36.072 28.5612L35.9825 28.5315C35.2106 28.3133 32.5258 28.3233 31.9273 28.5612ZM33.9998 31.8994C35.6274 31.8994 36.9465 33.2185 36.9465 34.8462C36.9465 36.4738 35.6274 37.7929 33.9998 37.7929C32.3721 37.7929 31.053 36.4738 31.053 34.8462C31.053 33.2185 32.3721 31.8994 33.9998 31.8994ZM33.9998 33.0244C32.9934 33.0244 32.178 33.8398 32.178 34.8462C32.178 35.8525 32.9934 36.6679 33.9998 36.6679C35.0061 36.6679 35.8215 35.8525 35.8215 34.8462C35.8215 33.8398 35.0061 33.0244 33.9998 33.0244ZM38.1282 31.3751C38.5424 31.3751 38.8782 31.7109 38.8782 32.1251C38.8782 32.5098 38.5887 32.8268 38.2157 32.8701L38.1282 32.8751C37.7073 32.8751 37.3715 32.5394 37.3715 32.1251C37.3715 31.7405 37.661 31.4235 38.034 31.3802L38.1282 31.3751Z" fill="black"/>
<rect x="0.5" y="0.5" width="67" height="67" rx="7.5" stroke="#E8E9EB"/>
</svg>
