<svg width="20" height="4" viewBox="0 0 20 4" fill="none" xmlns="http://www.w3.org/2000/svg">
<path fill-rule="evenodd" clip-rule="evenodd" d="M4.15 2C4.15 3.07696 3.27696 3.95 2.2 3.95C1.12304 3.95 0.25 3.07696 0.25 2C0.25 0.923048 1.12304 0.0500031 2.2 0.0500031C3.27696 0.0500031 4.15 0.923048 4.15 2ZM11.95 2C11.95 3.07696 11.077 3.95 10 3.95C8.92304 3.95 8.05 3.07696 8.05 2C8.05 0.923048 8.92304 0.0500031 10 0.0500031C11.077 0.0500031 11.95 0.923048 11.95 2ZM17.8 3.95C18.877 3.95 19.75 3.07696 19.75 2C19.75 0.923048 18.877 0.0500031 17.8 0.0500031C16.723 0.0500031 15.85 0.923048 15.85 2C15.85 3.07696 16.723 3.95 17.8 3.95Z" fill="#8A9099"/>
</svg>
