<svg width="20" height="20" viewBox="0 0 20 20" fill="none" xmlns="http://www.w3.org/2000/svg">
<path fill-rule="evenodd" clip-rule="evenodd" d="M0 5C0 2.23858 2.23858 0 5 0H15C17.7614 0 20 2.23858 20 5V15C20 17.7614 17.7614 20 15 20H5C2.23858 20 0 17.7614 0 15V5ZM5 2C3.34315 2 2 3.34315 2 5V15C2 16.6569 3.34315 18 5 18H15C16.6569 18 18 16.6569 18 15V5C18 3.34315 16.6569 2 15 2H5ZM10 5.5C8.5523 5.5 8 6.55229 8 7C8 7.55229 7.55228 8 7 8C6.44772 8 6 7.55229 6 7C6 5.44772 7.44771 3.5 10 3.5C11.1557 3.5 12.1702 3.78891 12.9085 4.43492C13.6643 5.09623 14 6.01748 14 7C14 8.1875 13.6945 9.0279 13.1178 9.6677C12.8502 9.9645 12.5539 10.1844 12.2896 10.3608C12.1648 10.4442 12.0375 10.524 11.9223 10.5962L11.9043 10.6075C11.7803 10.6853 11.6678 10.7561 11.5575 10.8302C11.2061 11.0662 11.0643 11.2421 11.0061 11.3563C10.9615 11.4436 10.9296 11.5614 10.9786 11.7942C11.0922 12.3347 10.7462 12.865 10.2058 12.9786C9.6653 13.0922 9.135 12.7462 9.0214 12.2058C8.8952 11.6054 8.938 11.0088 9.2247 10.4472C9.4975 9.9124 9.9434 9.505 10.4425 9.1698C10.5822 9.076 10.7197 8.9896 10.8418 8.9131L10.851 8.9073C10.9733 8.8306 11.0787 8.7646 11.1791 8.6975C11.3836 8.561 11.5248 8.4478 11.6322 8.3286C11.8055 8.1363 12 7.81253 12 7C12 6.48252 11.8357 6.15377 11.5915 5.94008C11.3298 5.71109 10.8443 5.5 10 5.5ZM10 13.7812C9.4477 13.7812 9 14.229 9 14.7812C9 15.3335 9.4477 15.7812 10 15.7812C10.5523 15.7812 11 15.3335 11 14.7812C11 14.229 10.5523 13.7812 10 13.7812Z" fill="#2D233B"/>
</svg>
