<svg width="32" height="33" viewBox="0 0 32 33" fill="none" xmlns="http://www.w3.org/2000/svg">
<path fill-rule="evenodd" clip-rule="evenodd" d="M17.5999 8.5C17.5999 7.61635 16.8836 6.9 15.9999 6.9C15.1162 6.9 14.3999 7.61635 14.3999 8.5V14.9H7.9999C7.11625 14.9 6.3999 15.6163 6.3999 16.5C6.3999 17.3837 7.11625 18.1 7.9999 18.1H14.3999V24.5C14.3999 25.3837 15.1162 26.1 15.9999 26.1C16.8836 26.1 17.5999 25.3837 17.5999 24.5V18.1H23.9999C24.8836 18.1 25.5999 17.3837 25.5999 16.5C25.5999 15.6163 24.8836 14.9 23.9999 14.9H17.5999V8.5Z" fill="#B2B3B3"/>
</svg>
