<svg width="24" height="24" viewBox="0 0 24 24" fill="none" xmlns="http://www.w3.org/2000/svg">
<g clip-path="url(#clip0_58_3715)">
<path d="M12 24C18.6093 24 24 18.6094 24 12.0001C24 5.3907 18.6094 0.00012207 12 0.00012207C5.39058 0.00012207 0 5.3907 0 12.0001C0 18.6094 5.39058 24 12 24Z" fill="#FF965D"/>
<path d="M7.99279 15.2164C6.9921 12.6918 4.89009 10.407 7.53515 5.80476C8.62452 3.90933 10.2885 2.65926 12.0075 3.0825C13.7265 2.65931 15.3906 3.90937 16.4799 5.80476C19.1249 10.407 17.023 12.6918 16.0222 15.2164L12.0077 15.2263L7.99293 15.2164H7.99279Z" fill="#1F0951"/>
<path fill-rule="evenodd" clip-rule="evenodd" d="M19.3184 21.4994C17.2905 23.0662 14.7508 24 11.9999 24C9.24901 24 6.70924 23.0662 4.6814 21.4993C4.7589 21.1658 4.83258 20.8328 4.90033 20.5265C5.05426 19.8306 5.17762 19.273 5.24574 19.163C6.10208 17.7803 7.16512 17.2886 8.09962 16.8564C9.26736 16.3162 10.2344 15.8689 10.3467 13.892C10.3467 13.892 11.2362 14.5735 11.9662 14.567C12.6961 14.5604 13.6521 13.847 13.6521 13.847C13.7648 15.8292 14.735 16.2876 15.9056 16.8406C16.8386 17.2814 17.899 17.7824 18.754 19.163C18.8221 19.2728 18.9453 19.8299 19.0991 20.5252C19.1669 20.8319 19.2407 21.1655 19.3184 21.4994Z" fill="#FFD7A3"/>
<path d="M13.7038 14.3502C13.6798 14.194 13.6622 14.0271 13.652 13.8472C13.652 13.8472 12.696 14.5606 11.9661 14.5671C11.2361 14.5736 10.3466 13.8922 10.3466 13.8922C10.3363 14.0754 10.3182 14.2448 10.2935 14.403C10.3122 14.4178 10.3307 14.4328 10.3498 14.4474L10.3495 14.45C10.4057 14.4989 11.2602 15.2337 11.966 15.2263C12.6717 15.2336 13.5261 14.4988 13.5824 14.45L13.5823 14.4474C13.6237 14.4157 13.6639 14.383 13.7036 14.3503L13.7038 14.3502Z" fill="#F0C290"/>
<path d="M10.3497 13.8944C10.4059 13.9368 11.2604 14.5733 11.9662 14.567C12.6719 14.5733 13.5263 13.9367 13.5826 13.8944C14.6493 13.2725 15.5246 11.4389 15.327 9.45177C15.1652 7.82399 13.4043 10.2108 12.1779 6.85217C10.4421 10.4884 8.79338 8.33746 8.60541 9.71549C8.39822 11.2338 9.25064 13.1443 10.3497 13.8945V13.8944Z" fill="#FFE1B2"/>
<path fill-rule="evenodd" clip-rule="evenodd" d="M19.3561 21.4701C17.3221 23.0545 14.7679 24 11.9999 24C9.23032 24 6.67474 23.0534 4.64014 21.4673C4.74955 20.8952 4.85231 20.2795 4.94278 19.7375C5.07678 18.9347 5.18382 18.2935 5.2456 18.1942C5.72426 17.4246 6.71308 17.1515 7.63372 16.8973C8.11936 16.7632 8.58603 16.6343 8.94883 16.4406L8.94915 16.441C10.8971 22.6899 13.334 22.2855 14.969 16.3537C15.3229 16.5437 15.8121 16.6756 16.3241 16.8136C17.3336 17.0857 18.4316 17.3816 18.7537 18.1942C18.7909 18.2879 18.8752 18.7778 18.9864 19.4242C19.0913 20.034 19.2202 20.783 19.3561 21.4701ZM8.94897 16.4405C8.94892 16.4405 8.94888 16.4406 8.94883 16.4406L8.94877 16.4405H8.94897ZM8.94897 16.4405C8.949 16.4405 8.94902 16.4405 8.94905 16.4405V16.4405H8.94897Z" fill="#304FFD"/>
<path d="M9.64974 15.8509C9.58149 17.6964 9.89527 20.311 11.966 20.9791C10.0165 21.0606 8.75143 18.2516 7.3103 17.5159L9.64969 15.851V15.8509H9.64974Z" fill="white"/>
<path d="M14.3984 15.8509C14.47 17.6964 14.1406 20.311 11.9661 20.9791C14.0132 21.0606 15.3417 18.2516 16.8548 17.5159L14.3983 15.851L14.3984 15.8509Z" fill="white"/>
</g>
<defs>
<clipPath id="clip0_58_3715">
<rect width="24" height="24" fill="white"/>
</clipPath>
</defs>
</svg>
