<svg width="25" height="20" viewBox="0 0 25 20" fill="none" xmlns="http://www.w3.org/2000/svg">
<path fill-rule="evenodd" clip-rule="evenodd" d="M8.31747 5.09059C9.4019 3.14393 11.5754 2.24588 13.5954 2.45383C15.5819 2.65832 17.2208 3.89436 17.4954 6.09119C17.5657 6.65414 18.0443 7.07661 18.6116 7.07665C20.6737 7.07677 21.9737 8.6633 22.2127 10.7338C22.4476 12.7698 21.5814 14.7189 19.8259 15.399L17.2019 15.3991L16.6511 15.3993L16.5326 15.3993L16.5054 15.3993L16.4988 15.3993H16.4972H16.4968H16.4967H16.4967C15.8754 15.3996 15.3719 15.9035 15.3722 16.5248C15.3725 17.1462 15.8765 17.6496 16.4978 17.6493H16.4978H16.4979H16.4983H16.4999L16.5063 17.6493L16.5335 17.6493L16.6517 17.6493L17.2022 17.6491L20.0213 17.649C20.1422 17.649 20.2624 17.6295 20.3771 17.5912C23.5789 16.524 24.7671 13.2428 24.4478 10.4759C24.1549 7.93805 22.5294 5.34904 19.5526 4.89623C18.803 2.03845 16.3737 0.477932 13.8258 0.215655C11.357 -0.038486 8.62037 0.89707 6.92928 3.11355C5.57652 2.70177 4.24949 3.17725 3.38387 4.08504C2.5437 4.96612 2.09771 6.2932 2.42541 7.6198C0.882349 8.84524 0.355081 10.8389 0.5331 12.6076C0.740368 14.6669 1.94241 16.8522 4.1595 17.5912C4.27421 17.6295 4.39434 17.649 4.51525 17.649L7.33437 17.6491L7.88488 17.6493L8.00318 17.6493L8.03031 17.6493L8.03677 17.6493H8.03834H8.03873H8.03882H8.03884C8.66017 17.6496 9.16409 17.1462 9.16439 16.5248C9.16469 15.9035 8.66125 15.3996 8.03992 15.3993H8.03989H8.03979H8.03939H8.03779L8.03126 15.3993L8.00402 15.3993L7.88553 15.3993L7.33473 15.3991L4.71616 15.399C3.6728 14.9682 2.91373 13.7925 2.77179 12.3823C2.62438 10.9177 3.18102 9.63027 4.30498 9.08042C4.58509 8.94339 4.79576 8.69624 4.8867 8.39795C4.97764 8.09967 4.9407 7.77703 4.78468 7.50702C4.40229 6.84523 4.56018 6.11182 5.01222 5.63777C5.43414 5.1953 6.04656 5.03612 6.71034 5.47895C6.97155 5.65322 7.29371 5.71038 7.59893 5.63663C7.90415 5.56287 8.16466 5.3649 8.31747 5.09059ZM13.0639 7.97569L12.2684 7.1802L11.4729 7.97569L7.9488 11.4998C7.50946 11.9391 7.50946 12.6514 7.9488 13.0908C8.38814 13.5301 9.10045 13.5301 9.53979 13.0908L11.1434 11.4872V18.6387C11.1434 19.26 11.6471 19.7637 12.2684 19.7637C12.8897 19.7637 13.3934 19.26 13.3934 18.6387V11.4872L14.997 13.0908C15.4364 13.5301 16.1487 13.5301 16.588 13.0908C17.0273 12.6514 17.0273 11.9391 16.588 11.4998L13.0639 7.97569Z" fill="#8A9099"/>
</svg>
