<svg width="15" height="16" viewBox="0 0 15 16" fill="none" xmlns="http://www.w3.org/2000/svg">
<path fill-rule="evenodd" clip-rule="evenodd" d="M1.59432 0.644365C2.0069 0.231785 2.56648 0 3.14995 0H8.22495C8.42386 0 8.61463 0.0790176 8.75528 0.21967L13.8303 5.29467C13.9709 5.43532 14.05 5.62609 14.05 5.825V13.8C14.05 14.3835 13.8182 14.9431 13.4056 15.3556C12.993 15.7682 12.4334 16 11.85 16H3.14995C2.56647 16 2.0069 15.7682 1.59432 15.3556C1.18174 14.9431 0.949951 14.3835 0.949951 13.8V2.2C0.949951 1.61652 1.18174 1.05695 1.59432 0.644365ZM3.14995 1.5C2.9643 1.5 2.78625 1.57375 2.65498 1.70503C2.5237 1.8363 2.44995 2.01435 2.44995 2.2V13.8C2.44995 13.9857 2.5237 14.1637 2.65498 14.295C2.78625 14.4263 2.9643 14.5 3.14995 14.5H11.85C12.0356 14.5 12.2136 14.4263 12.3449 14.295C12.4762 14.1637 12.55 13.9857 12.55 13.8V6.13566L7.91429 1.5H3.14995Z" fill="#3F434A"/>
<path fill-rule="evenodd" clip-rule="evenodd" d="M8.22485 0C8.63907 0 8.97485 0.335786 8.97485 0.75V5.075H13.2999C13.7141 5.075 14.0499 5.41079 14.0499 5.825C14.0499 6.23921 13.7141 6.575 13.2999 6.575H8.22485C7.81064 6.575 7.47485 6.23921 7.47485 5.825V0.75C7.47485 0.335786 7.81064 0 8.22485 0Z" fill="#3F434A"/>
<path d="M5.8678 9.81579C5.8678 9.98958 5.82649 10.1491 5.74388 10.2944C5.66126 10.4369 5.53439 10.5523 5.36326 10.6406C5.19213 10.7289 4.97969 10.7731 4.72594 10.7731H4.25681V11.85H3.5V8.84998H4.72594C4.97379 8.84998 5.18328 8.89129 5.35441 8.97391C5.52554 9.05653 5.65389 9.17049 5.73945 9.31579C5.82502 9.46109 5.8678 9.62775 5.8678 9.81579ZM4.66841 10.1919C4.81299 10.1919 4.92068 10.1591 4.99149 10.0936C5.0623 10.028 5.09771 9.93545 5.09771 9.81579C5.09771 9.69613 5.0623 9.60354 4.99149 9.53801C4.92068 9.47248 4.81299 9.43972 4.66841 9.43972H4.25681V10.1919H4.66841Z" fill="#3F434A"/>
<path d="M7.42578 8.84998C7.75329 8.84998 8.03949 8.91265 8.28439 9.03801C8.52928 9.16337 8.71811 9.34 8.85089 9.56792C8.98661 9.793 9.05447 10.0537 9.05447 10.35C9.05447 10.6434 8.98661 10.9041 8.85089 11.132C8.71811 11.3599 8.5278 11.5366 8.27996 11.6619C8.03507 11.7873 7.75034 11.85 7.42578 11.85H6.2618V8.84998H7.42578ZM7.3771 11.2175C7.6633 11.2175 7.88606 11.142 8.04539 10.991C8.20472 10.84 8.28439 10.6263 8.28439 10.35C8.28439 10.0736 8.20472 9.85852 8.04539 9.70468C7.88606 9.55083 7.6633 9.47391 7.3771 9.47391H7.01861V11.2175H7.3771Z" fill="#3F434A"/>
<path d="M11.5 8.84998V9.43545H10.2342V10.0679H11.1813V10.6363H10.2342V11.85H9.47741V8.84998H11.5Z" fill="#3F434A"/>
</svg>
