<svg width="127" height="126" viewBox="0 0 127 126" fill="none" xmlns="http://www.w3.org/2000/svg">
<path d="M12.386 51.9881L3.72324 50.9883L4.0715 50.1454L12.2215 51.0997L12.0473 51.5211L5.95489 45.5871L6.26649 44.833L14.4348 45.7429L14.2698 46.1422L8.15446 40.2637L8.47981 39.4762L14.9796 45.7108L14.6222 46.5759L6.86798 45.7307L6.95963 45.5089L12.7388 51.1341L12.386 51.9881Z" fill="#A9DF90"/>
<path d="M16.6277 30.7587C16.9394 30.3525 17.287 30.0634 17.6705 29.8915C18.0528 29.7078 18.4595 29.663 18.8903 29.7569C19.3261 29.8445 19.7714 30.09 20.2265 30.4932L22.9656 32.9207L22.4469 33.5966L19.7706 31.2248C19.2737 30.7844 18.7972 30.5861 18.3412 30.6298C17.884 30.6618 17.4728 30.9158 17.1075 31.3918C16.8348 31.7472 16.665 32.1192 16.5981 32.5078C16.5301 32.8847 16.5688 33.2603 16.7143 33.6344C16.8586 33.9969 17.1104 34.3373 17.4696 34.6556L19.9483 36.8523L19.4296 37.5282L12.7658 31.6227L13.2845 30.9468L16.5266 33.82L16.1818 33.7383C15.9623 33.2772 15.8907 32.7873 15.967 32.2684C16.0373 31.7443 16.2576 31.241 16.6277 30.7587Z" fill="#A9DF90"/>
<path d="M30.9666 24.9397L30.1529 23.8103L29.992 23.6483L28.6311 21.7595C28.3178 21.3246 27.9601 21.0875 27.558 21.0483C27.1621 21.0039 26.7366 21.1711 26.2816 21.5497C25.9679 21.8106 25.7094 22.114 25.506 22.4597C25.3026 22.8054 25.168 23.151 25.1021 23.4964L24.4351 23.226C24.5221 22.8007 24.6957 22.3863 24.956 21.9829C25.2115 21.5731 25.5299 21.2096 25.9112 20.8923C26.5385 20.3704 27.1405 20.1343 27.7173 20.1839C28.2955 20.2219 28.8254 20.5752 29.3071 21.2438L31.5939 24.4178L30.9666 24.9397ZM29.332 26.3775C28.9692 26.6794 28.608 26.8812 28.2486 26.983C27.8906 27.0732 27.5614 27.0668 27.2609 26.9638C26.9558 26.8543 26.698 26.6535 26.4876 26.3614C26.2958 26.0953 26.1812 25.8065 26.1438 25.4951C26.1078 25.1721 26.1783 24.8331 26.3554 24.4782C26.5339 24.1116 26.8538 23.7365 27.315 23.3527L28.9847 21.9636L29.3565 22.4796L27.7053 23.8534C27.2379 24.2423 26.9751 24.6011 26.9168 24.9298C26.8647 25.2534 26.9322 25.5451 27.1193 25.8047C27.3297 26.0968 27.6057 26.2409 27.9472 26.2371C28.2887 26.2333 28.6532 26.0702 29.0406 25.7478C29.4096 25.4408 29.6632 25.0897 29.8014 24.6945C29.9411 24.2876 29.9508 23.8642 29.8306 23.4244L30.3219 23.7786C30.4421 24.2185 30.4209 24.6669 30.2584 25.124C30.102 25.5759 29.7932 25.9937 29.332 26.3775Z" fill="#A9DF90"/>
<path d="M39.4039 19.3534C38.8841 19.6368 38.4154 19.7103 37.9979 19.5741C37.5803 19.4378 37.2469 19.1057 36.9976 18.5775L34.4723 13.2276L35.2204 12.8198L37.7252 18.1264C37.8823 18.4592 38.0843 18.672 38.3312 18.7648C38.5852 18.8537 38.8667 18.814 39.1757 18.6455C39.5059 18.4656 39.7337 18.2186 39.8593 17.9046L40.3839 18.3144C40.3013 18.5323 40.17 18.7312 39.99 18.9112C39.817 19.0873 39.6217 19.2347 39.4039 19.3534ZM34.3783 15.6665L34.0761 15.0262L37.5004 13.1597L37.8026 13.8L34.3783 15.6665Z" fill="#A9DF90"/>
<path d="M54.9966 13.7877L52.0094 7.79155L52.82 7.69794L55.5473 13.2651L55.1778 13.3078L56.8015 7.23813L57.5287 7.15415L60.2918 12.7172L59.9222 12.7599L61.5222 6.69296L62.297 6.60347L60.5517 13.1462L59.753 13.2384L57.108 8.01198L57.3584 7.98307L55.7953 13.6955L54.9966 13.7877Z" fill="#A9DF90"/>
<path d="M70.8832 13.7412C70.2338 13.6487 69.6802 13.4325 69.2225 13.0926C68.7657 12.7448 68.4281 12.3129 68.2096 11.7971C67.9922 11.2732 67.9216 10.7017 67.998 10.0824C68.0744 9.46307 68.2726 8.93383 68.5927 8.49466C68.9208 8.05662 69.3311 7.73534 69.8238 7.5308C70.3253 7.31946 70.8652 7.25496 71.4434 7.3373C72.0295 7.42077 72.5316 7.62963 72.9497 7.96388C73.3768 8.29131 73.6911 8.71581 73.8927 9.23736C74.0953 9.75097 74.158 10.3214 74.0806 10.9487C74.0757 10.9884 74.0664 11.0315 74.0526 11.078C74.0477 11.1177 74.0423 11.1613 74.0364 11.209L68.6072 10.4358L68.6851 9.80454L73.6628 10.5135L73.2993 10.7162C73.3551 10.2636 73.3056 9.84856 73.1507 9.47101C73.0047 9.08665 72.7776 8.77153 72.4694 8.52566C72.1613 8.27979 71.7894 8.12583 71.3538 8.06379C70.9261 8.00288 70.5297 8.04743 70.1647 8.19742C69.7996 8.34741 69.5 8.58752 69.2659 8.91774C69.0317 9.24796 68.8863 9.64333 68.8295 10.1038L68.8133 10.2348C68.7546 10.7112 68.8056 11.1467 68.9665 11.5413C69.1363 11.929 69.3946 12.2526 69.7413 12.5121C70.097 12.7647 70.5164 12.9254 70.9995 12.9942C71.3797 13.0484 71.7405 13.0311 72.0818 12.9424C72.4311 12.8548 72.7417 12.6889 73.0136 12.4449L73.4212 13.0604C73.1029 13.3544 72.7231 13.5588 72.2818 13.6737C71.8484 13.7898 71.3822 13.8122 70.8832 13.7412Z" fill="#A9DF90"/>
<path d="M89.5155 20.4193C88.9893 20.1147 88.576 19.7185 88.2755 19.2309C87.9856 18.7401 87.827 18.21 87.7998 17.6406C87.7762 17.0641 87.9042 16.4969 88.1838 15.9391C88.467 15.3741 88.8374 14.9472 89.2948 14.6584C89.7522 14.3696 90.2496 14.2238 90.7869 14.2211C91.3242 14.2184 91.8595 14.3714 92.3926 14.68C92.9326 14.9926 93.3494 15.3907 93.6429 15.8744C93.9434 16.362 94.1037 16.8885 94.124 17.4539C94.1513 18.0233 94.0233 18.5905 93.74 19.1554C93.4604 19.7133 93.0901 20.1402 92.629 20.4362C92.1785 20.729 91.6794 20.8783 91.1315 20.8841C90.5873 20.8828 90.0486 20.7279 89.5155 20.4193ZM89.8543 19.7434C90.249 19.9719 90.6434 20.0849 91.0377 20.0824C91.4355 20.0728 91.8035 19.9536 92.1415 19.7249C92.49 19.4929 92.7736 19.1588 92.9923 18.7226C93.2146 18.2792 93.3181 17.8409 93.303 17.4077C93.2949 16.9785 93.1833 16.5864 92.9683 16.2312C92.7568 15.8689 92.4573 15.5756 92.0695 15.3511C91.6818 15.1267 91.289 15.0193 90.8912 15.0289C90.4969 15.0313 90.1273 15.1449 89.7824 15.3697C89.4374 15.5945 89.1538 15.9285 88.9316 16.372C88.7129 16.8082 88.6093 17.2465 88.6208 17.6868C88.6359 18.12 88.7492 18.5178 88.9606 18.8801C89.1756 19.2352 89.4735 19.523 89.8543 19.7434Z" fill="#A9DF90"/>
<path d="M97.3194 25.9955L101.603 20.3436C101.942 19.8973 102.338 19.6451 102.793 19.587C103.247 19.5289 103.706 19.7027 104.17 20.1084C104.35 20.2664 104.506 20.4447 104.636 20.6433C104.766 20.8418 104.847 21.0453 104.879 21.2538L104.278 21.571C104.25 21.4091 104.191 21.2563 104.1 21.1127C104.013 20.9627 103.901 20.8271 103.762 20.7059C103.491 20.4688 103.223 20.3667 102.958 20.3996C102.692 20.4325 102.441 20.6052 102.205 20.9176L101.625 21.6827L101.404 22.0141L97.9605 26.5566L97.3194 25.9955ZM99.8485 20.7961L100.276 20.2318L103.211 22.8005L102.783 23.3647L99.8485 20.7961Z" fill="#A9DF90"/>
<path d="M103.823 32.6624L108.971 27.7849C109.378 27.3997 109.81 27.2157 110.268 27.2327C110.726 27.2497 111.15 27.4963 111.54 27.9725C111.693 28.1581 111.817 28.3594 111.912 28.5766C112.008 28.7938 112.055 29.0079 112.052 29.219L111.408 29.4337C111.407 29.2694 111.374 29.1089 111.307 28.9522C111.246 28.79 111.157 28.6378 111.041 28.4955C110.812 28.2172 110.565 28.0726 110.298 28.0617C110.031 28.0508 109.755 28.1802 109.47 28.4498L108.773 29.11L108.501 29.4009L104.363 33.3211L103.823 32.6624ZM107.167 27.9444L107.681 27.4575L110.155 30.4726L109.641 30.9596L107.167 27.9444Z" fill="#A9DF90"/>
<path d="M110.374 42.5559C110.058 41.9809 109.896 41.4032 109.887 40.8228C109.884 40.2381 110.019 39.6945 110.289 39.192C110.566 38.6852 110.969 38.2647 111.496 37.9305C112.023 37.5963 112.552 37.4164 113.085 37.3907C113.621 37.3721 114.116 37.4933 114.569 37.7543C115.032 38.0181 115.405 38.4059 115.686 38.9178C115.971 39.4367 116.108 39.9688 116.098 40.5142C116.098 41.0623 115.956 41.5827 115.671 42.0754C115.393 42.5639 114.987 42.9774 114.453 43.3158C114.419 43.3373 114.38 43.3573 114.336 43.376C114.302 43.3974 114.265 43.421 114.224 43.4467L111.585 38.6399L112.122 38.2993L114.542 42.7064L114.167 42.5469C114.553 42.3026 114.846 41.9986 115.047 41.6348C115.258 41.2737 115.368 40.8924 115.375 40.4907C115.382 40.0891 115.28 39.6955 115.068 39.3098C114.86 38.9311 114.589 38.6446 114.254 38.4502C113.92 38.2558 113.554 38.1708 113.158 38.1954C112.761 38.2199 112.367 38.3564 111.975 38.6049L111.864 38.6756C111.458 38.9326 111.15 39.2509 110.94 39.6303C110.74 40.0124 110.642 40.4239 110.648 40.8649C110.664 41.3086 110.789 41.7443 111.024 42.1721C111.209 42.5086 111.438 42.7843 111.71 42.9989C111.987 43.2206 112.301 43.3616 112.653 43.4221L112.418 44.1384C112 44.0729 111.614 43.9015 111.261 43.6241C110.912 43.3537 110.617 42.9977 110.374 42.5559Z" fill="#A9DF90"/>
<path d="M114.303 51.4313L120.183 49.1695L120.441 49.9437L118.839 50.5598L119.092 50.3724C119.596 50.367 120.029 50.5172 120.392 50.8228C120.763 51.1256 121.045 51.5692 121.24 52.1536L120.467 52.4509C120.457 52.4205 120.447 52.3902 120.437 52.3598C120.434 52.3266 120.428 52.2948 120.418 52.2644C120.208 51.6345 119.853 51.2143 119.353 51.0041C118.861 50.791 118.268 50.8179 117.574 51.085L114.572 52.2396L114.303 51.4313Z" fill="#A9DF90"/>
<path d="M4.93066 79.2036L11.9289 73.8999L12.2427 74.7562L5.64955 79.736L5.49262 79.3078L13.94 79.387L14.2208 80.1531L7.64418 85.178L7.49551 84.7723L15.9223 84.7951L16.2155 85.5951L7.26805 85.5807L6.94594 84.7019L13.1766 79.9182L13.2592 80.1435L5.24864 80.0712L4.93066 79.2036Z" fill="#A9DF90"/>
<path d="M19.3797 93.893C19.6898 94.3004 19.8788 94.7136 19.9466 95.1326C20.0259 95.5535 19.9663 95.9633 19.7677 96.3621C19.5739 96.7672 19.2267 97.1422 18.7259 97.4871L15.7118 99.5633L15.1958 98.8853L18.1408 96.8568C18.6876 96.4801 18.9976 96.0628 19.0708 95.6049C19.1555 95.1487 19.0161 94.6819 18.6528 94.2045C18.3814 93.848 18.0683 93.5882 17.7132 93.4252C17.3696 93.2641 17.0005 93.2079 16.6057 93.2566C16.2224 93.3071 15.8331 93.4685 15.4378 93.7408L12.7103 95.6195L12.1943 94.9416L19.5271 89.8908L20.0431 90.5687L16.4755 93.0261L16.6406 92.7086C17.1372 92.6091 17.6242 92.6618 18.1015 92.8667C18.5854 93.0671 19.0115 93.4092 19.3797 93.893Z" fill="#A9DF90"/>
<path d="M24.7394 108.471L25.6683 107.434L25.7925 107.242L27.3461 105.508C27.7037 105.109 27.8606 104.706 27.8167 104.3C27.779 103.899 27.5302 103.513 27.0704 103.14C26.7535 102.883 26.4067 102.689 26.0301 102.559C25.6535 102.428 25.2911 102.366 24.9428 102.371L25.0689 101.656C25.499 101.655 25.9361 101.742 26.3801 101.916C26.8295 102.085 27.2469 102.326 27.6321 102.639C28.2659 103.152 28.6176 103.7 28.6871 104.281C28.7681 104.861 28.5337 105.458 27.9838 106.072L25.3732 108.985L24.7394 108.471ZM23.0124 107.148C22.6457 106.851 22.3764 106.534 22.2045 106.2C22.0441 105.864 21.9831 105.537 22.0217 105.218C22.0657 104.894 22.2078 104.597 22.448 104.329C22.6669 104.085 22.9234 103.912 23.2177 103.812C23.5234 103.71 23.8664 103.71 24.2466 103.813C24.6383 103.914 25.0672 104.154 25.5333 104.532L27.2203 105.9L26.7959 106.374L25.1275 105.021C24.6552 104.638 24.2538 104.451 23.9233 104.461C23.5989 104.476 23.33 104.602 23.1164 104.84C22.8762 105.109 22.7928 105.411 22.8661 105.748C22.9394 106.086 23.1719 106.413 23.5633 106.73C23.9361 107.033 24.3282 107.212 24.7396 107.268C25.1624 107.323 25.5748 107.245 25.9767 107.036L25.7335 107.595C25.3316 107.804 24.8925 107.875 24.4164 107.808C23.9464 107.746 23.4784 107.526 23.0124 107.148Z" fill="#A9DF90"/>
<path d="M34.5254 114.919C34.0009 114.644 33.677 114.294 33.5537 113.869C33.4304 113.443 33.5149 112.978 33.8072 112.472L36.7688 107.351L37.5237 107.746L34.5861 112.826C34.4019 113.145 34.3412 113.433 34.4042 113.692C34.4741 113.954 34.6651 114.166 34.9769 114.33C35.3101 114.504 35.6406 114.555 35.9684 114.483L35.9279 115.152C35.7029 115.206 35.4661 115.208 35.2174 115.159C34.9758 115.114 34.7452 115.034 34.5254 114.919ZM34.7181 108.646L35.0725 108.033L38.5279 109.841L38.1735 110.454L34.7181 108.646Z" fill="#A9DF90"/>
<path d="M53.1558 121.175L51.5514 114.662L52.3625 114.751L53.807 120.788L53.4372 120.748L56.3466 115.188L57.0743 115.268L58.5546 121.308L58.1848 121.268L61.0704 115.706L61.8457 115.791L58.7145 121.785L57.9153 121.697L56.4766 116.011L56.7271 116.038L53.955 121.263L53.1558 121.175Z" fill="#A9DF90"/>
<path d="M71.7157 121.439C71.0656 121.527 70.4747 121.47 69.943 121.267C69.4101 121.057 68.9694 120.733 68.621 120.296C68.2715 119.851 68.0506 119.32 67.9584 118.703C67.8662 118.085 67.9154 117.522 68.1061 117.012C68.3048 116.5 68.6139 116.079 69.0335 115.748C69.4599 115.408 69.9624 115.199 70.5412 115.12C71.1278 115.041 71.6672 115.105 72.1593 115.313C72.6581 115.512 73.0744 115.835 73.4081 116.283C73.7406 116.722 73.9536 117.254 74.047 117.879C74.0529 117.919 74.0554 117.963 74.0546 118.011C74.0605 118.051 74.067 118.095 74.0741 118.142L68.6395 118.877L68.5456 118.248L73.5282 117.574L73.2325 117.868C73.1651 117.417 73.0063 117.031 72.7561 116.71C72.5127 116.38 72.2097 116.138 71.8472 115.985C71.4846 115.832 71.0854 115.785 70.6493 115.844C70.2212 115.902 69.8515 116.053 69.5401 116.297C69.2288 116.541 69.0046 116.854 68.8675 117.236C68.7304 117.617 68.6962 118.038 68.7647 118.497L68.7842 118.627C68.8552 119.102 69.0209 119.507 69.2814 119.843C69.5486 120.171 69.8839 120.412 70.2872 120.567C70.6973 120.713 71.1442 120.754 71.6278 120.689C72.0083 120.637 72.3511 120.522 72.656 120.344C72.9689 120.164 73.2236 119.92 73.42 119.611L73.9773 120.092C73.7494 120.462 73.4384 120.763 73.0442 120.993C72.658 121.223 72.2152 121.372 71.7157 121.439Z" fill="#A9DF90"/>
<path d="M93.9184 114.072C93.3872 114.367 92.8371 114.518 92.2682 114.524C91.7021 114.519 91.171 114.38 90.6749 114.107C90.1746 113.828 89.761 113.422 89.4341 112.891C89.103 112.352 88.934 111.811 88.9272 111.266C88.9204 110.721 89.0554 110.215 89.3323 109.75C89.6092 109.285 90.0168 108.903 90.555 108.603C91.1002 108.3 91.6538 108.147 92.2157 108.145C92.7846 108.14 93.3136 108.275 93.8027 108.552C94.2988 108.824 94.7125 109.23 95.0436 109.768C95.3705 110.3 95.5394 110.841 95.5505 111.393C95.5643 111.934 95.4313 112.443 95.1516 112.919C94.8677 113.388 94.4567 113.772 93.9184 114.072ZM93.5224 113.428C93.9208 113.206 94.2214 112.924 94.4242 112.583C94.6228 112.234 94.7131 111.855 94.695 111.444C94.6798 111.023 94.5443 110.604 94.2886 110.188C94.0288 109.766 93.7116 109.448 93.3371 109.236C92.9695 109.02 92.5796 108.912 92.1672 108.913C91.7507 108.907 91.3467 109.013 90.9553 109.231C90.5638 109.449 90.2688 109.732 90.0702 110.08C89.8674 110.422 89.7716 110.8 89.7826 111.215C89.7937 111.629 89.9291 112.048 90.189 112.47C90.4447 112.886 90.7619 113.203 91.1406 113.423C91.5151 113.635 91.9107 113.744 92.3272 113.75C92.7395 113.749 93.1379 113.642 93.5224 113.428Z" fill="#A9DF90"/>
<path d="M103.188 107.616L98.316 102.462C97.9314 102.055 97.7455 101.619 97.7585 101.156C97.7714 100.693 98.012 100.261 98.4801 99.8608C98.6624 99.7048 98.8607 99.5773 99.0749 99.4782C99.2891 99.3791 99.5006 99.3296 99.7096 99.3296L99.9276 99.979C99.765 99.9814 99.6064 100.017 99.4518 100.086C99.2917 100.15 99.1418 100.241 99.002 100.361C98.7284 100.595 98.5874 100.847 98.5788 101.117C98.5703 101.387 98.7007 101.665 98.97 101.949L99.6294 102.647L99.9196 102.919L103.835 107.062L103.188 107.616ZM98.4892 104.285L98.0029 103.77L100.967 101.235L101.453 101.75L98.4892 104.285Z" fill="#A9DF90"/>
<path d="M110.586 100.225L104.889 96.0011C104.439 95.6676 104.18 95.2716 104.112 94.813C104.043 94.3544 104.204 93.8868 104.594 93.4103C104.747 93.2246 104.919 93.0642 105.113 92.929C105.306 92.7938 105.505 92.708 105.711 92.6714L106.039 93.2729C105.88 93.3038 105.73 93.3669 105.59 93.462C105.444 93.5525 105.312 93.6688 105.196 93.8112C104.968 94.0897 104.873 94.3627 104.912 94.6304C104.951 94.898 105.128 95.1486 105.443 95.382L106.214 95.9537L106.547 96.171L111.126 99.5655L110.586 100.225ZM105.379 97.767L104.811 97.3454L107.282 94.3284L107.851 94.75L105.379 97.767Z" fill="#A9DF90"/>
<path d="M117.777 89.5034C117.474 90.0855 117.086 90.5388 116.611 90.8632C116.129 91.1842 115.606 91.3668 115.042 91.4111C114.472 91.4519 113.904 91.3395 113.339 91.074C112.775 90.8085 112.336 90.4565 112.023 90.018C111.714 89.5724 111.544 89.0859 111.512 88.5584C111.476 88.0204 111.592 87.4923 111.862 86.974C112.135 86.4487 112.499 86.0416 112.956 85.7527C113.408 85.4533 113.917 85.2902 114.48 85.2636C115.036 85.2336 115.6 85.353 116.172 85.6219C116.208 85.639 116.246 85.6612 116.286 85.6888C116.322 85.7058 116.362 85.7245 116.405 85.7449L113.877 90.6113L113.301 90.3407L115.62 85.879L115.693 86.2843C115.28 86.0903 114.868 86.0071 114.458 86.0349C114.043 86.0521 113.668 86.1672 113.332 86.3802C112.996 86.5933 112.727 86.8951 112.524 87.2855C112.325 87.6689 112.237 88.0557 112.259 88.4461C112.281 88.8364 112.411 89.1934 112.648 89.517C112.886 89.8405 113.214 90.101 113.634 90.2984L113.754 90.3546C114.188 90.5588 114.62 90.647 115.049 90.619C115.474 90.5805 115.867 90.4386 116.229 90.1935C116.587 89.9378 116.879 89.5935 117.104 89.1604C117.281 88.8197 117.383 88.4748 117.411 88.1259C117.443 87.7699 117.388 87.4258 117.245 87.0937L117.966 86.9026C118.141 87.2941 118.21 87.7154 118.174 88.1665C118.141 88.6105 118.009 89.0562 117.777 89.5034Z" fill="#A9DF90"/>
<path d="M121.679 79.6269L115.566 78.1042L115.783 77.3174L117.448 77.7322L117.134 77.7407C116.715 77.4549 116.441 77.0816 116.31 76.6205C116.172 76.1576 116.185 75.6291 116.349 75.0352L117.152 75.2354C117.144 75.2662 117.135 75.2971 117.127 75.3279C117.11 75.3568 117.098 75.3867 117.089 75.4176C116.913 76.0578 116.973 76.6084 117.269 77.0696C117.558 77.5288 118.063 77.8483 118.785 78.0281L121.905 78.8055L121.679 79.6269Z" fill="#A9DF90"/>
<g clip-path="url(#clip0_1081_26594)">
<path d="M62.9519 38.0632C48.5825 38.0632 36.9337 49.712 36.9337 64.0814C36.9337 78.4509 48.5825 90.0996 62.9519 90.0996C77.3213 90.0996 88.9701 78.4509 88.9701 64.0814C88.9701 49.712 77.3213 38.0632 62.9519 38.0632Z" fill="#A9DF90"/>
<path d="M62.9524 69.9562V58.2068M67.1487 65.7599L62.9524 69.9562M58.7561 65.7599L62.9524 69.9562" stroke="white" stroke-width="1.23807" stroke-linecap="round" stroke-linejoin="round"/>
</g>
<defs>
<clipPath id="clip0_1081_26594">
<rect width="54" height="54" fill="white" transform="translate(36 37)"/>
</clipPath>
</defs>
</svg>
