<svg width="117" height="117" viewBox="0 0 117 117" fill="none" xmlns="http://www.w3.org/2000/svg">
<g clip-path="url(#clip0_831_26262)">
<path d="M49.383 106.839L53.804 107.87L55.444 105.364L56.878 105.698L50.373 115.249L49.155 114.965L47.594 103.533L49.022 103.866L49.383 106.839ZM53.115 108.91L49.527 108.074L50.167 113.399L53.115 108.91ZM38.157 104.639C38.666 103.525 39.333 102.745 40.158 102.299C40.981 101.858 41.826 101.833 42.694 102.225C43.62 102.643 44.188 103.292 44.396 104.172L44.842 103.357L45.995 103.877L41.267 114.227L40.013 113.661L41.776 109.8C40.985 110.196 40.144 110.193 39.254 109.791C38.364 109.389 37.818 108.74 37.618 107.842C37.413 106.942 37.576 105.91 38.108 104.747L38.157 104.639ZM39.347 105.347C38.959 106.196 38.824 106.926 38.943 107.537C39.061 108.149 39.43 108.595 40.049 108.874C40.876 109.247 41.645 109.134 42.355 108.533L43.795 105.38C43.76 104.443 43.335 103.791 42.522 103.423C41.922 103.152 41.348 103.172 40.802 103.484C40.257 103.796 39.773 104.417 39.347 105.347ZM34.992 104.144C34.53 104.78 33.989 105.262 33.371 105.591C32.748 105.917 32.114 106.058 31.467 106.014C30.816 105.966 30.202 105.736 29.627 105.323C28.737 104.685 28.241 103.863 28.138 102.859C28.031 101.851 28.347 100.839 29.085 99.8227L29.141 99.7447C29.601 99.1127 30.136 98.6327 30.747 98.3047C31.3243 97.9842 31.9823 97.8383 32.641 97.8847C33.295 97.9277 33.916 98.1597 34.504 98.5817C35.389 99.2167 35.885 100.039 35.992 101.046C36.095 102.051 35.78 103.058 35.048 104.066L34.992 104.144ZM33.965 103.206C34.487 102.486 34.74 101.788 34.723 101.112C34.701 100.434 34.409 99.8917 33.846 99.4877C33.278 99.0807 32.668 98.9777 32.014 99.1777C31.358 99.3817 30.74 99.8817 30.162 100.678C29.645 101.391 29.398 102.089 29.421 102.775C29.436 103.461 29.726 104.007 30.289 104.411C30.84 104.807 31.443 104.908 32.098 104.714C32.753 104.521 33.375 104.018 33.965 103.206ZM25.183 92.6487C26.009 92.5947 26.783 92.9367 27.505 93.6767C28.104 94.2887 28.382 94.9277 28.341 95.5937C28.292 96.2597 27.919 96.9327 27.221 97.6137L23.462 101.244L22.502 100.262L26.235 96.6567C27.111 95.8117 27.203 95.0347 26.511 94.3267C25.778 93.5767 25.009 93.3487 24.205 93.6447L20.002 97.7027L19.042 96.7207L24.821 91.1407L25.733 92.0757L25.183 92.6487ZM14.142 94.3327L15.681 93.1417L14.757 91.9617L15.597 91.3117L16.521 92.4917L20.461 89.4397C20.716 89.2427 20.867 89.0417 20.914 88.8367C20.957 88.6347 20.879 88.4067 20.681 88.1537C20.5389 87.9854 20.3805 87.8316 20.208 87.6947L21.088 87.0127C21.39 87.2357 21.645 87.4827 21.856 87.7507C22.234 88.2337 22.372 88.7107 22.271 89.1837C22.169 89.6557 21.848 90.1017 21.308 90.5197L17.367 93.5717L18.268 94.7217L17.428 95.3717L16.528 94.2217L14.988 95.4127L14.142 94.3327ZM14.565 78.2357C15.354 78.4857 15.948 79.0857 16.349 80.0377C16.68 80.8247 16.704 81.5207 16.421 82.1247C16.131 82.7277 15.536 83.2177 14.636 83.5977L9.8 85.6097L9.268 84.3467L14.068 82.3497C15.195 81.8807 15.566 81.1917 15.183 80.2807C14.777 79.3167 14.145 78.8247 13.287 78.8077L7.884 81.0547L7.352 79.7927L14.782 76.7007L15.288 77.9017L14.565 78.2357ZM10.331 70.7847C9.968 70.8647 9.717 71.0627 9.578 71.3807C9.434 71.6947 9.364 72.2067 9.368 72.9187C9.371 73.6247 9.314 74.1997 9.198 74.6447C9.082 75.0847 8.904 75.4307 8.665 75.6847C8.425 75.9337 8.111 76.1007 7.724 76.1847C7.079 76.3247 6.474 76.1737 5.909 75.7307C5.343 75.2827 4.968 74.6367 4.782 73.7937C4.587 72.9067 4.66 72.1387 4.999 71.4887C5.15121 71.1774 5.37357 70.9056 5.6486 70.6948C5.92363 70.4839 6.24383 70.3398 6.584 70.2737L6.88 71.6187C6.511 71.6987 6.228 71.9237 6.03 72.2957C5.831 72.6617 5.784 73.0807 5.888 73.5537C5.995 74.0397 6.185 74.3977 6.458 74.6257C6.733 74.8547 7.042 74.9307 7.386 74.8557C7.711 74.7857 7.927 74.6057 8.036 74.3137C8.145 74.0227 8.201 73.5277 8.206 72.8297C8.208 72.1277 8.268 71.5457 8.386 71.0867C8.503 70.6267 8.688 70.2667 8.94 70.0037C9.187 69.7387 9.52 69.5597 9.943 69.4677C10.646 69.3147 11.273 69.4717 11.822 69.9377C12.367 70.4057 12.737 71.0857 12.932 71.9777C13.071 72.6037 13.082 73.1817 12.964 73.7127C12.8629 74.212 12.6274 74.6743 12.283 75.0497C11.958 75.397 11.5349 75.637 11.07 75.7377L10.776 74.3997C11.221 74.2777 11.541 74.0217 11.735 73.6317C11.922 73.2367 11.955 72.7647 11.835 72.2157C11.723 71.7097 11.533 71.3267 11.262 71.0677C10.986 70.8047 10.675 70.7097 10.331 70.7847ZM8.991 47.1207L7.787 51.4747L10.244 53.1987L9.854 54.6107L0.5 47.7847L0.831 46.5867L12.383 45.4697L11.993 46.8757L8.991 47.1207ZM6.767 50.7507L7.745 47.2177L2.367 47.6507L6.767 50.7507ZM11.675 36.0137C12.774 36.5647 13.53 37.2587 13.945 38.0967C14.355 38.9317 14.345 39.7727 13.915 40.6187C13.458 41.5217 12.782 42.0587 11.889 42.2297L12.69 42.7057L12.12 43.8287L1.91 38.7107L2.53 37.4877L6.34 39.3977C5.973 38.5957 6.01 37.7607 6.451 36.8927C6.891 36.0247 7.567 35.5097 8.477 35.3477C9.39 35.1807 10.421 35.3847 11.568 35.9607L11.675 36.0137ZM10.915 37.1657C10.077 36.7457 9.349 36.5827 8.729 36.6757C8.109 36.7687 7.647 37.1157 7.34 37.7197C6.931 38.5257 7.014 39.2937 7.589 40.0237L10.699 41.5837C11.643 41.5867 12.316 41.1917 12.719 40.3987C13.015 39.8137 13.019 39.2427 12.727 38.6887C12.437 38.1337 11.832 37.6257 10.915 37.1657ZM12.273 32.9467C11.652 32.4627 11.188 31.9067 10.883 31.2787C10.58 30.6487 10.463 30.0117 10.534 29.3707C10.608 28.7257 10.864 28.1257 11.302 27.5707C11.979 26.7137 12.825 26.2537 13.839 26.1907C14.856 26.1257 15.861 26.4807 16.852 27.2537L16.929 27.3137C17.546 27.7937 18.006 28.3447 18.312 28.9657C18.616 29.5787 18.732 30.2117 18.658 30.8637C18.588 31.5117 18.33 32.1187 17.883 32.6857C17.209 33.5387 16.363 33.9987 15.346 34.0647C14.332 34.1267 13.333 33.7737 12.349 33.0057L12.273 32.9467ZM13.256 31.9647C13.959 32.5127 14.65 32.7917 15.33 32.8017C16.013 32.8077 16.57 32.5387 16.998 31.9957C17.43 31.4487 17.558 30.8457 17.384 30.1887C17.204 29.5287 16.726 28.8957 15.949 28.2887C15.254 27.7467 14.562 27.4737 13.872 27.4687C13.182 27.4567 12.622 27.7217 12.192 28.2657C11.772 28.7967 11.647 29.3917 11.815 30.0497C11.983 30.7077 12.464 31.3457 13.256 31.9647ZM24.21 23.6737C24.232 24.4957 23.856 25.2507 23.084 25.9387C22.444 26.5087 21.791 26.7597 21.124 26.6927C20.456 26.6177 19.794 26.2197 19.138 25.4997L15.64 21.6207L16.665 20.7067L20.139 24.5587C20.954 25.4617 21.731 25.5847 22.47 24.9257C23.254 24.2277 23.513 23.4737 23.248 22.6627L19.338 18.3257L20.363 17.4117L25.74 23.3737L24.764 24.2437L24.21 23.6737ZM22.96 12.6367L24.096 14.2127L25.319 13.3427L25.939 14.2027L24.716 15.0727L27.626 19.1097C27.813 19.3707 28.009 19.5287 28.213 19.5837C28.415 19.6337 28.647 19.5657 28.909 19.3797C29.039 19.2877 29.199 19.1367 29.389 18.9277L30.039 19.8297C29.8157 20.1075 29.556 20.354 29.267 20.5627C28.767 20.9187 28.281 21.0367 27.81 20.9177C27.34 20.7977 26.904 20.4607 26.506 19.9077L23.596 15.8707L22.404 16.7197L21.784 15.8597L22.977 15.0097L21.841 13.4337L22.961 12.6367H22.96ZM39.058 13.7227C38.775 14.4957 38.147 15.0617 37.175 15.4197C36.37 15.7167 35.669 15.7117 35.073 15.4057C34.48 15.0927 34.011 14.4817 33.666 13.5727L31.843 8.68769L33.135 8.21169L34.945 13.0617C35.369 14.1997 36.047 14.5967 36.977 14.2537C37.964 13.8897 38.484 13.2827 38.537 12.4317L36.499 6.97169L37.79 6.49469L40.592 14.0017L39.363 14.4547L39.058 13.7227ZM46.77 9.79469C46.706 9.42969 46.517 9.17169 46.204 9.02069C45.894 8.86469 45.382 8.77369 44.666 8.74769C43.956 8.72069 43.381 8.64069 42.939 8.50769C42.502 8.37269 42.161 8.18169 41.916 7.93369C41.676 7.68469 41.521 7.36569 41.453 6.97769C41.339 6.33069 41.517 5.73669 41.985 5.19469C42.459 4.65069 43.124 4.30469 43.98 4.15669C44.88 3.99969 45.648 4.10369 46.287 4.46869C46.93 4.83269 47.315 5.37469 47.442 6.09369L46.078 6.33069C46.013 5.96069 45.798 5.67069 45.433 5.45869C45.073 5.24569 44.653 5.18069 44.175 5.26469C43.681 5.35069 43.313 5.52469 43.072 5.78669C42.9567 5.90517 42.8719 6.04989 42.8248 6.2084C42.7778 6.36692 42.77 6.53448 42.802 6.69669C42.859 7.02269 43.032 7.24669 43.32 7.36669C43.608 7.48669 44.103 7.56269 44.804 7.59669C45.51 7.62869 46.092 7.71269 46.549 7.84869C47.006 7.98469 47.361 8.18369 47.614 8.44569C47.871 8.70069 48.036 9.04069 48.11 9.46369C48.234 10.1677 48.05 10.7837 47.559 11.3097C47.066 11.8307 46.367 12.1697 45.463 12.3277C44.827 12.4377 44.245 12.4247 43.717 12.2857C43.2205 12.1647 42.7661 11.9114 42.402 11.5527C42.0676 11.2168 41.8443 10.7865 41.762 10.3197L43.118 10.0837C43.222 10.5307 43.466 10.8597 43.85 11.0677C44.239 11.2707 44.712 11.3237 45.27 11.2277C45.782 11.1377 46.175 10.9637 46.447 10.7067C46.723 10.4437 46.831 10.1397 46.77 9.79469ZM66.08 8.45269L61.647 7.47269L60.037 9.99669L58.597 9.67869L64.993 0.0546875L66.213 0.324688L67.906 11.7377L66.475 11.4217L66.08 8.45269ZM62.323 6.42469L65.92 7.22069L65.219 1.90269L62.323 6.42469ZM77.485 10.5787C76.985 11.6967 76.324 12.4817 75.502 12.9327C74.682 13.3807 73.837 13.4117 72.967 13.0267C72.037 12.6147 71.465 11.9707 71.25 11.0917L70.81 11.9097L69.654 11.3987L74.304 1.01369L75.562 1.57069L73.828 5.44469C74.616 5.04269 75.457 5.03969 76.35 5.43469C77.243 5.82969 77.793 6.47469 78 7.37169C78.212 8.27069 78.057 9.30269 77.534 10.4707L77.485 10.5787ZM76.291 9.87969C76.672 9.02769 76.801 8.29669 76.678 7.68569C76.555 7.07569 76.183 6.63269 75.562 6.35769C74.732 5.99069 73.964 6.10969 73.258 6.71569L71.842 9.87969C71.884 10.8167 72.313 11.4657 73.129 11.8267C73.732 12.0937 74.305 12.0687 74.849 11.7527C75.392 11.4367 75.873 10.8127 76.291 9.87969ZM80.494 10.9567C80.949 10.3157 81.484 9.82669 82.099 9.49169C82.717 9.15869 83.351 9.01169 83.999 9.04869C84.649 9.08869 85.266 9.31169 85.846 9.71869C86.742 10.3467 87.247 11.1627 87.361 12.1667C87.479 13.1727 87.175 14.1887 86.448 15.2127L86.392 15.2907C85.941 15.9277 85.411 16.4137 84.802 16.7487C84.202 17.0817 83.572 17.2287 82.913 17.1897C82.259 17.1537 81.636 16.9277 81.043 16.5127C80.151 15.8867 79.646 15.0707 79.528 14.0647C79.414 13.0607 79.718 12.0507 80.438 11.0347L80.494 10.9567ZM81.531 11.8827C81.017 12.6087 80.771 13.3097 80.796 13.9847C80.826 14.6627 81.124 15.2017 81.691 15.5997C82.263 15.9997 82.875 16.0967 83.526 15.8897C84.18 15.6777 84.792 15.1707 85.361 14.3697C85.871 13.6517 86.111 12.9497 86.08 12.2647C86.057 11.5787 85.761 11.0357 85.194 10.6377C84.638 10.2477 84.034 10.1537 83.381 10.3547C82.729 10.5547 82.112 11.0647 81.531 11.8827ZM90.503 22.3857C89.678 22.4457 88.901 22.1087 88.173 21.3747C87.57 20.7667 87.287 20.1297 87.323 19.4647C87.367 18.7977 87.735 18.1217 88.428 17.4357L92.161 13.7787L93.128 14.7537L89.421 18.3857C88.551 19.2367 88.465 20.0147 89.162 20.7177C89.901 21.4617 90.672 21.6837 91.474 21.3827L95.646 17.2947L96.613 18.2697L90.876 23.8897L89.956 22.9627L90.503 22.3857ZM101.433 20.4827L99.907 21.6907L100.844 22.8607L100.012 23.5197L99.074 22.3497L95.167 25.4437C94.915 25.6437 94.767 25.8467 94.722 26.0527C94.682 26.2547 94.762 26.4817 94.962 26.7327C95.062 26.8557 95.22 27.0067 95.44 27.1867L94.567 27.8777C94.2772 27.6701 94.0165 27.4246 93.792 27.1477C93.408 26.6697 93.265 26.1937 93.361 25.7197C93.457 25.2467 93.773 24.7977 94.309 24.3737L98.216 21.2797L97.303 20.1397L98.135 19.4797L99.049 20.6197L100.575 19.4117L101.433 20.4827ZM101.249 36.6177C100.459 36.3737 99.86 35.7777 99.453 34.8297C99.115 34.0447 99.086 33.3497 99.365 32.7427C99.65 32.1387 100.242 31.6427 101.139 31.2567L105.958 29.2087L106.499 30.4687L101.714 32.5007C100.591 32.9777 100.225 33.6707 100.615 34.5777C101.029 35.5387 101.664 36.0257 102.522 36.0377L107.909 33.7477L108.451 35.0077L101.044 38.1537L100.529 36.9557L101.249 36.6177ZM105.6 44.1137C105.963 44.0317 106.213 43.8317 106.349 43.5127C106.491 43.1977 106.557 42.6837 106.547 41.9727C106.539 41.2667 106.591 40.6907 106.703 40.2457C106.817 39.8057 106.992 39.4577 107.229 39.2017C107.467 38.9517 107.779 38.7817 108.167 38.6947C108.81 38.5497 109.416 38.6967 109.984 39.1347C110.554 39.5787 110.934 40.2207 111.126 41.0627C111.328 41.9487 111.262 42.7167 110.927 43.3697C110.593 44.0267 110.068 44.4357 109.352 44.5967L109.046 43.2537C109.413 43.1717 109.695 42.9437 109.89 42.5707C110.086 42.2027 110.13 41.7827 110.023 41.3117C109.912 40.8257 109.719 40.4697 109.443 40.2437C109.318 40.1345 109.168 40.0572 109.006 40.0182C108.844 39.9792 108.675 39.9797 108.514 40.0197C108.19 40.0927 107.975 40.2757 107.868 40.5677C107.762 40.8597 107.709 41.3547 107.711 42.0527C107.713 42.7547 107.657 43.3367 107.543 43.7977C107.43 44.2577 107.248 44.6207 106.997 44.8837C106.753 45.1517 106.42 45.3337 105.999 45.4277C105.297 45.5857 104.67 45.4337 104.116 44.9717C103.568 44.5077 103.192 43.8317 102.99 42.9417C102.847 42.3157 102.832 41.7377 102.945 41.2057C103.058 40.6747 103.282 40.2267 103.616 39.8637C103.957 39.5037 104.359 39.2717 104.824 39.1667L105.128 40.5017C104.683 40.6277 104.366 40.8857 104.175 41.2777C103.991 41.6737 103.961 42.1457 104.086 42.6947C104.201 43.1997 104.395 43.5807 104.667 43.8377C104.946 44.0987 105.257 44.1907 105.6 44.1137ZM107.207 67.6967L108.378 63.3357L105.908 61.6307L106.288 60.2147L115.693 66.9697L115.371 68.1697L103.828 69.3747L104.207 67.9657L107.207 67.6967ZM109.403 64.0517L108.453 67.5917L113.827 67.1177L109.403 64.0517ZM104.6 78.9367C103.497 78.3937 102.735 77.7047 102.315 76.8707C101.899 76.0377 101.902 75.1977 102.325 74.3487C102.776 73.4417 103.448 72.8997 104.339 72.7217L103.535 72.2517L104.097 71.1247L114.345 76.1677L113.734 77.3947L109.911 75.5137C110.282 76.3137 110.251 77.1477 109.817 78.0187C109.383 78.8897 108.712 79.4097 107.803 79.5787C106.891 79.7527 105.859 79.5557 104.707 78.9887L104.6 78.9367ZM105.352 77.7787C106.192 78.1917 106.922 78.3507 107.541 78.2527C108.16 78.1557 108.62 77.8047 108.922 77.1987C109.325 76.3887 109.236 75.6217 108.656 74.8957L105.534 73.3597C104.59 73.3627 103.921 73.7627 103.524 74.5597C103.231 75.1467 103.232 75.7167 103.528 76.2697C103.823 76.8227 104.431 77.3257 105.352 77.7787ZM104.117 81.8767C104.743 82.3537 105.212 82.9047 105.525 83.5287C105.835 84.1567 105.958 84.7917 105.894 85.4337C105.827 86.0787 105.578 86.6817 105.146 87.2417C104.478 88.1067 103.638 88.5757 102.624 88.6487C101.608 88.7247 100.6 88.3817 99.6 87.6187L99.523 87.5607C98.901 87.0857 98.433 86.5407 98.122 85.9227C97.8165 85.341 97.6885 84.6824 97.754 84.0287C97.817 83.3807 98.069 82.7707 98.51 82.1987C99.174 81.3387 100.015 80.8687 101.031 80.7917C102.045 80.7197 103.047 81.0617 104.04 81.8177L104.117 81.8767ZM103.144 82.8697C102.435 82.3297 101.741 82.0577 101.061 82.0547C100.378 82.0567 99.825 82.3307 99.401 82.8787C98.976 83.4307 98.854 84.0347 99.036 84.6897C99.223 85.3477 99.707 85.9757 100.491 86.5737C101.192 87.1077 101.887 87.3737 102.577 87.3717C103.268 87.3767 103.825 87.1047 104.248 86.5567C104.662 86.0207 104.781 85.4247 104.606 84.7677C104.43 84.1117 103.943 83.4787 103.144 82.8697ZM92.214 91.3727C92.187 90.5507 92.557 89.7927 93.324 89.0997C93.959 88.5247 94.611 88.2697 95.279 88.3317C95.946 88.4017 96.611 88.7947 97.273 89.5097L100.8 93.3637L99.78 94.2847L96.279 90.4587C95.457 89.5607 94.679 89.4437 93.945 90.1087C93.167 90.8117 92.913 91.5687 93.184 92.3777L97.126 96.6857L96.108 97.6067L90.688 91.6837L91.656 90.8077L92.214 91.3727ZM93.668 102.321L92.515 100.757L91.302 101.641L90.673 100.788L91.886 99.9037L88.933 95.8987C88.742 95.6397 88.544 95.4847 88.339 95.4317C88.137 95.3837 87.906 95.4537 87.646 95.6437C87.4726 95.7795 87.3132 95.9323 87.17 96.0997L86.51 95.2047C86.7307 94.9249 86.988 94.676 87.275 94.4647C87.771 94.1027 88.255 93.9787 88.728 94.0937C89.2 94.2077 89.638 94.5397 90.044 95.0887L92.997 99.0937L94.18 98.2317L94.809 99.0857L93.626 99.9477L94.779 101.512L93.668 102.321ZM77.394 101.507C77.671 100.732 78.294 100.162 79.264 99.7957C80.067 99.4927 80.768 99.4927 81.366 99.7947C81.962 100.103 82.436 100.711 82.786 101.617L84.646 106.488L83.359 106.974L81.512 102.138C81.079 101.003 80.399 100.611 79.471 100.961C78.487 101.332 77.971 101.943 77.925 102.795L80.004 108.24L78.716 108.726L75.858 101.239L77.083 100.777L77.394 101.507ZM69.872 105.464C69.941 105.828 70.132 106.084 70.448 106.231C70.759 106.384 71.273 106.469 71.988 106.487C72.698 106.506 73.275 106.579 73.718 106.708C74.157 106.837 74.5 107.024 74.748 107.269C74.991 107.515 75.149 107.832 75.222 108.22C75.343 108.865 75.172 109.462 74.71 110.009C74.242 110.558 73.582 110.911 72.728 111.07C71.83 111.236 71.06 111.141 70.418 110.784C69.77 110.427 69.378 109.89 69.243 109.172L70.605 108.919C70.674 109.288 70.892 109.576 71.259 109.784C71.622 109.993 72.042 110.053 72.52 109.964C73.013 109.873 73.378 109.694 73.616 109.429C73.7303 109.309 73.8136 109.163 73.8589 109.004C73.9042 108.845 73.9101 108.677 73.876 108.515C73.816 108.19 73.64 107.969 73.35 107.853C73.06 107.736 72.565 107.665 71.864 107.639C71.157 107.615 70.574 107.537 70.116 107.407C69.657 107.276 69.3 107.081 69.044 106.823C68.784 106.57 68.615 106.232 68.536 105.81C68.404 105.107 68.581 104.49 69.066 103.958C69.553 103.431 70.248 103.083 71.15 102.916C71.785 102.798 72.367 102.805 72.896 102.938C73.426 103.07 73.868 103.31 74.22 103.656C74.57 104.008 74.787 104.416 74.875 104.882L73.521 105.133C73.411 104.687 73.164 104.361 72.777 104.157C72.387 103.959 71.913 103.911 71.357 104.014C70.844 104.109 70.454 104.287 70.185 104.548C69.912 104.815 69.808 105.12 69.872 105.464Z" fill="#A9DF90"/>
</g>
<g clip-path="url(#clip1_831_26262)">
<path d="M58.4519 32.1179C44.0825 32.1179 32.4337 43.7667 32.4337 58.1361C32.4337 72.5056 44.0825 84.1543 58.4519 84.1543C72.8213 84.1543 84.4701 72.5056 84.4701 58.1361C84.4701 43.7667 72.8213 32.1179 58.4519 32.1179Z" fill="#A9DF90"/>
<path d="M58.4524 64.0109V52.2615M62.6487 59.8146L58.4524 64.0109M54.2561 59.8146L58.4524 64.0109" stroke="white" stroke-width="1.23807" stroke-linecap="round" stroke-linejoin="round"/>
</g>
<defs>
<clipPath id="clip0_831_26262">
<rect width="116" height="116" fill="white" transform="translate(0.5 0.0546875)"/>
</clipPath>
<clipPath id="clip1_831_26262">
<rect width="54" height="54" fill="white" transform="translate(31.5 31.0547)"/>
</clipPath>
</defs>
</svg>
