<svg width="62" height="98" viewBox="0 0 62 98" fill="none" xmlns="http://www.w3.org/2000/svg">
<g opacity="0.2">
<path d="M10.3062 42.0707L10.4146 41.9891C13.6306 39.5882 18.301 36.8887 24.4316 33.8915C32.2412 30.0717 37.5145 27.0794 40.2505 24.9127C41.7327 23.6589 42.759 20.9219 43.3292 16.7037C43.8994 11.4592 44.5254 8.15297 45.2098 6.78401C47.6041 2.68001 50.6252 0.627533 54.2742 0.627533C55.0719 0.627533 55.8697 0.741773 56.6684 0.969293C60.6591 2.67905 62.3113 4.90242 61.6278 7.63938C56.4975 21.6631 53.9314 37.3398 53.9314 54.6698L53.9353 55.6365V55.6595L38.7279 50.9229L38.7346 50.8701C39.1753 47.1856 39.3961 44.2903 39.3961 42.1859C33.9241 42.1859 29.0214 43.4397 24.6889 45.9482C24.493 46.0586 24.301 46.1709 24.1138 46.2851L24.0198 46.3418L10.3062 42.0707Z" fill="#44AF89"/>
<path d="M0.74559 60.1427C0.74559 53.8729 3.19743 48.4566 8.09919 43.8966C8.73375 43.3082 9.47007 42.7005 10.3062 42.0707L24.0198 46.3417C19.2563 49.2573 17.2557 53.0598 18.0189 57.7475C18.5891 61.2822 20.3843 64.4742 23.4064 67.3245C26.4275 70.1747 29.7337 71.6003 33.3251 71.6003C34.6653 71.6003 36.0045 71.3718 37.3437 70.9158C37.3437 69.0918 37.3437 67.1526 37.3437 65.1011C37.3437 62.5926 37.6854 58.8016 38.3699 53.729C38.5024 52.7478 38.6214 51.8118 38.729 50.9219L53.9363 55.6586C54.0016 67.1315 55.1968 79.6278 57.5248 93.1485C57.5248 93.9462 56.727 94.8304 55.1306 95.799C53.5341 96.7677 52.1094 97.2525 50.8547 97.2525C48.1187 97.481 45.7811 95.7702 43.8429 92.1222C41.9046 88.4733 40.4224 86.535 39.3961 86.3075C38.3699 86.3075 36.831 86.4217 34.7785 86.6493C32.7261 86.8768 31.2448 86.992 30.3318 86.992C26.1136 86.992 22.5789 86.0224 19.7286 84.0842C13.2294 79.7517 9.01119 76.6163 7.07295 74.6781C2.85471 70.4598 0.744629 65.6137 0.744629 60.1408L0.74559 60.1427Z" fill="#A9DF91"/>
</g>
</svg>
