<svg width="55" height="75" viewBox="0 0 55 75" fill="none" xmlns="http://www.w3.org/2000/svg">
<g opacity="0.2">
<path d="M28.4375 0.984955L28.7927 1.03007L29.0845 1.0704C36.7607 2.16384 43.1466 6.03839 48.2442 12.696C53.3418 19.3526 55.2801 26.568 54.058 34.3401C52.7409 37.0483 48.7578 39.889 42.1079 42.8592L42.0445 42.888L37.3482 28.4275L37.4529 28.2365C37.5479 28.0598 37.6401 27.8794 37.7303 27.696C38.3101 26.857 38.6653 25.9862 38.793 25.0829C39.1309 22.7126 38.1623 20.617 35.8881 18.7958C35.2986 18.3235 34.6833 17.8982 34.041 17.519C33.945 17.4624 33.849 17.4067 33.7521 17.352L28.4375 0.984955Z" fill="#F9AB3C"/>
<path d="M0.700137 24.4925C1.6803 16.8019 4.85022 10.7174 10.2099 6.24096C15.4093 1.89792 21.4841 0.146878 28.4374 0.983998L33.752 17.351C31.9933 16.3622 30.0445 15.7162 27.9046 15.4118C25.6467 15.0902 23.6643 15.2688 21.9555 15.9466C18.4409 17.1734 16.2982 20.496 15.5264 25.9133C14.6749 31.896 15.4736 35.1763 17.9245 35.7562C27.6377 36.697 34.111 34.2528 37.3472 28.4256L42.0435 42.8861C41.3091 43.2134 40.543 43.5427 39.7433 43.873C29.6998 48.0854 24.0982 50.6265 22.9376 51.4982C20.8899 52.128 19.7936 52.9507 19.6486 53.9664C19.3913 55.7722 20.4041 57.5578 22.687 59.3222C24.9689 61.0867 27.0694 62.1062 28.9885 62.3789C32.7133 62.9098 38.3321 61.8672 45.8451 59.2522C47.7641 61.1376 48.5312 63.4349 48.1453 66.144C47.84 68.2886 46.8809 70.1674 45.2691 71.7811C43.6573 73.3939 41.7545 74.2176 39.5629 74.2502C32.1776 74.3501 27.5254 74.2627 25.6073 73.9901C21.7693 73.4438 18.4237 72.2765 15.5686 70.488C2.98878 62.592 -1.9677 47.2608 0.700137 24.4925Z" fill="#44AF89"/>
</g>
</svg>
