<svg width="55" height="75" viewBox="0 0 55 75" fill="none" xmlns="http://www.w3.org/2000/svg">
<g opacity="0.2">
<path d="M21.4607 57.9235L21.5461 58.0176C21.9551 58.4544 22.4389 58.8893 23.0005 59.3242C25.2824 61.0886 27.3839 62.1082 29.3019 62.3808C33.0267 62.9117 38.6456 61.8691 46.1586 59.2541C48.0776 61.1395 48.8447 63.4368 48.4588 66.1459C48.1525 68.2906 47.1944 70.1693 45.5826 71.7821C43.9708 73.3949 42.069 74.2186 39.8764 74.2512C32.4911 74.351 27.8389 74.2637 25.9208 73.991C22.0828 73.4448 18.7371 72.2774 15.8821 70.489C12.5989 68.4288 9.837 65.8598 7.59252 62.7869L7.49268 62.6525L21.4588 57.9235H21.4607Z" fill="#A9DF91"/>
<path d="M1.01431 24.4934C1.99447 16.8019 5.1644 10.7174 10.5231 6.24097C15.8828 1.76449 22.1746 0.0403292 29.3977 1.06945C37.0738 2.16289 43.4598 6.03745 48.5574 12.695C53.6559 19.3517 55.5932 26.567 54.3711 34.3392C52.9052 37.3546 48.133 40.5331 40.0565 43.8739C30.013 48.0864 24.4114 50.6275 23.2508 51.4992C21.2031 52.129 20.1068 52.9517 19.9618 53.9674C19.7727 55.297 20.2719 56.615 21.4585 57.9226L7.49239 62.6515C1.21207 53.951 -0.948888 41.232 1.01239 24.4925L1.01431 24.4934ZM18.2386 35.7571C28.3484 36.7363 34.9503 34.0493 38.0434 27.695C38.6233 26.856 38.9785 25.9853 39.1071 25.0819C39.445 22.7117 38.4764 20.616 36.2022 18.7949C33.9279 16.9738 31.2668 15.8458 28.2197 15.4119C25.9618 15.0903 23.9794 15.2688 22.2697 15.9466C18.7551 17.1734 16.6124 20.496 15.8405 25.9133C14.989 31.896 15.7877 35.1763 18.2386 35.7562V35.7571Z" fill="#44AF89"/>
</g>
</svg>
