<svg width="60" height="115" viewBox="0 0 60 115" fill="none" xmlns="http://www.w3.org/2000/svg">
<g opacity="0.2">
<path fill-rule="evenodd" clip-rule="evenodd" d="M0.974609 12.9389C2.38581 14.3126 6.07892 15.1987 7.99796 16.3891C8.96372 20.5632 7.33844 22.6733 7.45652 24.0422C7.81556 28.2221 6.52052 29.1062 6.57332 32.2867L10.5938 32.2829C10.7484 29.7533 9.37269 27.2602 9.65877 24.7402C10.0927 20.9098 8.92532 25.4006 8.98292 16.9459L14.9752 19.4371C15.0386 30.2381 13.8396 30.1757 18.125 32.0333C31.8117 37.9641 26.91 38.8406 40.0764 32.88C46.4719 29.9846 44.6421 31.6829 44.9858 21.913C41.3349 22.2115 32.9695 28.1846 29.9944 27.6826C30.1903 25.3421 32.189 25.0963 36.366 23.3069C39.966 21.7642 58.0927 13.849 59.0143 13.0042C56.8428 11.8262 31.0082 0.0710343 30.2181 0.0153543C28.517 -0.103686 4.94805 11.3722 0.974609 12.9389Z" fill="#44AF89"/>
<path fill-rule="evenodd" clip-rule="evenodd" d="M15.2135 42.8381C14.8161 45.407 15.6618 45.8054 17.5962 46.655L27.033 50.8905C28.9242 51.7046 30.4122 52.0598 29.626 54.7997C26.9447 55.0771 17.9044 48.9609 15.2279 49.4217C14.8334 52.0329 15.633 52.416 17.6202 53.2723L26.7806 57.3994C28.979 58.3325 30.0465 58.2221 29.8151 61.2614C26.5012 61.7664 18.2462 55.6435 15.225 56.0554C14.889 58.081 15.0484 58.6416 16.8119 59.5497C18.1655 60.2477 19.5623 60.7833 20.8708 61.3661C30.706 65.7446 28.5527 66.2218 36.7626 62.4029C39.1271 61.3037 43.1946 59.8368 44.6385 58.6089C44.9956 56.3933 45.0148 55.0627 44.6116 52.8701C44.1297 50.2512 45.01 49.9392 44.9159 47.2742C44.8122 44.2857 44.1518 45.0825 44.7018 42.1382C45.178 39.5885 44.7575 38.5987 44.4052 36.3504C40.4078 36.3485 33.0858 41.8416 29.8948 41.7907C26.6855 41.7389 18.3738 35.7197 15.0234 36.3619C15.0551 39.6979 15.9911 39.2755 21.6542 41.8147C23.675 42.7209 28.8234 44.6313 29.6692 45.9437C30.514 47.255 29.7902 48.7113 27.9959 48.0192C25.4519 47.0381 17.3178 42.4733 15.2145 42.839L15.2135 42.8381Z" fill="#A1D890"/>
<path fill-rule="evenodd" clip-rule="evenodd" d="M31.7069 86.039L31.5686 75.001C31.5686 71.063 32.5699 71.615 35.9318 70.1318C37.8557 69.2842 40.5456 67.5792 42.8371 67.5466C42.9206 70.3459 43.5859 80.5027 42.1152 81.7814C42.1114 81.7843 32.9693 86.1408 31.7059 86.039H31.7069ZM15.2285 63.864C14.6717 66.7651 14.2905 82.0829 15.9331 83.4586C17.0208 84.3696 28.9593 89.4739 30.2515 89.4278C31.2297 89.3933 43.4553 84.1421 44.3078 83.1994C45.6307 81.7373 45 76.2144 45.0086 73.8307C45.0173 71.2205 45.3053 66.2314 44.8473 63.911C42.7833 63.5587 39.3984 65.7782 37.4669 66.601C36.0509 67.2038 31.0665 69.6029 29.8925 69.5539C26.9222 69.4282 17.8195 63.4618 15.2294 63.865L15.2285 63.864Z" fill="#F9AB3C"/>
<path fill-rule="evenodd" clip-rule="evenodd" d="M44.7104 88.6886C41.2592 87.7229 33.5696 94.0272 29.9072 93.9466C26.6144 93.8736 18.7952 88.0186 15.2864 88.5706C14.7296 90.6979 17.025 93.5683 18.1079 95.3568L25.6496 108.109C29.6346 114.936 29.8592 115.824 32.3572 111.464L38.0452 101.911C39.3575 99.6912 40.5325 97.6291 41.7671 95.497C42.85 93.624 45.1588 91.0723 44.7104 88.6877V88.6886Z" fill="#44AF89"/>
<path fill-rule="evenodd" clip-rule="evenodd" d="M31.7071 86.039C32.9695 86.1408 42.1126 81.7843 42.1164 81.7814C43.5862 80.5027 42.9209 70.3459 42.8383 67.5466C40.5468 67.5802 37.8559 69.2842 35.933 70.1318C32.5711 71.615 31.5698 71.063 31.5698 75.001L31.7081 86.039H31.7071Z" fill="#FEFEFE"/>
</g>
</svg>
