<svg width="64" height="110" viewBox="0 0 64 110" fill="none" xmlns="http://www.w3.org/2000/svg">
<g opacity="0.2">
<path d="M28.9726 37.1107C30.6823 37.1107 33.6478 35.3722 37.866 31.895C42.0842 28.4179 43.9082 25.9949 43.338 24.6269C42.883 23.3731 41.8846 22.2605 40.3457 21.2919C38.8068 20.3232 37.3534 19.8384 35.9844 19.8384C35.2999 19.8384 34.7306 19.9526 34.2746 20.1802C33.2484 20.9779 31.9658 23.2589 30.427 27.0211C28.8881 30.7834 28.1182 33.6336 28.1182 35.5719C28.1182 36.5981 28.4033 37.1117 28.9735 37.1117L28.9726 37.1107Z" fill="#F9AB3C"/>
<path d="M19.4891 83.5987L19.4881 83.7139C19.4699 85.9488 19.7531 88.9977 20.3377 92.8617C21.0788 97.7645 21.3352 101.356 21.1076 103.636C20.6516 107.512 17.9147 109.451 12.8987 109.451C10.276 109.451 8.62285 108.766 7.93837 107.398C5.97133 102.79 4.45069 97.6291 3.37645 91.9152L3.34668 91.7558L19.4891 83.5977V83.5987Z" fill="#A9DF91"/>
<path d="M38.8051 73.8365L38.8378 73.8643C45.5155 79.464 53.4576 86.5373 62.664 95.0861C63.3485 95.9981 63.6903 96.9101 63.6903 97.8221C63.6903 99.7603 62.6074 101.413 60.4407 102.781C58.8442 104.833 56.6784 105.859 53.9415 105.859C51.6615 105.859 49.9508 105.118 48.8112 103.637C46.3844 101.1 37.8759 93.8131 23.2858 81.7805L23.209 81.7181L38.8042 73.8365H38.8051Z" fill="#A9DF91"/>
<path d="M2.636 42.0701C2.86352 38.9914 2.63599 34.6022 1.95151 28.9018C1.15375 22.5178 0.754395 18.1277 0.754395 15.7334C0.754395 11.5152 1.38224 7.98048 2.6072 5.13024C3.9752 1.70976 7.36688 0 12.7832 0C14.0379 0 15.2062 0.170877 16.3457 0.512637C17.7992 1.99488 18.5403 3.24864 18.5403 4.27488C18.5403 8.83488 18.2264 17.2157 17.6283 29.4144C17.0869 39.7891 16.9438 48.1123 17.1723 54.383C17.5141 54.839 18.8254 55.0675 21.1064 55.0675C24.4126 52.559 27.6622 50.0506 30.8542 47.5421C34.7307 44.9203 38.2654 43.609 41.4574 43.609C43.9659 43.609 46.4168 44.3501 48.811 45.8323C50.2933 46.6301 51.0344 47.5997 51.0344 48.7392C51.0344 51.0192 49.5522 52.9008 46.5886 54.3821C45.5624 55.0666 42.5979 56.7763 37.6952 59.5123C33.8187 61.679 30.8542 63.7882 28.8027 65.8406C31.7422 68.0448 35.0763 70.7098 38.8049 73.8355L23.2097 81.7171L21.7909 80.5478C21.2206 80.0918 20.708 79.8634 20.252 79.8634C19.4542 79.8634 19.2258 80.6045 19.5675 82.0867C19.5224 82.5389 19.4955 83.0429 19.4888 83.5978L3.34639 91.7558C2.07535 84.9293 1.43886 77.3165 1.43886 68.9184C1.43886 63.1037 1.83824 54.1536 2.636 42.0682V42.0701Z" fill="#44AF89"/>
</g>
</svg>
