<svg width="20" height="20" viewBox="0 0 20 20" fill="none" xmlns="http://www.w3.org/2000/svg">
<path fill-rule="evenodd" clip-rule="evenodd" d="M14.504 20C15.9615 20 17.3592 19.4211 18.3899 18.3906C19.4206 17.3601 19.9997 15.9625 20 14.505V5.496C20 4.03837 19.421 2.64044 18.3903 1.60974C17.3596 0.579041 15.9616 0 14.504 0H5.5C4.04131 0 2.64236 0.579463 1.61091 1.61091C0.579463 2.64236 0 4.04131 0 5.5L0 14.504C0 15.9616 0.579041 17.3596 1.60974 18.3903C2.64044 19.421 4.03837 20 5.496 20H14.504ZM5.5 2C4.57174 2 3.6815 2.36875 3.02513 3.02513C2.36875 3.6815 2 4.57174 2 5.5V14.504C2 15.4312 2.36833 16.3204 3.02395 16.976C3.67958 17.6317 4.5688 18 5.496 18H9.9V11.9H9.1C8.83478 11.9 8.58043 11.7946 8.39289 11.6071C8.20536 11.4196 8.1 11.1652 8.1 10.9C8.1 10.6348 8.20536 10.3804 8.39289 10.1929C8.58043 10.0054 8.83478 9.9 9.1 9.9H9.9V9.055C9.9 8.08563 10.2851 7.15597 10.9705 6.47052C11.656 5.78508 12.5856 5.4 13.555 5.4H14.5C14.7652 5.4 15.0196 5.50536 15.2071 5.69289C15.3946 5.88043 15.5 6.13478 15.5 6.4C15.5 6.66522 15.3946 6.91957 15.2071 7.10711C15.0196 7.29464 14.7652 7.4 14.5 7.4H13.555C12.642 7.4 11.9 8.141 11.9 9.055V9.9H14.5C14.7652 9.9 15.0196 10.0054 15.2071 10.1929C15.3946 10.3804 15.5 10.6348 15.5 10.9C15.5 11.1652 15.3946 11.4196 15.2071 11.6071C15.0196 11.7946 14.7652 11.9 14.5 11.9H11.9V18H14.504C15.431 18 16.3201 17.6318 16.9757 16.9764C17.6313 16.321 17.9997 15.432 18 14.505V5.496C18 4.5688 17.6317 3.67958 16.976 3.02395C16.3204 2.36833 15.4312 2 14.504 2H5.5Z" fill="#FAFAFA"/>
</svg>
