<svg width="20" height="20" viewBox="0 0 20 20" fill="none" xmlns="http://www.w3.org/2000/svg">
<path d="M15.497 4C14.945 4.003 14.498 4.45 14.498 5.001C14.498 5.553 14.948 6 15.5 6C15.7652 5.9996 16.0194 5.89386 16.2067 5.70605C16.3939 5.51823 16.4989 5.26372 16.4985 4.9985C16.4981 4.73328 16.3923 4.47909 16.2045 4.29183C16.0167 4.10458 15.7622 3.9996 15.497 4Z" fill="#FAFAFA"/>
<path fill-rule="evenodd" clip-rule="evenodd" d="M6.74797 6.74699C7.61072 5.88437 8.78081 5.39981 10.0008 5.3999C11.2208 5.4 12.3909 5.88474 13.2535 6.74749C14.1161 7.61023 14.6007 8.78032 14.6006 10.0003C14.6005 11.2204 14.1157 12.3904 13.253 13.253C12.8258 13.6801 12.3186 14.0189 11.7605 14.25C11.2024 14.4812 10.6042 14.6001 10.0001 14.6001C8.7801 14.6 7.61009 14.1152 6.74747 13.2525C5.88486 12.3897 5.4003 11.2196 5.40039 9.99963C5.40048 8.77961 5.88522 7.6096 6.74797 6.74699ZM8.16197 8.16199C8.40341 7.92055 8.69003 7.72903 9.00549 7.59837C9.32094 7.46771 9.65903 7.40045 10.0005 7.40045C10.3419 7.40045 10.68 7.46771 10.9955 7.59837C11.3109 7.72903 11.5975 7.92055 11.839 8.16199C12.0804 8.40342 12.2719 8.69005 12.4026 9.0055C12.5333 9.32095 12.6005 9.65904 12.6005 10.0005C12.6005 10.3419 12.5333 10.68 12.4026 10.9955C12.2719 11.3109 12.0804 11.5976 11.839 11.839C11.3514 12.3266 10.69 12.6005 10.0005 12.6005C9.3109 12.6005 8.64957 12.3266 8.16197 11.839C7.67437 11.3514 7.40044 10.6901 7.40044 10.0005C7.40044 9.31091 7.67437 8.64959 8.16197 8.16199Z" fill="#FAFAFA"/>
<path fill-rule="evenodd" clip-rule="evenodd" d="M5.496 9.10167e-08H14.505C15.2267 7.90661e-08 15.9413 0.142166 16.6081 0.418378C17.2748 0.69459 17.8806 1.09944 18.3909 1.6098C18.9012 2.12017 19.3059 2.72605 19.582 3.39285C19.8581 4.05965 20.0001 4.7743 20 5.496V14.505C20 15.2267 19.8578 15.9413 19.5816 16.6081C19.3054 17.2748 18.9006 17.8806 18.3902 18.3909C17.8798 18.9012 17.274 19.3059 16.6072 19.582C15.9404 19.8581 15.2257 20.0001 14.504 20H5.496C4.77422 20.0001 4.05948 19.8581 3.39262 19.5819C2.72575 19.3058 2.11983 18.9009 1.60945 18.3906C1.09907 17.8802 0.694244 17.2742 0.418091 16.6074C0.141937 15.9405 -0.000131273 15.2258 9.10167e-08 14.504V5.496C-0.000131273 4.77422 0.141937 4.05948 0.418091 3.39262C0.694244 2.72575 1.09907 2.11983 1.60945 1.60945C2.11983 1.09907 2.72575 0.694244 3.39262 0.418091C4.05948 0.141937 4.77422 -0.000131273 5.496 9.10167e-08ZM5.496 2C5.03686 1.99987 4.5822 2.09021 4.15798 2.26585C3.73377 2.44149 3.34832 2.699 3.02366 3.02366C2.699 3.34832 2.44149 3.73377 2.26585 4.15798C2.09021 4.5822 1.99987 5.03686 2 5.496V14.504C1.99987 14.9631 2.09021 15.4178 2.26585 15.842C2.44149 16.2662 2.699 16.6517 3.02366 16.9763C3.34832 17.301 3.73377 17.5585 4.15798 17.7341C4.5822 17.9098 5.03686 18.0001 5.496 18H14.504C14.9631 18.0001 15.4176 17.9098 15.8418 17.7342C16.2659 17.5587 16.6513 17.3012 16.976 16.9767C17.3006 16.6521 17.5582 16.2668 17.7339 15.8427C17.9096 15.4186 18 14.9641 18 14.505V5.496C18.0001 5.03695 17.9098 4.58236 17.7342 4.15821C17.5587 3.73407 17.3012 3.34866 16.9767 3.02402C16.6521 2.69937 16.2668 2.44184 15.8427 2.26614C15.4186 2.09043 14.9641 2 14.505 2H5.496Z" fill="#FAFAFA"/>
</svg>
