<svg width="20" height="18" viewBox="0 0 20 18" fill="none" xmlns="http://www.w3.org/2000/svg">
<path d="M17.466 5.84993C17.466 5.60914 17.3703 5.37821 17.1998 5.20795C17.0294 5.03768 16.7983 4.94203 16.5573 4.94203C16.3163 4.94203 16.0851 5.03768 15.9147 5.20795C15.7443 5.37821 15.6486 5.60914 15.6486 5.84993H17.466ZM1.75794 12.2125C1.68753 12.1162 1.59884 12.0347 1.49691 11.9727C1.39499 11.9106 1.28183 11.8693 1.16391 11.8509C1.04599 11.8326 0.925602 11.8377 0.809631 11.8658C0.69366 11.8939 0.584373 11.9446 0.488011 12.015C0.391649 12.0853 0.310097 12.1739 0.248014 12.2758C0.18593 12.3776 0.14453 12.4907 0.126177 12.6085C0.107824 12.7263 0.112877 12.8466 0.141049 12.9624C0.16922 13.0783 0.219958 13.1875 0.290365 13.2838L1.75794 12.2125ZM0.869217 11.8529C0.631705 11.8939 0.420197 12.0274 0.281222 12.2241C0.142247 12.4209 0.0871884 12.6647 0.12816 12.902C0.169131 13.1393 0.302775 13.3506 0.499692 13.4895C0.696609 13.6283 0.940669 13.6833 1.17818 13.6424L0.869217 11.8538V11.8529ZM3.61263 11.8856L3.9016 12.7472C4.04804 12.6982 4.17957 12.6128 4.28378 12.4989C4.38798 12.385 4.46142 12.2465 4.49716 12.0964C4.5329 11.9463 4.52976 11.7896 4.48804 11.641C4.44633 11.4925 4.3674 11.357 4.25873 11.2474L3.61263 11.8856ZM2.74935 1.54015L3.55084 1.11072C3.47789 0.974815 3.37149 0.859719 3.24168 0.776282C3.11187 0.692846 2.96293 0.643819 2.8089 0.633827C2.65488 0.623834 2.50084 0.653204 2.36132 0.719168C2.2218 0.785131 2.1014 0.885513 2.01147 1.01085L2.75026 1.53924L2.74935 1.54015ZM7.92812 5.84993L7.71366 6.7324C7.84489 6.76417 7.98155 6.76633 8.11371 6.73872C8.24587 6.71111 8.37022 6.65442 8.4777 6.57277C8.58518 6.49112 8.6731 6.38657 8.73507 6.26671C8.79704 6.14686 8.83149 6.01471 8.83593 5.87989L7.92721 5.84993H7.92812ZM15.694 3.26424L14.9352 3.76358C15.018 3.88911 15.1306 3.99216 15.263 4.06346C15.3955 4.13477 15.5436 4.17211 15.694 4.17214V3.26424ZM18.2829 3.26424L19.039 3.76722C19.1301 3.6305 19.1823 3.47166 19.1901 3.30762C19.198 3.14359 19.1612 2.98049 19.0836 2.83571C19.006 2.69094 18.8906 2.56989 18.7496 2.48548C18.6086 2.40106 18.4473 2.35643 18.2829 2.35635V3.26424ZM15.8012 5.34695C15.7326 5.44609 15.6844 5.5579 15.6594 5.67586C15.6344 5.79381 15.6333 5.91556 15.6559 6.03398C15.6786 6.1524 15.7246 6.26512 15.7913 6.36558C15.858 6.46604 15.9441 6.55221 16.0445 6.61907C16.1449 6.68594 16.2577 6.73215 16.3761 6.75501C16.4946 6.77787 16.6165 6.77693 16.7346 6.75224C16.8527 6.72754 16.9647 6.67959 17.0641 6.61119C17.1634 6.54278 17.2482 6.45528 17.3133 6.35381L15.8012 5.34604V5.34695ZM15.6486 5.85083C15.6486 8.70162 14.8344 11.0558 13.395 12.6855C11.9683 14.3015 9.85369 15.2884 7.06484 15.2884V17.1042C10.3162 17.1042 12.9488 15.9357 14.7571 13.8866C16.5546 11.8529 17.4651 9.03482 17.4651 5.85083H15.6477H15.6486ZM7.06484 15.2884C5.51457 15.2884 4.49136 14.8889 3.72713 14.3487C2.93564 13.7886 2.36587 13.0414 1.75885 12.2115L0.291274 13.2829C0.889209 14.1009 1.61346 15.0787 2.67756 15.8313C3.76893 16.603 5.16381 17.1042 7.06484 17.1042V15.2884ZM1.17909 13.6415C1.20664 13.6368 1.23393 13.6307 1.26087 13.6233L1.28359 13.6179C1.33218 13.6035 1.38036 13.5877 1.42808 13.5707L1.72795 13.4717L2.61759 13.1757L3.50086 12.8798C3.62172 12.8398 3.72168 12.8071 3.79165 12.7826L3.87343 12.7554L3.89433 12.7481L3.89978 12.7463H3.9016L3.61354 11.8847L3.32457 11.024H3.32275L3.3173 11.0267L3.29549 11.034L3.21461 11.0612L2.92382 11.1584L2.04146 11.4535C1.63204 11.5909 1.22251 11.728 0.812877 11.8647C0.820147 11.8629 0.841956 11.8575 0.870126 11.8529L1.17909 13.6415ZM4.25964 11.2465C1.69433 8.65623 1.5035 4.83853 3.48904 2.06764L2.01238 1.01085C-0.477499 4.48627 -0.232146 9.29085 2.96744 12.523L4.25964 11.2465ZM1.94877 1.96958C3.09921 4.10677 5.26558 6.13864 7.71276 6.7324L8.14167 4.96836C6.31969 4.5244 4.52407 2.91743 3.55084 1.10981L1.94968 1.96958H1.94877ZM8.83684 5.87989C8.87137 4.83308 9.24031 3.98057 9.81371 3.39589C10.3817 2.81574 11.1995 2.44714 12.2436 2.44714V0.631348C10.7451 0.631348 9.44749 1.17336 8.51424 2.12574C7.58554 3.07358 7.06848 4.37641 7.02031 5.82087L8.83775 5.87989H8.83684ZM12.2436 2.44804C12.9915 2.44804 13.5249 2.58877 13.9266 2.80303C14.3264 3.01639 14.6508 3.33052 14.9361 3.76358L16.4537 2.7649C16.0357 2.13119 15.4995 1.58464 14.7817 1.20151C14.0665 0.82019 13.2259 0.631348 12.2436 0.631348V2.44714V2.44804ZM15.6949 4.17214H18.2838V2.35635H15.6949V4.17214ZM17.5278 2.76036L15.8012 5.34695L17.3142 6.35381L19.0399 3.76722L17.5278 2.75945V2.76036Z" fill="#FAFAFA"/>
</svg>
