<svg width="500" height="500" viewBox="0 0 500 500" fill="none" xmlns="http://www.w3.org/2000/svg">
<path d="M433.65 317.02H407.17V328.21H433.65V317.02Z" fill="#EBEBEB"/>
<path d="M418.88 331.13H392.4V342.32H418.88V331.13Z" fill="#EBEBEB"/>
<path d="M448.42 331.13H421.94V342.32H448.42V331.13Z" fill="#EBEBEB"/>
<path d="M92.83 317.02H66.35V328.21H92.83V317.02Z" fill="#EBEBEB"/>
<path d="M78.05 331.13H51.57V342.32H78.05V331.13Z" fill="#DBDBDB"/>
<path d="M260.73 227.76H234.25V238.95H260.73V227.76Z" fill="#EBEBEB"/>
<path d="M245.95 241.87H219.47V253.06H245.95V241.87Z" fill="#DBDBDB"/>
<path d="M373.88 114.93H347.4V126.12H373.88V114.93Z" fill="#DBDBDB"/>
<path d="M275.5 241.87H249.02V253.06H275.5V241.87Z" fill="#EBEBEB"/>
<path d="M432.12 55.1801H405.64V66.3701H432.12V55.1801Z" fill="#EBEBEB"/>
<path d="M446.89 69.29H420.41V80.48H446.89V69.29Z" fill="#DBDBDB"/>
<path d="M78.05 55.1901H51.57V66.3801H78.05V55.1901Z" fill="#EBEBEB"/>
<path d="M323.63 464.73C388.093 464.73 440.35 458.256 440.35 450.27C440.35 442.284 388.093 435.81 323.63 435.81C259.167 435.81 206.91 442.284 206.91 450.27C206.91 458.256 259.167 464.73 323.63 464.73Z" fill="#EBEBEB"/>
<path d="M68.69 378.15C64.31 378.3 59.43 378.55 55.81 375.71C52.46 373.09 49.47 369.19 49.92 364.71C50.05 363.43 50.34 362.64 51.71 363.18C53.8 364.02 55.4 366.32 56.85 367.93C58.6861 370.038 60.7186 371.967 62.92 373.69C64.48 374.89 66.15 375.92 67.74 377.07L68.34 377.52L68.56 377.69H68.69C68.7249 377.69 68.7592 377.699 68.7904 377.714C68.8216 377.73 68.8488 377.752 68.87 377.78C68.87 377.78 68.87 377.83 68.87 377.86C68.8789 377.891 68.8812 377.923 68.8768 377.955C68.8724 377.987 68.8614 378.018 68.8444 378.045C68.8274 378.072 68.8049 378.096 68.7783 378.114C68.7517 378.132 68.7217 378.144 68.69 378.15Z" fill="#37474F"/>
<path d="M68.9 377.86C65.06 377.79 60.9 377.97 57.83 375.36C56.413 374.106 55.2045 372.634 54.25 371C53.81 370.28 52.48 368.12 53.03 367.26C54.03 365.71 58.61 372.04 59.25 372.65C61.6497 374.831 64.5755 376.351 67.74 377.06L68.34 377.51C66.1098 377.041 63.9693 376.217 62 375.07C59.27 373.44 57.75 371.07 55.61 368.78C55.15 368.29 53.76 366.66 53.23 367.68C52.89 368.35 54.23 370.46 54.45 370.91C55.3528 372.433 56.4786 373.811 57.79 375C60.86 377.68 64.99 377.58 68.87 377.74C68.88 377.81 68.9 377.83 68.9 377.86Z" fill="white"/>
<path d="M71.1 380.82C71.1 380.98 71.03 381.15 70.99 381.32C70.9869 381.341 70.9776 381.361 70.9634 381.377C70.9492 381.393 70.9306 381.404 70.91 381.41C70.8672 381.425 70.8205 381.424 70.7784 381.407C70.7362 381.391 70.7013 381.36 70.68 381.32C70.6703 381.303 70.6653 381.284 70.6653 381.265C70.6653 381.246 70.6703 381.227 70.68 381.21C70.6757 381.19 70.6757 381.17 70.68 381.15V381C70.6738 380.984 70.6738 380.966 70.68 380.95C69.9 378.06 69.6 375.05 68.78 372.15C67.96 369.25 67.03 366.67 66.47 363.85C66.12 362.07 64.88 353.14 68.81 354.26C70.56 354.75 71.75 357.26 72.41 358.78C73.2786 360.814 73.77 362.99 73.86 365.2C74.2 370.64 72.2 375.6 71.1 380.82Z" fill="#37474F"/>
<path d="M72.36 369.7C72.4416 367.66 72.2294 365.619 71.73 363.64C71.55 362.96 70.73 359.64 69.59 359.75C68.87 359.8 68.74 361.22 68.68 361.69C68.43 363.69 69.08 365.69 69.46 367.64C70.237 371.572 70.7216 375.556 70.91 379.56C70.91 379.81 70.83 380.07 70.81 380.32C70.79 380.57 70.75 380.74 70.72 380.95C70.69 381.16 70.72 381.09 70.72 381.17C70.7145 381.227 70.7145 381.283 70.72 381.34C70.7413 381.38 70.7762 381.411 70.8184 381.427C70.8606 381.444 70.9072 381.445 70.95 381.43C70.95 381.26 70.95 381.1 71.02 380.94C71.02 381.07 71.02 381.2 71.02 381.34C71.02 381.19 71.02 381.06 71.1 380.92C71.0953 380.89 71.0953 380.86 71.1 380.83C71.1 380.6 71.1 380.38 71.1 380.16C71.7287 376.702 72.1494 373.209 72.36 369.7ZM71.03 378.7C70.92 376.36 70.69 374.03 70.36 371.7C70.09 369.83 69.74 367.98 69.36 366.13C69.0987 365.094 68.9313 364.036 68.86 362.97C68.86 362.16 68.94 359.14 70.49 360.97C71.61 362.33 71.88 365.21 72.02 366.87C72.1485 368.716 72.1116 370.57 71.91 372.41C71.69 374.56 71.34 376.64 71 378.71L71.03 378.7Z" fill="white"/>
<path d="M73.46 392.82C73.4069 392.827 73.3531 392.827 73.3 392.82C69.3 392.62 63.97 393 60.64 390.35C58.18 388.35 55.77 384.53 56.55 381.25C57.43 377.56 62.42 381.99 63.74 383.06C67.1863 386.054 70.4614 389.239 73.55 392.6C73.5454 392.623 73.5454 392.647 73.55 392.67C73.63 392.77 73.55 392.8 73.46 392.82Z" fill="#37474F"/>
<path d="M73.59 392.71L72.9 392.27C70.3 390.623 67.7467 388.867 65.24 387C64.62 386.52 60.12 382.51 59.44 383.94C59.03 384.81 60.52 386.57 60.99 387.17C61.8355 388.234 62.8488 389.153 63.99 389.89C66.66 391.55 69.89 391.89 72.91 392.71C73.0563 392.734 73.2003 392.771 73.34 392.82H73.41C73.55 392.8 73.63 392.77 73.59 392.71ZM65.68 390.43C64.4029 389.851 63.2331 389.06 62.22 388.09C61.55 387.46 59.22 385.09 59.82 384.09C60.15 383.57 60.43 383.84 61.06 384.16C61.3553 384.302 61.6395 384.465 61.91 384.65C62.58 385.09 63.2 385.6 63.83 386.1C64.92 386.98 66.04 387.83 67.18 388.65C69.04 389.983 70.9467 391.267 72.9 392.5C70.5 391.75 68 391.46 65.68 390.43Z" fill="white"/>
<path d="M80.77 384.58C79.7271 389.173 77.3387 393.351 73.91 396.58C73.91 396.58 73.91 396.58 73.83 396.58C73.7937 396.593 73.7541 396.593 73.7178 396.58C73.6814 396.567 73.6505 396.543 73.63 396.51C73.6146 396.495 73.6023 396.477 73.5939 396.458C73.5856 396.438 73.5812 396.417 73.5812 396.395C73.5812 396.374 73.5856 396.352 73.5939 396.333C73.6023 396.313 73.6146 396.295 73.63 396.28L73.83 396.07C74.49 390.63 75.22 385.22 75.83 379.77C75.96 378.48 76.97 370.3 79.49 371.63C81.04 372.46 81.14 375.81 81.27 377.32C81.4762 379.751 81.3075 382.2 80.77 384.58Z" fill="#37474F"/>
<path d="M79.31 377.29C79.18 376.83 78.94 376.37 78.43 376.69C77.43 377.3 77.07 381.14 76.9 382.21C76.23 386.6 75.19 390.82 74.14 395.11L73.87 396.2L73.63 396.53C73.6516 396.561 73.6827 396.585 73.7186 396.598C73.7545 396.61 73.7935 396.611 73.83 396.6C73.83 396.6 73.83 396.53 73.83 396.49C73.83 396.45 74.05 396.2 74.15 396.05C75.8758 393.7 77.2253 391.095 78.15 388.33C78.7252 386.599 79.1174 384.813 79.32 383C79.51 381.26 79.82 378.94 79.31 377.29ZM74.18 395.75L74 396C74 395.85 74.09 395.71 74.13 395.56C75.1664 392.284 75.9849 388.944 76.58 385.56C76.87 383.85 77.06 382.12 77.41 380.42C77.56 379.7 77.91 377.64 78.51 377.31C79.11 376.98 79.09 377.78 79.15 378.24C79.21 378.7 79.15 379.17 79.15 379.49C79.2477 385.298 77.5083 390.989 74.18 395.75Z" fill="white"/>
<path d="M74.57 408.29H73.77C73.77 407.58 73.77 406.88 73.77 406.18C73.68 403.34 73.56 400.5 73.39 397.65C73.3 396.03 73.18 394.42 73.01 392.83C73.01 392.78 73.01 392.72 73.01 392.67C73.01 392.62 73.01 392.41 73.01 392.27C73.01 392.13 73.01 392 72.96 391.85C72.5951 388.248 71.6671 384.725 70.21 381.41C69.7 380.3 69.15 379.22 68.56 378.15C68.56 378.05 68.45 377.95 68.39 377.85C68.3968 377.82 68.3968 377.79 68.39 377.76L68.22 377.44L68.08 377.21C66.23 373.95 64.08 370.84 62.08 367.7C61.5 366.81 60.92 365.91 60.36 365C60.3209 364.951 60.2874 364.897 60.26 364.84C60.2109 364.777 60.1674 364.71 60.13 364.64C57.61 360.64 55.13 356.64 52.51 352.74C52.4 352.6 52.64 352.47 52.74 352.61C54.51 355.2 56.34 357.75 58.16 360.32L58.88 361.32C59.36 362 59.88 362.67 60.31 363.32C61.31 364.68 62.2 366.03 63.11 367.41C65.8109 371.227 68.2723 375.208 70.48 379.33C70.64 379.64 70.79 379.95 70.94 380.27C71.09 380.59 71.13 380.66 71.21 380.86C71.29 381.06 71.42 381.32 71.52 381.55C73.1535 385.558 74.0642 389.824 74.21 394.15L74.27 395.06C74.27 395.19 74.27 395.34 74.27 395.48C74.2651 395.553 74.2651 395.627 74.27 395.7C74.27 395.8 74.27 395.89 74.27 396C74.27 396.07 74.27 396.14 74.27 396.22V397C74.39 399.84 74.46 402.68 74.52 405.52C74.5 406.47 74.54 407.38 74.57 408.29Z" fill="#37474F"/>
<path d="M50.69 356.8C48.5 353.85 45.69 347.8 48.92 344.62C49.5046 344.008 50.2955 343.634 51.1396 343.571C51.9838 343.509 52.8212 343.761 53.49 344.28C55.2 345.51 55.96 347.84 56.49 349.77C57.97 354.93 58.95 360.18 60.79 365.23C60.8692 365.406 60.9393 365.587 61 365.77C61 365.88 60.87 365.92 60.83 365.82C60.79 365.72 60.71 365.49 60.64 365.33C57.19 362.79 53.28 360.29 50.69 356.8Z" fill="#37474F"/>
<path d="M60.85 365.24L60.8 365.15C60.0557 363.922 59.3877 362.65 58.8 361.34C57.5816 358.593 56.5297 355.774 55.65 352.9C55.3 351.8 53.73 346.38 51.79 348.54C50.98 349.45 51.1 351.06 51.22 352.17C51.4432 353.955 52.0176 355.678 52.91 357.24C54.7581 360.267 57.2379 362.859 60.18 364.84L60.57 365.13C60.5929 365.179 60.6196 365.226 60.65 365.27C60.6467 365.3 60.6467 365.33 60.65 365.36C60.6664 365.364 60.6836 365.364 60.7 365.36C60.7164 365.366 60.7339 365.369 60.7514 365.369C60.769 365.368 60.7862 365.364 60.8021 365.356C60.818 365.349 60.8322 365.338 60.8439 365.325C60.8555 365.312 60.8644 365.297 60.87 365.28C60.8679 365.265 60.8609 365.251 60.85 365.24ZM60 364.64C57.6425 362.904 55.5621 360.82 53.83 358.46C52.9621 357.201 52.2879 355.819 51.83 354.36C51.6266 353.707 51.4794 353.038 51.39 352.36C51.3146 351.857 51.2845 351.348 51.3 350.84C51.3 349.73 51.8 348.52 52.46 348.4C53.12 348.28 53.54 348.73 54.08 349.66C54.2587 349.984 54.4189 350.318 54.56 350.66C54.9077 351.497 55.2115 352.351 55.47 353.22C55.92 354.66 56.38 356.08 56.9 357.49C57.25 358.49 57.62 359.4 58.03 360.33C58.7177 361.939 59.5198 363.496 60.43 364.99C60.2797 364.882 60.1361 364.765 60 364.64Z" fill="white"/>
<path d="M431.69 365C431.33 367.92 430.77 370.82 430.18 373.7C429.84 375.33 429.49 376.96 429.18 378.6C428.82 380.4 428.28 382.24 428.77 384.06C428.779 384.143 428.779 384.227 428.77 384.31C428.746 384.341 428.714 384.365 428.677 384.379C428.641 384.394 428.601 384.398 428.562 384.392C428.524 384.386 428.487 384.369 428.457 384.344C428.427 384.32 428.403 384.287 428.39 384.25V384.12C428.119 383.641 427.907 383.131 427.76 382.6C427.196 381.222 426.712 379.813 426.31 378.38C425.464 375.451 424.987 372.427 424.89 369.38C424.812 366.651 425.098 363.924 425.74 361.27C426.26 359.15 427 355.99 428.58 354.37C430.01 352.9 431.2 355.25 431.58 356.44C432.48 359.16 432 362.27 431.69 365Z" fill="#37474F"/>
<path d="M429.07 358.84C428.01 358.84 427.23 362.28 426.85 363.76C426.261 366.105 425.958 368.512 425.95 370.93C425.959 375.264 426.703 379.565 428.15 383.65C428.2 383.81 428.26 383.98 428.32 384.15V384.26C428.332 384.298 428.355 384.331 428.384 384.357C428.414 384.383 428.45 384.401 428.489 384.408C428.528 384.415 428.568 384.412 428.605 384.398C428.642 384.384 428.675 384.361 428.7 384.33C428.63 383.97 428.58 383.62 428.54 383.26C428.5 382.9 428.46 382.61 428.44 382.26C428.291 378.734 428.509 375.201 429.09 371.72C429.67 367.73 430.48 358.84 429.07 358.84ZM428.31 383C428.36 383.48 428.44 383.94 428.52 384.41C428.41 384.07 428.31 383.73 428.2 383.41C427.036 379.773 426.364 375.996 426.2 372.18C426.067 368.874 426.504 365.569 427.49 362.41C427.64 361.94 428.41 359.07 429.07 359.21C429.53 359.31 429.64 361.9 429.65 361.96C429.65 362.47 429.65 362.96 429.65 363.52C429.65 364.59 429.56 365.66 429.47 366.73C429.27 369.04 428.94 371.35 428.66 373.65C428.181 376.743 428.063 379.88 428.31 383Z" fill="white"/>
<path d="M445.43 373.12C444.51 372.19 441.77 374.48 441.09 375.02C439.044 376.682 437.15 378.523 435.43 380.52C432.486 383.613 430.047 387.15 428.2 391L428.11 391.12V391.31V391.37C428.093 391.391 428.084 391.418 428.084 391.445C428.084 391.472 428.093 391.499 428.11 391.52L428.25 391.36C428.59 390.94 428.95 390.54 429.31 390.14C429.368 390.069 429.432 390.002 429.5 389.94C432.156 387.27 434.982 384.775 437.96 382.47C440 380.823 441.885 378.992 443.59 377C444 376.46 446.21 373.9 445.43 373.12ZM444.58 375.12C442.27 378.94 438.28 381.74 434.89 384.53C432.551 386.354 430.395 388.401 428.45 390.64C430.247 387.223 432.494 384.061 435.13 381.24C436.57 379.579 438.102 377.999 439.72 376.51C440.596 375.701 441.528 374.956 442.51 374.28C443.098 373.873 443.732 373.537 444.4 373.28C445.69 372.92 445 374.5 444.58 375.16V375.12Z" fill="white"/>
<path d="M427.65 400.57C427.629 400.604 427.6 400.632 427.565 400.652C427.53 400.671 427.49 400.681 427.45 400.68L427.5 400.75C427.507 400.757 427.512 400.764 427.516 400.773C427.519 400.782 427.521 400.791 427.521 400.8C427.521 400.809 427.519 400.819 427.516 400.827C427.512 400.836 427.507 400.844 427.5 400.85C427.486 400.861 427.468 400.868 427.45 400.868C427.432 400.868 427.414 400.861 427.4 400.85C423.79 397.17 420.31 392.7 418.51 387.85C417.733 385.798 417.297 383.633 417.22 381.44C417.22 379.94 417.1 376.92 418.38 375.83C420.96 373.63 423.32 382.95 423.67 384.36C424.31 386.92 424.73 389.53 425.32 392.1C425.97 394.92 426.82 397.68 427.66 400.44C427.672 400.483 427.669 400.529 427.65 400.57Z" fill="#37474F"/>
<path d="M427.65 400.57C427.51 400.33 427.37 400.09 427.24 399.85C425.055 395.941 423.487 391.718 422.59 387.33C422.203 385.112 421.628 382.931 420.87 380.81C420.66 380.29 420.02 378.31 419.16 379.31C418.72 379.83 419.09 383.6 419.26 384.57C419.696 386.781 420.401 388.931 421.36 390.97C422.925 394.411 424.913 397.643 427.28 400.59L427.49 400.85C427.497 400.844 427.502 400.836 427.506 400.827C427.509 400.819 427.511 400.809 427.511 400.8C427.511 400.791 427.509 400.782 427.506 400.773C427.502 400.764 427.497 400.757 427.49 400.75L427.44 400.68C427.482 400.683 427.523 400.674 427.56 400.654C427.597 400.635 427.628 400.606 427.65 400.57ZM422.4 392.57C421.363 390.587 420.532 388.503 419.92 386.35C419.689 385.491 419.509 384.62 419.38 383.74C419.27 383.052 419.21 382.357 419.2 381.66C419.2 379.96 419.35 379.52 419.64 379.46C419.93 379.4 420.06 379.61 420.56 380.62C420.867 381.286 421.111 381.979 421.29 382.69C421.55 383.69 421.78 384.69 422 385.69C422.44 387.69 422.85 389.76 423.44 391.75C424.273 394.613 425.48 397.353 427.03 399.9C425.286 397.586 423.737 395.131 422.4 392.56V392.57Z" fill="white"/>
<path d="M439.24 391.63C438.814 393.425 438.005 395.106 436.87 396.56C434.72 399.56 431.98 401.99 429.64 404.79C429.29 405.2 428.95 405.63 428.64 406.07C428.64 406.12 428.33 406.73 428.34 406.68L428.45 406.04C428.82 404.04 430.06 398.16 431.59 395.13C432.515 393.213 433.667 391.413 435.02 389.77C435.68 389.02 437.24 387.4 438.41 387.77C439.58 388.14 439.42 390.69 439.24 391.63Z" fill="#37474F"/>
<path d="M437.33 390.44C436.07 389.66 432.84 395.44 432.4 396.18C430.797 398.946 429.556 401.907 428.71 404.99C428.61 405.34 428.52 405.68 428.44 406.04L428.31 406.68C428.31 406.68 428.58 406.12 428.62 406.06L428.79 405.84C429.07 405.48 429.35 405.13 429.64 404.84C431.04 402.74 432.48 400.65 433.85 398.52C434.847 396.989 435.719 395.38 436.46 393.71C436.62 393.28 437.88 390.77 437.33 390.44ZM436.97 392.06C435.18 397.06 431.54 401.06 428.76 405.51L428.63 405.73C428.63 405.6 428.7 405.47 428.74 405.34C429.49 402.806 430.478 400.349 431.69 398C432.431 396.571 433.26 395.188 434.17 393.86C434.64 393.111 435.158 392.393 435.72 391.71C435.98 391.43 436.72 390.71 436.97 390.8C437.22 390.89 437.08 391.73 437 392.06H436.97Z" fill="white"/>
<path d="M451.84 350.15C448.11 358.71 438.32 362.7 434.08 370.96C433.95 371.21 433.83 371.47 433.71 371.73C433.699 371.756 433.682 371.779 433.659 371.796C433.637 371.814 433.611 371.826 433.583 371.831C433.556 371.836 433.527 371.834 433.5 371.825C433.474 371.816 433.449 371.801 433.43 371.78C433.418 371.757 433.411 371.731 433.411 371.705C433.411 371.679 433.418 371.653 433.43 371.63L433.52 371.45C434.356 366.177 436.13 361.096 438.76 356.45C440.9 352.5 443.83 348.81 447.9 346.73C448.9 346.21 450.85 345.13 451.97 345.98C453.09 346.83 452.3 349.09 451.84 350.15Z" fill="#37474F"/>
<path d="M448.48 350.51C448.01 350.16 447.29 350.59 446.88 350.8C445.863 351.329 444.913 351.977 444.05 352.73C442.286 354.284 440.766 356.094 439.54 358.1C437.326 361.459 435.539 365.08 434.22 368.88C433.94 369.74 433.69 370.61 433.48 371.49C433.48 371.6 433.43 371.71 433.41 371.81C433.426 371.833 433.447 371.851 433.471 371.864C433.495 371.877 433.522 371.884 433.55 371.884C433.578 371.884 433.605 371.877 433.629 371.864C433.653 371.851 433.674 371.833 433.69 371.81C433.8 371.56 433.92 371.32 434.05 371.07C434.05 371.07 434.05 371.07 434.05 371C434.774 369.29 435.665 367.655 436.71 366.12C438.422 363.792 440.286 361.581 442.29 359.5C443.08 358.61 450.12 351.72 448.48 350.51ZM447.88 352.51C446.604 354.45 445.122 356.247 443.46 357.87C441.91 359.6 440.35 361.31 438.83 363.06C437.616 364.452 436.522 365.944 435.56 367.52C434.771 368.83 434.102 370.209 433.56 371.64C433.956 370.181 434.444 368.748 435.02 367.35C436.072 364.874 437.278 362.466 438.63 360.14C438.653 360.114 438.669 360.083 438.68 360.05C439.822 357.975 441.208 356.045 442.81 354.3C443.684 353.354 444.668 352.514 445.74 351.8C446.97 351.01 448.04 350.49 448.35 350.88C448.66 351.27 448.22 351.91 447.88 352.5V352.51Z" fill="white"/>
<path d="M438.81 360.19C437.69 362.6 436.62 365.05 435.56 367.51C435.06 368.66 434.56 369.81 434.08 370.96C434.08 370.96 434.08 371.01 434.08 371.03L433.54 372.28C431.769 376.015 430.304 379.888 429.16 383.86C428.666 385.975 428.368 388.131 428.27 390.3C428.27 390.52 428.27 390.75 428.27 390.97V391.33C428.265 391.4 428.265 391.47 428.27 391.54C428.2 393.42 428.27 395.3 428.27 397.13C428.32 399.69 428.54 402.23 428.78 404.76C428.775 404.833 428.775 404.907 428.78 404.98V405.33C428.78 405.39 428.78 405.44 428.78 405.5V405.83C428.86 406.64 428.93 407.46 429 408.28H428.22C427.721 405.793 427.406 403.273 427.28 400.74C427.275 400.687 427.275 400.633 427.28 400.58C427.28 400.34 427.28 400.08 427.28 399.84C427.28 399.6 427.28 399.24 427.28 398.93C427.28 398.2 427.23 397.47 427.22 396.75C427.019 392.519 427.321 388.28 428.12 384.12C428.12 384.01 428.12 383.9 428.2 383.78C428.196 383.733 428.196 383.687 428.2 383.64C428.212 383.559 428.228 383.479 428.25 383.4L428.36 383.01C428.42 382.78 428.49 382.55 428.55 382.33L428.61 382.12C429.812 378.561 431.252 375.086 432.92 371.72L433.78 369.89C433.95 369.55 434.11 369.21 434.27 368.89L435.03 367.35C436.22 364.94 437.46 362.56 438.64 360.14C438.68 360 438.87 360.07 438.81 360.19Z" fill="#37474F"/>
<path d="M304.56 355.81H126.96V379.33H304.56V355.81Z" fill="#44AF89"/>
<path d="M163.46 355.81L150.57 379.33H127.64L140.53 355.81H163.46Z" fill="#EBEBEB"/>
<path d="M210.48 355.81L197.59 379.33H174.65L187.53 355.81H210.48Z" fill="#EBEBEB"/>
<path d="M257.49 355.81L244.6 379.33H221.66L234.55 355.81H257.49Z" fill="#EBEBEB"/>
<path d="M304.5 355.81L291.61 379.33H268.67L281.56 355.81H304.5Z" fill="#EBEBEB"/>
<path d="M270.39 409.18H294.82L276.72 298.21H252.3L270.39 409.18Z" fill="#EBEBEB"/>
<path d="M140.12 409.18H164.55L146.46 298.21H122.03L140.12 409.18Z" fill="#EBEBEB"/>
<path d="M280.39 409.18H304.82L286.72 298.21H262.3L280.39 409.18Z" fill="#C7C7C7"/>
<path d="M140.12 409.18H164.55L146.46 298.21H122.03L140.12 409.18Z" fill="#C7C7C7"/>
<path d="M136.8 298.22L135.28 307.56L133.65 317.6L118.71 409.18H94.29L109.22 317.6L110.86 307.56L112.38 298.22H136.8Z" fill="#EBEBEB"/>
<path d="M133.27 298.22C131.98 307.49 130.6 316.75 129.2 326.01L124.89 353.77L120.38 381.49L118.05 395.34L115.62 409.18L117.62 395.28L119.7 381.38L124 353.63L128.51 325.9C130.05 316.67 131.61 307.43 133.27 298.22Z" fill="#C7C7C7"/>
<path d="M135.28 307.56L133.65 317.6H109.22L110.86 307.56H135.28Z" fill="#C7C7C7"/>
<path d="M277.07 298.22L275.55 307.56L273.91 317.6L258.98 409.18H234.55L249.49 317.6L251.13 307.56L252.65 298.22H277.07Z" fill="#EBEBEB"/>
<path d="M273.46 298.22C272.17 307.49 270.79 316.75 269.39 326.01L265.08 353.77L260.57 381.49L258.24 395.34L255.81 409.18L257.81 395.28L259.89 381.38L264.2 353.63L268.71 325.9C270.24 316.67 271.8 307.43 273.46 298.22Z" fill="#C7C7C7"/>
<path d="M275.55 307.56H251.13L249.49 317.6H273.91L275.55 307.56Z" fill="#C7C7C7"/>
<path d="M274.3 360.03H96.7V383.55H274.3V360.03Z" fill="#44AF89"/>
<path d="M133.2 360.03L120.31 383.55H97.38L110.27 360.03H133.2Z" fill="#EBEBEB"/>
<path d="M180.22 360.03L167.33 383.55H144.39L157.28 360.03H180.22Z" fill="#EBEBEB"/>
<path d="M227.23 360.03L214.34 383.55H191.4L204.29 360.03H227.23Z" fill="#EBEBEB"/>
<path d="M274.24 360.03L261.35 383.55H238.41L251.3 360.03H274.24Z" fill="#EBEBEB"/>
<path d="M306.2 265.5H96.7V307.57H306.2V265.5Z" fill="#44AF89"/>
<path d="M139.76 265.5L124.56 307.56H97.5L112.71 265.5H139.76Z" fill="#EBEBEB"/>
<path d="M195.22 265.5L180.02 307.56H152.95L168.16 265.5H195.22Z" fill="#EBEBEB"/>
<path d="M250.67 265.5L235.47 307.56H208.41L223.62 265.5H250.67Z" fill="#EBEBEB"/>
<path d="M306.13 265.5L290.93 307.56H263.86L279.07 265.5H306.13Z" fill="#EBEBEB"/>
<path d="M43.94 408.97L95.45 408.73L146.97 408.64L250 408.47L353.03 408.64L404.55 408.73L456.06 408.97L404.55 409.22L353.03 409.31L250 409.47L146.97 409.3L95.45 409.22L43.94 408.97Z" fill="#263238"/>
<path d="M224.6 52.27H73.16V232.32H224.6V52.27Z" fill="#44AF89"/>
<path d="M158.584 116.429C171.763 111.07 178.102 96.0416 172.743 82.8628C167.383 69.684 152.355 63.3451 139.176 68.7045C125.998 74.0639 119.659 89.0921 125.018 102.271C130.378 115.45 145.406 121.789 158.584 116.429Z" fill="#455A64"/>
<path d="M148.88 115.21C144.4 115.21 140.021 113.882 136.296 111.393C132.572 108.904 129.668 105.367 127.954 101.228C126.24 97.0891 125.791 92.5349 126.665 88.1412C127.539 83.7476 129.696 79.7117 132.864 76.5441C136.032 73.3764 140.068 71.2192 144.461 70.3453C148.855 69.4713 153.409 69.9198 157.548 71.6342C161.687 73.3485 165.224 76.2516 167.713 79.9764C170.202 83.7011 171.53 88.0803 171.53 92.56C171.525 98.5656 169.137 104.324 164.89 108.57C160.644 112.817 154.886 115.205 148.88 115.21ZM148.88 71.68C144.75 71.68 140.713 72.9046 137.28 75.199C133.846 77.4933 131.17 80.7543 129.589 84.5696C128.009 88.3849 127.596 92.5832 128.401 96.6335C129.207 100.684 131.195 104.404 134.116 107.324C137.036 110.245 140.756 112.233 144.807 113.039C148.857 113.844 153.055 113.431 156.87 111.851C160.686 110.27 163.947 107.594 166.241 104.16C168.535 100.727 169.76 96.6897 169.76 92.56C169.755 87.0239 167.553 81.7161 163.639 77.8015C159.724 73.8869 154.416 71.6853 148.88 71.68Z" fill="white"/>
<path d="M141.89 95.2401L141.83 95.1601C141.22 94.3201 140.62 93.4801 139.99 92.6601C139.798 92.4032 139.565 92.1801 139.3 92.0001C139.046 91.826 138.754 91.7166 138.449 91.6811C138.143 91.6457 137.833 91.6854 137.547 91.7967C137.26 91.9081 137.005 92.0877 136.803 92.3201C136.602 92.5524 136.46 92.8305 136.39 93.13C136.319 93.4237 136.311 93.7292 136.368 94.0259C136.425 94.3226 136.545 94.6037 136.72 94.8501L141.52 102.13C142.349 103.453 143.564 104.489 145 105.1C147.447 106.128 150.174 106.28 152.72 105.53C153.627 105.29 154.468 104.845 155.177 104.229C155.886 103.614 156.444 102.845 156.81 101.98C157.271 100.952 157.507 99.8369 157.5 98.7101C157.5 95.7101 157.5 92.7101 157.5 89.7601C157.5 88.1501 157.5 86.5401 157.5 84.9301C157.51 84.6761 157.46 84.4233 157.354 84.1923C157.248 83.9612 157.089 83.7583 156.89 83.6001C156.656 83.3957 156.366 83.2663 156.057 83.2289C155.749 83.1914 155.436 83.2476 155.16 83.3901C154.871 83.5107 154.625 83.7173 154.457 83.9821C154.289 84.2468 154.206 84.5568 154.22 84.8701C154.22 87.0401 154.22 89.2001 154.22 91.3701C154.22 91.7401 154.07 91.9401 153.8 91.9401C153.53 91.9401 153.39 91.7401 153.39 91.3701V82.0001C153.4 81.8669 153.4 81.7332 153.39 81.6001C153.345 81.1814 153.14 80.7964 152.817 80.5257C152.494 80.2551 152.079 80.1198 151.659 80.1482C151.239 80.1767 150.846 80.3666 150.563 80.6783C150.28 80.9899 150.128 81.3991 150.14 81.8201V90.3101C150.145 90.39 150.145 90.4701 150.14 90.5501C150.128 90.6466 150.083 90.7357 150.011 90.8017C149.94 90.8676 149.847 90.906 149.75 90.9101C149.653 90.9162 149.557 90.8857 149.481 90.8246C149.405 90.7636 149.355 90.6763 149.34 90.5801C149.33 90.4937 149.33 90.4064 149.34 90.3201V80.9101C149.345 80.8235 149.345 80.7367 149.34 80.6501C149.329 80.3857 149.25 80.1286 149.112 79.9029C148.974 79.6772 148.78 79.4904 148.55 79.3601C148.301 79.1852 148.009 79.0837 147.705 79.0673C147.402 79.0509 147.1 79.1202 146.834 79.2672C146.568 79.4143 146.349 79.6332 146.201 79.899C146.054 80.1647 145.984 80.4666 146 80.77C146 83.9567 146 87.1401 146 90.3201C146.005 90.3933 146.005 90.4668 146 90.5401C145.988 90.6409 145.94 90.7339 145.864 90.8019C145.789 90.8699 145.692 90.9084 145.59 90.9101C145.491 90.9111 145.395 90.8762 145.319 90.8119C145.244 90.7476 145.194 90.6581 145.18 90.5601C145.175 90.4868 145.175 90.4133 145.18 90.34V86.7901C145.18 85.4701 145.18 84.1401 145.18 82.7901C145.177 82.576 145.131 82.3647 145.046 82.1682C144.961 81.9717 144.839 81.7938 144.685 81.6448C144.375 81.3438 143.957 81.1784 143.525 81.1851C143.093 81.1917 142.681 81.3698 142.38 81.6801C142.079 81.9905 141.913 82.4077 141.92 82.84V95.2401H141.89Z" fill="white"/>
<path d="M141.89 95.2401V82.8701C141.887 82.656 141.926 82.4434 142.005 82.2444C142.083 82.0454 142.201 81.8638 142.35 81.7102C142.651 81.3998 143.063 81.2217 143.495 81.2151C143.927 81.2084 144.345 81.3738 144.655 81.6748C144.965 81.9758 145.143 82.3878 145.15 82.8201C145.15 84.1401 145.15 85.4701 145.15 86.8201V90.3701C145.145 90.4433 145.145 90.5168 145.15 90.5901C145.164 90.6881 145.214 90.7776 145.289 90.8419C145.365 90.9063 145.461 90.9411 145.56 90.9401C145.662 90.9384 145.759 90.9 145.834 90.8319C145.91 90.7639 145.958 90.6709 145.97 90.5701C145.975 90.4968 145.975 90.4233 145.97 90.3501C145.97 87.1701 145.97 83.9867 145.97 80.8001C145.966 80.5106 146.039 80.2253 146.182 79.9737C146.325 79.7222 146.533 79.5136 146.784 79.3697C147.035 79.2257 147.32 79.1517 147.61 79.1553C147.899 79.1589 148.183 79.2399 148.43 79.3901C148.66 79.5204 148.854 79.7072 148.992 79.9329C149.13 80.1586 149.209 80.4157 149.22 80.6801C149.225 80.7667 149.225 80.8535 149.22 80.9401V90.3501C149.21 90.4364 149.21 90.5237 149.22 90.6101C149.235 90.7063 149.285 90.7936 149.361 90.8546C149.437 90.9157 149.533 90.9462 149.63 90.9401C149.727 90.936 149.82 90.8976 149.891 90.8317C149.963 90.7657 150.008 90.6766 150.02 90.5801C150.025 90.5001 150.025 90.42 150.02 90.3401V81.8201C150.008 81.3991 150.16 80.9899 150.443 80.6783C150.726 80.3666 151.119 80.1767 151.539 80.1482C151.959 80.1198 152.374 80.2551 152.697 80.5257C153.02 80.7964 153.225 81.1814 153.27 81.6001C153.28 81.7332 153.28 81.8669 153.27 82.0001V91.3701C153.27 91.7401 153.41 91.9401 153.68 91.9401C153.95 91.9401 154.1 91.7401 154.1 91.3701C154.1 89.2001 154.1 87.0401 154.1 84.8701C154.086 84.5568 154.169 84.2468 154.337 83.9821C154.505 83.7173 154.751 83.5107 155.04 83.3901C155.316 83.2476 155.629 83.1915 155.937 83.2289C156.246 83.2664 156.536 83.3957 156.77 83.6001C156.969 83.7583 157.128 83.9612 157.234 84.1923C157.34 84.4233 157.39 84.6761 157.38 84.9301C157.38 86.5401 157.38 88.1501 157.38 89.7601C157.38 92.7601 157.38 95.7601 157.38 98.7101C157.387 99.8369 157.151 100.952 156.69 101.98C156.324 102.845 155.766 103.614 155.057 104.23C154.348 104.845 153.507 105.29 152.6 105.53C150.054 106.28 147.327 106.128 144.88 105.1C143.446 104.495 142.232 103.465 141.4 102.15L136.6 94.8701C136.425 94.6237 136.305 94.3427 136.248 94.0459C136.191 93.7492 136.199 93.4437 136.27 93.1501C136.332 92.8374 136.472 92.5455 136.677 92.3015C136.882 92.0576 137.146 91.8694 137.443 91.7547C137.741 91.6399 138.062 91.6022 138.378 91.6451C138.694 91.688 138.994 91.8101 139.25 92.0001C139.515 92.1801 139.748 92.4032 139.94 92.6601C140.57 93.4801 141.17 94.3201 141.78 95.1601L141.84 95.2401H141.89Z" fill="white"/>
<path d="M77.93 58.62C78.8578 58.62 79.61 57.8678 79.61 56.94C79.61 56.0122 78.8578 55.26 77.93 55.26C77.0022 55.26 76.25 56.0122 76.25 56.94C76.25 57.8678 77.0022 58.62 77.93 58.62Z" fill="white"/>
<path d="M219.84 58.62C220.768 58.62 221.52 57.8678 221.52 56.94C221.52 56.0122 220.768 55.26 219.84 55.26C218.912 55.26 218.16 56.0122 218.16 56.94C218.16 57.8678 218.912 58.62 219.84 58.62Z" fill="white"/>
<path d="M77.93 229.34C78.8578 229.34 79.61 228.588 79.61 227.66C79.61 226.732 78.8578 225.98 77.93 225.98C77.0022 225.98 76.25 226.732 76.25 227.66C76.25 228.588 77.0022 229.34 77.93 229.34Z" fill="white"/>
<path d="M219.84 229.34C220.768 229.34 221.52 228.588 221.52 227.66C221.52 226.732 220.768 225.98 219.84 225.98C218.912 225.98 218.16 226.732 218.16 227.66C218.16 228.588 218.912 229.34 219.84 229.34Z" fill="white"/>
<path d="M110.15 184.44V174H89.68V165.66L113.16 135.52H119.54V165.59H125.71V174H119.54V184.44H110.15ZM99.07 165.59H111.2V149.75L99.07 165.59Z" fill="#263238"/>
<path d="M167.91 155C167.94 157.897 167.476 160.778 166.54 163.52C165.707 165.978 164.425 168.259 162.76 170.25C161.179 172.115 159.219 173.622 157.01 174.67C154.749 175.704 152.291 176.24 149.805 176.24C147.318 176.24 144.861 175.704 142.6 174.67C140.408 173.613 138.463 172.107 136.89 170.25C135.225 168.259 133.943 165.978 133.11 163.52C131.29 157.999 131.29 152.041 133.11 146.52C133.941 144.061 135.223 141.779 136.89 139.79C138.464 137.927 140.409 136.412 142.6 135.34C144.852 134.273 147.313 133.72 149.805 133.72C152.297 133.72 154.758 134.273 157.01 135.34C159.218 136.403 161.177 137.919 162.76 139.79C164.427 141.779 165.709 144.061 166.54 146.52C167.472 149.249 167.936 152.116 167.91 155ZM158.45 155C158.466 153.263 158.254 151.532 157.82 149.85C157.453 148.425 156.848 147.073 156.03 145.85C155.324 144.791 154.387 143.905 153.29 143.26C152.236 142.65 151.038 142.335 149.82 142.35C148.58 142.334 147.359 142.648 146.28 143.26C145.188 143.908 144.255 144.793 143.55 145.85C142.732 147.073 142.127 148.425 141.76 149.85C141.326 151.532 141.114 153.263 141.13 155C141.112 156.727 141.324 158.449 141.76 160.12C142.128 161.544 142.733 162.897 143.55 164.12C144.255 165.177 145.188 166.062 146.28 166.71C147.359 167.321 148.58 167.635 149.82 167.62C151.038 167.635 152.236 167.32 153.29 166.71C154.387 166.065 155.324 165.179 156.03 164.12C156.847 162.897 157.452 161.544 157.82 160.12C158.256 158.449 158.468 156.727 158.45 155Z" fill="#263238"/>
<path d="M198.05 159C200.825 159.459 203.325 160.948 205.05 163.17C206.882 165.545 207.836 168.481 207.75 171.48C207.782 173.553 207.337 175.606 206.45 177.48C205.59 179.243 204.342 180.788 202.8 182C201.093 183.305 199.156 184.278 197.09 184.87C194.629 185.573 192.079 185.91 189.52 185.87C186.294 185.927 183.088 185.342 180.09 184.15C177.441 183.063 175.097 181.346 173.26 179.15L178.58 172.49C179.775 173.974 181.284 175.173 183 176C184.977 176.905 187.137 177.34 189.31 177.27C191.608 177.419 193.894 176.826 195.83 175.58C196.595 174.962 197.198 174.168 197.589 173.266C197.979 172.364 198.144 171.38 198.07 170.4C198.128 169.325 197.922 168.251 197.471 167.274C197.019 166.296 196.336 165.443 195.48 164.79C193.747 163.457 191.13 162.79 187.63 162.79H185.63V155.79H187.81C190.208 155.936 192.584 155.255 194.54 153.86C195.297 153.281 195.906 152.532 196.32 151.674C196.733 150.816 196.939 149.872 196.92 148.92C196.973 148.096 196.818 147.272 196.469 146.524C196.119 145.775 195.586 145.128 194.92 144.64C193.402 143.649 191.611 143.159 189.8 143.24C187.777 143.207 185.782 143.714 184.02 144.71C182.295 145.705 180.858 147.132 179.85 148.85L174 142.32C174.748 141.188 175.697 140.201 176.8 139.41C178.04 138.505 179.382 137.749 180.8 137.16C182.346 136.509 183.955 136.017 185.6 135.69C187.355 135.339 189.14 135.165 190.93 135.17C193.137 135.142 195.335 135.449 197.45 136.08C199.276 136.621 200.994 137.474 202.53 138.6C203.944 139.629 205.087 140.985 205.862 142.553C206.637 144.12 207.021 145.852 206.98 147.6C206.988 148.959 206.775 150.309 206.35 151.6C205.933 152.831 205.308 153.981 204.5 155C203.714 156.027 202.752 156.907 201.66 157.6C200.562 158.302 199.334 158.777 198.05 159Z" fill="#263238"/>
<path d="M96.08 200.06V201.62H89.73L89.67 192.47H95.91V194H91.45V196.2H95.31V197.64H91.46V200.03L96.08 200.06Z" fill="#263238"/>
<path d="M97.48 201.61V192.46H101.48C101.884 192.45 102.285 192.536 102.65 192.71C102.996 192.882 103.308 193.116 103.57 193.4C103.834 193.694 104.044 194.032 104.19 194.4C104.366 194.839 104.438 195.313 104.401 195.784C104.365 196.256 104.221 196.713 103.98 197.12C103.701 197.59 103.281 197.961 102.78 198.18L104.89 201.6H102.89L101 198.52H99.24V201.59L97.48 201.61ZM99.23 197H101.46C101.621 197.001 101.78 196.959 101.92 196.88C102.062 196.801 102.185 196.692 102.28 196.56C102.385 196.418 102.467 196.259 102.52 196.09C102.581 195.903 102.612 195.707 102.61 195.51C102.61 195.308 102.573 195.108 102.5 194.92C102.437 194.747 102.342 194.588 102.22 194.45C102.11 194.319 101.974 194.214 101.82 194.14C101.678 194.068 101.519 194.033 101.36 194.04H99.21L99.23 197Z" fill="#263238"/>
<path d="M106.05 201.56L105.99 192.41H110.04C110.445 192.408 110.844 192.497 111.21 192.67C111.558 192.838 111.871 193.073 112.13 193.36C112.395 193.652 112.602 193.991 112.74 194.36C112.889 194.708 112.967 195.082 112.97 195.46C112.977 196.029 112.828 196.589 112.54 197.08C112.26 197.547 111.84 197.915 111.34 198.13L113.45 201.56H111.45L109.56 198.51H107.81V201.58L106.05 201.56ZM107.8 196.92H110C110.16 196.914 110.317 196.873 110.46 196.8C110.6 196.718 110.722 196.609 110.82 196.48C110.925 196.338 111.007 196.179 111.06 196.01C111.121 195.823 111.151 195.627 111.15 195.43C111.151 195.225 111.114 195.021 111.04 194.83C110.975 194.661 110.88 194.506 110.76 194.37C110.653 194.236 110.516 194.13 110.36 194.06C110.217 193.989 110.06 193.952 109.9 193.95H107.75L107.8 196.92Z" fill="#263238"/>
<path d="M118.52 201.54C117.892 201.558 117.268 201.428 116.7 201.16C116.169 200.922 115.69 200.583 115.29 200.16C114.892 199.726 114.58 199.22 114.37 198.67C114.151 198.126 114.039 197.546 114.04 196.96C114.028 196.36 114.141 195.764 114.37 195.21C114.583 194.659 114.899 194.153 115.3 193.72C115.703 193.296 116.185 192.956 116.72 192.72C117.276 192.457 117.885 192.324 118.5 192.33C119.129 192.312 119.753 192.446 120.32 192.72C120.851 192.98 121.326 193.34 121.72 193.78C122.112 194.217 122.42 194.722 122.63 195.27C122.845 195.808 122.96 196.381 122.97 196.96C122.973 197.559 122.861 198.153 122.64 198.71C122.426 199.255 122.115 199.757 121.72 200.19C121.321 200.613 120.841 200.953 120.31 201.19C119.747 201.439 119.135 201.559 118.52 201.54ZM115.84 196.92C115.842 197.311 115.906 197.699 116.03 198.07C116.14 198.434 116.32 198.774 116.56 199.07C116.785 199.357 117.073 199.589 117.4 199.75C117.754 199.921 118.142 200.01 118.535 200.01C118.928 200.01 119.316 199.921 119.67 199.75C119.992 199.573 120.275 199.331 120.5 199.04C120.726 198.738 120.898 198.4 121.01 198.04C121.123 197.681 121.177 197.306 121.17 196.93C121.173 196.539 121.108 196.15 120.98 195.78C120.863 195.418 120.684 195.08 120.45 194.78C120.22 194.496 119.93 194.267 119.6 194.11C119.256 193.938 118.875 193.853 118.49 193.86C118.09 193.853 117.695 193.946 117.34 194.13C117.016 194.301 116.733 194.54 116.51 194.83C116.284 195.13 116.114 195.469 116.01 195.83C115.896 196.182 115.838 196.55 115.84 196.92Z" fill="#263238"/>
<path d="M124.36 201.44L124.3 192.3H128.3C128.705 192.293 129.106 192.382 129.47 192.56C129.818 192.728 130.131 192.963 130.39 193.25C130.656 193.541 130.863 193.88 131 194.25C131.148 194.598 131.226 194.972 131.23 195.35C131.24 195.919 131.091 196.48 130.8 196.97C130.521 197.44 130.101 197.811 129.6 198.03L131.71 201.46H129.71L127.82 198.46H126.07V201.52L124.36 201.44ZM126.11 196.81H128.34C128.5 196.808 128.657 196.77 128.8 196.7C128.94 196.618 129.062 196.509 129.16 196.38C129.264 196.236 129.345 196.078 129.4 195.91C129.461 195.719 129.491 195.52 129.49 195.32C129.49 195.118 129.453 194.918 129.38 194.73C129.315 194.558 129.22 194.399 129.1 194.26C128.99 194.132 128.853 194.03 128.7 193.96C128.558 193.887 128.4 193.849 128.24 193.85H126.09L126.11 196.81Z" fill="#263238"/>
<path d="M136 201.37L135.94 192.22H142.09V193.78H137.72V196.14H141.35V197.58H137.72V201.37H136Z" fill="#263238"/>
<path d="M147.11 201.37C146.483 201.382 145.86 201.252 145.29 200.99C144.759 200.752 144.28 200.412 143.88 199.99C143.084 199.117 142.639 197.981 142.63 196.8C142.626 196.181 142.752 195.567 143 195C143.213 194.452 143.529 193.95 143.93 193.52C144.335 193.071 144.831 192.711 145.383 192.465C145.936 192.218 146.535 192.091 147.14 192.09C147.766 192.08 148.386 192.217 148.95 192.49C149.479 192.726 149.955 193.066 150.35 193.49C150.743 193.926 151.052 194.431 151.26 194.98C151.475 195.521 151.591 196.097 151.6 196.68C151.602 197.279 151.49 197.873 151.27 198.43C151.058 198.973 150.746 199.472 150.35 199.9C149.945 200.346 149.451 200.703 148.9 200.948C148.349 201.192 147.753 201.319 147.15 201.32L147.11 201.37ZM144.43 196.75C144.433 197.138 144.497 197.522 144.62 197.89C144.732 198.254 144.911 198.593 145.15 198.89C145.38 199.172 145.666 199.403 145.99 199.57C146.341 199.743 146.729 199.829 147.12 199.82C147.516 199.818 147.906 199.726 148.26 199.55C148.582 199.372 148.865 199.131 149.09 198.84C149.321 198.542 149.494 198.202 149.6 197.84C149.711 197.477 149.768 197.1 149.77 196.72C149.764 196.332 149.696 195.947 149.57 195.58C149.458 195.216 149.279 194.877 149.04 194.58C148.809 194.301 148.523 194.073 148.2 193.91C147.851 193.743 147.467 193.66 147.08 193.67C146.683 193.662 146.291 193.755 145.94 193.94C145.612 194.109 145.325 194.348 145.1 194.64C144.872 194.939 144.703 195.278 144.6 195.64C144.485 195.999 144.428 196.373 144.43 196.75Z" fill="#263238"/>
<path d="M153 201.27V192.12H157C157.404 192.11 157.805 192.196 158.17 192.37C158.516 192.542 158.828 192.776 159.09 193.06C159.354 193.354 159.564 193.692 159.71 194.06C159.886 194.499 159.958 194.973 159.921 195.444C159.885 195.916 159.741 196.373 159.5 196.78C159.221 197.25 158.801 197.621 158.3 197.84L160.41 201.26H158.41L156.52 198.2H154.77V201.27H153ZM154.75 196.63H156.98C157.141 196.63 157.3 196.589 157.44 196.51C157.582 196.431 157.705 196.322 157.8 196.19C157.909 196.05 157.991 195.89 158.04 195.72C158.101 195.533 158.132 195.337 158.13 195.14C158.131 194.938 158.094 194.738 158.02 194.55C157.957 194.377 157.862 194.218 157.74 194.08C157.63 193.949 157.494 193.844 157.34 193.77C157.197 193.699 157.04 193.662 156.88 193.66H154.73L154.75 196.63Z" fill="#263238"/>
<path d="M168.88 198.81C168.884 199.157 168.805 199.5 168.65 199.81C168.5 200.102 168.284 200.355 168.02 200.55C167.734 200.754 167.417 200.91 167.08 201.01C166.709 201.115 166.326 201.169 165.94 201.17H161.52L161.46 192.02H166.36C166.659 192.011 166.955 192.08 167.22 192.22C167.475 192.348 167.7 192.528 167.88 192.75C168.067 192.969 168.212 193.22 168.31 193.49C168.434 193.834 168.481 194.201 168.45 194.565C168.419 194.929 168.31 195.282 168.13 195.6C167.905 195.995 167.553 196.302 167.13 196.47C167.64 196.599 168.091 196.9 168.404 197.323C168.718 197.746 168.875 198.264 168.85 198.79L168.88 198.81ZM163.25 193.58V195.88H165.63C165.772 195.884 165.913 195.857 166.045 195.802C166.176 195.747 166.293 195.664 166.39 195.56C166.497 195.447 166.58 195.314 166.634 195.167C166.687 195.021 166.71 194.865 166.7 194.71C166.716 194.406 166.612 194.108 166.41 193.88C166.317 193.783 166.205 193.705 166.082 193.652C165.958 193.598 165.825 193.571 165.69 193.57L163.25 193.58ZM167.08 198.49C167.086 198.175 166.976 197.869 166.77 197.63C166.673 197.521 166.558 197.43 166.43 197.36C166.298 197.3 166.155 197.269 166.01 197.27H163.27V199.68H165.91C166.068 199.681 166.224 199.65 166.37 199.59C166.508 199.531 166.631 199.443 166.73 199.33C166.843 199.241 166.935 199.128 167 199C167.064 198.838 167.091 198.664 167.08 198.49Z" fill="#263238"/>
<path d="M170.28 201.16L170.23 192.01H172L172.06 201.16H170.28Z" fill="#263238"/>
<path d="M174 201.14L173.94 191.99H177.26C177.944 191.969 178.624 192.088 179.26 192.34C179.79 192.555 180.268 192.882 180.662 193.297C181.055 193.713 181.354 194.209 181.54 194.75C181.733 195.32 181.831 195.918 181.83 196.52C181.844 197.163 181.743 197.803 181.53 198.41C181.338 198.952 181.031 199.447 180.63 199.86C180.228 200.269 179.744 200.589 179.21 200.8C178.616 201.026 177.986 201.142 177.35 201.14H174ZM180 196.52C180.007 196.109 179.943 195.699 179.81 195.31C179.703 194.944 179.523 194.604 179.28 194.31C179.041 194.046 178.748 193.838 178.42 193.7C178.051 193.554 177.657 193.483 177.26 193.49H175.7V199.49H177.24C177.643 199.498 178.043 199.416 178.41 199.25C178.733 199.101 179.02 198.882 179.25 198.61C179.489 198.315 179.665 197.975 179.77 197.61C179.899 197.26 179.977 196.893 180 196.52Z" fill="#263238"/>
<path d="M183.19 201.08L183.14 191.94H186.46C187.143 191.924 187.823 192.043 188.46 192.29C188.996 192.519 189.477 192.86 189.87 193.29C190.256 193.707 190.55 194.201 190.73 194.74C191.137 195.926 191.137 197.214 190.73 198.4C190.54 198.943 190.232 199.438 189.83 199.85C189.432 200.257 188.951 200.574 188.42 200.78C187.827 201.011 187.196 201.126 186.56 201.12L183.19 201.08ZM189.19 196.46C189.186 196.05 189.122 195.642 189 195.25C188.891 194.9 188.71 194.577 188.47 194.3C188.229 194.032 187.932 193.821 187.6 193.68C187.234 193.535 186.843 193.464 186.45 193.47H184.9V199.47H186.45C186.85 199.478 187.246 199.396 187.61 199.23C187.938 199.084 188.229 198.865 188.46 198.59C188.697 198.295 188.87 197.955 188.97 197.59C189.106 197.227 189.187 196.847 189.21 196.46H189.19Z" fill="#263238"/>
<path d="M198.76 199.43V201H192.41L192.35 191.85H198.59V193.41H194.13V195.61H197.99V197.05H194.14V199.44L198.76 199.43Z" fill="#263238"/>
<path d="M201.9 195.1V200.97H200.12L200.06 191.82H201.44L206.25 197.82V191.82H208.03L208.09 200.96H206.64L201.9 195.1Z" fill="#263238"/>
<path d="M88 405.76H50.67L64.54 357.52C64.896 356.539 65.5453 355.692 66.3996 355.094C67.2539 354.495 68.2718 354.174 69.315 354.174C70.3582 354.174 71.3761 354.495 72.2304 355.094C73.0847 355.692 73.734 356.539 74.09 357.52L88 405.76Z" fill="#44AF89"/>
<path d="M78.61 373.27H60.01L62.93 363.1H75.7L78.61 373.27Z" fill="#EBEBEB"/>
<path d="M83.47 390.15H55.16L58.08 379.97H80.54L83.47 390.15Z" fill="#EBEBEB"/>
<g style="mix-blend-mode:multiply" opacity="0.1">
<path d="M88 405.76H50.67L63.87 359.83C62.74 389.55 81.28 398.88 86.56 400.93L88 405.76Z" fill="black"/>
</g>
<path d="M95.04 405.76H43.58V408.97H95.04V405.76Z" fill="#44AF89"/>
<path d="M438.53 405.76H401.24L415.11 357.52C415.466 356.539 416.115 355.692 416.97 355.094C417.824 354.495 418.842 354.174 419.885 354.174C420.928 354.174 421.946 354.495 422.8 355.094C423.655 355.692 424.304 356.539 424.66 357.52L438.53 405.76Z" fill="#44AF89"/>
<path d="M429.19 373.27H410.58L413.5 363.1H426.27L429.19 373.27Z" fill="#EBEBEB"/>
<path d="M434.04 390.15H405.73L408.65 379.97H431.11L434.04 390.15Z" fill="#EBEBEB"/>
<g style="mix-blend-mode:multiply" opacity="0.1">
<path d="M438.52 405.76H401.24L414.44 359.83C413.31 389.55 431.85 398.88 437.13 400.93L438.52 405.76Z" fill="black"/>
</g>
<path d="M445.61 405.76H394.15V408.97H445.61V405.76Z" fill="#44AF89"/>
<path d="M245.49 451.89C247.89 452.66 318.62 451.78 321.2 450.09C322.2 449.47 317.2 382.92 317.2 382.92L271.5 383.37L276.36 427.9C276.36 427.9 250.36 439.9 247.72 442.09C245.08 444.28 243.1 451.13 245.49 451.89Z" fill="#DFA26F"/>
<path d="M245.5 451.89C247.89 452.66 318.63 451.78 321.2 450.09C321.66 449.81 320.85 435.52 319.85 420.21H275.54L276.38 427.89C276.38 427.89 250.38 439.89 247.73 442.09C245.08 444.29 243.09 451.12 245.5 451.89Z" fill="white"/>
<path d="M244.72 452.86C247.24 453.69 318.66 453.01 321.39 451.25C322.39 450.59 320.92 427.04 320.92 426.9H276.74V427.69C276.74 427.69 249.28 440.28 246.49 442.54C243.7 444.8 242.19 452.05 244.72 452.86Z" fill="#263238"/>
<path d="M244.91 450.06C257.05 449.65 306.04 449.14 318.07 449.65C318.17 449.65 318.17 449.72 318.07 449.73C306.07 450.4 257.07 450.52 244.91 450.26C244.65 450.25 244.65 450.07 244.91 450.06Z" fill="#37474F"/>
<path d="M271.57 427.08C276.34 426.15 282.19 426.83 285.87 430.2C286.01 430.33 285.87 430.53 285.67 430.48C281.089 429.052 276.369 428.116 271.59 427.69C271.518 427.68 271.452 427.644 271.403 427.59C271.355 427.536 271.327 427.466 271.325 427.393C271.322 427.321 271.346 427.249 271.39 427.192C271.435 427.135 271.499 427.095 271.57 427.08Z" fill="#37474F"/>
<path d="M268.14 429.19C272.91 428.26 278.76 428.94 282.44 432.31C282.58 432.44 282.44 432.64 282.24 432.59C277.663 431.162 272.946 430.227 268.17 429.8C268.098 429.791 268.031 429.757 267.981 429.703C267.931 429.65 267.902 429.58 267.899 429.508C267.895 429.435 267.917 429.363 267.961 429.305C268.006 429.247 268.069 429.206 268.14 429.19Z" fill="#37474F"/>
<path d="M264.71 431.3C269.48 430.37 275.33 431.05 279.01 434.42C279.16 434.55 279.01 434.75 278.81 434.7C274.233 433.272 269.516 432.336 264.74 431.91C264.668 431.901 264.601 431.867 264.551 431.813C264.501 431.76 264.472 431.69 264.469 431.618C264.465 431.545 264.487 431.473 264.532 431.415C264.576 431.357 264.639 431.316 264.71 431.3Z" fill="#37474F"/>
<path d="M271.76 426H321C321 426 312.75 311.89 313 310.36C313.5 307.79 316.4 296.15 320.27 280.95C321.48 276.2 322.79 271.1 324.15 265.81C327.82 251.51 331.86 235.88 335.38 222.28C340.67 201.91 344.8 186.08 344.8 186.08H303.1C303.1 186.08 298.23 201.49 292.1 221.54C282.1 254.12 268.78 298.96 267.46 309.87C265.91 323.07 271.76 426 271.76 426Z" fill="#37474F"/>
<path d="M274.05 417C281.55 416.85 279.39 416.79 286.9 416.72C290.57 416.72 314.7 416.47 318.13 417.04C318.145 417.046 318.159 417.056 318.168 417.069C318.177 417.083 318.182 417.099 318.182 417.115C318.182 417.131 318.177 417.147 318.168 417.161C318.159 417.174 318.145 417.184 318.13 417.19C314.7 417.76 290.57 417.55 286.9 417.51C279.39 417.44 281.55 417.38 274.05 417.22C274.036 417.22 274.021 417.217 274.008 417.212C273.995 417.206 273.982 417.198 273.972 417.188C273.962 417.178 273.954 417.165 273.948 417.152C273.943 417.139 273.94 417.124 273.94 417.11C273.94 417.096 273.943 417.081 273.948 417.068C273.954 417.055 273.962 417.042 273.972 417.032C273.982 417.022 273.995 417.014 274.008 417.008C274.021 417.003 274.036 417 274.05 417Z" fill="#263238"/>
<path d="M337.26 191.74L329.61 218.68L322.15 245.68C319.66 254.68 317.27 263.68 314.87 272.68C312.47 281.68 310.12 290.74 307.87 299.82C307.34 302.1 306.8 304.37 306.35 306.67C306.23 307.25 306.15 307.84 306.04 308.43C306.04 308.75 305.99 309.1 305.99 309.43L306.06 310.3L312.6 409.7V410L313.15 409.66L307.15 310.22L307.09 309.35C307.09 309.07 307.09 308.84 307.09 308.58C307.2 308.02 307.27 307.46 307.39 306.89C307.84 304.62 308.39 302.35 308.93 300.08C313.3 281.95 318.18 263.92 322.93 245.87L337.26 191.74Z" fill="#263238"/>
<path d="M304.14 186.08C307.03 208.48 317.51 245.7 321.53 276.17C330.94 239.25 344.84 186.08 344.84 186.08H304.14Z" fill="#263238"/>
<path d="M404.66 451.53C402.24 452.29 342.83 452.53 340.25 450.83C339.25 450.19 338.91 440.18 338.84 428.06V427.68C338.84 425.18 333.07 383.22 333.07 383.22L377.96 384.14L383.15 428.21V428.96C383.15 428.96 399.91 439.47 402.54 441.66C405.17 443.85 407.07 450.79 404.66 451.53Z" fill="#DFA26F"/>
<path d="M338 420.21C338.51 424.21 338.83 427.08 338.83 427.68V428.06C338.91 440.18 339.26 450.19 340.25 450.83C342.82 452.55 402.25 452.29 404.66 451.54C407.07 450.79 405.12 443.84 402.5 441.66C399.88 439.48 383.11 429 383.11 429V428.25L382.16 420.25L338 420.21Z" fill="white"/>
<path d="M407.59 452.86C405.07 453.69 341.17 453.01 338.45 451.25C337.4 450.59 338.91 427.04 338.91 426.9H383.09V427.69C383.09 427.69 403.02 440.28 405.81 442.54C408.6 444.8 410.11 452.05 407.59 452.86Z" fill="#263238"/>
<path d="M407.4 450.06C395.26 449.65 353.79 449.14 341.76 449.65C341.67 449.65 341.67 449.72 341.76 449.73C353.76 450.4 395.26 450.52 407.4 450.26C407.65 450.25 407.66 450.07 407.4 450.06Z" fill="#37474F"/>
<path d="M379.51 428.39C373.46 426.72 365.92 426.73 361.01 430.05C360.82 430.18 361.01 430.43 361.25 430.4C367.256 429.368 373.348 428.923 379.44 429.07C379.53 429.079 379.62 429.052 379.691 428.995C379.761 428.938 379.806 428.855 379.815 428.765C379.824 428.675 379.797 428.585 379.74 428.514C379.683 428.444 379.6 428.399 379.51 428.39Z" fill="#37474F"/>
<path d="M383.78 431.21C377.72 429.54 370.19 429.55 365.28 432.88C365.09 433 365.28 433.25 365.52 433.22C371.527 432.198 377.618 431.753 383.71 431.89C383.8 431.899 383.89 431.872 383.961 431.815C384.031 431.758 384.076 431.675 384.085 431.585C384.094 431.495 384.067 431.405 384.01 431.334C383.953 431.264 383.87 431.219 383.78 431.21Z" fill="#37474F"/>
<path d="M388 434C381.95 432.33 374.42 432.34 369.51 435.67C369.32 435.8 369.51 436.05 369.75 436.01C375.778 434.994 381.889 434.559 388 434.71C388.094 434.71 388.184 434.673 388.251 434.606C388.318 434.54 388.355 434.449 388.355 434.355C388.355 434.261 388.318 434.171 388.251 434.104C388.184 434.037 388.094 434 388 434Z" fill="#37474F"/>
<path d="M304.14 186.08C304.14 186.08 310.46 224.63 310.89 225.87C310.89 225.87 313.24 226.98 317.48 228.94L334.77 425.82L384.22 426.02L358.1 186.08H304.14Z" fill="#37474F"/>
<path d="M336.47 417C344.02 416.88 341.85 416.8 349.41 416.76C353.11 416.76 377.41 416.64 380.85 417.22C380.871 417.22 380.892 417.228 380.907 417.243C380.922 417.258 380.93 417.279 380.93 417.3C380.93 417.321 380.922 417.342 380.907 417.357C380.892 417.372 380.871 417.38 380.85 417.38C377.39 417.93 353.1 417.62 349.4 417.57C341.85 417.46 344.02 417.41 336.47 417.22C336.441 417.22 336.413 417.208 336.392 417.188C336.372 417.167 336.36 417.139 336.36 417.11C336.36 417.081 336.372 417.053 336.392 417.032C336.413 417.012 336.441 417 336.47 417Z" fill="#263238"/>
<path d="M308.84 224.67C313.765 226.726 318.503 229.205 323 232.08C323.019 232.09 323.036 232.103 323.05 232.12C323.064 232.136 323.074 232.155 323.081 232.175C323.087 232.196 323.089 232.217 323.088 232.239C323.086 232.26 323.08 232.281 323.07 232.3C323.06 232.319 323.047 232.336 323.03 232.35C323.014 232.364 322.995 232.374 322.974 232.381C322.954 232.387 322.933 232.389 322.911 232.388C322.89 232.386 322.869 232.38 322.85 232.37C318.08 230.05 313.21 227.82 308.58 225.24C308.521 225.196 308.478 225.134 308.46 225.063C308.441 224.992 308.448 224.916 308.478 224.849C308.509 224.782 308.561 224.728 308.627 224.695C308.693 224.663 308.768 224.654 308.84 224.67Z" fill="#263238"/>
<path d="M310.65 202.59C311.43 207.2 311.86 211.89 312.38 216.54C312.51 217.65 312.64 218.77 312.76 219.88C312.791 220.906 313.065 221.91 313.56 222.81C314.56 224.37 316.36 225.1 317.99 225.81C318.18 225.89 318.1 226.19 317.9 226.12C316.146 225.702 314.527 224.849 313.19 223.64C311.71 222.07 311.76 219.69 311.53 217.64C310.872 212.646 310.508 207.617 310.44 202.58C310.44 202.5 310.63 202.47 310.65 202.59Z" fill="#263238"/>
<path d="M316.26 204C316.43 207.32 316.8 210.64 317.07 214C317.21 215.63 317.33 217.27 317.43 218.91C317.53 220.55 317.72 222.28 317.67 223.91C317.67 224.02 317.49 224.05 317.47 223.91C317.19 222.34 317.16 220.69 317.03 219.1C316.9 217.51 316.77 215.74 316.68 214.1C316.49 210.74 316.4 207.36 316.1 204.01C316.09 203.9 316.26 203.9 316.26 204Z" fill="#263238"/>
<path d="M318.49 233.88L321.14 256.5L323.9 279.11L329.59 324.3L339.69 412.53L330.64 324.17L324.71 279L321.65 256.43L318.49 233.88Z" fill="#263238"/>
<path d="M307.66 125.35C283.87 144.88 256.9 180.77 262.51 194.35C266.29 203.48 292.74 177.24 292.82 175.72C292.88 174.57 307.09 147.39 315.68 130.84C324.27 114.29 312.63 121.27 307.66 125.35Z" fill="#DFA26F"/>
<path d="M307.66 125.35C283.87 144.88 256.9 180.77 262.51 194.35C266.29 203.48 292.74 177.24 292.82 175.72C292.88 174.57 307.09 147.39 315.68 130.84C324.27 114.29 312.63 121.27 307.66 125.35Z" fill="#44AF89"/>
<path opacity="0.1" d="M315.68 130.79C307.09 147.33 292.88 174.52 292.81 175.67C292.81 176.49 285.13 184.42 277.47 190.19L318.15 120.67C319.29 121.58 319 124.45 315.68 130.79Z" fill="#000102"/>
<path d="M298.11 203.43H360C360.18 203.21 362.35 198.37 362 196.22C360.88 188.57 342.59 131.56 334.09 121.91C329.27 116.43 318.21 118.32 315.54 121.91C304.12 137.41 295.54 185.51 295.36 196.6C295.35 199 298 203.25 298.11 203.43Z" fill="#44AF89"/>
<path d="M322.6 137.24L319.13 131.34L315.36 135.97L316.6 140.29L320.6 140.57L322.6 137.24Z" fill="#263238"/>
<path d="M320.6 140.57L322.65 184.76L314.91 197.9L309.73 184.26L316.6 140.29L320.6 140.57Z" fill="#263238"/>
<path d="M319.13 131.34C318.7 134.34 318.33 137.34 317.97 140.41C317.61 143.48 317.25 146.41 316.97 149.48C316.33 155.53 315.73 161.59 315.34 167.66C314.95 173.73 314.64 179.8 314.68 185.88C314.68 188.88 314.81 191.96 315.11 194.98C315.328 198.032 315.885 201.051 316.77 203.98C314.71 198.21 314.3 191.98 314.1 185.98C313.9 179.98 314.2 173.78 314.59 167.69C314.98 161.6 315.64 155.55 316.4 149.5C316.79 146.5 317.2 143.5 317.65 140.5C318.1 137.5 318.58 134.34 319.13 131.34Z" fill="#263238"/>
<path opacity="0.1" d="M333.63 162.83H333.51L326.26 160.3L325.2 149.6L337.49 149.05L338.54 159.52L333.63 162.83ZM326.72 159.89L333.55 162.28L338.02 159.28L337.02 149.57L325.73 150.08L326.72 159.89Z" fill="#000102"/>
<path opacity="0.1" d="M307.3 162.86L303.88 159.46L304.6 149L313.17 149.57L312.45 160.23L307.3 162.86ZM304.39 159.26L307.39 162.26L311.96 159.93L312.63 150.05L305.06 149.55L304.39 159.26Z" fill="#000102"/>
<path d="M313.21 148.65L305.09 147.89L305.45 146.22L313.21 147.03V148.65Z" fill="white"/>
<path d="M328.66 143.36C328.697 144.563 328.838 145.761 329.08 146.94C329.37 147.68 331.48 147.99 331.48 147.99C331.48 147.99 333.32 147.43 333.48 146.86C333.494 145.591 333.4 144.323 333.2 143.07C332.723 143.114 332.243 143.046 331.797 142.873C331.351 142.699 330.952 142.424 330.63 142.07C330.463 142.453 330.187 142.78 329.837 143.009C329.487 143.238 329.078 143.36 328.66 143.36Z" fill="white"/>
<path d="M360.63 203.43H296.69V208.35H360.63V203.43Z" fill="#263238"/>
<path d="M323.06 209.8H309V202H323.05L323.06 209.8ZM311.01 207.8H321.06V204H311L311.01 207.8Z" fill="#EBEBEB"/>
<path d="M342.71 125.5C367.71 143.5 396.84 177.62 392.09 191.5C388.89 200.84 360.85 176.32 360.67 174.81C360.54 173.66 344.67 147.42 335.04 131.45C325.41 115.48 337.48 121.73 342.71 125.5Z" fill="#DFA26F"/>
<path d="M342.71 125.5C367.71 143.5 396.84 177.62 392.09 191.5C388.89 200.84 360.85 176.32 360.67 174.81C360.54 173.66 344.67 147.42 335.04 131.45C325.41 115.48 337.48 121.73 342.71 125.5Z" fill="#44AF89"/>
<path d="M339.06 138.11C341.06 141.06 342.92 144.11 344.79 147.11C346.66 150.11 348.48 153.17 350.29 156.22C352.1 159.27 353.87 162.34 355.6 165.44L358.18 170.1C359.01 171.67 359.87 173.23 360.67 174.82C359.67 173.35 358.74 171.82 357.77 170.36L355 165.82C353.12 162.82 351.3 159.76 349.49 156.71C347.68 153.66 345.91 150.58 344.19 147.48C342.47 144.38 340.69 141.27 339.06 138.11Z" fill="#263238"/>
<path d="M339.47 141.42C340.2 142.09 340.86 142.8 341.47 143.5L342.47 144.57C342.8 144.93 343.13 145.28 343.47 145.66C342.597 145.192 341.812 144.577 341.15 143.84C340.472 143.122 339.906 142.306 339.47 141.42Z" fill="#263238"/>
<path d="M378.281 129.346L270.447 202.101L274.496 208.102L382.33 135.346L378.281 129.346Z" fill="#263238"/>
<path d="M309.509 215.841L295.778 195.26L289.764 199.273L303.495 219.853L309.509 215.841Z" fill="#263238"/>
<path d="M264.56 197.49C270.99 199.87 275.06 198.05 299.95 187.1C303.39 185.58 301.95 159.94 297.95 159.83C291.6 159.65 272.8 169.6 271.55 170.35C261 176.7 260.19 195.88 264.56 197.49Z" fill="#DFA26F"/>
<path d="M328.88 175.77C328.28 178.93 325.04 178.26 325.04 178.26C325.762 179.46 326.042 180.875 325.83 182.26C325.34 184.68 321.34 184.97 321.34 184.97C321.825 186.375 321.881 187.893 321.5 189.33C320.8 191.6 316.8 192.47 316.8 192.47C316.539 194.007 315.733 195.398 314.53 196.39C311.22 198.91 305.27 196.69 301.53 195.25C295.92 193.12 288.3 186.34 286.35 185.09L293 160.79C295.225 160.007 297.588 159.694 299.94 159.87C306.14 160.61 312.223 162.118 318.05 164.36C322.5 166.43 329.46 172.67 328.88 175.77Z" fill="#DFA26F"/>
<path d="M325 177.81C321.71 174.86 317.72 173.05 313.85 171.01C313.76 171.01 313.69 171.11 313.78 171.15C317.65 173.15 321.09 175.85 324.88 177.98C324.903 177.996 324.93 178.002 324.958 177.998C324.985 177.993 325.009 177.978 325.025 177.955C325.041 177.932 325.047 177.905 325.043 177.877C325.038 177.85 325.023 177.826 325 177.81Z" fill="#263238"/>
<path d="M321.37 184.64C320.561 184.037 319.673 183.549 318.73 183.19C317.73 182.74 316.79 182.31 315.8 181.89C313.84 181.05 311.84 180.267 309.8 179.54C309.71 179.54 309.64 179.63 309.73 179.67C311.73 180.51 313.64 181.37 315.56 182.29C316.56 182.74 317.48 183.21 318.44 183.68C319.314 184.184 320.239 184.593 321.2 184.9C321.38 184.93 321.49 184.73 321.37 184.64Z" fill="#263238"/>
<path d="M316.72 192.45C315.977 191.919 315.148 191.52 314.27 191.27L311.56 190.17C309.76 189.43 307.96 188.68 306.19 187.88C306.1 187.88 306.03 187.97 306.12 188.01C307.92 188.84 309.7 189.69 311.51 190.5L314.18 191.68C314.956 192.112 315.802 192.404 316.68 192.54C316.691 192.543 316.703 192.542 316.714 192.536C316.725 192.531 316.733 192.523 316.738 192.512C316.743 192.501 316.743 192.489 316.74 192.478C316.737 192.466 316.73 192.457 316.72 192.45Z" fill="#263238"/>
<path d="M288.93 161.23L282.93 196.23C282.93 196.23 266.05 201.15 263.35 197.03C260.65 192.91 261.58 180.26 268.13 172.8C273.42 166.73 288.93 161.23 288.93 161.23Z" fill="#44AF89"/>
<path d="M283.29 162.48L294.15 158.6L288.48 195.48L278.07 197.9L283.29 162.48Z" fill="#44AF89"/>
<path d="M283 164.67C282.82 167.36 282.52 170.04 282.21 172.72C281.9 175.4 281.53 178.06 281.15 180.72C280.77 183.38 280.34 186.04 279.86 188.72L279.13 192.72C278.85 194.04 278.61 195.37 278.3 196.72C278.38 195.37 278.53 194.03 278.65 192.72L279.1 188.72C279.4 186.04 279.78 183.38 280.16 180.72C280.54 178.06 280.97 175.4 281.45 172.72C281.93 170.04 282.37 167.3 283 164.67Z" fill="#263238"/>
<path d="M293.86 160.49C293.86 159.85 293.95 159.22 294.01 158.58L294.2 158.74C292.43 159.52 290.64 160.2 288.85 160.93C287.06 161.66 285.26 162.3 283.45 162.93L283.78 162.53L283.62 163.61V163.87L283.37 163.99L277.37 166.81C275.37 167.81 273.37 168.76 271.47 169.81C272.329 169.09 273.231 168.422 274.17 167.81C275.1 167.21 276.06 166.65 277.03 166.08C278.95 164.96 280.94 163.97 282.96 163.02L282.68 163.4L282.83 162.32V162.02L283.11 161.92C284.923 161.253 286.743 160.633 288.57 160.06C290.41 159.5 292.23 158.89 294.09 158.38L294.33 158.31V158.53C294.16 159.25 294 159.87 293.86 160.49Z" fill="#263238"/>
<path d="M273.31 167.25C273.903 166.804 274.585 166.49 275.31 166.33C276.023 166.15 276.765 166.12 277.49 166.24C277.14 166.37 276.8 166.46 276.49 166.56L275.49 166.82L274.49 167.05C274 167.12 273.68 167.2 273.31 167.25Z" fill="#263238"/>
<path d="M390.91 193.48C385.3 197.04 374.47 197.48 352.59 181.3C349.59 179.06 356.59 154.36 360.59 155.14C366.81 156.36 382.98 170.14 384.03 171.19C392.83 179.68 394.83 191 390.91 193.48Z" fill="#DFA26F"/>
<path d="M337.63 140.6C335.3 142.81 337.63 145.17 337.63 145.17C336.23 145.22 334.891 145.754 333.84 146.68C332.07 148.41 334.01 151.93 334.01 151.93C332.564 152.284 331.257 153.065 330.26 154.17C328.74 155.99 330.18 159.82 330.18 159.82C329.042 160.868 328.312 162.285 328.12 163.82C327.81 167.97 332.91 171.76 336.17 174.15C341.02 177.69 350.86 180.4 352.96 181.35L369.72 162.52C369.17 160.225 368.149 158.069 366.72 156.19C362.73 151.392 358.158 147.109 353.11 143.44C348.94 140.86 339.91 138.42 337.63 140.6Z" fill="#DFA26F"/>
<path d="M338 145C342.26 146.16 346 148.52 349.77 150.66C349.781 150.673 349.788 150.689 349.789 150.706C349.791 150.723 349.787 150.74 349.778 150.754C349.769 150.769 349.755 150.78 349.74 150.787C349.724 150.793 349.707 150.794 349.69 150.79C345.92 148.62 341.77 147.22 337.92 145.19C337.83 145.09 337.9 144.92 338 145Z" fill="#263238"/>
<path d="M334.27 151.71C335.211 152.071 336.102 152.551 336.92 153.14C337.83 153.71 338.72 154.29 339.6 154.89C341.37 156.09 343.12 157.33 344.82 158.62C344.9 158.62 344.82 158.8 344.75 158.75C342.98 157.56 341.2 156.39 339.38 155.28C338.47 154.72 337.56 154.17 336.64 153.63C335.743 153.169 334.898 152.612 334.12 151.97C334.099 151.945 334.086 151.914 334.084 151.881C334.081 151.849 334.088 151.816 334.104 151.788C334.121 151.759 334.145 151.737 334.175 151.723C334.205 151.709 334.238 151.705 334.27 151.71Z" fill="#263238"/>
<path d="M330.25 159.87C331.099 160.203 331.883 160.68 332.57 161.28L335 163C336.6 164.11 338.21 165.22 339.85 166.27C339.93 166.32 339.85 166.45 339.77 166.4C338.1 165.34 336.41 164.31 334.77 163.23L332.33 161.64C331.546 161.219 330.842 160.664 330.25 160C330.241 160 330.233 159.998 330.225 159.995C330.217 159.992 330.21 159.987 330.204 159.981C330.198 159.975 330.193 159.968 330.19 159.96C330.187 159.952 330.185 159.944 330.185 159.935C330.185 159.926 330.187 159.918 330.19 159.91C330.193 159.902 330.198 159.895 330.204 159.889C330.21 159.883 330.217 159.878 330.225 159.875C330.233 159.872 330.241 159.87 330.25 159.87Z" fill="#263238"/>
<path d="M356.67 184.9L376.78 165C376.78 165 385.43 171 388.65 176.35C391.87 181.7 394.85 188.54 392.14 192.51C389.43 196.48 377.34 199.34 356.67 184.9Z" fill="#44AF89"/>
<path d="M356.98 186.89L348.65 181.29L372.3 158.81L379.76 165.44L356.98 186.89Z" fill="#44AF89"/>
<path d="M357.5 186.4C359.13 184.58 360.84 182.84 362.56 181.11C364.28 179.38 366 177.7 367.8 176C369.6 174.3 371.36 172.68 373.19 171.07L375.95 168.67C376.89 167.89 377.81 167.1 378.78 166.34C377.97 167.26 377.11 168.13 376.28 169.03L373.72 171.63C372.01 173.37 370.25 175.05 368.48 176.72C366.71 178.39 364.92 180.04 363.08 181.65C361.24 183.26 359.41 184.88 357.5 186.4Z" fill="#263238"/>
<path d="M370.61 160.38C371.13 159.81 371.67 159.26 372.2 158.71L372.28 158.63L372.38 158.71C373.69 159.71 374.95 160.83 376.24 161.89L380.01 165.16L380.31 165.42L380.01 165.71L379.01 166.63V166.07C380.571 167.318 382.06 168.654 383.47 170.07C384.878 171.484 386.194 172.987 387.41 174.57C385.99 173.18 384.56 171.8 383.09 170.47C381.62 169.14 380.09 167.83 378.56 166.64L378.22 166.39L378.54 166.09C378.86 165.77 379.18 165.46 379.54 165.16V165.7L375.84 162.35C374.64 161.2 373.41 160.08 372.22 158.9H372.41C371.8 159.4 371.21 159.9 370.61 160.38Z" fill="#263238"/>
<path d="M383.25 170.26C383.813 170.304 384.359 170.471 384.85 170.75C385.349 171.021 385.77 171.417 386.07 171.9C385.564 171.698 385.073 171.46 384.6 171.19C384.118 170.929 383.666 170.617 383.25 170.26Z" fill="#263238"/>
<path d="M349.76 180.23C349.44 180.63 349.09 181.01 348.76 181.4V181.17C351.679 182.809 354.479 184.65 357.14 186.68H356.85C357.27 186.37 357.69 186.06 358.13 185.77L358.22 185.71L358.28 185.76C358.58 186.02 358.89 186.28 359.18 186.56L358.18 185.97H358.34C357.97 186.35 357.59 186.71 357.22 187.07L357.09 187.19L356.92 187.08C354.034 185.382 351.271 183.484 348.65 181.4L348.5 181.28L348.63 181.17C349 180.86 349.35 180.54 349.76 180.23Z" fill="#263238"/>
<path d="M317.45 129.89C321.12 131.16 328.16 126.07 331.18 121.67C331.39 121.37 331.24 117.96 331.26 113.8C331.26 111.27 331.36 108.46 331.62 105.9C331.68 105.38 315.18 108.17 315.18 108.17C315.771 111.468 315.956 114.827 315.73 118.17C315.684 118.509 315.61 118.843 315.51 119.17C315.51 119.17 315.51 119.28 315.51 119.34C314.94 121.32 313.9 128.66 317.45 129.89Z" fill="#DFA26F"/>
<path d="M330.63 105.87C329.44 110.12 325.69 120.3 317.11 119.62C316.558 119.579 316.009 119.496 315.47 119.37C315.467 119.31 315.467 119.25 315.47 119.19C315.574 118.864 315.648 118.529 315.69 118.19C315.915 114.847 315.73 111.488 315.14 108.19C315.14 108.19 327.08 106.15 330.63 105.87Z" fill="#263238"/>
<path d="M333.44 85.3501C335.44 91.0001 332.98 107.62 329.04 111.45C323.34 117 313.72 117.86 308.92 110.94C304.28 104.23 307.82 82.6301 312.24 79.1201C318.74 74.0001 330.56 77.0001 333.44 85.3501Z" fill="#DFA26F"/>
<path d="M320.28 95.59C320.28 95.59 320.36 95.66 320.35 95.71C320.16 96.82 320.12 98.13 321.08 98.65C321.08 98.65 321.08 98.72 321.08 98.71C319.85 98.36 319.92 96.62 320.28 95.59Z" fill="#263238"/>
<path d="M321.44 94.57C323.26 94.68 322.9 98.32 321.21 98.21C319.52 98.1 319.92 94.47 321.44 94.57Z" fill="#263238"/>
<path d="M313.81 94.9401C313.81 94.9401 313.72 94.9401 313.72 95.0301C313.64 96.1501 313.36 97.4301 312.3 97.7101V97.7701C313.56 97.7201 313.92 96.0001 313.81 94.9401Z" fill="#263238"/>
<path d="M312.93 93.6601C311.13 93.3401 310.62 96.9501 312.28 97.2501C313.94 97.5501 314.43 93.9301 312.93 93.6601Z" fill="#263238"/>
<path d="M323.74 92.35C323.24 92.49 322.74 92.53 322.26 92.62C321.754 92.7899 321.206 92.7899 320.7 92.62C320.554 92.5337 320.441 92.4017 320.377 92.2444C320.314 92.0871 320.304 91.9133 320.35 91.75C320.491 91.4394 320.711 91.1714 320.988 90.973C321.266 90.7746 321.591 90.6528 321.93 90.62C322.606 90.4609 323.317 90.5533 323.93 90.88C324.061 90.9638 324.165 91.0831 324.23 91.2239C324.296 91.3646 324.32 91.5211 324.3 91.6751C324.28 91.8291 324.217 91.9742 324.118 92.0937C324.019 92.2132 323.888 92.302 323.74 92.35Z" fill="#263238"/>
<path d="M311.32 91.6501C311.792 91.8203 312.272 91.9639 312.76 92.0801C313.248 92.2938 313.791 92.3463 314.31 92.2301C314.465 92.1578 314.593 92.0364 314.672 91.8846C314.752 91.7328 314.779 91.559 314.75 91.3901C314.645 91.0664 314.455 90.7769 314.2 90.5517C313.945 90.3266 313.634 90.174 313.3 90.1101C312.656 89.8629 311.944 89.8629 311.3 90.1101C311.143 90.1698 311.008 90.2764 310.914 90.4154C310.819 90.5544 310.77 90.719 310.772 90.887C310.774 91.0551 310.828 91.2184 310.926 91.3548C311.024 91.4913 311.161 91.5944 311.32 91.6501Z" fill="#263238"/>
<path d="M319.81 106.14C319.51 106.37 319.21 106.71 318.81 106.7C318.392 106.654 317.99 106.517 317.63 106.3C317.63 106.3 317.55 106.3 317.57 106.3C317.711 106.536 317.912 106.731 318.153 106.864C318.393 106.998 318.665 107.065 318.94 107.06C319.178 107.025 319.401 106.92 319.579 106.758C319.757 106.596 319.883 106.384 319.94 106.15C319.94 106.14 319.85 106.1 319.81 106.14Z" fill="#263238"/>
<path d="M318.83 104.71C316.63 104.16 314.01 103.93 314 103.8L314.47 101.22C314.13 101.34 312.47 101.91 312.47 101.46C312.98 97.5586 313.885 93.7189 315.17 90.0001C315.177 89.9777 315.191 89.9581 315.21 89.9442C315.229 89.9303 315.252 89.9229 315.275 89.9229C315.298 89.9229 315.321 89.9303 315.34 89.9442C315.359 89.9581 315.373 89.9777 315.38 90.0001C314.94 93.6001 313.87 97.1001 313.38 100.72C313.978 100.504 314.605 100.379 315.24 100.35C315.149 101.359 314.995 102.36 314.78 103.35C316.187 103.524 317.565 103.881 318.88 104.41C319 104.53 318.94 104.74 318.83 104.71Z" fill="#263238"/>
<path d="M333.06 101.23C330.6 100.62 329.34 97.05 329.34 92.3C329.34 88.75 328.34 83.49 324.72 82.79C320.72 82.01 318.95 84.79 316.45 84.63C314.16 84.49 314 82 312.27 82C310.54 82 309.41 84 308.42 87.24C309.42 83.36 310.64 79.71 312.09 78.56C318.6 73.39 330.99 76.12 333.87 84.46C335 87.67 334.25 95.3 333.06 101.23Z" fill="#263238"/>
<path d="M330.4 98.93C330.4 98.93 334.05 93.53 336.5 94.82C338.95 96.11 336.26 103.9 333.43 105.01C333.077 105.177 332.695 105.271 332.305 105.286C331.915 105.301 331.526 105.237 331.162 105.098C330.797 104.958 330.465 104.747 330.185 104.476C329.904 104.205 329.681 103.879 329.53 103.52L330.4 98.93Z" fill="#DFA26F"/>
<path d="M335.67 97V97.07C333.67 97.91 332.67 99.78 331.96 101.71C332.072 101.507 332.228 101.331 332.415 101.195C332.602 101.058 332.817 100.963 333.044 100.918C333.271 100.872 333.506 100.876 333.731 100.93C333.957 100.984 334.168 101.086 334.35 101.23C334.4 101.23 334.35 101.35 334.29 101.34C333.937 101.234 333.559 101.241 333.21 101.359C332.861 101.478 332.557 101.702 332.34 102C331.981 102.5 331.676 103.036 331.43 103.6C331.34 103.78 331.02 103.69 331.08 103.48C331 100.93 333 97.34 335.67 97Z" fill="#263238"/>
<path d="M315.27 119.7L319.48 129.51L331.48 116.8L335.03 120.73C335.03 120.73 323.47 140.73 323.37 139.88L319.14 131.47L313.4 137.47L313.57 122.63L315.27 119.7Z" fill="#44AF89"/>
<path d="M313.05 130.16C313.16 127.71 313.21 125.24 313.43 122.8C313.43 122.72 313.57 122.67 313.6 122.8C314.13 125.15 313.66 134.51 313.72 136.75C313.96 136.49 319.05 131.44 319.1 131.52C320.01 132.85 323.1 138.97 323.33 139.52C325.16 136.34 332.18 124.76 334.33 121.74C334.344 121.727 334.361 121.719 334.38 121.717C334.398 121.714 334.417 121.718 334.433 121.727C334.45 121.735 334.463 121.749 334.472 121.766C334.48 121.783 334.483 121.802 334.48 121.82C332.87 125.18 323.59 140.77 323.48 140.72C321.849 137.84 320.37 134.875 319.05 131.84C318.19 132.93 313.05 138.61 313.05 138.25C312.909 135.555 312.909 132.855 313.05 130.16Z" fill="#263238"/>
<path d="M339.78 88.8C339.39 89.41 336.86 88.96 336.5 89.07L334.65 90.53C334.65 90.53 324.55 81.87 322.06 81.05C319.57 80.23 308.36 80.77 308.36 80.77L307.12 75.4C307.12 75.4 302.35 72 302.12 69.54C301.97 68.07 314.12 64.34 323.64 67.82C335.67 72.24 341.9 85.48 339.78 88.8Z" fill="#37474F"/>
<path d="M336.51 89.07L334.65 90.52C334.65 90.52 324.55 81.87 322.06 81.05C319.57 80.23 308.36 80.77 308.36 80.77C308.36 80.77 307.17 75.84 307.12 75.4C307.12 75.4 320.18 73.93 324.29 76.92C328.4 79.91 334.16 84.43 336.51 89.07Z" fill="#263238"/>
<path d="M311.06 74.6201C311.21 75.7863 311.434 76.942 311.73 78.0801C312.02 78.8201 313.88 79.2601 313.88 79.2601C313.88 79.2601 315.72 78.7001 315.88 78.1201C315.896 76.8514 315.806 75.5836 315.61 74.3301C315.132 74.3738 314.65 74.3063 314.203 74.1328C313.755 73.9593 313.354 73.6846 313.03 73.3301C312.865 73.715 312.59 74.0426 312.239 74.2721C311.889 74.5015 311.479 74.6226 311.06 74.6201Z" fill="#44AF89"/>
<path d="M334.65 90.53C334.65 90.53 329 87.77 325 87.35C321.61 86.99 312.13 86.43 309.49 86.56C305.64 86.74 299.59 82.09 301.06 80.74C303.5 78.48 318.94 79.96 322.15 80.95C327.06 82.46 334.65 90.53 334.65 90.53Z" fill="#37474F"/>
<path d="M332.55 88.4401C332.574 88.6339 332.654 88.8164 332.78 88.9653C332.907 89.1141 333.074 89.2227 333.261 89.2777C333.448 89.3326 333.648 89.3316 333.834 89.2746C334.021 89.2176 334.187 89.1072 334.312 88.957C334.437 88.8067 334.515 88.6233 334.536 88.4293C334.558 88.2352 334.522 88.0391 334.434 87.8651C334.346 87.691 334.208 87.5466 334.039 87.4498C333.869 87.353 333.675 87.3079 333.48 87.3201C333.344 87.3286 333.211 87.3649 333.089 87.4266C332.968 87.4884 332.86 87.5744 332.773 87.6793C332.686 87.7842 332.621 87.9058 332.583 88.0366C332.545 88.1674 332.533 88.3047 332.55 88.4401Z" fill="#EBEBEB"/>
</svg>
