<svg width="260" height="150" viewBox="0 0 260 150" fill="none" xmlns="http://www.w3.org/2000/svg">
<path fill-rule="evenodd" clip-rule="evenodd" d="M55.9109 39.5521C56.9226 18.521 73.5211 1.92257 94.5521 0.910863C105.323 0.392725 117.582 0 130 0C142.418 0 154.677 0.392726 165.448 0.910864C186.479 1.92257 203.077 18.5211 204.089 39.5521C204.607 50.3229 205 62.5825 205 75C205 87.4175 204.607 99.6771 204.089 110.448C203.077 131.479 186.479 148.077 165.448 149.089C154.677 149.607 142.418 150 130 150C117.582 150 105.323 149.607 94.5521 149.089C73.521 148.077 56.9226 131.479 55.9109 110.448C55.3927 99.6771 55 87.4175 55 75C55 62.5825 55.3927 50.3229 55.9109 39.5521Z" fill="#47B88F"/>
<path d="M149.877 28.8802L134.417 112.805L145.46 115.014C168.834 97.8975 178.864 28.8802 149.877 28.8802Z" fill="#4E1E30"/>
<path d="M149.878 28.88C146.013 26.5333 125.615 20.5735 110.124 28.88C91.0757 39.0945 74.4195 75.6275 101.29 112.805C101.328 112.858 121.167 110.596 121.167 110.596L149.878 28.88Z" fill="#4E1E30"/>
<path fill-rule="evenodd" clip-rule="evenodd" d="M149.875 149.695C143.439 149.884 136.743 150 130 150C123.256 150 116.559 149.884 110.121 149.695V116.354C114.517 113.035 114.538 107.547 114.538 102.499V97.3456H145.458V102.504H145.578C145.578 107.509 145.591 112.949 149.875 116.277V149.695Z" fill="#B3723D"/>
<path fill-rule="evenodd" clip-rule="evenodd" d="M147.668 149.757C141.914 149.909 135.976 150 130 150C125.542 150 121.104 149.949 116.749 149.86V142.002C120.769 143.095 125.251 143.725 130 143.725C136.574 143.725 142.658 142.544 147.668 140.545V149.757Z" fill="#0090FF"/>
<path d="M147.666 126.057C148.472 126.277 149.198 126.394 149.875 126.451V116.277C145.591 112.949 145.578 107.509 145.578 102.504L145.575 102.376V97.2172L121.164 97.3454L114.538 99.5538C118.955 104.523 132.483 121.916 147.666 126.057Z" fill="#B3723D"/>
<path d="M160.921 68.6334C160.921 86.3198 143.332 108.387 130.002 108.387C116.672 108.387 99.0825 86.3198 99.0825 68.6334C99.0825 50.9471 112.926 44.3392 130.002 44.3392C147.078 44.3392 160.921 50.9471 160.921 68.6334Z" fill="#B3723D"/>
<path d="M134.417 33.2975C133.177 33.2975 129.148 34.6917 125.855 35.9134L125.583 35.5059C125.583 35.5059 125.129 35.863 124.342 36.4819C122.511 37.1774 121.166 37.7144 121.166 37.7144L121.683 38.5756C113.3 45.1801 94.1749 60.2885 92.4552 62.0086C90.2468 64.2171 105.706 120.564 105.706 88.5113C105.706 61.7327 120.584 56.4294 134.417 53.1745C140.675 51.7021 142.515 48.0212 143.251 44.3404C143.988 40.6595 136.626 33.2975 134.417 33.2975Z" fill="#4E1E30"/>
<path d="M141.042 46.5485C145.091 61.088 153.189 67.6677 160.781 69.6002C164.941 70.6591 163.128 57.5914 163.128 57.5914C163.128 57.5914 157.238 42.4994 156.502 42.1316C155.766 41.7634 149.876 28.8802 149.876 28.8802L136.625 39.9231L141.042 46.5485Z" fill="#4E1E30"/>
<path fill-rule="evenodd" clip-rule="evenodd" d="M120.874 149.933C111.634 149.799 102.67 149.48 94.5522 149.089C86.372 148.696 78.8623 145.944 72.6797 141.491C73.8079 129.121 84.2087 119.431 96.8724 119.431H97.6084C106.263 119.431 110.48 117.069 112.549 113.708L120.874 149.933Z" fill="#FF965D"/>
<path fill-rule="evenodd" clip-rule="evenodd" d="M187.32 141.492C181.137 145.944 173.628 148.696 165.449 149.089C157.33 149.48 148.366 149.799 139.125 149.933L147.451 113.708C149.519 117.069 153.736 119.431 162.391 119.431H163.127C175.791 119.431 186.192 129.121 187.32 141.492Z" fill="#FF965D"/>
<path d="M157.628 68.8349C161.242 68.0065 163.609 69.7763 163.609 73.2521C163.609 77.8532 158.75 89.1261 153.641 82.0862C148.532 75.0464 157.628 68.8349 157.628 68.8349Z" fill="#B3723D"/>
<path fill-rule="evenodd" clip-rule="evenodd" d="M55.9109 39.5521C56.9226 18.521 73.5211 1.92257 94.5521 0.910863C105.323 0.392725 117.582 0 130 0C142.418 0 154.677 0.392726 165.448 0.910864C186.479 1.92257 203.077 18.5211 204.089 39.5521C204.607 50.3229 205 62.5825 205 75C205 87.4175 204.607 99.6771 204.089 110.448C203.077 131.479 186.479 148.077 165.448 149.089C154.677 149.607 142.418 150 130 150C117.582 150 105.323 149.607 94.5521 149.089C73.521 148.077 56.9226 131.479 55.9109 110.448C55.3927 99.6771 55 87.4175 55 75C55 62.5825 55.3927 50.3229 55.9109 39.5521Z" fill="#47B88F"/>
<path d="M149.877 28.8802L134.417 112.805L145.46 115.014C168.834 97.8975 178.864 28.8802 149.877 28.8802Z" fill="#4E1E30"/>
<path d="M149.878 28.88C146.013 26.5333 125.615 20.5735 110.124 28.88C91.0757 39.0945 74.4195 75.6275 101.29 112.805C101.328 112.858 121.167 110.596 121.167 110.596L149.878 28.88Z" fill="#4E1E30"/>
<path fill-rule="evenodd" clip-rule="evenodd" d="M149.875 149.695C143.439 149.884 136.743 150 130 150C123.256 150 116.559 149.884 110.121 149.695V116.354C114.517 113.035 114.538 107.547 114.538 102.499V97.3456H145.458V102.504H145.578C145.578 107.509 145.591 112.949 149.875 116.277V149.695Z" fill="#B3723D"/>
<path fill-rule="evenodd" clip-rule="evenodd" d="M147.668 149.757C141.914 149.909 135.976 150 130 150C125.542 150 121.104 149.949 116.749 149.86V142.002C120.769 143.095 125.251 143.725 130 143.725C136.574 143.725 142.658 142.544 147.668 140.545V149.757Z" fill="#0090FF"/>
<path d="M147.666 126.057C148.472 126.277 149.198 126.394 149.875 126.451V116.277C145.591 112.949 145.578 107.509 145.578 102.504L145.575 102.376V97.2172L121.164 97.3454L114.538 99.5538C118.955 104.523 132.483 121.916 147.666 126.057Z" fill="#B3723D"/>
<path d="M160.921 68.6334C160.921 86.3198 143.332 108.387 130.002 108.387C116.672 108.387 99.0825 86.3198 99.0825 68.6334C99.0825 50.9471 112.926 44.3392 130.002 44.3392C147.078 44.3392 160.921 50.9471 160.921 68.6334Z" fill="#B3723D"/>
<path d="M134.417 33.2975C133.177 33.2975 129.148 34.6917 125.855 35.9134L125.583 35.5059C125.583 35.5059 125.129 35.863 124.342 36.4819C122.511 37.1774 121.166 37.7144 121.166 37.7144L121.683 38.5756C113.3 45.1801 94.1749 60.2885 92.4552 62.0086C90.2468 64.2171 105.706 120.564 105.706 88.5113C105.706 61.7327 120.584 56.4294 134.417 53.1745C140.675 51.7021 142.515 48.0212 143.251 44.3404C143.988 40.6595 136.626 33.2975 134.417 33.2975Z" fill="#4E1E30"/>
<path d="M141.042 46.5485C145.091 61.088 153.189 67.6677 160.781 69.6002C164.941 70.6591 163.128 57.5914 163.128 57.5914C163.128 57.5914 157.238 42.4994 156.502 42.1316C155.766 41.7634 149.876 28.8802 149.876 28.8802L136.625 39.9231L141.042 46.5485Z" fill="#4E1E30"/>
<path fill-rule="evenodd" clip-rule="evenodd" d="M120.874 149.933C111.634 149.799 102.67 149.48 94.5522 149.089C86.372 148.696 78.8623 145.944 72.6797 141.491C73.8079 129.121 84.2087 119.431 96.8724 119.431H97.6084C106.263 119.431 110.48 117.069 112.549 113.708L120.874 149.933Z" fill="#FF965D"/>
<path fill-rule="evenodd" clip-rule="evenodd" d="M187.32 141.492C181.137 145.944 173.628 148.696 165.449 149.089C157.33 149.48 148.366 149.799 139.125 149.933L147.451 113.708C149.519 117.069 153.736 119.431 162.391 119.431H163.127C175.791 119.431 186.192 129.121 187.32 141.492Z" fill="#FF965D"/>
<path d="M157.628 68.8349C161.242 68.0065 163.609 69.7763 163.609 73.2521C163.609 77.8532 158.75 89.1261 153.641 82.0862C148.532 75.0464 157.628 68.8349 157.628 68.8349Z" fill="#B3723D"/>
</svg>
