<svg width="260" height="150" viewBox="0 0 260 150" fill="none" xmlns="http://www.w3.org/2000/svg">
<path fill-rule="evenodd" clip-rule="evenodd" d="M55.9109 39.5521C56.9226 18.521 73.5211 1.92257 94.5521 0.910863C105.323 0.392725 117.582 0 130 0C142.418 0 154.677 0.392726 165.448 0.910864C186.479 1.92257 203.077 18.5211 204.089 39.5521C204.607 50.3229 205 62.5825 205 75C205 87.4175 204.607 99.6771 204.089 110.448C203.077 131.479 186.479 148.077 165.448 149.089C154.677 149.607 142.418 150 130 150C117.582 150 105.323 149.607 94.5521 149.089C73.521 148.077 56.9226 131.479 55.9109 110.448C55.3927 99.6771 55 87.4175 55 75C55 62.5825 55.3927 50.3229 55.9109 39.5521Z" fill="#47B88F"/>
<path d="M153.272 124.366V107.055H108.76V124.366L131.016 144.149L153.272 124.366Z" fill="#B3723D"/>
<path fill-rule="evenodd" clip-rule="evenodd" d="M193.34 136.167C186.353 143.708 176.513 148.557 165.445 149.089C154.674 149.607 142.414 150 129.997 150C117.579 150 105.32 149.607 94.5488 149.089C84.1152 148.587 74.7726 144.249 67.8828 137.437C69.1888 134.991 71.5017 133.133 74.3452 132.464L104.946 125.264C105.815 125.059 106.58 124.628 107.197 124.047L131.015 139.204L155.799 124.746C156.197 124.97 156.622 125.155 157.085 125.264L187.685 132.464C190.013 133.011 191.985 134.356 193.34 136.167Z" fill="#8B63E7"/>
<path d="M108.76 107.056V125.319C136.797 135.421 153.272 110.139 153.272 110.139V107.055H108.76V107.056Z" fill="#B3723D"/>
<path d="M98.8677 50.1782L101.023 97.5876C101.224 102.016 103.395 106.124 106.942 108.784L117.167 116.453C119.735 118.379 122.859 119.42 126.07 119.42H135.961C139.172 119.42 142.296 118.379 144.864 116.453L155.089 108.784C158.636 106.123 160.807 102.017 161.008 97.5876L163.163 50.1782C163.163 50.1782 98.8677 50.1782 98.8677 50.1782Z" fill="#B3723D"/>
<path fill-rule="evenodd" clip-rule="evenodd" d="M136.056 149.97C134.045 149.989 132.023 150 129.997 150C128.653 150 127.312 149.995 125.973 149.986L126.378 144.15H135.652L136.056 149.97Z" fill="#5B5D6E"/>
<path d="M137.197 139.204H124.833V143.858C124.833 145.385 126.07 146.623 127.597 146.623H134.432C135.959 146.623 137.197 145.385 137.197 143.858V139.204H137.197Z" fill="#515262"/>
<path d="M108.412 118.86L131.015 139.203C131.015 139.203 124.685 142.399 116.873 148.84C115.262 150.168 112.824 149.63 111.96 147.729L101.34 124.366L104.7 119.327C105.536 118.072 107.291 117.851 108.412 118.86Z" fill="white"/>
<path d="M153.62 118.86L131.017 139.203C131.017 139.203 137.347 142.399 145.159 148.84C146.77 150.168 149.208 149.63 150.072 147.729L160.691 124.366L157.332 119.327C156.496 118.072 154.741 117.851 153.62 118.86Z" fill="white"/>
<path d="M146.008 33.7952L148.326 50.1784C158.909 52.295 160.434 68.9029 160.653 73.6464C160.693 74.5073 160.968 75.3385 161.435 76.0627L165.473 82.3263C165.473 82.3263 164.091 71.9708 170.419 65.0158C170.419 65.0158 172.592 23.9034 146.008 33.7952Z" fill="#4E1E30"/>
<path d="M167.954 81.2713L165.162 92.4383C164.831 93.7621 163.642 94.6902 162.278 94.6902C160.778 94.6902 159.514 93.5738 159.328 92.0859L157.9 80.6642C157.518 77.6069 159.901 74.9068 162.982 74.9068H162.984C166.317 74.9071 168.762 78.0383 167.954 81.2713Z" fill="#B3723D"/>
<path d="M101.237 29.3644L104.895 31.8631C88.3572 44.0732 91.4481 65.0159 91.4481 65.0159C96.3938 69.9617 96.3938 82.3264 96.3938 82.3264L101.34 77.3806C101.34 77.3806 99.4309 63.0935 108.758 57.5972C117.413 52.4968 124.987 55.1243 132.715 55.1243C153.425 55.1243 159.221 47.319 158.217 37.8138C157.697 32.8954 150.177 22.6503 131.015 22.9761C123.281 23.1075 108.759 25.449 101.237 29.3644Z" fill="#66273F"/>
<path d="M99.7943 52.9601C99.7943 52.9601 97.1668 42.6047 104.895 31.8631C88.3572 44.0732 91.4481 65.0159 91.4481 65.0159C96.3938 69.9617 96.3938 82.3264 96.3938 82.3264L101.34 77.3806C101.34 77.3806 99.4309 63.0935 108.758 57.5972C117.413 52.4968 124.987 55.1243 132.715 55.1243C136.083 55.1243 139.018 54.8988 141.632 54.5122C125.683 55.0467 116.281 42.9652 99.7943 52.9601Z" fill="#4E1E30"/>
<path d="M94.0788 81.2713L96.8705 92.4383C97.2013 93.7621 98.3903 94.6902 99.7549 94.6902C101.255 94.6902 102.519 93.5738 102.705 92.0859L104.133 80.6642C104.515 77.6069 102.132 74.9068 99.0506 74.9068H99.0484C95.7157 74.9071 93.2706 78.0383 94.0788 81.2713Z" fill="#B3723D"/>
</svg>
