<svg width="150" height="150" viewBox="0 0 150 150" fill="none" xmlns="http://www.w3.org/2000/svg">
<path fill-rule="evenodd" clip-rule="evenodd" d="M0.910863 39.5521C1.92257 18.521 18.5211 1.92257 39.5521 0.910863C50.3229 0.392725 62.5825 0 75 0C87.4175 0 99.6771 0.392726 110.448 0.910864C131.479 1.92257 148.077 18.5211 149.089 39.5521C149.607 50.3229 150 62.5825 150 75C150 87.4175 149.607 99.6771 149.089 110.448C148.077 131.479 131.479 148.077 110.448 149.089C99.6771 149.607 87.4175 150 75 150C62.5825 150 50.3229 149.607 39.5521 149.089C18.521 148.077 1.92257 131.479 0.910863 110.448C0.392725 99.6771 0 87.4175 0 75C0 62.5825 0.392726 50.3229 0.910863 39.5521Z" fill="#47B88F"/>
<path d="M94.8772 28.8802L79.4175 112.805L90.4603 115.014C113.834 97.8975 123.864 28.8802 94.8772 28.8802Z" fill="#4E1E30"/>
<path d="M94.8781 28.88C91.013 26.5333 70.6145 20.5735 55.1243 28.88C36.0757 39.0945 19.4195 75.6275 46.2902 112.805C46.3285 112.858 66.1671 110.596 66.1671 110.596L94.8781 28.88Z" fill="#4E1E30"/>
<path fill-rule="evenodd" clip-rule="evenodd" d="M94.8749 149.695C88.4385 149.884 81.7425 150 75 150C68.2561 150 61.5587 149.884 55.1211 149.695V116.354C59.5171 113.035 59.5383 107.547 59.5383 102.499V97.3456H90.4577V102.504H90.5778C90.5778 107.509 90.5913 112.949 94.8749 116.277V149.695Z" fill="#B3723D"/>
<path fill-rule="evenodd" clip-rule="evenodd" d="M92.6679 149.757C86.9142 149.909 80.9756 150 75.0005 150C70.5423 150 66.1044 149.949 61.7485 149.86V142.002C65.7694 143.095 70.2507 143.725 74.9998 143.725C81.5744 143.725 87.6577 142.544 92.6679 140.545V149.757Z" fill="#0090FF"/>
<path d="M92.6662 126.057C93.4721 126.277 94.1977 126.394 94.8747 126.451V116.277C90.5914 112.949 90.5776 107.509 90.5776 102.504L90.5746 102.376V97.2172L66.1637 97.3454L59.5381 99.5538C63.9553 104.523 77.4828 121.916 92.6662 126.057Z" fill="#B3723D"/>
<path d="M105.921 68.6334C105.921 86.3198 88.3317 108.387 75.0019 108.387C61.6721 108.387 44.0825 86.3198 44.0825 68.6334C44.0825 50.9471 57.9258 44.3392 75.0019 44.3392C92.078 44.3392 105.921 50.9471 105.921 68.6334Z" fill="#B3723D"/>
<path d="M79.4174 33.2975C78.1766 33.2975 74.1477 34.6917 70.8549 35.9134L70.5833 35.5059C70.5833 35.5059 70.1289 35.863 69.3422 36.4819C67.5107 37.1774 66.1665 37.7144 66.1665 37.7144L66.683 38.5756C58.3004 45.1801 39.1749 60.2885 37.4552 62.0086C35.2468 64.2171 50.7064 120.564 50.7064 88.5113C50.7064 61.7327 65.5838 56.4294 79.4174 53.1745C85.6748 51.7021 87.5154 48.0212 88.2515 44.3404C88.9878 40.6595 81.6262 33.2975 79.4174 33.2975Z" fill="#4E1E30"/>
<path d="M86.0419 46.5485C90.0909 61.088 98.1889 67.6677 105.781 69.6002C109.941 70.6591 108.128 57.5914 108.128 57.5914C108.128 57.5914 102.238 42.4994 101.502 42.1316C100.766 41.7634 94.8763 28.8802 94.8763 28.8802L81.625 39.9231L86.0419 46.5485Z" fill="#4E1E30"/>
<path fill-rule="evenodd" clip-rule="evenodd" d="M65.8738 149.933C56.6341 149.799 47.6703 149.48 39.5522 149.089C31.372 148.696 23.8623 145.944 17.6797 141.491C18.8079 129.121 29.2087 119.431 41.8724 119.431H42.6084C51.2629 119.431 55.48 117.069 57.5485 113.708L65.8738 149.933Z" fill="#FF965D"/>
<path fill-rule="evenodd" clip-rule="evenodd" d="M132.32 141.492C126.137 145.944 118.628 148.696 110.449 149.089C102.33 149.48 93.3657 149.799 84.1255 149.933L92.4508 113.708C94.5193 117.069 98.7364 119.431 107.391 119.431H108.127C120.791 119.431 131.192 129.121 132.32 141.492Z" fill="#FF965D"/>
<path d="M102.628 68.8349C106.242 68.0065 108.609 69.7763 108.609 73.2521C108.609 77.8532 103.75 89.1261 98.6409 82.0862C93.532 75.0464 102.628 68.8349 102.628 68.8349Z" fill="#B3723D"/>
</svg>
