<svg width="150" height="150" viewBox="0 0 150 150" fill="none" xmlns="http://www.w3.org/2000/svg">
<path fill-rule="evenodd" clip-rule="evenodd" d="M0.910863 39.5521C1.92257 18.521 18.5211 1.92257 39.5521 0.910863C50.3229 0.392725 62.5825 0 75 0C87.4175 0 99.6771 0.392726 110.448 0.910864C131.479 1.92257 148.077 18.5211 149.089 39.5521C149.607 50.3229 150 62.5825 150 75C150 87.4175 149.607 99.6771 149.089 110.448C148.077 131.479 131.479 148.077 110.448 149.089C99.6771 149.607 87.4175 150 75 150C62.5825 150 50.3229 149.607 39.5521 149.089C18.521 148.077 1.92257 131.479 0.910863 110.448C0.392725 99.6771 0 87.4175 0 75C0 62.5825 0.392726 50.3229 0.910863 39.5521Z" fill="#47B88F"/>
<path d="M98.2721 124.366V107.055H53.7598V124.366L76.0159 144.149L98.2721 124.366Z" fill="#B3723D"/>
<path fill-rule="evenodd" clip-rule="evenodd" d="M138.34 136.167C131.353 143.708 121.513 148.557 110.445 149.089C99.6738 149.607 87.4142 150 74.9967 150C62.5792 150 50.3196 149.607 39.5488 149.089C29.1152 148.587 19.7726 144.249 12.8828 137.437C14.1888 134.991 16.5017 133.133 19.3452 132.464L49.9457 125.264C50.815 125.059 51.5803 124.628 52.1969 124.047L76.0149 139.204L100.799 124.746C101.197 124.97 101.622 125.155 102.085 125.264L132.685 132.464C135.013 133.011 136.985 134.356 138.34 136.167Z" fill="#8B63E7"/>
<path d="M53.7598 107.056V125.319C81.7965 135.421 98.2721 110.139 98.2721 110.139V107.055H53.7598V107.056Z" fill="#B3723D"/>
<path d="M43.8677 50.1782L46.0226 97.5876C46.2237 102.016 48.3954 106.124 51.9421 108.784L62.167 116.453C64.7354 118.379 67.8591 119.42 71.0696 119.42H80.9614C84.1719 119.42 87.2956 118.379 89.864 116.453L100.089 108.784C103.636 106.124 105.807 102.017 106.008 97.5876L108.163 50.1782C108.163 50.1782 43.8677 50.1782 43.8677 50.1782Z" fill="#B3723D"/>
<path fill-rule="evenodd" clip-rule="evenodd" d="M81.0561 149.97C79.0445 149.989 77.023 150 74.9972 150C73.6534 150 72.3115 149.995 70.9731 149.986L71.3785 144.15H80.652L81.0561 149.97Z" fill="#5B5D6E"/>
<path d="M82.1972 139.204H69.8325V143.858C69.8325 145.385 71.0702 146.623 72.5973 146.623H79.4321C80.9592 146.623 82.1969 145.385 82.1969 143.858V139.204H82.1972Z" fill="#515262"/>
<path d="M53.4116 118.86L76.0151 139.203C76.0151 139.203 69.6849 142.399 61.8732 148.84C60.2618 150.168 57.8242 149.63 56.9599 147.729L46.3403 124.366L49.6999 119.327C50.5358 118.072 52.2907 117.851 53.4116 118.86Z" fill="white"/>
<path d="M98.6201 118.86L76.0166 139.203C76.0166 139.203 82.3468 142.399 90.1585 148.84C91.7699 150.168 94.2075 149.63 95.0718 147.729L105.691 124.366L102.332 119.327C101.496 118.072 99.7407 117.851 98.6201 118.86Z" fill="white"/>
<path d="M91.0078 33.7952L93.326 50.1784C103.909 52.295 105.434 68.9029 105.653 73.6464C105.693 74.5073 105.968 75.3385 106.435 76.0627L110.473 82.3263C110.473 82.3263 109.091 71.9708 115.419 65.0158C115.419 65.0158 117.592 23.9034 91.0078 33.7952Z" fill="#4E1E30"/>
<path d="M112.954 81.2713L110.162 92.4384C109.831 93.7621 108.642 94.6902 107.278 94.6902C105.778 94.6902 104.514 93.5738 104.328 92.0859L102.9 80.6642C102.518 77.6069 104.901 74.9068 107.982 74.9068H107.984C111.317 74.9071 113.762 78.0383 112.954 81.2713Z" fill="#B3723D"/>
<path d="M46.237 29.3644L49.8947 31.8631C33.3572 44.0732 36.4481 65.0159 36.4481 65.0159C41.3938 69.9617 41.3938 82.3264 41.3938 82.3264L46.3396 77.3806C46.3396 77.3806 44.4309 63.0935 53.7582 57.5972C62.4134 52.4968 69.9867 55.1243 77.7146 55.1243C98.4252 55.1243 104.221 47.319 103.217 37.8138C102.697 32.8955 95.1769 22.6503 76.0147 22.9762C68.2814 23.1075 53.7588 25.449 46.237 29.3644Z" fill="#66273F"/>
<path d="M44.7943 52.9602C44.7943 52.9602 42.1668 42.6047 49.8947 31.8631C33.3572 44.0732 36.4481 65.0159 36.4481 65.0159C41.3938 69.9617 41.3938 82.3264 41.3938 82.3264L46.3396 77.3806C46.3396 77.3806 44.4309 63.0935 53.7582 57.5972C62.4134 52.4968 69.9867 55.1243 77.7146 55.1243C81.0828 55.1243 84.018 54.8988 86.6323 54.5122C70.6829 55.0467 61.2808 42.9652 44.7943 52.9602Z" fill="#4E1E30"/>
<path d="M39.0788 81.2713L41.8705 92.4384C42.2013 93.7621 43.3903 94.6902 44.7549 94.6902C46.2545 94.6902 47.5191 93.5738 47.7052 92.0859L49.1331 80.6642C49.5152 77.6069 47.1317 74.9068 44.0506 74.9068H44.0484C40.7157 74.9071 38.2706 78.0383 39.0788 81.2713Z" fill="#B3723D"/>
</svg>
