<svg width="31" height="34" viewBox="0 0 31 34" fill="none" xmlns="http://www.w3.org/2000/svg">
<path d="M20.5162 24.0348V19.9316H9.96515V24.0348L15.2407 28.7241L20.5162 24.0348Z" fill="#FFD7A3"/>
<path fill-rule="evenodd" clip-rule="evenodd" d="M30.1493 27.034C26.4767 31.295 21.0441 33.9998 15.0001 33.9998C9.12342 33.9998 3.82488 31.4428 0.160156 27.3846C0.434316 26.6822 1.03928 26.1351 1.80779 25.9542L9.06122 24.2475C9.26728 24.199 9.4487 24.0967 9.59486 23.9591L15.2406 27.5519L21.1155 24.1249C21.2098 24.1779 21.3105 24.2217 21.4201 24.2475L28.6735 25.9542C29.3086 26.1036 29.832 26.5033 30.1493 27.034Z" fill="#8B63E7"/>
<path d="M9.96515 19.9316V24.2608C16.6109 26.6552 20.5162 20.6626 20.5162 20.6626V19.9315H9.96515V19.9316Z" fill="#F0C290"/>
<path d="M7.62045 6.44974L8.13125 17.6874C8.17893 18.7373 8.6937 19.7108 9.5344 20.3413L11.9581 22.1591C12.5669 22.6157 13.3073 22.8626 14.0683 22.8626H16.413C17.174 22.8626 17.9145 22.6157 18.5233 22.1591L20.947 20.3413C21.7877 19.7108 22.3024 18.7373 22.3501 17.6874L22.8609 6.44974C22.8608 6.44974 7.62045 6.44974 7.62045 6.44974Z" fill="#FFE1B2"/>
<path fill-rule="evenodd" clip-rule="evenodd" d="M14.9689 33.9997H15.0311C15.5934 33.9989 16.1505 33.9746 16.7013 33.9278L16.3399 28.7241H14.1417L13.778 33.9627C14.172 33.9867 14.5691 33.9991 14.9689 33.9997Z" fill="#5B5D6E"/>
<path d="M16.7062 27.5518H13.7753V28.655C13.7753 29.017 14.0687 29.3104 14.4307 29.3104H16.0508C16.4127 29.3104 16.7061 29.017 16.7061 28.655V27.5518H16.7062Z" fill="#515262"/>
<path d="M9.88287 22.7298L15.2408 27.5518C15.2408 27.5518 13.7402 28.3093 11.8886 29.836C11.5066 30.1509 10.9288 30.0234 10.724 29.5727L8.20673 24.0348L9.00306 22.8404C9.20122 22.5429 9.61718 22.4907 9.88287 22.7298Z" fill="white"/>
<path d="M20.5987 22.7298L15.2408 27.5518C15.2408 27.5518 16.7413 28.3093 18.593 29.836C18.9749 30.1509 19.5527 30.0234 19.7576 29.5727L22.2748 24.0348L21.4785 22.8404C21.2803 22.5429 20.8643 22.4907 20.5987 22.7298Z" fill="white"/>
<path d="M18.7943 2.56634L19.3438 6.44974C21.8523 6.95144 22.2138 10.8881 22.2659 12.0125C22.2753 12.2166 22.3405 12.4136 22.4512 12.5852L23.4083 14.0699C23.4083 14.0699 23.0807 11.6153 24.5806 9.96673C24.5807 9.96673 25.0957 0.221618 18.7943 2.56634Z" fill="#4E1E30"/>
<path d="M23.9963 13.82L23.3345 16.467C23.2561 16.7807 22.9743 17.0007 22.6508 17.0007C22.2954 17.0007 21.9956 16.7361 21.9515 16.3834L21.613 13.6761C21.5225 12.9514 22.0874 12.3114 22.8178 12.3114H22.8183C23.6083 12.3114 24.1879 13.0537 23.9963 13.82Z" fill="#FFE1B2"/>
<path d="M8.1823 1.51605L9.04929 2.10832C5.1293 5.00255 5.86195 9.96671 5.86195 9.96671C7.03428 11.139 7.03428 14.0699 7.03428 14.0699L8.2066 12.8976C8.2066 12.8976 7.75418 9.51103 9.96509 8.20822C12.0167 6.99924 13.8118 7.62206 15.6436 7.62206C20.5528 7.62206 21.9267 5.77193 21.6886 3.51885C21.5653 2.35303 19.7828 -0.0754305 15.2407 0.00179931C13.4076 0.0329436 9.96523 0.587963 8.1823 1.51605Z" fill="#66273F"/>
<path d="M7.84031 7.10915C7.84031 7.10915 7.21749 4.65453 9.04929 2.1084C5.1293 5.00263 5.86195 9.96679 5.86195 9.96679C7.03428 11.1391 7.03428 14.07 7.03428 14.07L8.2066 12.8977C8.2066 12.8977 7.75418 9.51111 9.96509 8.2083C12.0167 6.99931 13.8118 7.62213 15.6436 7.62213C16.442 7.62213 17.1378 7.56868 17.7575 7.47704C13.9769 7.60374 11.7482 4.73999 7.84031 7.10915Z" fill="#4E1E30"/>
<path d="M6.48521 13.82L7.14695 16.467C7.22537 16.7807 7.5072 17.0007 7.83066 17.0007C8.18613 17.0007 8.48589 16.7361 8.52998 16.3834L8.86845 13.6761C8.95903 12.9514 8.39405 12.3114 7.66372 12.3114H7.66319C6.87322 12.3114 6.29363 13.0537 6.48521 13.82Z" fill="#FFE1B2"/>
</svg>
