<svg width="500" height="500" viewBox="0 0 500 500" fill="none" xmlns="http://www.w3.org/2000/svg">
<path d="M410.91 275.5L424.26 275.22L430.84 275.11C433.03 275.06 435.2 275.11 437.39 275.05L436.94 275.5L436.89 264.31L437.39 264.81L424.15 264.74C419.73 264.74 415.32 264.63 410.91 264.58L411.18 264.31C411.18 266.14 411.09 267.98 411.05 269.84L410.91 275.5ZM410.91 275.5L410.76 269.96C410.76 268.09 410.65 266.21 410.63 264.31V264H410.91C415.32 264 419.73 263.85 424.15 263.84L437.39 263.78H437.89V264.28L437.83 275.47V276H437.39C435.15 276 432.92 276 430.69 275.95L424.03 275.84L410.91 275.5Z" fill="#EBEBEB"/>
<path d="M425.68 289.61L439.03 289.33L445.61 289.22C447.8 289.17 449.98 289.22 452.16 289.16L451.71 289.61V278.42L452.21 278.92L438.97 278.85C434.55 278.85 430.14 278.74 425.73 278.69L426 278.42C426 280.25 425.91 282.09 425.87 283.95L425.68 289.61ZM425.68 289.61L425.54 284.07C425.49 282.2 425.42 280.32 425.4 278.42V278.15H425.68C430.09 278.1 434.5 278 438.92 277.99L452.16 277.93H452.66V278.43L452.6 289.62V290.07H452.16C449.93 290.07 447.69 290.07 445.46 290.02L438.8 289.91L425.68 289.61Z" fill="#EBEBEB"/>
<path d="M396.08 289.6H422.56V278.41H396.08V289.6Z" fill="#EBEBEB"/>
<path d="M47.84 366.85L61.2 366.57L67.78 366.46C69.96 366.46 72.14 366.46 74.32 366.4L73.88 366.85L73.82 355.66L74.32 356.16L61.08 356.09C56.67 356.09 52.26 355.98 47.84 355.93L48.11 355.66C48.11 357.49 48.03 359.33 47.98 361.19L47.84 366.85ZM47.84 366.85L47.7 361.31C47.65 359.44 47.59 357.56 47.57 355.66V355.39H47.84C52.26 355.34 56.67 355.24 61.08 355.23L74.32 355.17H74.82V355.67V366.86V367.31H74.37C72.14 367.31 69.9 367.31 67.68 367.26L61 367.13L47.84 366.85Z" fill="#EBEBEB"/>
<path d="M62.62 380.95H89.1V369.76H62.62V380.95Z" fill="#EBEBEB"/>
<path d="M116.45 157.86L129.81 157.58L136.39 157.47C138.57 157.42 140.75 157.47 142.93 157.42L142.49 157.86L142.43 146.67L142.93 147.17L129.69 147.11C125.28 147.11 120.86 147 116.45 146.94L116.72 146.67C116.72 148.5 116.64 150.35 116.59 152.21L116.45 157.86ZM116.45 157.86L116.31 152.33C116.31 150.46 116.2 148.57 116.18 146.67V146.4H116.45C120.86 146.35 125.28 146.24 129.69 146.24L142.93 146.17H143.43V146.67L143.38 157.86V158.31H142.94C140.71 158.31 138.47 158.31 136.25 158.25L129.59 158.14L116.45 157.86Z" fill="#EBEBEB"/>
<path d="M62.48 61.1399H88.96V49.9499H62.48V61.1399Z" fill="#EBEBEB"/>
<path d="M47.72 75.2501L61.07 75.0001L67.65 74.8901C69.84 74.8901 72.01 74.8901 74.2 74.8901L73.75 75.3301V64.1401L74.25 64.6401L61 64.5001C56.58 64.5001 52.17 64.3901 47.76 64.3301L48.03 64.0601C48.03 65.8901 47.94 67.7301 47.9 69.6001L47.72 75.2501ZM47.72 75.2501L47.57 69.7201C47.57 67.8501 47.46 65.9601 47.44 64.0601V63.7901H47.72C52.13 63.7901 56.54 63.6301 60.96 63.6201L74.2 63.5601H74.7V64.0601L74.64 75.2501V75.7001H74.2C71.96 75.7001 69.73 75.7001 67.5 75.6401L60.84 75.5301L47.72 75.2501Z" fill="#EBEBEB"/>
<path d="M410.91 61.1399L424.26 60.86L430.84 60.75C433.03 60.75 435.2 60.75 437.39 60.75L436.94 61.1899L436.89 50L437.39 50.5L424.15 50.4399C419.73 50.4399 415.32 50.33 410.91 50.27L411.18 50C411.18 51.83 411.09 53.67 411.05 55.54L410.91 61.1399ZM410.91 61.1399L410.76 55.61C410.76 53.74 410.65 51.85 410.63 49.95V49.68H410.91C415.32 49.68 419.73 49.5199 424.15 49.5099L437.39 49.45H437.89V50L437.83 61.1899V61.6399H437.39C435.15 61.6399 432.92 61.64 430.69 61.58L424 61.4199L410.91 61.1399Z" fill="#EBEBEB"/>
<path d="M369.05 201.07H395.53V189.88H369.05V201.07Z" fill="#EBEBEB"/>
<path d="M87.23 119.4C87.7266 119.096 88.2977 118.935 88.88 118.935C89.4623 118.935 90.0333 119.096 90.53 119.4L91.38 119.89C91.67 120.04 91.96 120.19 92.26 120.33C92.788 120.572 93.239 120.955 93.5636 121.436C93.8882 121.918 94.0738 122.48 94.1 123.06L94.22 127.12L107.46 126.71L107.33 122.65C107.317 122.067 107.465 121.491 107.758 120.986C108.05 120.482 108.477 120.068 108.99 119.79C109.568 119.487 110.129 119.153 110.67 118.79C111.145 118.454 111.705 118.257 112.285 118.22C112.866 118.183 113.446 118.308 113.96 118.58L117.53 120.49L123.79 108.82L120.22 106.9C119.708 106.624 119.283 106.212 118.991 105.709C118.7 105.205 118.554 104.631 118.57 104.05C118.591 103.383 118.571 102.715 118.51 102.05C118.446 101.463 118.549 100.87 118.807 100.339C119.065 99.8083 119.468 99.3613 119.97 99.0499L123.42 96.9999L116.42 85.7499L113 87.8599C112.505 88.1641 111.936 88.3252 111.355 88.3252C110.774 88.3252 110.205 88.1641 109.71 87.8599C109.44 87.6899 109.15 87.5299 108.87 87.3799C108.59 87.2299 108.29 87.0699 107.99 86.9399C107.461 86.6971 107.009 86.3127 106.684 85.8292C106.359 85.3456 106.174 84.7818 106.15 84.1999L106 80.1099L92.76 80.5199L92.89 84.5199C92.9079 85.104 92.7619 85.6815 92.4685 86.187C92.1751 86.6924 91.7461 87.1057 91.23 87.3799C90.6524 87.6826 90.0915 88.0165 89.55 88.3799C89.0754 88.7175 88.5161 88.916 87.9349 88.9531C87.3537 88.9902 86.7736 88.8644 86.26 88.5899L82.69 86.6799L76.43 98.4399L80 100.36C80.5116 100.635 80.9362 101.048 81.2259 101.551C81.5157 102.055 81.6591 102.629 81.64 103.21C81.6273 103.877 81.6506 104.545 81.71 105.21C81.7731 105.797 81.6696 106.389 81.4114 106.92C81.1532 107.45 80.7507 107.898 80.25 108.21L76.8 110.35L83.8 121.6L87.23 119.4ZM90.54 98.4999C91.5506 96.6067 93.0999 95.0557 94.9921 94.0431C96.8842 93.0305 99.0341 92.6018 101.17 92.8111C103.306 93.0204 105.331 93.8584 106.991 95.2191C108.65 96.5797 109.869 98.402 110.493 100.455C111.117 102.509 111.118 104.701 110.496 106.755C109.874 108.809 108.656 110.632 106.998 111.994C105.339 113.356 103.314 114.196 101.179 114.407C99.0432 114.618 96.8929 114.191 95 113.18C92.4641 111.822 90.5702 109.514 89.7341 106.762C88.8979 104.01 89.1878 101.039 90.54 98.4999Z" fill="#EBEBEB"/>
<path d="M434 255.54C434.207 255.187 434.509 254.899 434.871 254.708C435.233 254.518 435.642 254.432 436.05 254.46H437.42C437.819 254.439 438.217 254.527 438.569 254.716C438.922 254.905 439.216 255.186 439.42 255.53L440.84 258L448.84 253.36L447.42 250.9C447.217 250.546 447.116 250.142 447.13 249.734C447.145 249.325 447.273 248.929 447.5 248.59C447.753 248.197 447.983 247.797 448.19 247.39C448.376 247.02 448.661 246.709 449.015 246.493C449.369 246.278 449.776 246.166 450.19 246.17H453.03V236.89H450.19C449.777 236.897 449.37 236.787 449.016 236.573C448.662 236.359 448.376 236.049 448.19 235.68C447.984 235.267 447.753 234.866 447.5 234.48C447.273 234.141 447.145 233.745 447.13 233.336C447.116 232.928 447.217 232.524 447.42 232.17L448.84 229.7L440.84 225.07L439.41 227.54C439.207 227.886 438.914 228.169 438.561 228.36C438.208 228.55 437.81 228.64 437.41 228.62C437.18 228.62 436.95 228.62 436.72 228.62C436.49 228.62 436.27 228.62 436.04 228.62C435.632 228.645 435.225 228.558 434.864 228.367C434.502 228.177 434.2 227.891 433.99 227.54L432.57 225.07L424.57 229.7L425.99 232.16C426.193 232.514 426.294 232.918 426.28 233.326C426.265 233.735 426.137 234.131 425.91 234.47C425.663 234.863 425.433 235.263 425.22 235.67C425.035 236.041 424.75 236.353 424.396 236.568C424.042 236.784 423.634 236.896 423.22 236.89H420.38V246.17H423.22C423.634 246.166 424.041 246.278 424.395 246.493C424.749 246.709 425.034 247.02 425.22 247.39C425.426 247.803 425.657 248.204 425.91 248.59C426.137 248.929 426.265 249.325 426.28 249.734C426.294 250.142 426.193 250.546 425.99 250.9L424.57 253.36L432.57 258L434 255.54ZM429.13 241.54C429.128 240.036 429.572 238.566 430.406 237.315C431.24 236.064 432.426 235.088 433.815 234.511C435.203 233.935 436.732 233.783 438.207 234.075C439.681 234.367 441.037 235.09 442.1 236.153C443.164 237.215 443.889 238.569 444.183 240.044C444.477 241.518 444.327 243.047 443.752 244.436C443.178 245.825 442.203 247.013 440.953 247.849C439.703 248.684 438.234 249.13 436.73 249.13C434.719 249.125 432.791 248.323 431.369 246.901C429.947 245.479 429.145 243.551 429.14 241.54H429.13Z" fill="#EBEBEB"/>
<path d="M49.38 137.67C49.7337 137.876 50.0224 138.178 50.2133 138.54C50.4042 138.903 50.4897 139.311 50.46 139.72C50.46 139.94 50.46 140.17 50.46 140.4C50.46 140.63 50.46 140.86 50.46 141.09C50.4812 141.489 50.3927 141.887 50.2041 142.239C50.0155 142.592 49.7339 142.886 49.39 143.09L46.92 144.51L51.56 152.51L54 151.16C54.3549 150.959 54.7586 150.86 55.1663 150.874C55.574 150.888 55.9699 151.015 56.31 151.24C56.7 151.49 57.1 151.73 57.51 151.94C57.8742 152.12 58.1812 152.397 58.3966 152.742C58.6121 153.086 58.7275 153.484 58.73 153.89V156.73H68V153.89C68.0004 153.484 68.1139 153.087 68.3276 152.743C68.5414 152.398 68.8469 152.12 69.21 151.94C69.6234 151.73 70.0241 151.497 70.41 151.24C70.7501 151.015 71.146 150.888 71.5537 150.874C71.9614 150.86 72.3651 150.959 72.72 151.16L75.19 152.58L79.82 144.58L77.35 143.15C77.0065 142.945 76.7247 142.651 76.5346 142.299C76.3445 141.947 76.2531 141.55 76.27 141.15C76.27 140.92 76.27 140.7 76.27 140.47C76.27 140.24 76.27 140.01 76.27 139.79C76.2438 139.382 76.3308 138.975 76.5213 138.613C76.7119 138.251 76.9987 137.949 77.35 137.74L79.82 136.32L75.19 128.32L72.73 129.74C72.3758 129.943 71.9718 130.044 71.5636 130.029C71.1554 130.015 70.7593 129.887 70.42 129.66C70.0333 129.413 69.6333 129.183 69.22 128.97C68.8489 128.785 68.5375 128.5 68.3216 128.146C68.1058 127.792 67.9943 127.384 68 126.97V124.13H58.75V126.97C58.7545 127.384 58.6425 127.791 58.4268 128.145C58.2111 128.498 57.9003 128.784 57.53 128.97C57.1167 129.176 56.716 129.406 56.33 129.66C55.9888 129.887 55.5911 130.015 55.1814 130.029C54.7716 130.043 54.3661 129.943 54.01 129.74L51.56 128.32L46.92 136.32L49.38 137.67ZM63.38 132.8C64.8836 132.798 66.3539 133.242 67.6051 134.076C68.8562 134.91 69.8318 136.096 70.4086 137.485C70.9854 138.873 71.1373 140.402 70.8452 141.876C70.5531 143.351 69.83 144.706 68.7675 145.77C67.7051 146.834 66.3509 147.559 64.8764 147.853C63.4018 148.147 61.8732 147.997 60.4839 147.422C59.0946 146.847 57.9071 145.873 57.0715 144.623C56.236 143.373 55.79 141.903 55.79 140.4C55.7926 138.387 56.5928 136.457 58.0154 135.032C59.4379 133.608 61.3669 132.805 63.38 132.8Z" fill="#EBEBEB"/>
<path d="M131.96 472.97C172.056 472.97 204.56 468.318 204.56 462.58C204.56 456.842 172.056 452.19 131.96 452.19C91.8641 452.19 59.36 456.842 59.36 462.58C59.36 468.318 91.8641 472.97 131.96 472.97Z" fill="#EBEBEB"/>
<path d="M396.16 351.23C388.76 336.02 375.81 328.23 361.16 332.52C346.51 336.81 344.3 357.19 355.16 362.33C366.02 367.47 376.95 352.47 382.71 349.38C388.47 346.29 396.16 351.23 396.16 351.23Z" fill="#47B88F"/>
<path d="M403.33 391.73C403.33 389.9 403.22 388.06 403.15 386.23C403.02 382.57 402.9 378.91 402.77 375.23C402.52 368.54 401.77 361.96 399.02 355.79C396.57 350.193 392.475 345.474 387.28 342.26C385.354 341.093 383.279 340.195 381.11 339.59C379.148 337.582 376.642 336.192 373.9 335.59C370.522 334.904 367.049 334.816 363.64 335.33C363.51 335.33 363.52 335.54 363.64 335.52C366.894 335.108 370.197 335.342 373.36 336.21C374.711 336.589 376.021 337.102 377.27 337.74C378.056 338.162 378.812 338.64 379.53 339.17C376.585 338.561 373.543 338.592 370.61 339.26C369.554 339.507 368.521 339.842 367.52 340.26C366.719 340.086 365.899 340.016 365.08 340.05C364.014 340.09 362.955 340.24 361.92 340.5C359.808 341.095 357.789 341.98 355.92 343.13C355.81 343.19 355.92 343.35 356.02 343.29C357.862 342.286 359.834 341.542 361.88 341.08C362.868 340.858 363.87 340.711 364.88 340.64C365.44 340.61 366 340.61 366.56 340.64C362.399 342.561 359.054 345.895 357.12 350.05C357.07 350.16 357.24 350.26 357.29 350.14C358.44 347.737 360.116 345.623 362.193 343.954C364.27 342.285 366.695 341.105 369.29 340.5C369.61 340.42 369.94 340.38 370.29 340.31C370.18 340.78 370.2 341.31 370.14 341.78C370.04 342.52 369.92 343.26 369.77 343.99C369.464 345.499 369.067 346.989 368.58 348.45C368.086 349.924 367.495 351.364 366.81 352.76C366.158 354.244 365.328 355.645 364.34 356.93C364.329 356.94 364.32 356.953 364.314 356.967C364.308 356.981 364.306 356.996 364.307 357.011C364.308 357.026 364.312 357.041 364.319 357.054C364.327 357.067 364.337 357.079 364.35 357.087C364.362 357.096 364.377 357.101 364.392 357.104C364.407 357.106 364.422 357.105 364.436 357.1C364.451 357.096 364.464 357.088 364.475 357.077C364.486 357.067 364.495 357.054 364.5 357.04C365.37 355.67 366.39 354.4 367.19 352.98C367.968 351.618 368.636 350.197 369.19 348.73C369.752 347.25 370.187 345.724 370.49 344.17C370.66 343.35 370.78 342.52 370.88 341.69C370.975 341.193 371.005 340.685 370.97 340.18C372.685 339.922 374.426 339.889 376.15 340.08C375.51 343.71 374.81 347.49 372.78 350.64C372.71 350.75 372.89 350.85 372.95 350.73C373.901 349.059 374.736 347.325 375.45 345.54C376.123 343.809 376.547 341.99 376.71 340.14C379.723 340.544 382.632 341.518 385.28 343.01C390.264 345.913 394.244 350.266 396.69 355.49C399.265 361.12 400.703 367.203 400.92 373.39C401.4 381.16 401.5 388.99 402.28 396.74C402.33 397.25 403.13 397.42 403.28 396.84C403.451 395.142 403.468 393.431 403.33 391.73Z" fill="#263238"/>
<path d="M386.22 341.05C385.732 340.457 385.167 339.932 384.54 339.49C383.93 338.99 383.31 338.49 382.66 338.07C381.379 337.178 379.96 336.502 378.46 336.07C378.34 336.07 378.29 336.24 378.46 336.26C379.966 336.633 381.379 337.314 382.61 338.26C383.23 338.72 383.82 339.2 384.4 339.71C384.914 340.249 385.484 340.731 386.1 341.15C386.16 341.29 386.3 341.16 386.22 341.05Z" fill="#263238"/>
<path d="M362.6 346.56C361.376 347.986 360.241 349.485 359.2 351.05C358.193 352.627 357.349 354.302 356.68 356.05C356.68 356.1 356.74 356.13 356.77 356.05C358.475 352.738 360.484 349.591 362.77 346.65C362.82 346.6 362.68 346.47 362.6 346.56Z" fill="#263238"/>
<path d="M378.52 345.06C378.365 346.009 378.086 346.933 377.69 347.81C377.281 348.657 376.81 349.472 376.28 350.25C376.28 350.3 376.28 350.35 376.36 350.31C377.64 348.843 378.458 347.03 378.71 345.1C378.73 345 378.54 344.93 378.52 345.06Z" fill="#263238"/>
<path d="M402.3 351.61C402.3 351.61 412.78 338.43 433 343.1C452.23 347.54 461.1 382.8 441.68 387.01C422.26 391.22 425.68 358.61 418.59 353.07C413.4 349 405.93 349.88 402.3 351.61Z" fill="#47B88F"/>
<path d="M448.63 362.36C447.311 361.204 445.918 360.135 444.46 359.16C443.087 358.223 441.593 357.477 440.02 356.94C439.229 355.744 438.346 354.61 437.38 353.55C435.594 351.635 433.535 349.994 431.27 348.68H431.87C432.939 348.625 434.011 348.625 435.08 348.68C437.24 348.817 439.357 349.342 441.33 350.23C441.44 350.23 441.52 350.1 441.41 350.06C439.412 349.196 437.322 348.565 435.18 348.18C434.137 347.995 433.079 347.905 432.02 347.91C431.452 347.913 430.885 347.946 430.32 348.01H429.99C428.135 347.076 426.179 346.358 424.16 345.87L424.73 345.71C425.721 345.496 426.722 345.333 427.73 345.22C429.746 344.99 431.782 345.02 433.79 345.31C433.81 345.303 433.827 345.291 433.84 345.274C433.852 345.257 433.859 345.236 433.859 345.215C433.859 345.194 433.852 345.173 433.84 345.156C433.827 345.139 433.81 345.127 433.79 345.12C431.759 344.88 429.713 344.8 427.67 344.88C425.955 344.927 424.25 345.148 422.58 345.54C421.365 345.315 420.135 345.174 418.9 345.12C411.84 344.82 404.15 347.45 399.81 353.25C395.47 359.05 394.62 366.79 393.81 373.79C392.624 383.547 392.366 393.394 393.04 403.2C393.04 403.77 393.9 403.67 393.91 403.12C394.18 394.81 394.47 386.49 395.27 378.21C395.64 374.37 396.04 370.52 396.68 366.72C397.149 363.449 398.088 360.262 399.47 357.26C400.971 354.192 403.348 351.638 406.3 349.92C409.26 348.214 412.564 347.189 415.97 346.92C419.02 346.664 422.091 346.952 425.04 347.77C424.934 348.361 424.917 348.964 424.99 349.56C425.06 350.311 425.211 351.052 425.44 351.77C425.655 352.462 425.936 353.132 426.28 353.77C426.66 354.46 427.13 355.08 427.55 355.77C427.61 355.87 427.78 355.77 427.7 355.66C426.87 354.469 426.332 353.098 426.13 351.66C426.01 350.979 425.93 350.291 425.89 349.6C425.89 349.08 425.89 348.55 425.89 348.03C429.099 349.018 432.094 350.599 434.72 352.69C435.21 353.09 435.72 353.5 436.15 353.93C435.484 354.552 434.905 355.262 434.43 356.04C433.738 357.052 433.135 358.123 432.63 359.24C431.702 361.481 431.073 363.835 430.76 366.24C430.76 366.36 430.94 366.4 430.95 366.24C431.327 363.903 432.109 361.649 433.26 359.58C433.792 358.543 434.39 357.541 435.05 356.58C435.39 356.1 435.74 355.58 436.11 355.15C436.31 354.9 436.53 354.64 436.71 354.37C439.09 356.699 441.034 359.436 442.45 362.45C441.484 363.502 440.691 364.7 440.1 366C439.376 367.287 438.744 368.623 438.21 370C437.233 372.694 436.425 375.446 435.79 378.24C435.79 378.36 435.96 378.4 435.98 378.24C436.599 375.422 437.563 372.692 438.85 370.11C439.46 368.85 440.1 367.6 440.77 366.37C441.468 365.226 442.102 364.044 442.67 362.83C444.016 365.782 444.8 368.96 444.98 372.2C444.98 372.32 445.18 372.31 445.17 372.2C444.798 367.118 443.243 362.194 440.63 357.82C441.87 358.35 443.11 358.82 444.3 359.5C445.821 360.319 447.232 361.327 448.5 362.5C448.59 362.59 448.72 362.44 448.63 362.36Z" fill="#263238"/>
<path d="M433.79 363.1C433.19 365.1 432.42 367.04 431.87 369.1C431.325 371.021 431.033 373.004 431 375C431 375.06 431.09 375.06 431.1 375C431.649 370.963 432.621 366.994 434 363.16C434.004 363.146 434.005 363.132 434.003 363.117C434.002 363.103 433.997 363.089 433.99 363.077C433.983 363.064 433.974 363.053 433.963 363.044C433.952 363.036 433.939 363.029 433.925 363.025C433.911 363.021 433.897 363.02 433.883 363.021C433.868 363.023 433.855 363.028 433.842 363.034C433.829 363.041 433.818 363.051 433.809 363.062C433.801 363.073 433.794 363.086 433.79 363.1Z" fill="#263238"/>
<path d="M446.61 358.15C445.816 357.385 444.913 356.741 443.93 356.24C442.93 355.784 441.893 355.416 440.83 355.14C440.71 355.14 440.67 355.3 440.83 355.33C441.883 355.598 442.892 356.012 443.83 356.56C444.786 357.056 445.705 357.621 446.58 358.25C446.59 358.248 446.6 358.242 446.608 358.235C446.615 358.228 446.621 358.219 446.624 358.209C446.627 358.198 446.628 358.188 446.625 358.177C446.623 358.167 446.617 358.158 446.61 358.15Z" fill="#263238"/>
<path d="M412.26 334C412.26 334 414.19 310.34 431.78 302.67C446.47 296.27 454.88 312.77 444.5 322.88C436.1 331.06 422.63 327.37 412.26 334Z" fill="#47B88F"/>
<path d="M441.25 307.26C438.57 308.344 435.956 309.583 433.42 310.97C431.316 312.176 429.289 313.512 427.35 314.97C427.64 314.37 427.89 313.75 428.19 313.16C428.65 312.25 429.14 311.35 429.68 310.49C430.762 308.697 432.065 307.047 433.56 305.58C433.65 305.5 433.5 305.36 433.42 305.45C431.93 306.917 430.566 308.506 429.34 310.2C428.734 311.058 428.177 311.95 427.67 312.87C427.151 313.722 426.751 314.64 426.48 315.6L426.29 315.74C423.218 318.187 420.403 320.942 417.89 323.96C417.94 323.73 417.98 323.5 418.05 323.28C418.38 322.13 418.73 320.98 419.11 319.84C419.871 317.414 420.94 315.095 422.29 312.94C422.36 312.84 422.19 312.74 422.12 312.85C420.74 315.006 419.51 317.255 418.44 319.58C417.949 320.715 417.541 321.885 417.22 323.08C416.966 323.857 416.775 324.653 416.65 325.46C415.88 326.46 415.13 327.41 414.42 328.46C406.87 339.21 403.08 352.21 402.17 365.23C401.903 369.107 401.837 372.996 401.97 376.88C401.988 380.801 402.322 384.713 402.97 388.58C403.02 388.83 403.4 388.75 403.4 388.51C403.31 385.09 402.96 381.69 402.89 378.27C402.825 374.84 402.935 371.409 403.22 367.99C403.772 361.161 405.059 354.412 407.06 347.86C409.103 341.145 412.115 334.765 416 328.92C416.74 328.77 417.48 328.57 418.21 328.38C418.94 328.19 419.97 327.93 420.84 327.69C422.529 327.253 424.17 326.651 425.74 325.89C425.751 325.883 425.76 325.875 425.767 325.865C425.774 325.855 425.779 325.843 425.782 325.831C425.785 325.819 425.785 325.807 425.783 325.794C425.781 325.782 425.777 325.771 425.77 325.76C425.763 325.75 425.755 325.74 425.745 325.733C425.735 325.726 425.723 325.721 425.711 325.718C425.699 325.715 425.687 325.715 425.674 325.717C425.662 325.719 425.651 325.723 425.64 325.73C424.081 326.576 422.391 327.154 420.64 327.44C419.26 327.72 417.83 327.89 416.45 328.21C417.73 326.35 419.09 324.55 420.54 322.83C423.891 323.134 427.27 322.884 430.54 322.09C432.28 321.669 433.99 321.134 435.66 320.49C437.43 319.81 439.09 318.94 440.83 318.21C440.853 318.199 440.87 318.18 440.878 318.157C440.887 318.133 440.886 318.108 440.875 318.085C440.864 318.062 440.845 318.045 440.822 318.037C440.798 318.028 440.773 318.029 440.75 318.04C437.601 319.757 434.164 320.882 430.61 321.36C427.471 321.864 424.299 322.125 421.12 322.14C422.37 320.71 423.66 319.31 425.04 318C429.66 313.6 435.15 309.56 441.23 307.45C441.42 307.41 441.36 307.22 441.25 307.26Z" fill="#263238"/>
<path d="M426.93 307.34C426.134 308.336 425.412 309.389 424.77 310.49C424.115 311.65 423.595 312.881 423.22 314.16C423.22 314.16 423.22 314.23 423.29 314.16C423.88 313 424.37 311.79 424.97 310.64C425.551 309.5 426.255 308.427 427.07 307.44C427.15 307.37 427 307.24 426.93 307.34Z" fill="#263238"/>
<path d="M443.29 315.21C442.147 315.846 440.936 316.353 439.68 316.72C438.476 317.122 437.251 317.456 436.01 317.72C435.95 317.72 435.96 317.83 436.01 317.82C437.307 317.684 438.584 317.406 439.82 316.99C441.037 316.526 442.226 315.992 443.38 315.39C443.5 315.32 443.4 315.15 443.29 315.21Z" fill="#263238"/>
<path d="M398.58 329.76C398.47 330.76 395.92 321.16 381.04 312.63C367.54 304.88 351.41 284.72 364.66 271.98C375.35 261.7 403.52 284.11 398.58 329.76Z" fill="#47B88F"/>
<path d="M408.82 384.87C408.602 374.877 407.814 364.904 406.46 355C405.284 345.885 403.176 336.915 400.17 328.23C399.07 325.1 397.8 322.03 396.43 319C396.505 317.82 396.485 316.637 396.37 315.46C396.3 313.94 396.16 312.46 396.02 310.92C395.88 309.38 395.73 307.92 395.55 306.39C395.37 304.86 395.05 303.39 394.99 301.88C394.995 301.865 394.996 301.849 394.994 301.833C394.991 301.818 394.985 301.803 394.976 301.79C394.967 301.777 394.955 301.767 394.94 301.76C394.926 301.753 394.911 301.749 394.895 301.749C394.879 301.749 394.864 301.753 394.85 301.76C394.835 301.767 394.823 301.777 394.814 301.79C394.805 301.803 394.799 301.818 394.796 301.833C394.794 301.849 394.795 301.865 394.8 301.88C395.097 303.461 395.274 305.062 395.33 306.67C395.45 308.13 395.53 309.59 395.57 311.05C395.62 312.52 395.57 313.98 395.57 315.45C395.57 315.97 395.57 316.53 395.52 317.1C394.13 314.1 392.63 311.23 391 308.4C392 302.23 390.7 295.78 389.44 289.75C389.44 289.63 389.23 289.69 389.26 289.81C389.883 292.96 390.218 296.16 390.26 299.37C390.32 301.9 390.2 304.43 390.19 306.96C389.83 306.36 389.48 305.75 389.11 305.15C387.18 302 385.11 298.91 382.93 295.92C383.109 294.458 383.062 292.978 382.79 291.53C382.545 289.903 382.184 288.296 381.71 286.72C381.23 285.15 380.71 283.6 380.06 282.08C379.41 280.56 378.56 279.03 377.94 277.47C377.88 277.33 377.69 277.47 377.76 277.54C378.555 279.021 379.179 280.588 379.62 282.21C380.117 283.728 380.524 285.274 380.84 286.84C381.16 288.4 381.41 289.97 381.63 291.56C381.78 292.56 381.87 293.69 382.05 294.74C378.866 290.463 375.388 286.413 371.64 282.62C371.55 282.53 371.42 282.67 371.5 282.76C377.172 289.135 382.237 296.025 386.63 303.34L387.1 304.16C386.28 303.65 385.34 303.24 384.57 302.81L380.24 300.43L376.02 298.13C375.3 297.73 374.59 297.31 373.85 296.93C372.973 296.538 372.13 296.073 371.33 295.54C371.31 295.525 371.285 295.519 371.261 295.523C371.236 295.527 371.215 295.54 371.2 295.56C371.185 295.58 371.179 295.605 371.183 295.629C371.187 295.654 371.2 295.675 371.22 295.69C372.65 296.48 373.92 297.69 375.3 298.53C376.68 299.37 378.1 300.27 379.55 301.08C382.19 302.55 385.06 303.61 387.67 305.14C389.47 308.3 391.137 311.537 392.67 314.85C391.09 313.85 389.48 312.85 387.84 311.95C386.79 311.36 385.73 310.78 384.66 310.22C383.597 309.728 382.591 309.121 381.66 308.41C381.641 308.401 381.619 308.398 381.598 308.402C381.577 308.406 381.558 308.416 381.543 308.432C381.529 308.448 381.52 308.468 381.517 308.489C381.515 308.51 381.519 308.532 381.53 308.55C383.262 310.117 385.184 311.461 387.25 312.55C389.16 313.67 391.09 314.75 393.08 315.72C394.667 319.213 396.1 322.763 397.38 326.37C403.64 344.1 405.94 362.92 407.04 381.61C407.37 387.18 407.54 392.75 407.61 398.33C407.68 403.91 407.38 409.47 407.39 415.04C407.39 415.2 407.66 415.24 407.69 415.04C408.36 410.1 408.47 405.04 408.69 400.1C408.91 395.16 408.93 389.94 408.82 384.87Z" fill="#263238"/>
<path d="M381.79 304.61C379.075 303.414 376.437 302.051 373.89 300.53C371.306 299.07 368.8 297.478 366.38 295.76C366.38 295.76 366.3 295.76 366.33 295.83C368.616 297.659 371.025 299.33 373.54 300.83C376.176 302.301 378.901 303.607 381.7 304.74C381.82 304.83 381.91 304.66 381.79 304.61Z" fill="#263238"/>
<path d="M386.1 284.57C385.88 283.71 385.61 282.86 385.32 282.02C385.329 282.005 385.333 281.988 385.333 281.97C385.333 281.952 385.329 281.935 385.32 281.92C385.13 281.44 384.93 280.92 384.74 280.49L384.67 280.31C384.67 280.22 384.59 280.13 384.56 280.04C384.53 279.95 384.5 280.04 384.51 280.04C384.52 280.04 384.6 280.37 384.65 280.53C384.672 280.621 384.699 280.711 384.73 280.8C385.716 284.107 386.454 287.483 386.94 290.9C386.94 291.01 387.12 291.01 387.11 290.9C386.972 288.763 386.634 286.644 386.1 284.57Z" fill="#263238"/>
<path d="M424.54 388.47L423.48 401.05L420.23 439.42H385.42L382.17 401.05L381.11 388.47H424.54Z" fill="#37474F"/>
<path d="M424.54 388.47L423.48 401.05H382.17L381.11 388.47H424.54Z" fill="#263238"/>
<path d="M427.95 383.42H377.69V395.49H427.95V383.42Z" fill="#37474F"/>
<path d="M47.44 439.42L98.08 439.18L148.72 439.09L250 438.92L351.28 439.08L401.92 439.17L452.56 439.42L401.92 439.66L351.28 439.75L250 439.92L148.72 439.75L98.08 439.66L47.44 439.42Z" fill="#263238"/>
<path d="M334.51 56.5701H165.51C163.238 56.5844 160.992 57.0471 158.899 57.9316C156.807 58.8161 154.909 60.1049 153.316 61.7243C151.723 63.3436 150.465 65.2616 149.614 67.3681C148.764 69.4747 148.338 71.7284 148.36 74.0001V422C148.32 426.579 150.1 430.986 153.308 434.252C156.517 437.519 160.891 439.378 165.47 439.42H334.47C336.741 439.404 338.987 438.941 341.08 438.057C343.172 437.173 345.07 435.885 346.664 434.268C348.259 432.65 349.519 430.734 350.373 428.629C351.227 426.524 351.657 424.271 351.64 422V74.0001C351.66 71.7308 351.232 69.4799 350.382 67.3758C349.532 65.2717 348.276 63.3557 346.685 61.7371C345.094 60.1186 343.2 58.8292 341.111 57.9427C339.022 57.0561 336.779 56.5897 334.51 56.5701ZM340.94 411.24C340.94 420.4 334.08 427.81 325.62 427.81H174.39C165.91 427.81 159.05 420.4 159.05 411.24V87.1801C159.05 68.5201 165.91 67.6101 174.39 67.6101H204.68C206.44 67.6101 207.88 69.6101 207.88 72.0901V73.1601C207.88 79.0001 211.06 79.0001 215 79.0001H285C288.93 79.0001 292.09 79.0001 292.09 73.1701V72.0901C292.09 69.6101 293.5 67.6101 295.29 67.6101H325.59C334.05 67.6101 340.91 70.0901 340.91 87.1801L340.94 411.24Z" fill="#263238"/>
<path d="M259.55 71.7301H240.44C240.285 71.7301 240.132 71.6996 239.988 71.6403C239.845 71.581 239.715 71.4941 239.606 71.3845C239.496 71.2749 239.409 71.1448 239.35 71.0017C239.291 70.8585 239.26 70.7051 239.26 70.5501C239.26 70.2372 239.384 69.937 239.606 69.7157C239.827 69.4944 240.127 69.3701 240.44 69.3701H259.55C259.863 69.3701 260.163 69.4944 260.384 69.7157C260.606 69.937 260.73 70.2372 260.73 70.5501C260.73 70.7051 260.699 70.8585 260.64 71.0017C260.581 71.1448 260.494 71.2749 260.384 71.3845C260.275 71.4941 260.145 71.581 260.002 71.6403C259.858 71.6996 259.705 71.7301 259.55 71.7301Z" fill="white"/>
<path d="M341 87.1801V411.24C341 420.4 334.14 427.81 325.68 427.81H174.39C165.91 427.81 159.05 420.4 159.05 411.24V87.1801C159.05 68.5201 165.91 67.6101 174.39 67.6101H204.68C206.44 67.6101 207.88 69.6101 207.88 72.0901V73.1601C207.88 79.0001 211.06 79.0001 215 79.0001H285C288.94 79.0001 292.09 79.0001 292.09 73.1701V72.0901C292.09 69.6101 293.51 67.6101 295.3 67.6101H325.6C334.09 67.6101 341 70.0901 341 87.1801Z" fill="white"/>
<path d="M177.46 99.55L172.08 94.52L177.46 89.48L178.29 90.37L173.87 94.52L178.29 98.67L177.46 99.55Z" fill="#C7C7C7"/>
<path d="M326.86 91.3801C326.86 91.5898 326.798 91.7947 326.681 91.969C326.565 92.1433 326.399 92.2792 326.206 92.3594C326.012 92.4397 325.799 92.4606 325.593 92.4197C325.388 92.3788 325.199 92.2779 325.05 92.1296C324.902 91.9814 324.801 91.7925 324.76 91.5869C324.719 91.3813 324.74 91.1682 324.821 90.9745C324.901 90.7808 325.037 90.6152 325.211 90.4988C325.385 90.3823 325.59 90.3201 325.8 90.3201C325.94 90.3188 326.078 90.3453 326.207 90.3981C326.336 90.4509 326.454 90.5289 326.553 90.6276C326.651 90.7263 326.729 90.8437 326.782 90.9729C326.835 91.1021 326.861 91.2405 326.86 91.3801Z" fill="#C7C7C7"/>
<path d="M326.86 95.1401C326.86 95.3498 326.798 95.5547 326.681 95.729C326.565 95.9033 326.399 96.0392 326.206 96.1194C326.012 96.1997 325.799 96.2207 325.593 96.1798C325.388 96.1389 325.199 96.0379 325.05 95.8897C324.902 95.7414 324.801 95.5525 324.76 95.3469C324.719 95.1413 324.74 94.9282 324.821 94.7345C324.901 94.5408 325.037 94.3752 325.211 94.2588C325.385 94.1423 325.59 94.0801 325.8 94.0801C325.94 94.0788 326.078 94.1053 326.207 94.1581C326.336 94.2109 326.454 94.2889 326.553 94.3876C326.651 94.4863 326.729 94.6037 326.782 94.7329C326.835 94.8621 326.861 95.0006 326.86 95.1401Z" fill="#C7C7C7"/>
<path d="M326.86 98.9001C326.86 99.1098 326.798 99.3147 326.681 99.489C326.565 99.6634 326.399 99.7992 326.206 99.8795C326.012 99.9597 325.799 99.9807 325.593 99.9398C325.388 99.8989 325.199 99.7979 325.05 99.6497C324.902 99.5014 324.801 99.3126 324.76 99.1069C324.719 98.9013 324.74 98.6882 324.821 98.4945C324.901 98.3008 325.037 98.1353 325.211 98.0188C325.385 97.9023 325.59 97.8401 325.8 97.8401C325.94 97.8388 326.078 97.8653 326.207 97.9181C326.336 97.9709 326.454 98.0489 326.553 98.1476C326.651 98.2463 326.729 98.3637 326.782 98.4929C326.835 98.6221 326.861 98.7606 326.86 98.9001Z" fill="#C7C7C7"/>
<path d="M199.45 74.89L199.16 75.18L198.99 75.34C198.241 74.595 197.227 74.1769 196.17 74.1769C195.113 74.1769 194.099 74.595 193.35 75.34L193.19 75.17L192.9 74.88L193.27 74.55C193.538 74.3422 193.826 74.1613 194.13 74.01C194.49 73.8286 194.874 73.7006 195.27 73.63C195.455 73.5928 195.642 73.5661 195.83 73.55H196.33H196.71C197.068 73.593 197.421 73.6768 197.76 73.8C198.002 73.8916 198.236 74.0019 198.46 74.13C198.697 74.2659 198.921 74.4233 199.13 74.6L199.44 74.88L199.45 74.89Z" fill="#C7C7C7"/>
<path d="M194.28 76.2601L193.81 75.8001C194.438 75.1772 195.286 74.8276 196.17 74.8276C197.054 74.8276 197.902 75.1772 198.53 75.8001L198.06 76.2601C197.558 75.7605 196.878 75.4801 196.17 75.4801C195.462 75.4801 194.782 75.7605 194.28 76.2601Z" fill="#C7C7C7"/>
<path d="M197.6 76.73L197.14 77.18C197.008 77.0506 196.852 76.9487 196.68 76.88C196.508 76.8114 196.325 76.7774 196.14 76.78C195.954 76.7764 195.77 76.8109 195.598 76.8814C195.426 76.9519 195.27 77.057 195.14 77.19C194.99 77.03 194.83 76.88 194.68 76.73C194.867 76.5302 195.093 76.3709 195.344 76.262C195.595 76.1531 195.866 76.0969 196.14 76.0969C196.414 76.0969 196.685 76.1531 196.936 76.262C197.187 76.3709 197.413 76.5302 197.6 76.73Z" fill="#C7C7C7"/>
<path d="M196.59 77.6001C196.59 77.7115 196.546 77.8183 196.467 77.897C196.388 77.9758 196.281 78.0201 196.17 78.0201C196.115 78.0201 196.061 78.0091 196.011 77.9879C195.96 77.9667 195.915 77.9356 195.877 77.8965C195.838 77.8573 195.808 77.8109 195.788 77.76C195.768 77.7091 195.759 77.6547 195.76 77.6001C195.76 77.4913 195.803 77.387 195.88 77.3102C195.957 77.2333 196.061 77.1901 196.17 77.1901C196.225 77.1887 196.279 77.1983 196.33 77.2184C196.381 77.2384 196.427 77.2684 196.466 77.3066C196.506 77.3448 196.537 77.3904 196.558 77.4408C196.579 77.4912 196.59 77.5454 196.59 77.6001Z" fill="#C7C7C7"/>
<path d="M170.91 75.77C170.91 75.5303 170.981 75.2959 171.115 75.0968C171.248 74.8976 171.438 74.7425 171.659 74.6512C171.881 74.5599 172.125 74.5365 172.36 74.584C172.595 74.6316 172.81 74.7478 172.979 74.918C173.148 75.0882 173.262 75.3048 173.308 75.5402C173.354 75.7755 173.328 76.0191 173.235 76.24C173.142 76.461 172.985 76.6492 172.785 76.781C172.585 76.9127 172.35 76.982 172.11 76.98C171.952 76.98 171.795 76.9487 171.648 76.8877C171.502 76.8268 171.369 76.7375 171.258 76.625C171.146 76.5125 171.058 76.3791 170.998 76.2323C170.939 76.0856 170.909 75.9284 170.91 75.77Z" fill="#C7C7C7"/>
<path d="M174.7 75.7701C174.704 75.5317 174.778 75.2997 174.914 75.1034C175.049 74.907 175.239 74.7551 175.461 74.6665C175.682 74.578 175.925 74.5569 176.158 74.6058C176.391 74.6547 176.605 74.7715 176.772 74.9415C176.94 75.1115 177.053 75.3271 177.098 75.5613C177.143 75.7954 177.118 76.0377 177.026 76.2576C176.934 76.4776 176.779 76.6654 176.58 76.7975C176.382 76.9296 176.148 77 175.91 77.0001C175.749 77.0001 175.59 76.9682 175.442 76.9061C175.294 76.844 175.16 76.7531 175.047 76.6386C174.935 76.5242 174.846 76.3884 174.786 76.2393C174.727 76.0902 174.697 75.9307 174.7 75.7701Z" fill="#C7C7C7"/>
<path d="M178.5 75.7701C178.504 75.5317 178.578 75.2997 178.714 75.1034C178.849 74.907 179.039 74.7551 179.261 74.6665C179.482 74.578 179.725 74.5569 179.958 74.6058C180.191 74.6547 180.405 74.7715 180.572 74.9415C180.74 75.1115 180.853 75.3271 180.898 75.5613C180.943 75.7954 180.918 76.0377 180.826 76.2576C180.734 76.4776 180.579 76.6654 180.38 76.7975C180.182 76.9296 179.948 77 179.71 77.0001C179.549 77.0001 179.39 76.9682 179.242 76.9061C179.094 76.844 178.96 76.7531 178.847 76.6386C178.735 76.5242 178.646 76.3884 178.586 76.2393C178.527 76.0902 178.497 75.9307 178.5 75.7701Z" fill="#C7C7C7"/>
<path d="M182.3 75.77C182.304 75.5312 182.379 75.2989 182.514 75.1023C182.65 74.9058 182.841 74.7538 183.063 74.6656C183.285 74.5774 183.528 74.5569 183.762 74.6066C183.995 74.6563 184.209 74.7741 184.376 74.9451C184.543 75.1161 184.655 75.3326 184.699 75.5674C184.743 75.8022 184.717 76.0448 184.623 76.2645C184.529 76.4843 184.373 76.6714 184.173 76.8023C183.973 76.9332 183.739 77.002 183.5 77C183.34 77.0001 183.181 76.9681 183.034 76.9059C182.886 76.8437 182.753 76.7527 182.641 76.638C182.529 76.5234 182.441 76.3875 182.383 76.2385C182.324 76.0894 182.296 75.9301 182.3 75.77Z" fill="#C7C7C7"/>
<path d="M186.1 75.77C186.104 75.5312 186.178 75.2989 186.314 75.1023C186.45 74.9058 186.641 74.7538 186.863 74.6656C187.085 74.5774 187.328 74.5569 187.562 74.6066C187.795 74.6563 188.009 74.7741 188.176 74.9451C188.343 75.1161 188.455 75.3326 188.499 75.5674C188.543 75.8022 188.517 76.0448 188.423 76.2645C188.329 76.4843 188.173 76.6714 187.973 76.8023C187.773 76.9332 187.539 77.002 187.3 77C187.14 77.0001 186.981 76.9681 186.834 76.9059C186.686 76.8437 186.552 76.7527 186.441 76.638C186.329 76.5234 186.241 76.3875 186.183 76.2385C186.124 76.0894 186.096 75.9301 186.1 75.77Z" fill="#C7C7C7"/>
<path d="M327.31 78.4101H317.48V73.8501H327.31V78.4101ZM318 77.9001H326.8V74.3601H318V77.9001Z" fill="#C7C7C7"/>
<path d="M324.63 74.6301H318.3V77.6301H324.63V74.6301Z" fill="#C7C7C7"/>
<path d="M328.18 74.9102H327.31V77.3401H328.18V74.9102Z" fill="#C7C7C7"/>
<path d="M186.69 408H185.3V414.35H182.72V411.11H178.14V414.35H175.56V408H174.18L180.43 401.53L186.69 408Z" fill="#EBEBEB"/>
<path d="M325.83 401.53H310.75V403.68H325.83V401.53Z" fill="#EBEBEB"/>
<path d="M325.83 406.86H310.75V409.01H325.83V406.86Z" fill="#EBEBEB"/>
<path d="M325.83 412.19H310.75V414.34H325.83V412.19Z" fill="#EBEBEB"/>
<path d="M254.29 407.08L250 411.66L245.71 407.08L246.47 406.38L250 410.14L253.53 406.38L254.29 407.08Z" fill="#EBEBEB"/>
<path d="M250 416.39C248.459 416.39 246.953 415.933 245.672 415.077C244.391 414.221 243.393 413.005 242.803 411.581C242.213 410.158 242.059 408.591 242.36 407.08C242.66 405.569 243.402 404.181 244.492 403.092C245.581 402.002 246.969 401.26 248.48 400.96C249.991 400.659 251.558 400.813 252.981 401.403C254.405 401.993 255.621 402.991 256.477 404.272C257.333 405.553 257.79 407.059 257.79 408.6C257.785 410.664 256.962 412.643 255.503 414.103C254.043 415.562 252.064 416.385 250 416.39ZM250 401.84C248.663 401.84 247.356 402.237 246.244 402.979C245.133 403.722 244.266 404.778 243.755 406.013C243.243 407.248 243.109 408.608 243.37 409.919C243.631 411.23 244.275 412.435 245.22 413.38C246.165 414.325 247.37 414.969 248.681 415.23C249.992 415.491 251.352 415.357 252.587 414.845C253.822 414.334 254.878 413.467 255.621 412.356C256.364 411.244 256.76 409.937 256.76 408.6C256.76 406.807 256.048 405.088 254.78 403.82C253.512 402.552 251.793 401.84 250 401.84Z" fill="#EBEBEB"/>
<path d="M238.37 380.61C238.37 381.124 238.217 381.627 237.932 382.054C237.646 382.482 237.24 382.815 236.765 383.012C236.29 383.209 235.767 383.26 235.263 383.16C234.758 383.06 234.295 382.812 233.932 382.449C233.568 382.085 233.32 381.622 233.22 381.117C233.12 380.613 233.171 380.09 233.368 379.615C233.565 379.14 233.898 378.734 234.326 378.448C234.753 378.163 235.256 378.01 235.77 378.01C236.112 378.009 236.45 378.075 236.767 378.205C237.083 378.335 237.37 378.527 237.611 378.769C237.853 379.01 238.045 379.297 238.175 379.613C238.305 379.93 238.371 380.268 238.37 380.61Z" fill="#DBDBDB"/>
<path d="M254.22 380.61C254.22 381.389 253.989 382.151 253.556 382.799C253.123 383.447 252.508 383.952 251.788 384.25C251.068 384.548 250.276 384.626 249.511 384.474C248.747 384.322 248.045 383.947 247.494 383.396C246.943 382.845 246.568 382.143 246.416 381.379C246.264 380.615 246.342 379.822 246.64 379.102C246.938 378.382 247.443 377.767 248.091 377.334C248.739 376.901 249.501 376.67 250.28 376.67C251.325 376.67 252.327 377.085 253.066 377.824C253.805 378.563 254.22 379.565 254.22 380.61Z" fill="#47B88F"/>
<path d="M267.39 380.61C267.39 381.124 267.238 381.627 266.952 382.054C266.666 382.482 266.26 382.815 265.785 383.012C265.31 383.209 264.787 383.26 264.283 383.16C263.778 383.06 263.315 382.812 262.952 382.449C262.588 382.085 262.34 381.622 262.24 381.117C262.14 380.613 262.191 380.09 262.388 379.615C262.585 379.14 262.918 378.734 263.346 378.448C263.773 378.163 264.276 378.01 264.79 378.01C265.132 378.009 265.47 378.075 265.787 378.205C266.103 378.335 266.39 378.527 266.631 378.769C266.873 379.01 267.065 379.297 267.195 379.613C267.325 379.93 267.391 380.268 267.39 380.61Z" fill="#DBDBDB"/>
<path d="M284.53 308.17H214.35V330.49H284.53V308.17Z" fill="#47B88F"/>
<path d="M234 322.46V316.46C233.999 316.386 234.012 316.313 234.04 316.244C234.068 316.176 234.109 316.113 234.161 316.061C234.213 316.009 234.276 315.968 234.344 315.94C234.413 315.912 234.486 315.899 234.56 315.9C234.634 315.899 234.708 315.912 234.777 315.94C234.846 315.967 234.909 316.008 234.962 316.06C235.016 316.113 235.058 316.175 235.086 316.243C235.115 316.312 235.13 316.386 235.13 316.46V321.93H237.91C238.061 321.93 238.206 321.99 238.313 322.097C238.42 322.204 238.48 322.349 238.48 322.5C238.48 322.651 238.42 322.796 238.313 322.903C238.206 323.01 238.061 323.07 237.91 323.07H234.56C234.482 323.07 234.405 323.054 234.333 323.023C234.262 322.992 234.198 322.946 234.145 322.889C234.093 322.831 234.052 322.764 234.027 322.69C234.002 322.616 233.993 322.538 234 322.46Z" fill="white"/>
<path d="M245 316.74C245.666 317.438 246.038 318.365 246.038 319.33C246.038 320.295 245.666 321.222 245 321.92C244.692 322.263 244.316 322.538 243.896 322.727C243.476 322.916 243.021 323.016 242.56 323.02C242.088 323.019 241.622 322.921 241.19 322.732C240.759 322.542 240.37 322.266 240.05 321.92C239.395 321.217 239.031 320.291 239.031 319.33C239.031 318.369 239.395 317.443 240.05 316.74C240.369 316.392 240.757 316.115 241.189 315.925C241.621 315.736 242.088 315.639 242.56 315.64C243.021 315.642 243.477 315.741 243.897 315.931C244.317 316.12 244.693 316.396 245 316.74ZM244.87 319.33C244.87 318.667 244.62 318.028 244.17 317.54C243.967 317.314 243.719 317.132 243.442 317.006C243.164 316.881 242.864 316.814 242.56 316.81C242.248 316.809 241.938 316.873 241.652 316.999C241.367 317.125 241.11 317.309 240.9 317.54C240.447 318.026 240.196 318.666 240.2 319.33C240.194 319.992 240.445 320.63 240.9 321.11C241.11 321.343 241.366 321.529 241.652 321.656C241.938 321.784 242.247 321.85 242.56 321.85C242.865 321.845 243.165 321.776 243.442 321.649C243.72 321.521 243.967 321.338 244.17 321.11C244.607 320.621 244.842 319.985 244.83 319.33H244.87Z" fill="white"/>
<path d="M247.7 319.34C247.716 318.638 247.928 317.954 248.31 317.365C248.693 316.776 249.231 316.304 249.866 316.004C250.501 315.703 251.207 315.584 251.905 315.661C252.603 315.738 253.266 316.008 253.82 316.44C253.942 316.536 254.021 316.676 254.04 316.829C254.059 316.983 254.015 317.138 253.92 317.26C253.825 317.382 253.685 317.461 253.531 317.48C253.377 317.499 253.222 317.456 253.1 317.36C252.639 317.003 252.073 316.81 251.49 316.81C251.147 316.805 250.807 316.868 250.489 316.997C250.171 317.126 249.882 317.318 249.64 317.56C249.397 317.787 249.203 318.06 249.071 318.365C248.939 318.669 248.87 318.998 248.87 319.33C248.87 319.662 248.939 319.991 249.071 320.295C249.203 320.6 249.397 320.874 249.64 321.1C249.882 321.343 250.171 321.534 250.489 321.663C250.807 321.792 251.147 321.855 251.49 321.85C251.983 321.847 252.466 321.712 252.89 321.46V320.06H251.42C251.266 320.055 251.12 319.991 251.012 319.881C250.904 319.771 250.842 319.624 250.84 319.47C250.843 319.318 250.905 319.173 251.013 319.066C251.122 318.96 251.268 318.9 251.42 318.9H253.42C253.497 318.897 253.574 318.91 253.646 318.937C253.718 318.965 253.784 319.006 253.84 319.059C253.895 319.112 253.94 319.176 253.971 319.246C254.002 319.317 254.019 319.393 254.02 319.47V321.74C254.026 321.797 254.026 321.854 254.02 321.91C253.984 322.014 253.913 322.102 253.82 322.16C253.268 322.592 252.608 322.862 251.911 322.941C251.215 323.019 250.511 322.902 249.877 322.604C249.243 322.305 248.705 321.836 248.322 321.249C247.94 320.662 247.728 319.98 247.71 319.28L247.7 319.34Z" fill="white"/>
<path d="M256.44 316.41C256.439 316.336 256.452 316.263 256.48 316.194C256.508 316.126 256.549 316.063 256.601 316.011C256.653 315.959 256.716 315.918 256.784 315.89C256.853 315.862 256.926 315.849 257 315.85C257.075 315.849 257.149 315.862 257.219 315.89C257.289 315.917 257.352 315.958 257.406 316.01C257.46 316.062 257.503 316.124 257.533 316.193C257.563 316.261 257.579 316.335 257.58 316.41V322.41C257.575 322.561 257.511 322.703 257.403 322.807C257.295 322.912 257.15 322.97 257 322.97C256.926 322.972 256.853 322.958 256.784 322.93C256.716 322.903 256.653 322.861 256.601 322.809C256.549 322.757 256.508 322.695 256.48 322.626C256.452 322.558 256.439 322.484 256.44 322.41V316.41Z" fill="white"/>
<path d="M260.62 322.46C260.62 322.609 260.561 322.751 260.456 322.856C260.351 322.961 260.209 323.02 260.06 323.02C259.911 323.02 259.769 322.961 259.664 322.856C259.559 322.751 259.5 322.609 259.5 322.46V316.46C259.498 316.369 259.518 316.279 259.558 316.197C259.598 316.115 259.657 316.044 259.73 315.99C259.851 315.908 259.999 315.875 260.144 315.897C260.288 315.919 260.419 315.995 260.51 316.11L263.82 320.69V316.5C263.82 316.428 263.834 316.356 263.862 316.29C263.89 316.223 263.93 316.162 263.981 316.111C264.032 316.06 264.093 316.019 264.16 315.992C264.226 315.964 264.298 315.95 264.37 315.95C264.517 315.95 264.658 316.008 264.762 316.11C264.867 316.213 264.927 316.353 264.93 316.5V322.5C264.927 322.648 264.868 322.789 264.763 322.893C264.659 322.998 264.518 323.057 264.37 323.06C264.289 323.059 264.209 323.039 264.136 323.003C264.063 322.967 264 322.914 263.95 322.85L263.9 322.79L260.62 318.24V322.46Z" fill="white"/>
<path d="M267 135.39V142.7H261.83V135.39C261.83 128.39 256.54 122.78 250.04 122.78C243.54 122.78 238.25 128.43 238.25 135.39V153.69H233V135.39C233 125.39 240.61 117.32 250 117.32C259.39 117.32 267 125.43 267 135.39Z" fill="#C7C7C7"/>
<path d="M233.04 142.72L238.21 142.93V153.69H233.04V142.72Z" fill="#A6A6A6"/>
<path d="M273.59 147.56H226.41V190.36H273.59V147.56Z" fill="#47B88F"/>
<path opacity="0.1" d="M273.59 147.56H250V190.36H273.59V147.56Z" fill="black"/>
<path d="M252 170.53L254 179.89H245.62L247.62 170.53C246.844 170.049 246.246 169.327 245.917 168.476C245.588 167.624 245.546 166.688 245.796 165.81C246.046 164.932 246.576 164.159 247.305 163.609C248.034 163.059 248.922 162.762 249.835 162.762C250.748 162.762 251.636 163.059 252.365 163.609C253.094 164.159 253.624 164.932 253.874 165.81C254.124 166.688 254.082 167.624 253.753 168.476C253.424 169.327 252.826 170.049 252.05 170.53H252Z" fill="#263238"/>
<path d="M310.76 237.59H189.25V258.39H310.76V237.59Z" fill="white"/>
<path d="M311.25 258.89H188.75V237.09H311.25V258.89ZM189.75 257.89H310.25V238.09H189.75V257.89Z" fill="#EBEBEB"/>
<path d="M201.86 243.33H200.86V252.22H201.86V243.33Z" fill="#37474F"/>
<path d="M205.81 247.27H196.92V248.27H205.81V247.27Z" fill="#37474F"/>
<path d="M204.156 244.269L197.867 250.552L198.574 251.26L204.863 244.976L204.156 244.269Z" fill="#37474F"/>
<path d="M198.567 244.274L197.86 244.981L204.146 251.267L204.853 250.56L198.567 244.274Z" fill="#37474F"/>
<path d="M216.94 243.33H215.94V252.22H216.94V243.33Z" fill="#37474F"/>
<path d="M220.89 247.27H212V248.27H220.89V247.27Z" fill="#37474F"/>
<path d="M219.233 244.279L212.944 250.563L213.651 251.27L219.939 244.986L219.233 244.279Z" fill="#37474F"/>
<path d="M213.65 244.271L212.943 244.978L219.229 251.264L219.936 250.557L213.65 244.271Z" fill="#37474F"/>
<path d="M232.02 243.33H231.02V252.22H232.02V243.33Z" fill="#37474F"/>
<path d="M235.97 247.27H227.08V248.27H235.97V247.27Z" fill="#37474F"/>
<path d="M234.309 244.28L228.021 250.564L228.728 251.271L235.016 244.987L234.309 244.28Z" fill="#37474F"/>
<path d="M228.733 244.268L228.026 244.975L234.312 251.261L235.019 250.554L228.733 244.268Z" fill="#37474F"/>
<path d="M247.11 243.33H246.11V252.22H247.11V243.33Z" fill="#37474F"/>
<path d="M251.05 247.27H242.16V248.27H251.05V247.27Z" fill="#37474F"/>
<path d="M249.396 244.28L243.108 250.564L243.815 251.272L250.103 244.988L249.396 244.28Z" fill="#37474F"/>
<path d="M243.823 244.277L243.116 244.984L249.403 251.271L250.11 250.563L243.823 244.277Z" fill="#37474F"/>
<path d="M262.19 243.33H261.19V252.22H262.19V243.33Z" fill="#37474F"/>
<path d="M266.13 247.27H257.24V248.27H266.13V247.27Z" fill="#37474F"/>
<path d="M264.473 244.281L258.185 250.565L258.892 251.272L265.18 244.988L264.473 244.281Z" fill="#37474F"/>
<path d="M258.897 244.264L258.19 244.971L264.476 251.257L265.183 250.55L258.897 244.264Z" fill="#37474F"/>
<path d="M277.27 243.33H276.27V252.22H277.27V243.33Z" fill="#37474F"/>
<path d="M281.22 247.27H272.33V248.27H281.22V247.27Z" fill="#37474F"/>
<path d="M279.557 244.274L273.269 250.558L273.976 251.265L280.264 244.981L279.557 244.274Z" fill="#37474F"/>
<path d="M273.98 244.261L273.273 244.968L279.559 251.254L280.266 250.547L273.98 244.261Z" fill="#37474F"/>
<path d="M300.38 251.2C299.295 251.135 298.237 250.833 297.282 250.314C296.326 249.796 295.496 249.074 294.85 248.2L294.63 247.9L294.85 247.61C295.455 246.707 296.274 245.966 297.233 245.454C298.192 244.942 299.263 244.674 300.35 244.674C301.437 244.674 302.508 244.942 303.467 245.454C304.426 245.966 305.245 246.707 305.85 247.61L306.06 247.9L305.85 248.2C305.211 249.067 304.39 249.785 303.446 250.303C302.501 250.821 301.455 251.127 300.38 251.2ZM295.9 247.94C296.416 248.651 297.092 249.229 297.874 249.628C298.657 250.027 299.522 250.234 300.4 250.234C301.278 250.234 302.143 250.027 302.926 249.628C303.708 249.229 304.384 248.651 304.9 247.94C304.384 247.229 303.708 246.651 302.926 246.252C302.143 245.853 301.278 245.645 300.4 245.645C299.522 245.645 298.657 245.853 297.874 246.252C297.092 246.651 296.416 247.229 295.9 247.94Z" fill="#EBEBEB"/>
<path d="M300.37 250.19C301.613 250.19 302.62 249.183 302.62 247.94C302.62 246.697 301.613 245.69 300.37 245.69C299.127 245.69 298.12 246.697 298.12 247.94C298.12 249.183 299.127 250.19 300.37 250.19Z" fill="#EBEBEB"/>
<path d="M304.075 243.428L296.084 251.418L296.791 252.126L304.782 244.135L304.075 243.428Z" fill="#EBEBEB"/>
<path d="M217.33 215.93H215.73V218.74C215.73 218.931 215.654 219.114 215.519 219.249C215.384 219.384 215.201 219.46 215.01 219.46C214.819 219.46 214.636 219.384 214.501 219.249C214.366 219.114 214.29 218.931 214.29 218.74V211.09C214.29 210.996 214.309 210.903 214.345 210.816C214.381 210.729 214.434 210.65 214.501 210.584C214.568 210.518 214.648 210.466 214.735 210.431C214.823 210.396 214.916 210.379 215.01 210.38H217.33C217.708 210.357 218.088 210.412 218.444 210.541C218.8 210.671 219.127 210.871 219.403 211.131C219.679 211.391 219.898 211.705 220.049 212.053C220.199 212.401 220.277 212.776 220.277 213.155C220.277 213.534 220.199 213.909 220.049 214.257C219.898 214.605 219.679 214.919 219.403 215.179C219.127 215.439 218.8 215.639 218.444 215.769C218.088 215.898 217.708 215.953 217.33 215.93ZM215.73 214.49H217.33C217.515 214.506 217.701 214.483 217.877 214.424C218.053 214.364 218.214 214.268 218.351 214.143C218.488 214.017 218.598 213.864 218.672 213.694C218.747 213.524 218.786 213.341 218.786 213.155C218.786 212.969 218.747 212.786 218.672 212.616C218.598 212.446 218.488 212.293 218.351 212.167C218.214 212.042 218.053 211.946 217.877 211.886C217.701 211.827 217.515 211.804 217.33 211.82H215.73V214.49Z" fill="#47B88F"/>
<path d="M225.58 217.31H222.43L221.79 219C221.734 219.132 221.641 219.244 221.522 219.324C221.403 219.404 221.263 219.448 221.12 219.45C221.037 219.465 220.953 219.465 220.87 219.45C220.691 219.382 220.545 219.247 220.464 219.073C220.384 218.899 220.375 218.7 220.44 218.52L223.31 210.88C223.367 210.745 223.464 210.63 223.587 210.55C223.709 210.47 223.853 210.428 224 210.43C224.146 210.426 224.289 210.467 224.411 210.548C224.533 210.628 224.627 210.744 224.68 210.88L227.55 218.52C227.615 218.7 227.606 218.899 227.526 219.073C227.445 219.247 227.299 219.382 227.12 219.45C227.038 219.468 226.952 219.468 226.87 219.45C226.728 219.45 226.588 219.407 226.471 219.327C226.353 219.246 226.262 219.133 226.21 219L225.58 217.31ZM225.05 215.89L224 213.1L223 215.89H225.05Z" fill="#47B88F"/>
<path d="M228.82 217.2C228.876 217.124 228.948 217.06 229.031 217.013C229.114 216.967 229.205 216.938 229.3 216.93C229.394 216.921 229.49 216.933 229.579 216.964C229.669 216.995 229.751 217.045 229.82 217.11C230.517 217.703 231.387 218.054 232.3 218.11C232.877 218.122 233.443 217.954 233.92 217.63C234.082 217.533 234.218 217.397 234.316 217.235C234.413 217.073 234.47 216.889 234.48 216.7C234.483 216.554 234.441 216.411 234.36 216.29C234.259 216.134 234.126 216.001 233.97 215.9C233.42 215.588 232.816 215.381 232.19 215.29C231.611 215.191 231.046 215.02 230.51 214.78C230.022 214.569 229.605 214.222 229.31 213.78C229.109 213.463 229.005 213.095 229.01 212.72C229.018 212.348 229.113 211.982 229.287 211.653C229.46 211.323 229.708 211.038 230.01 210.82C230.667 210.365 231.451 210.127 232.25 210.14C233.272 210.184 234.257 210.532 235.08 211.14C235.153 211.188 235.215 211.251 235.263 211.323C235.311 211.396 235.345 211.477 235.362 211.563C235.378 211.648 235.378 211.736 235.361 211.822C235.343 211.907 235.309 211.988 235.26 212.06C235.214 212.135 235.154 212.2 235.082 212.252C235.01 212.303 234.929 212.339 234.843 212.357C234.757 212.376 234.668 212.377 234.581 212.36C234.495 212.344 234.413 212.31 234.34 212.26C233.744 211.777 233.015 211.488 232.25 211.43C231.733 211.421 231.225 211.575 230.8 211.87C230.656 211.955 230.536 212.075 230.451 212.218C230.365 212.361 230.317 212.523 230.31 212.69C230.301 212.817 230.332 212.943 230.4 213.05C230.493 213.185 230.612 213.301 230.75 213.39C231.248 213.683 231.798 213.876 232.37 213.96C232.986 214.07 233.587 214.251 234.16 214.5C234.686 214.731 235.136 215.106 235.46 215.58C235.661 215.912 235.768 216.292 235.77 216.68C235.756 217.078 235.646 217.468 235.452 217.815C235.257 218.163 234.982 218.46 234.65 218.68C233.953 219.176 233.115 219.435 232.26 219.42C231.04 219.364 229.873 218.907 228.94 218.12C228.807 218.01 228.721 217.855 228.699 217.684C228.676 217.513 228.72 217.34 228.82 217.2Z" fill="#47B88F"/>
<path d="M237.35 217.2C237.405 217.132 237.474 217.075 237.551 217.033C237.628 216.991 237.713 216.966 237.801 216.957C237.889 216.949 237.977 216.958 238.061 216.984C238.145 217.011 238.223 217.053 238.29 217.11C238.987 217.703 239.857 218.054 240.77 218.11C241.347 218.123 241.913 217.956 242.39 217.63C242.552 217.533 242.688 217.397 242.786 217.235C242.883 217.073 242.94 216.889 242.95 216.7C242.953 216.554 242.911 216.411 242.83 216.29C242.732 216.132 242.599 215.998 242.44 215.9C241.894 215.587 241.293 215.38 240.67 215.29C240.094 215.193 239.532 215.021 239 214.78C238.511 214.567 238.091 214.221 237.79 213.78C237.593 213.462 237.489 213.095 237.49 212.72C237.498 212.348 237.593 211.982 237.767 211.653C237.94 211.323 238.188 211.038 238.49 210.82C239.147 210.365 239.931 210.127 240.73 210.14C241.752 210.184 242.737 210.532 243.56 211.14C243.633 211.188 243.695 211.251 243.743 211.323C243.791 211.396 243.825 211.477 243.842 211.563C243.858 211.648 243.858 211.736 243.841 211.822C243.823 211.907 243.789 211.988 243.74 212.06C243.694 212.135 243.634 212.2 243.562 212.252C243.49 212.303 243.409 212.339 243.323 212.357C243.237 212.376 243.148 212.377 243.061 212.36C242.975 212.344 242.893 212.31 242.82 212.26C242.224 211.777 241.495 211.488 240.73 211.43C240.212 211.421 239.705 211.575 239.28 211.87C239.136 211.955 239.016 212.075 238.931 212.218C238.845 212.361 238.797 212.523 238.79 212.69C238.78 212.817 238.812 212.943 238.88 213.05C238.973 213.185 239.092 213.301 239.23 213.39C239.729 213.681 240.279 213.874 240.85 213.96C241.466 214.07 242.066 214.251 242.64 214.5C243.164 214.73 243.612 215.104 243.93 215.58C244.138 215.909 244.246 216.291 244.24 216.68C244.227 217.078 244.12 217.467 243.927 217.815C243.734 218.162 243.461 218.459 243.13 218.68C242.43 219.178 241.589 219.438 240.73 219.42C239.51 219.364 238.343 218.907 237.41 218.12C237.288 218.001 237.215 217.841 237.204 217.672C237.193 217.502 237.245 217.334 237.35 217.2Z" fill="#47B88F"/>
<path d="M257.92 211.45L254.74 219C254.727 219.045 254.703 219.086 254.67 219.12C254.67 219.12 254.67 219.17 254.61 219.2C254.55 219.23 254.61 219.2 254.61 219.2L254.52 219.26C254.52 219.26 254.46 219.33 254.4 219.34H254.29H253.98H253.89C253.845 219.328 253.806 219.299 253.78 219.26L253.69 219.2C253.69 219.2 253.69 219.15 253.64 219.12C253.634 219.08 253.634 219.04 253.64 219L251.94 215L250.24 219C250.24 219 250.24 219.09 250.19 219.12L250.11 219.2C250.079 219.214 250.052 219.235 250.03 219.26L249.93 219.34C249.897 219.333 249.863 219.333 249.83 219.34H249.51H249.41C249.364 219.323 249.323 219.296 249.29 219.26C249.29 219.26 249.24 219.26 249.2 219.2L249.14 219.12C249.14 219.12 249.14 219.04 249.07 219L245.88 211.44C245.822 211.269 245.832 211.083 245.907 210.919C245.981 210.755 246.116 210.625 246.282 210.557C246.449 210.488 246.635 210.485 246.804 210.549C246.972 210.613 247.111 210.738 247.19 210.9L249.73 216.9L251.41 212.9C251.465 212.769 251.559 212.657 251.678 212.578C251.797 212.5 251.937 212.459 252.08 212.46C252.223 212.462 252.363 212.504 252.483 212.582C252.604 212.66 252.7 212.77 252.76 212.9L254.43 216.9L256.96 210.9C257.035 210.726 257.176 210.588 257.352 210.517C257.528 210.445 257.725 210.447 257.9 210.52C258.015 210.647 258.08 210.811 258.084 210.981C258.087 211.152 258.029 211.319 257.92 211.45Z" fill="#47B88F"/>
<path d="M267 211.5C267.842 212.387 268.311 213.563 268.311 214.785C268.311 216.008 267.842 217.184 267 218.07C266.606 218.501 266.127 218.846 265.594 219.083C265.06 219.32 264.484 219.445 263.9 219.45C263.304 219.447 262.715 219.323 262.169 219.086C261.622 218.848 261.129 218.503 260.72 218.07C259.898 217.174 259.442 216.002 259.442 214.785C259.442 213.569 259.898 212.397 260.72 211.5C261.128 211.065 261.62 210.719 262.167 210.481C262.714 210.244 263.304 210.121 263.9 210.12C264.484 210.122 265.061 210.246 265.595 210.484C266.129 210.722 266.607 211.068 267 211.5ZM266.83 214.78C266.83 213.943 266.516 213.137 265.95 212.52C265.692 212.232 265.376 212.001 265.023 211.842C264.67 211.684 264.287 211.601 263.9 211.6C263.505 211.597 263.114 211.678 262.752 211.836C262.39 211.995 262.066 212.228 261.8 212.52C261.23 213.134 260.916 213.942 260.92 214.78C260.912 215.619 261.227 216.428 261.8 217.04C262.066 217.332 262.391 217.566 262.752 217.726C263.114 217.886 263.505 217.969 263.9 217.97C264.287 217.965 264.669 217.879 265.022 217.719C265.375 217.559 265.691 217.328 265.95 217.04C266.504 216.419 266.804 215.612 266.79 214.78H266.83Z" fill="#47B88F"/>
<path d="M276.83 218.38C276.861 218.469 276.874 218.563 276.868 218.656C276.862 218.75 276.838 218.842 276.796 218.926C276.754 219.01 276.695 219.084 276.624 219.145C276.553 219.206 276.47 219.252 276.38 219.28C276.284 219.296 276.186 219.296 276.09 219.28C275.913 219.284 275.739 219.235 275.59 219.14C275.414 219.029 275.269 218.874 275.17 218.69C274.964 218.197 274.871 217.664 274.9 217.13C274.898 216.932 274.843 216.739 274.74 216.57C274.644 216.416 274.509 216.288 274.35 216.2C274.129 216.058 273.886 215.953 273.63 215.89H272.1V218.7C272.099 218.795 272.079 218.888 272.041 218.975C272.004 219.062 271.95 219.14 271.882 219.206C271.814 219.272 271.734 219.324 271.646 219.359C271.558 219.394 271.465 219.411 271.37 219.41C271.182 219.41 271.001 219.335 270.868 219.202C270.735 219.069 270.66 218.888 270.66 218.7V211.05C270.659 210.957 270.676 210.864 270.711 210.777C270.747 210.69 270.799 210.611 270.865 210.545C270.931 210.479 271.01 210.427 271.097 210.391C271.183 210.356 271.276 210.339 271.37 210.34H273.69C274.262 210.338 274.82 210.513 275.289 210.84C275.758 211.168 276.113 211.633 276.307 212.171C276.501 212.709 276.524 213.293 276.372 213.845C276.22 214.396 275.902 214.887 275.46 215.25C275.632 215.388 275.784 215.549 275.91 215.73C276.192 216.143 276.342 216.631 276.34 217.13C276.321 217.388 276.338 217.647 276.39 217.9C276.499 217.935 276.596 217.998 276.673 218.082C276.75 218.166 276.804 218.269 276.83 218.38ZM275 213.16C275.001 212.984 274.968 212.809 274.901 212.646C274.834 212.483 274.735 212.334 274.611 212.21C274.486 212.085 274.338 211.986 274.174 211.919C274.011 211.853 273.836 211.819 273.66 211.82H272.07V214.49H273.66C274.014 214.49 274.353 214.35 274.604 214.101C274.855 213.852 274.997 213.514 275 213.16Z" fill="#47B88F"/>
<path d="M278.94 218.74V211.09C278.939 210.996 278.956 210.903 278.991 210.817C279.027 210.73 279.079 210.651 279.145 210.585C279.211 210.519 279.29 210.466 279.377 210.431C279.463 210.396 279.556 210.379 279.65 210.38H281.18C282.346 210.435 283.446 210.936 284.252 211.781C285.057 212.625 285.507 213.748 285.507 214.915C285.507 216.082 285.057 217.205 284.252 218.049C283.446 218.893 282.346 219.395 281.18 219.45H279.65C279.462 219.45 279.281 219.375 279.148 219.242C279.015 219.109 278.94 218.928 278.94 218.74ZM280.38 218.01H281.18C281.97 217.965 282.714 217.619 283.257 217.044C283.801 216.468 284.104 215.707 284.104 214.915C284.104 214.123 283.801 213.362 283.257 212.786C282.714 212.211 281.97 211.865 281.18 211.82H280.38V218.01Z" fill="#47B88F"/>
<path d="M434.06 100.28C434.06 100.28 426.43 161.34 413.89 175.08C398.89 191.56 387.89 189.15 381.89 197.65C375.81 189.14 364.89 191.56 349.89 175.07C337.35 161.33 329.74 100.27 329.74 100.27C362.74 84.27 381.94 66.27 381.94 66.27C382.44 66.84 401.54 84.5 434.06 100.28Z" fill="#37474F"/>
<path d="M381.85 66.29V197.65C375.77 189.14 364.85 191.56 349.85 175.07C337.31 161.33 329.7 100.27 329.7 100.27C362.7 84.27 381.9 66.27 381.9 66.27L381.85 66.29Z" fill="#455A64"/>
<path d="M426 105.2C426 105.2 419.56 156.78 409 168.39C396.27 182.33 387 180.28 381.91 187.46C376.78 180.28 367.55 182.33 354.82 168.39C344.24 156.78 337.82 105.2 337.82 105.2C365.72 91.65 381.92 76.47 381.92 76.47C381.92 76.47 398.05 91.65 426 105.2Z" fill="#455A64"/>
<path d="M337.75 105.2C337.75 105.2 344.19 156.77 354.75 168.39C367.46 182.32 376.68 180.29 381.82 187.45V76.45C381.36 77 365.22 91.86 337.75 105.2Z" fill="#37474F"/>
<path d="M396.316 146.429C404.302 138.442 404.302 125.494 396.316 117.508C388.33 109.522 375.382 109.522 367.395 117.508C359.409 125.494 359.409 138.442 367.395 146.429C375.381 154.415 388.33 154.415 396.316 146.429Z" fill="#47B88F"/>
<path d="M379.52 145.25L370.41 135.78L373.79 132.53L378.81 137.75L389.63 121.15L393.56 123.71L379.52 145.25Z" fill="white"/>
<path d="M80.37 247.08H150.53V232.55H80.37V247.08Z" fill="#C7C7C7"/>
<path d="M131.7 246.96L133.66 265.53L157.92 439.37H164.85L145.71 265.53L144.16 246.96H131.7Z" fill="#C7C7C7"/>
<path d="M66.03 439.37H72.97L97.23 265.53L99.19 246.96H86.73L85.18 265.53L66.03 439.37Z" fill="#C7C7C7"/>
<path d="M77.74 382.58H155.13V378.22H77.74V382.58Z" fill="#C7C7C7"/>
<path d="M145.71 264.88H133.66L131.7 246.96H144.16L145.71 264.88Z" fill="#A6A6A6"/>
<path d="M85.18 264.88H97.23L99.19 246.96H86.73L85.18 264.88Z" fill="#A6A6A6"/>
<path d="M89.73 162.72C92.73 164.26 93.25 169.57 102.59 169.28C103.92 169.28 105.01 168.71 106.23 169.16C108.02 169.81 109.43 171.24 111.02 172.28C112.299 173.14 113.755 173.7 115.28 173.92C118.206 174.266 121.162 173.584 123.64 171.99C125.17 171.05 126.45 169.75 127.93 168.73C129.41 167.71 138.34 165.55 139.85 160.53C140.85 157.34 140.66 153.71 136.85 149.05C135.972 148.219 135.375 147.135 135.14 145.95C135.143 144.911 135.378 143.886 135.83 142.95C136.354 141.888 136.546 140.693 136.38 139.52C135.955 138.399 135.269 137.394 134.38 136.59C132.98 134.9 133.24 132.46 134.38 129.46C134.832 128.187 134.986 126.827 134.83 125.485C134.674 124.143 134.212 122.855 133.48 121.72C132.562 120.419 131.48 119.243 130.26 118.22C128.55 116.6 128.26 115.1 127.49 112.81C126.04 108.41 123.77 106.44 121.1 105.08C118.69 103.87 118.77 104.33 116.19 104.72C113.576 103.125 110.499 102.462 107.46 102.84C104.64 103.2 102.31 105.09 100.18 106.9C98.28 108.52 96.54 110.26 96.44 112.99C96.38 114.56 96.76 116.12 96.69 117.69C96.59 119.69 95.48 120.96 94.15 122.22C92.1668 123.906 90.7988 126.203 90.26 128.75C89.91 130.88 92.01 134.19 89.55 137.34C87.39 140.12 83.55 143.34 82.55 146.82C79.5 157.69 86.9 161.24 89.73 162.72Z" fill="#263238"/>
<path d="M125.9 168.58C130.19 167.93 136.78 168.74 139.06 163.96C139.962 163.225 140.677 162.285 141.145 161.219C141.612 160.154 141.82 158.992 141.75 157.83C141.456 155.348 140.306 153.047 138.5 151.32C137.452 150.333 136.538 149.214 135.78 147.99C135.538 147.036 135.361 146.067 135.25 145.09C135.427 143.839 135.763 142.616 136.25 141.45C135.31 143.45 134.44 145.61 135.31 147.81C135.438 148.124 135.588 148.428 135.76 148.72C136.073 149.877 136.501 150.999 137.04 152.07C138.45 154.87 139.74 157.4 139.55 160.67C139.517 161.762 139.255 162.835 138.78 163.82C136.924 165.448 134.606 166.455 132.15 166.7C132.09 166.7 132.09 166.81 132.15 166.8C134.371 166.575 136.502 165.802 138.35 164.55C135.86 168.12 130.07 167.63 125.88 168.46C125.77 168.46 125.81 168.59 125.9 168.58ZM139.39 163.15V163.06C140.133 160.41 139.942 157.586 138.85 155.06C138.17 153.39 137.15 151.89 136.48 150.21C136.37 149.92 136.26 149.63 136.16 149.33C137.16 150.64 138.42 151.73 139.36 153.01C141.36 155.79 142 159.1 140.09 162.11C139.883 162.474 139.649 162.821 139.39 163.15Z" fill="#263238"/>
<path d="M129.7 117.57C131.301 118.961 132.826 120.436 134.27 121.99C135.277 123.009 135.881 124.359 135.97 125.79C136.007 127.231 135.552 128.642 134.68 129.79C134.36 130.27 134.03 130.79 133.74 131.26C133.671 132.191 133.819 133.125 134.17 133.99C134.87 135.64 136.42 136.66 137.17 138.33C138.33 141.03 137.04 143.25 135.9 145.66C136.73 143.66 137.9 141.73 137.24 139.49C136.72 137.66 135.38 136.67 134.37 135.18C133.755 134.233 133.41 133.138 133.37 132.01C132.47 133.83 132.16 135.75 133.75 137.66C133.82 137.75 133.75 137.87 133.63 137.79C131.63 135.79 132.15 133.28 133.38 131.13C133.456 129.86 133.736 128.61 134.21 127.43C134.21 127.31 134.44 127.43 134.42 127.52C134.24 128.46 134 129.4 133.87 130.33L134.08 130.02C135.68 127.73 136.31 125.02 134.47 122.62C133.09 120.79 131.21 119.35 129.67 117.62C129.6 117.6 129.66 117.53 129.7 117.57Z" fill="#263238"/>
<path d="M141.73 306.39C141.73 306.39 123.82 346.17 123.8 346.2C120.34 353.79 117.43 360.5 116.26 364.12C116.252 364.139 116.252 364.161 116.26 364.18C115.89 364.995 115.716 365.885 115.75 366.78C115.75 366.78 115.75 366.83 115.75 366.84C117.31 369.41 177.15 398.84 179.59 399.19C182.03 399.54 183.14 392.61 181.73 389.61C180.32 386.61 162.44 365.09 162.44 365.09L180 325.15L141.73 306.39Z" fill="#EB9481"/>
<path d="M127.48 338C127.48 338 123.82 346.14 123.8 346.17C120.34 353.76 117.43 360.47 116.26 364.09C116.252 364.109 116.252 364.131 116.26 364.15C115.985 364.993 115.814 365.866 115.75 366.75C115.75 366.75 115.75 366.8 115.75 366.81C117.31 369.38 177.15 398.81 179.59 399.16C182.03 399.51 183.14 392.58 181.73 389.58C180.32 386.58 162.44 365.06 162.44 365.06L166.29 356.82L127.48 338Z" fill="#EBEBEB"/>
<path d="M179.57 399.11C177.13 398.79 117.27 369.39 115.7 366.82C115.09 365.82 118.86 356.88 123.7 346.17L123.85 345.83L162.69 364.37L162.35 365.02C162.35 365.02 180.24 386.53 181.66 389.53C183.08 392.53 182 399.44 179.57 399.11Z" fill="#263238"/>
<path d="M181.54 397.41C182.41 398.35 180.41 401.84 179.54 401.75C178.67 401.66 113.54 369.31 112.54 368.51C111.54 367.71 113.91 363.94 115.3 364.37C116.69 364.8 181.54 397.41 181.54 397.41Z" fill="#47B88F"/>
<path d="M165.58 366.73C161.97 364.04 156.82 362.26 152.39 363.6C152.22 363.6 152.3 363.9 152.45 363.92C156.847 364.557 161.161 365.667 165.32 367.23C165.383 367.245 165.45 367.239 165.509 367.212C165.568 367.186 165.616 367.14 165.646 367.082C165.676 367.024 165.686 366.958 165.674 366.894C165.662 366.831 165.629 366.773 165.58 366.73Z" fill="white"/>
<path d="M167.6 369.87C163.99 367.17 158.84 365.4 154.41 366.74C154.24 366.79 154.32 367.03 154.47 367.06C158.866 367.694 163.181 368.8 167.34 370.36C167.404 370.383 167.473 370.383 167.536 370.358C167.6 370.334 167.652 370.288 167.683 370.228C167.715 370.168 167.724 370.099 167.709 370.033C167.693 369.968 167.655 369.91 167.6 369.87Z" fill="white"/>
<path d="M169.62 373C166.01 370.31 160.85 368.53 156.43 369.87C156.26 369.93 156.33 370.17 156.43 370.19C160.83 370.826 165.148 371.936 169.31 373.5C169.376 373.541 169.456 373.554 169.532 373.536C169.608 373.518 169.674 373.471 169.715 373.405C169.756 373.339 169.769 373.259 169.751 373.183C169.734 373.107 169.686 373.041 169.62 373Z" fill="white"/>
<path d="M130.49 357.39C127.21 353.09 120.49 358.17 123.8 362.48C127.11 366.79 133.77 361.7 130.49 357.39Z" fill="white"/>
<path d="M152.29 271.81C151.89 283.38 129.59 333.35 129.59 333.35L168.7 351.35C168.7 351.35 200.27 295.78 197.34 270.18C194.84 248.46 140.19 208.29 131.42 196.97C130.12 195.29 130.56 188.53 130.56 188.53H95.08V197C108.63 225.76 149.16 260.26 152.16 270.39C152.278 270.853 152.322 271.333 152.29 271.81Z" fill="#37474F"/>
<path d="M168.48 343C162.04 339.91 163.93 340.7 157.48 337.69C154.31 336.22 138.41 328.77 135.21 327.94C135.193 327.932 135.173 327.931 135.155 327.938C135.137 327.944 135.123 327.958 135.115 327.975C135.107 327.992 135.106 328.012 135.113 328.03C135.119 328.048 135.133 328.062 135.15 328.07C137.89 329.93 153.96 337 157.15 338.41C163.68 341.29 161.84 340.41 168.4 343.19C168.51 343.25 168.6 343.05 168.48 343Z" fill="#263238"/>
<path d="M104 203.05C114.709 219.373 126.683 234.83 139.81 249.28C143.03 252.79 146.34 256.2 149.65 259.62C152.45 262.51 155.31 265.72 156 269.83C156.78 274.41 155 278.97 153.57 283.24C152 287.94 150.42 292.63 148.75 297.3C146.95 302.3 139.59 320.49 138.38 322.94C137.77 324.16 148.12 297.94 149.8 293.1C151.48 288.26 153.18 283.45 154.61 278.55C155.438 276.055 155.778 273.424 155.61 270.8C155.285 268.27 154.275 265.878 152.69 263.88C149.81 260.04 146.07 256.78 142.8 253.28C136.02 246.02 129.557 238.48 123.41 230.66C116.415 221.827 109.886 212.634 103.85 203.12C103.845 203.11 103.843 203.099 103.842 203.089C103.842 203.078 103.843 203.067 103.847 203.057C103.851 203.046 103.857 203.037 103.864 203.029C103.871 203.021 103.88 203.015 103.89 203.01C103.9 203.005 103.91 203.003 103.921 203.002C103.932 203.002 103.943 203.003 103.953 203.007C103.963 203.011 103.973 203.017 103.981 203.024C103.989 203.031 103.995 203.04 104 203.05Z" fill="#263238"/>
<path d="M83 393.12C83 393.12 81.26 436.73 81.25 436.76C81.45 445.1 81.77 452.41 82.25 456.17C82.2459 456.193 82.2459 456.217 82.25 456.24C82.2962 457.14 82.5531 458.017 83 458.8V458.85C85.52 460.47 152.22 460.85 154.55 460.08C156.88 459.31 154.87 452.6 152.3 450.52C149.73 448.44 124.23 436.88 124.23 436.88L125.56 393.3L83 393.12Z" fill="#EB9481"/>
<path d="M81.57 428.13C81.57 428.13 81.23 436.73 81.22 436.76C81.42 445.1 81.74 452.41 82.22 456.17C82.2159 456.193 82.2159 456.217 82.22 456.24C82.3798 457.121 82.6416 457.98 83 458.8V458.85C85.52 460.47 152.22 460.85 154.55 460.08C156.88 459.31 154.87 452.6 152.3 450.52C149.73 448.44 124.23 436.88 124.23 436.88L124.5 428.06L81.57 428.13Z" fill="#EBEBEB"/>
<path d="M154.5 460C152.17 460.77 85.5 460.46 82.94 458.84C81.94 458.24 81.45 448.52 81.16 436.75V436.38L124.16 436.1V436.83C124.16 436.83 149.64 448.37 152.24 450.45C154.84 452.53 156.84 459.24 154.5 460Z" fill="#263238"/>
<path d="M155.53 457.62C156.72 458.09 156.45 462.1 155.58 462.41C154.71 462.72 82 462.07 80.76 461.79C79.52 461.51 80 457.07 81.44 456.85C82.88 456.63 155.53 457.62 155.53 457.62Z" fill="#47B88F"/>
<path d="M127.78 437C123.36 436.15 117.94 436.81 114.55 439.94C114.42 440.06 114.55 440.25 114.73 440.2C118.957 438.86 123.315 437.975 127.73 437.56C127.804 437.567 127.878 437.544 127.935 437.496C127.993 437.448 128.028 437.379 128.035 437.305C128.042 437.231 128.018 437.157 127.971 437.1C127.923 437.043 127.854 437.007 127.78 437Z" fill="white"/>
<path d="M131 438.93C126.58 438.08 121.17 438.74 117.77 441.87C117.64 441.99 117.77 442.18 117.96 442.13C122.186 440.787 126.545 439.902 130.96 439.49C131.034 439.495 131.108 439.471 131.164 439.422C131.22 439.373 131.255 439.304 131.26 439.23C131.265 439.156 131.241 439.082 131.192 439.026C131.143 438.97 131.074 438.935 131 438.93Z" fill="white"/>
<path d="M134.15 440.87C129.73 440.02 124.31 440.67 120.92 443.81C120.78 443.93 120.92 444.12 121.1 444.07C125.326 442.727 129.685 441.842 134.1 441.43C134.174 441.436 134.248 441.413 134.305 441.365C134.363 441.318 134.398 441.249 134.405 441.175C134.412 441.1 134.388 441.027 134.341 440.969C134.293 440.912 134.224 440.876 134.15 440.87Z" fill="white"/>
<path d="M92.13 443.91C87.3 441.47 83.5 448.97 88.33 451.41C93.16 453.85 97 446.36 92.13 443.91Z" fill="white"/>
<path d="M125.4 422.86L81.8 423.22C81.8 423.22 89.06 245.15 84.2 239.33C72.64 225.5 74.48 207.06 82.27 188.54H122C122 188.54 120.09 216.66 120.28 217.48C132.5 270.78 125.4 422.86 125.4 422.86Z" fill="#37474F"/>
<path d="M123 413.93C113.49 413.19 88.44 414 85.28 414.48C85.2653 414.488 85.253 414.499 85.2444 414.513C85.2358 414.527 85.2312 414.543 85.2312 414.56C85.2312 414.576 85.2358 414.593 85.2444 414.607C85.253 414.621 85.2653 414.632 85.28 414.64C88.41 415.27 117.13 414.37 122.99 414.14C123.013 414.134 123.033 414.121 123.048 414.103C123.063 414.085 123.071 414.062 123.073 414.039C123.074 414.015 123.067 413.992 123.054 413.972C123.041 413.953 123.022 413.938 123 413.93Z" fill="#263238"/>
<path d="M122.94 199.47C122.54 204.47 122.74 213.09 119.83 213.22C116.92 213.35 117.43 202.85 117.35 200.43C117.27 198.24 116.52 198.54 116.44 201.12C116.22 208.12 116.44 214.31 120.12 214.02C123.8 213.73 123.81 202.88 123.72 200.4C123.67 199.12 123.06 197.88 122.94 199.47Z" fill="#263238"/>
<path d="M120 213.55C119.819 215.318 119.856 217.101 120.11 218.86C120.16 219 120.72 218.86 120.78 218.77C121.12 218.04 120.85 214.6 120.94 213.67C120.956 213.545 120.922 213.419 120.845 213.32C120.807 213.271 120.759 213.229 120.705 213.199C120.651 213.168 120.592 213.148 120.53 213.14C120.405 213.124 120.279 213.158 120.18 213.235C120.081 213.312 120.016 213.425 120 213.55Z" fill="#263238"/>
<path d="M121.25 219.75C122.49 224.15 123.76 232.57 123.46 234.75C123.46 234.95 123.14 235.02 123.1 234.81C122.7 232.45 120.94 221.1 120.76 219.91C120.58 218.72 120.9 218.52 121.25 219.75Z" fill="#263238"/>
<path d="M113.6 223.22C114.18 222.651 114.802 222.127 115.46 221.65C116.11 221.14 116.76 220.65 117.46 220.16C118.84 219.16 120.26 218.3 121.71 217.44C123.16 216.58 124.58 215.83 126.06 215.08C127.54 214.33 129.24 213.71 130.78 212.94C130.87 212.89 130.95 213.02 130.86 213.07C129.4 213.88 128.04 214.89 126.62 215.78C125.2 216.67 123.78 217.59 122.35 218.48C120.92 219.37 119.57 220.24 118.17 221.1C117.443 221.553 116.703 221.993 115.95 222.42C115.276 222.855 114.574 223.245 113.85 223.59C113.61 223.68 113.47 223.37 113.6 223.22Z" fill="#263238"/>
<path d="M88.37 330.21C89 315.94 90 300 90.24 285.75C90.3533 278.61 90.4067 271.466 90.4 264.32C90.4 257.23 90.4 247.76 90.08 240.68C89.89 237.08 83.55 234.3 82.26 223.82C81.3663 217.851 81.8416 211.758 83.65 206C84.0999 204.6 84.6308 203.228 85.24 201.89C85.24 201.8 85.41 201.89 85.37 201.97C82.8324 207.855 81.7782 214.272 82.3 220.66C82.4844 223.88 83.1588 227.053 84.3 230.07C86 234.3 90.19 237.73 90.41 239.98C90.74 243.33 90.79 246.23 90.83 249.6C90.87 252.97 90.91 256.6 90.93 260.1C90.97 267.246 90.95 274.39 90.87 281.53C90.71 295.75 90.3367 309.963 89.75 324.17C89.15 338.38 85.47 409.53 85.23 411.17C85.23 411.35 84.91 411.31 84.92 411.17C85.36 404 87.73 344.48 88.37 330.21Z" fill="#263238"/>
<path d="M111.92 155.72C121.38 175.24 133.39 196.38 144.63 199.72C155.33 202.87 176.07 176.6 182.63 169.72C184.97 167.22 165.96 152.92 163.01 155.09C157.45 159.18 147.46 170.32 145.78 169.93C144.1 169.54 130.07 156.2 117.43 145C109.77 138.21 105.37 142.19 111.92 155.72Z" fill="#EB9481"/>
<path d="M199.08 157.33C201.68 156.24 221.7 155.6 221.7 151.26C221.7 146.92 196.21 148.14 196.21 148.14L199.08 157.33Z" fill="#EB9481"/>
<path d="M160.68 157.84C164.18 153.49 167.26 148.84 170.3 147.94C172.41 147.34 195.07 148.32 198.62 148.11C202.17 147.9 214.79 148.22 215.09 151.32C215.5 155.71 200.54 155.67 198.95 157.92C193.44 165.66 172.49 177.12 172.49 177.12L160.68 157.84Z" fill="#EB9481"/>
<path d="M215.42 151.39C215.201 150.567 214.684 149.854 213.97 149.39C212.42 148.31 210.38 148.21 208.56 148.07C205.8 147.812 203.024 147.789 200.26 148C200.247 148 200.234 148.005 200.225 148.015C200.215 148.024 200.21 148.037 200.21 148.05C200.21 148.063 200.215 148.076 200.225 148.085C200.234 148.095 200.247 148.1 200.26 148.1C202.33 148.1 204.4 148.15 206.47 148.32C208.366 148.399 210.247 148.688 212.08 149.18C212.908 149.4 213.658 149.851 214.24 150.48C214.446 150.7 214.594 150.968 214.669 151.26C214.745 151.552 214.745 151.858 214.67 152.15C214.06 154.06 210.29 154.63 208.55 155.02C206.28 155.53 203.92 156.02 201.63 156.44C201.53 156.44 201.63 156.62 201.68 156.6C204.05 156.13 206.56 155.94 208.94 155.51C210.87 155.16 212.94 154.77 214.5 153.51C214.836 153.278 215.1 152.956 215.262 152.581C215.425 152.207 215.48 151.794 215.42 151.39Z" fill="#263238"/>
<path d="M180.181 141.937L180.84 138.561L220.236 146.254C220.593 146.324 220.907 146.532 221.11 146.834C221.313 147.135 221.388 147.505 221.318 147.861L221.184 148.548C221.114 148.905 220.906 149.219 220.605 149.422C220.303 149.625 219.934 149.7 219.577 149.63L180.181 141.937Z" fill="#47B88F"/>
<path opacity="0.1" d="M180.836 138.568L180.176 141.944L184.927 142.872L185.586 139.495L180.836 138.568Z" fill="black"/>
<path d="M165.77 134.27L164.61 140.27C164.212 142.299 164.637 144.403 165.79 146.119C166.943 147.834 168.731 149.022 170.76 149.42C172.789 149.818 174.893 149.393 176.609 148.24C178.325 147.086 179.512 145.299 179.91 143.27L181.08 137.27C181.277 136.265 181.274 135.23 181.071 134.226C180.869 133.222 180.47 132.268 179.899 131.418C179.327 130.567 178.594 129.838 177.74 129.272C176.887 128.705 175.93 128.312 174.925 128.115C173.92 127.918 172.886 127.921 171.881 128.123C170.877 128.326 169.923 128.725 169.073 129.296C167.356 130.451 166.168 132.24 165.77 134.27ZM178.63 135.76C178.42 136.648 177.94 137.449 177.256 138.052C176.572 138.656 175.717 139.032 174.81 139.13C175.61 139.567 176.256 140.238 176.664 141.053C177.071 141.868 177.22 142.788 177.09 143.69C176.62 146.07 174 147.57 171.23 147.03C168.46 146.49 166.59 144.11 167.05 141.74C167.265 140.853 167.747 140.053 168.433 139.45C169.118 138.847 169.973 138.47 170.88 138.37C170.077 137.937 169.426 137.267 169.018 136.451C168.61 135.634 168.464 134.712 168.6 133.81C169.07 131.42 171.69 129.94 174.46 130.48C177.23 131.02 179.1 133.38 178.63 135.76Z" fill="#47B88F"/>
<path d="M181.134 137.04L179.878 143.468C179.811 143.81 180.034 144.141 180.376 144.207L180.69 144.269C181.031 144.335 181.362 144.113 181.429 143.771L182.684 137.343C182.751 137.001 182.528 136.67 182.187 136.604L181.873 136.542C181.531 136.476 181.2 136.698 181.134 137.04Z" fill="#47B88F"/>
<path d="M182.685 137.346L181.43 143.774C181.363 144.116 181.586 144.447 181.927 144.514L182.241 144.575C182.583 144.642 182.914 144.419 182.98 144.077L184.236 137.649C184.302 137.307 184.08 136.976 183.738 136.91L183.424 136.848C183.083 136.782 182.752 137.004 182.685 137.346Z" fill="#47B88F"/>
<path d="M210.8 142.97L211.97 143.2L212.63 139.79L213.64 139.99L213.29 141.77L214.46 142L214.81 140.22L215.69 140.39L215.15 143.2L216.32 143.43L216.87 140.62L218.13 140.87L217.4 144.62L218.57 144.85L219.3 141.1L220.49 141.33L219.56 146.12L209.08 144.08L210.01 139.28L211.46 139.57L210.8 142.97Z" fill="#47B88F"/>
<path d="M76.56 194.56L132.38 195.48L128 178.76C129.456 176.662 130.436 174.27 130.869 171.753C131.303 169.236 131.18 166.654 130.51 164.19C129.17 159.27 122.82 151.9 118.92 147.19C109.44 135.79 101.2 140.94 98.57 143.87C88.54 155.1 76.56 194.56 76.56 194.56Z" fill="#47B88F"/>
<path d="M104.05 150.37V147.19L106.16 149.55L108.44 148.84L107.33 150.84L108.4 151.96L106.74 152.13V154.29L104.92 152.77L103.44 154L103.61 152.18L101.45 151.18L104.05 150.37ZM127.83 186.1L126.07 187.71L124.45 186.85L125.02 188.7L122.92 189.79L124.92 190.65L124.43 192.25L125.89 191.69L127.33 193.51L127.55 191.13L130.55 190.13L127.63 188.86L127.83 186.1ZM107.42 174.23L109.13 177.63L110.82 174.38L114.04 174.94L112.33 171.52L114.72 169.24L111.33 169.36L110.65 166.04L108.87 169.48L104.35 169.13L107.01 171.88L104.55 173.77L107.42 174.23ZM120.73 154.58L121.55 153.2L120.01 153.34L119.48 152.07L118.65 153.45L117.3 153.12L118.11 154.3L117.11 155.3L118.74 155.15L119.64 156.83L120.01 155.27L121.23 155.71L120.73 154.58ZM94.55 191L95.37 189.63L93.84 189.76L93.3 188.49L92.48 189.88L91.13 189.54L91.94 190.72L90.94 191.72L92.57 191.58L93.47 193.26L93.84 191.69L95.07 192.14L94.55 191ZM103.73 166.21L104.55 164.84L103.01 164.97L102.48 163.7L101.66 165.09L100.3 164.75L101.11 165.93L100.11 166.93L101.74 166.79L102.64 168.46L103.01 166.9L104.24 167.34L103.73 166.21ZM93.79 169.93L93.51 169.03L92.97 169.76L92.2 169.49L92.48 170.4L91.81 170.86L92.64 170.97V171.81L93.21 171.03L94.3 171.3L93.76 170.52L94.44 170.15L93.79 169.93ZM119.7 191.38L119.42 190.48L118.87 191.21L118.11 190.95L118.39 191.85L117.71 192.32L118.55 192.42V193.26L119.12 192.49L120.21 192.75L119.67 191.97L120.35 191.61L119.7 191.38ZM127.45 165.24L128.16 164.61L127.27 164.42L127.19 163.61L126.48 164.24L125.78 163.82L126.03 164.62L125.28 165L126.22 165.2L126.43 166.31L126.92 165.49L127.53 165.96L127.45 165.24ZM113.45 182.13L114.15 181.5L113.26 181.31L113.18 180.5L112.48 181.13L111.77 180.71L112.02 181.51L111.27 181.89L112.21 182.09L112.42 183.2L112.91 182.38L113.52 182.85L113.45 182.13ZM84.63 187.43L85.33 186.8L84.44 186.6L84.37 185.79L83.66 186.43L83 186L83.24 186.81L82.49 187.18L83.43 187.39L83.65 188.49L84.13 187.68L84.74 188.15L84.63 187.43Z" fill="white"/>
<path d="M113.07 177.78C115.457 177.56 117.857 177.52 120.25 177.66C121.44 177.74 122.62 177.88 123.8 178.05C124.38 178.13 124.97 178.19 125.56 178.25C126.178 178.325 126.802 178.325 127.42 178.25C127.42 178.25 127.49 178.32 127.42 178.34C126.849 178.468 126.272 178.561 125.69 178.62C125.121 178.655 124.549 178.655 123.98 178.62C122.78 178.54 121.57 178.41 120.37 178.33C117.94 178.15 115.51 177.98 113.07 177.98C113 178 113 177.79 113.07 177.78Z" fill="#263238"/>
<path d="M107.65 180.91C109.547 180.357 111.473 179.91 113.42 179.57C114.42 179.41 115.42 179.3 116.36 179.22L117.77 179.12C118.29 179.12 118.77 179.12 119.33 179.12C119.39 179.12 119.4 179.2 119.33 179.21C118.84 179.26 118.33 179.39 117.87 179.46L116.41 179.69L113.49 180.15C111.543 180.43 109.597 180.743 107.65 181.09C107.57 181.09 107.55 180.94 107.65 180.91Z" fill="#263238"/>
<path d="M104 143.24C104.24 144.24 109 150.69 113.55 150.47C115.03 150.39 114.99 142.29 114.99 142.29L115.12 141.69L117 133.3L107.16 127L105.74 126.17C105.74 126.17 105.38 128.5 104.96 131.4C104.96 131.54 104.96 131.67 104.96 131.81C104.96 131.95 104.9 132.13 104.88 132.29C104.81 132.72 104.74 133.16 104.69 133.6C104.64 134.04 104.6 134.27 104.56 134.6L104.44 135.66C104.124 138.174 103.977 140.706 104 143.24Z" fill="#EB9481"/>
<path d="M105 131.39C105.853 133.743 107.207 135.882 108.968 137.66C110.73 139.439 112.856 140.814 115.2 141.69L117 133.3L107.16 127L105.74 126.17C105.74 126.17 105.38 128.49 105 131.39Z" fill="#263238"/>
<path d="M128.83 119.61C131.76 134.41 123.22 137.83 120.03 138.46C117.14 139.03 107.2 140.59 102.76 126.18C98.32 111.77 104.28 105.73 110.84 104.08C117.4 102.43 125.91 104.82 128.83 119.61Z" fill="#EB9481"/>
<path d="M124.51 117.35C124.18 117.425 123.846 117.482 123.51 117.52C123.159 117.635 122.781 117.635 122.43 117.52C122.329 117.459 122.25 117.366 122.207 117.256C122.163 117.145 122.158 117.024 122.19 116.91C122.289 116.694 122.445 116.509 122.64 116.374C122.835 116.238 123.063 116.157 123.3 116.14C123.772 116.03 124.268 116.101 124.69 116.34C124.777 116.403 124.844 116.489 124.884 116.588C124.924 116.687 124.935 116.796 124.916 116.901C124.898 117.007 124.85 117.105 124.778 117.184C124.706 117.263 124.613 117.321 124.51 117.35Z" fill="#263238"/>
<path d="M114 120.38C114.337 120.328 114.671 120.258 115 120.17C115.37 120.148 115.722 120.004 116 119.76C116.076 119.668 116.117 119.553 116.117 119.435C116.117 119.316 116.076 119.201 116 119.11C115.832 118.942 115.621 118.823 115.39 118.767C115.159 118.71 114.917 118.718 114.69 118.79C114.208 118.852 113.769 119.095 113.46 119.47C113.391 119.56 113.35 119.669 113.343 119.783C113.337 119.896 113.364 120.01 113.422 120.107C113.48 120.205 113.566 120.284 113.669 120.332C113.772 120.381 113.888 120.397 114 120.38Z" fill="#263238"/>
<path d="M116.22 122.28C116.22 122.28 116.15 122.28 116.16 122.38C116.34 123.38 116.38 124.58 115.52 125.05C115.52 125.05 115.52 125.12 115.52 125.11C116.63 124.78 116.56 123.2 116.22 122.28Z" fill="#263238"/>
<path d="M115.16 121.35C113.51 121.47 113.87 124.77 115.4 124.65C116.93 124.53 116.54 121.25 115.16 121.35Z" fill="#263238"/>
<path d="M114.53 121.6C114.26 121.81 114.02 122.17 113.67 122.25C113.32 122.33 112.94 122.02 112.67 121.72C112.67 121.72 112.61 121.72 112.67 121.72C112.73 122.35 113.04 122.97 113.73 122.99C114.42 123.01 114.73 122.4 114.82 121.75C114.76 121.67 114.64 121.51 114.53 121.6Z" fill="#263238"/>
<path d="M122.49 121.32C122.49 121.32 122.57 121.32 122.57 121.4C122.65 122.4 122.9 123.59 123.86 123.83V123.89C122.71 123.85 122.39 122.3 122.49 121.32Z" fill="#263238"/>
<path d="M123.29 120.16C124.92 119.87 125.38 123.16 123.87 123.42C122.36 123.68 121.92 120.41 123.29 120.16Z" fill="#263238"/>
<path d="M124 120.28C124.29 120.42 124.59 120.7 124.9 120.67C125.21 120.64 125.48 120.25 125.66 119.88C125.66 119.88 125.66 119.88 125.72 119.88C125.82 120.5 125.72 121.19 125.12 121.39C124.52 121.59 124.12 121.1 123.87 120.49C123.83 120.41 123.89 120.22 124 120.28Z" fill="#263238"/>
<path d="M118.08 130.9C118.34 131.13 118.61 131.44 118.98 131.45C119.362 131.415 119.733 131.303 120.07 131.12C120.07 131.12 120.13 131.12 120.07 131.12C119.937 131.33 119.75 131.501 119.528 131.613C119.306 131.726 119.058 131.777 118.81 131.76C118.619 131.718 118.442 131.626 118.3 131.492C118.157 131.358 118.054 131.188 118 131C118 131 118 130.87 118.08 130.9Z" fill="#263238"/>
<path d="M121.89 126.7C121.89 126.7 122.29 128.19 122.38 128.91C122.38 128.98 122.22 129.03 121.97 129.08C121.366 129.267 120.722 129.284 120.108 129.131C119.495 128.978 118.935 128.659 118.49 128.21C118.49 128.15 118.49 128.06 118.59 128.1C119.583 128.615 120.717 128.794 121.82 128.61C121.82 128.41 121.05 126.07 121.16 126.05C121.725 126.031 122.29 126.089 122.84 126.22C122.11 123.08 120.84 120.08 120.19 116.94C120.19 116.83 120.33 116.77 120.37 116.87C121.792 120.041 122.891 123.348 123.65 126.74C123.74 127.14 122.2 126.78 121.89 126.7Z" fill="#263238"/>
<path d="M121.87 128.82C121.543 129.456 121.058 129.997 120.46 130.39C120.128 130.596 119.74 130.694 119.35 130.67C118.51 130.6 118.35 129.86 118.35 129.2C118.376 128.861 118.44 128.525 118.54 128.2C119.554 128.76 120.722 128.977 121.87 128.82Z" fill="#263238"/>
<path d="M120.46 130.39C120.128 130.596 119.74 130.694 119.35 130.67C118.51 130.6 118.35 129.86 118.35 129.2C118.785 129.127 119.231 129.206 119.615 129.423C119.999 129.639 120.297 129.98 120.46 130.39Z" fill="#FF9ABB"/>
<path d="M104.41 127.48C107.24 127.48 107.05 120.98 107.05 120.98C107.05 120.98 118.61 117.29 118.25 107.52C120.299 111.228 123.698 114.003 127.74 115.27C127.74 115.27 125.83 104.77 117.16 103.9C117.16 103.9 106.23 101.59 101.55 110.67C96.87 119.75 102.51 127.51 104.41 127.48Z" fill="#263238"/>
<path d="M118.19 106.8C118.535 108.267 118.566 109.79 118.28 111.27C118.02 112.775 117.448 114.209 116.6 115.48C116.39 115.798 116.16 116.102 115.91 116.39L115.56 116.84C115.43 116.98 115.29 117.11 115.15 117.24C115.01 117.37 114.61 117.77 114.33 118.02L113.41 118.7C113.26 118.81 113.11 118.92 112.95 119.02L112.46 119.3L111.46 119.85C110.78 120.15 110.08 120.41 109.38 120.66C110.02 120.27 110.68 119.95 111.3 119.56L112.22 118.94L112.67 118.63C112.82 118.52 112.95 118.4 113.09 118.28L113.92 117.58C114.19 117.33 114.43 117.06 114.68 116.8L115.06 116.41L115.39 115.98C115.618 115.703 115.828 115.412 116.02 115.11C116.831 113.888 117.423 112.535 117.77 111.11C117.949 110.404 118.073 109.685 118.14 108.96C118.214 108.242 118.231 107.52 118.19 106.8Z" fill="#263238"/>
<path d="M100 118.59L99.3 120.01L103.98 123.43L105.48 120.24L100 118.59ZM103.65 121.97L100.42 119.87L100.57 119.54L104.2 120.85L103.65 121.97Z" fill="#47B88F"/>
<path d="M100.2 116.08L100.09 117.66L105.72 119.07L105.91 115.54L100.2 116.08ZM104.86 117.83L101.07 117.11V116.74L104.93 116.59L104.86 117.83Z" fill="#47B88F"/>
<path d="M106.58 126.21C106.58 126.21 102.79 121.88 100.8 123.28C98.81 124.68 102 131.2 104.59 131.85C104.917 131.959 105.262 132 105.605 131.971C105.948 131.942 106.282 131.844 106.586 131.682C106.89 131.52 107.158 131.298 107.374 131.03C107.589 130.761 107.748 130.452 107.84 130.12L106.58 126.21Z" fill="#EB9481"/>
<path d="M101.76 125.13C101.76 125.13 101.76 125.18 101.76 125.19C102.604 125.502 103.373 125.989 104.018 126.618C104.662 127.246 105.167 128.003 105.5 128.84C105.38 128.676 105.225 128.54 105.047 128.442C104.87 128.344 104.672 128.286 104.47 128.272C104.267 128.257 104.064 128.287 103.874 128.36C103.684 128.432 103.512 128.544 103.37 128.69C103.37 128.69 103.37 128.79 103.43 128.78C103.725 128.648 104.054 128.61 104.371 128.673C104.688 128.736 104.978 128.895 105.2 129.13C105.578 129.527 105.913 129.962 106.2 130.43C106.29 130.58 106.57 130.43 106.49 130.29C106.25 128 104.18 125.09 101.76 125.13Z" fill="#263238"/>
<path d="M95.25 147.2C82.53 169.14 63.52 219.5 60.08 226.7C57.75 231.59 83.31 244.48 84.4 240.92C85.78 236.37 103.52 177.71 104.68 151.54C105.22 139.42 99.32 140.18 95.25 147.2Z" fill="#EB9481"/>
<path d="M74 252.12C75.35 250.94 76 251.64 75.39 254.76C74.78 257.88 69.84 269.76 74.12 271.11C78.4 272.46 85.12 255.67 85.74 250.4C86.36 245.13 85.4 236.4 85.4 236.4C83.43 239.42 78 246.26 74 252.12Z" fill="#EB9481"/>
<path d="M81.5 270.46L49.5 264.7C48.5 264.62 47.89 263.96 48.06 263.22L50.99 250.14C51.1503 249.753 51.4351 249.431 51.7992 249.225C52.1633 249.018 52.5859 248.939 53 249L85 254.73C86 254.82 86.61 255.48 86.44 256.21L83.51 269.29C83.3593 269.685 83.0776 270.017 82.7118 270.23C82.3461 270.443 81.9183 270.524 81.5 270.46Z" fill="#A6A6A6"/>
<path d="M81.87 268.92L49.81 263.16C48.81 263.07 48.21 262.41 48.37 261.68L51.31 248.6C51.4588 248.205 51.7386 247.873 52.1027 247.66C52.4668 247.448 52.893 247.366 53.31 247.43L85.37 253.19C86.37 253.27 86.97 253.93 86.81 254.66L83.9 267.75C83.7471 268.148 83.462 268.482 83.0924 268.695C82.7228 268.908 82.2912 268.987 81.87 268.92Z" fill="#C7C7C7"/>
<path d="M81.27 264.77C80.53 264.49 79.83 264.77 79.71 265.39C79.6939 265.745 79.7961 266.096 80.0005 266.387C80.205 266.679 80.5002 266.894 80.84 267C81.58 267.28 82.28 267 82.4 266.39C82.4183 266.033 82.3172 265.68 82.1126 265.386C81.908 265.093 81.6115 264.876 81.27 264.77Z" fill="#263238"/>
<path d="M61.79 224.4C55.26 233.2 49.48 243.56 49.34 255.01C49.2976 256.282 49.6813 257.531 50.43 258.56C50.28 263.68 52.65 265.3 52.65 265.3C53.97 270.11 56.65 271.43 56.65 271.43C56.65 271.43 57.03 275.56 59.94 275.5C62.85 275.44 64.45 268.67 66.94 263.73C72.77 252.39 83.37 239.51 85.37 236.41L61.79 224.4Z" fill="#EB9481"/>
<path d="M63.87 249.16C62.1306 252.46 60.6171 255.875 59.34 259.38C58.1774 263.31 57.3083 267.321 56.74 271.38C56.74 271.406 56.7295 271.432 56.7107 271.451C56.692 271.469 56.6665 271.48 56.64 271.48C56.6135 271.48 56.588 271.469 56.5693 271.451C56.5505 271.432 56.54 271.406 56.54 271.38C56.8583 263.45 59.3414 255.759 63.72 249.14C63.82 248.93 64 249 63.87 249.16Z" fill="#263238"/>
<path d="M57.54 244.65C56.12 248.02 53.66 253.95 52.77 265.31C52.77 265.31 52.71 265.31 52.7 265.31C52.3109 258.1 53.9311 250.923 57.38 244.58C57.49 244.38 57.64 244.42 57.54 244.65Z" fill="#263238"/>
<path d="M54.1 242.29C51.9 248.11 51.24 252.06 50.46 258.53H50.39C50.51 251.08 51.39 248.38 53.91 242.18C54 242 54.18 242.06 54.1 242.29Z" fill="#263238"/>
</svg>
