<svg width="20" height="20" viewBox="0 0 20 20" fill="none" xmlns="http://www.w3.org/2000/svg">
<path d="M8.61793 17.2223C8.41593 17.3541 8.18015 17.4248 7.93894 17.4258H7.93207C7.6933 17.4234 7.46018 17.3528 7.26019 17.2224C7.22806 17.2008 7.19197 17.1858 7.15401 17.1783C7.11605 17.1708 7.07698 17.1708 7.03905 17.1785C7.00112 17.1861 6.96508 17.2012 6.93301 17.2229C6.90095 17.2446 6.87349 17.2724 6.85223 17.3047C6.83096 17.337 6.81632 17.3732 6.80913 17.4113C6.80194 17.4493 6.80236 17.4884 6.81036 17.5262C6.81836 17.5641 6.83377 17.6 6.85572 17.6318C6.87767 17.6637 6.90572 17.6909 6.93824 17.7119C7.23243 17.9056 7.57656 18.0098 7.92883 18.0117H7.9389C8.29447 18.0103 8.64207 17.9062 8.93988 17.7119C9.00481 17.6692 9.05011 17.6025 9.06583 17.5264C9.08156 17.4503 9.0664 17.3711 9.02371 17.3062C8.98101 17.2412 8.91428 17.1959 8.83818 17.1802C8.76208 17.1645 8.68285 17.1796 8.61793 17.2223ZM6.18125 15.1429C6.1233 15.1429 6.06666 15.1601 6.01848 15.1923C5.9703 15.2245 5.93275 15.2702 5.91058 15.3238C5.88841 15.3773 5.8826 15.4362 5.89391 15.493C5.90521 15.5499 5.93312 15.6021 5.97409 15.643C6.01506 15.684 6.06726 15.7119 6.12409 15.7232C6.18092 15.7345 6.23983 15.7287 6.29336 15.7065C6.3469 15.6844 6.39265 15.6468 6.42484 15.5986C6.45703 15.5505 6.47422 15.4938 6.47422 15.4359C6.47422 15.3582 6.44335 15.2837 6.38841 15.2287C6.33347 15.1738 6.25895 15.1429 6.18125 15.1429ZM13.6188 10.9316C12.8042 10.5685 11.7518 10.5133 11.1313 10.7779C10.4828 10.2656 9.72063 9.91682 8.90902 9.76099C8.09741 9.60517 7.26023 9.64688 6.46812 9.8826C6.45707 9.8852 6.44618 9.88844 6.43551 9.89232C5.82261 10.08 5.25014 10.3804 4.7475 10.7781C4.12711 10.5133 3.07426 10.5685 2.25929 10.9315C1.51945 11.261 0.91574 11.8694 0.513474 12.691C0.114685 13.5055 -0.0572292 14.4754 0.0163646 15.496C0.0194966 15.5395 0.0322823 15.5817 0.0537902 15.6196C0.0752981 15.6574 0.104987 15.6901 0.140694 15.715C0.176401 15.74 0.217227 15.7567 0.260199 15.7639C0.303171 15.7711 0.347207 15.7686 0.389099 15.7566C0.969269 15.5908 1.5293 15.3613 2.05894 15.0722C2.29715 14.9419 2.54176 14.7914 2.78414 14.6275C2.78147 14.6942 2.78011 14.7609 2.78004 14.8276C2.78004 17.6723 5.09437 19.9866 7.93906 19.9866C10.7837 19.9866 13.0981 17.6723 13.0981 14.8276C13.0981 14.7606 13.0966 14.6939 13.0941 14.6275C13.3362 14.7912 13.581 14.9417 13.8196 15.0722C14.349 15.3613 14.9089 15.5909 15.489 15.7566C15.5309 15.7686 15.5749 15.771 15.6179 15.7638C15.6608 15.7567 15.7017 15.74 15.7374 15.715C15.7731 15.69 15.8028 15.6574 15.8243 15.6195C15.8458 15.5817 15.8586 15.5394 15.8617 15.496C15.9353 14.4755 15.7634 13.5055 15.3646 12.691C14.9623 11.8694 14.3586 11.261 13.6188 10.9315V10.9316ZM7.93902 10.2545C8.97288 10.2558 9.97589 10.6068 10.785 11.2504C11.5941 11.894 12.1617 12.7924 12.3955 13.7994C11.6479 14.0117 10.8607 14.0443 10.098 13.8947C9.2775 13.7283 8.55027 13.3447 7.99492 12.7855C7.81362 12.6028 7.65128 12.4021 7.51039 12.1867C7.50781 12.1824 7.50484 12.1784 7.50203 12.1742C7.15747 11.6325 6.93626 11.0216 6.85406 10.3849C7.20919 10.2981 7.57345 10.2544 7.93902 10.2545ZM6.28797 10.563C6.37917 11.1675 6.58031 11.7502 6.88144 12.2822C5.93101 13.0996 4.7502 13.6016 3.50215 13.7189C3.68123 13.0089 4.02753 12.352 4.51214 11.803C4.99675 11.254 5.60563 10.8288 6.28797 10.563ZM1.77785 14.5581C1.39628 14.7664 0.997487 14.9414 0.585896 15.0813C0.57988 14.3028 0.734724 13.5718 1.0398 12.9487C1.38082 12.2521 1.88496 11.7397 2.49769 11.4668C3.0775 11.2085 3.77468 11.1489 4.24101 11.2354C3.54217 11.9529 3.06768 12.8586 2.87562 13.8417C2.52757 14.1067 2.1607 14.3462 1.77793 14.5581H1.77785ZM7.93906 19.4007C7.29528 19.4008 6.65873 19.2649 6.07108 19.002C5.48343 18.7391 4.95793 18.3551 4.52895 17.875C4.09998 17.395 3.77721 16.8298 3.58177 16.2164C3.38632 15.603 3.32261 14.9552 3.3948 14.3155C4.7973 14.2184 6.13272 13.6783 7.20847 12.7732C7.3228 12.9228 7.44664 13.0648 7.57922 13.1985C8.21644 13.8401 9.04718 14.2794 9.98156 14.469C10.3285 14.5391 10.6817 14.5742 11.0357 14.5738C11.5268 14.5731 12.0158 14.5084 12.4903 14.3815C12.5046 14.5284 12.5119 14.6771 12.5121 14.8276C12.5108 16.0401 12.0285 17.2024 11.1712 18.0597C10.3139 18.917 9.15152 19.3993 7.9391 19.4007L7.93906 19.4007ZM14.1007 14.5581C13.718 14.3464 13.3512 14.1071 13.0032 13.8422C12.8112 12.859 12.3367 11.9531 11.6378 11.2353C12.1041 11.1489 12.8009 11.2086 13.3804 11.4668C13.9931 11.7397 14.4973 12.2521 14.8383 12.9487C15.1434 13.5718 15.2982 14.3028 15.2922 15.0813C14.8807 14.9415 14.4821 14.7665 14.1007 14.5581ZM19.7119 3.49576C19.7116 3.49459 19.7114 3.49342 19.7111 3.49228C19.7075 3.47966 19.7029 3.46731 19.6976 3.45529C19.4521 2.76529 19.064 2.13471 18.5587 1.60456C18.0534 1.07441 17.4421 0.656576 16.7647 0.37823C16.0873 0.0998833 15.3588 -0.0327382 14.6268 -0.0110083C13.8947 0.0107216 13.1754 0.186316 12.5157 0.504354C12.506 0.507961 12.4966 0.512068 12.4874 0.516658C12.4787 0.521085 12.4702 0.525877 12.4621 0.531033C11.5917 0.963399 10.8592 1.62995 10.3468 2.45578C9.8344 3.28161 9.5625 4.23397 9.56164 5.20584C9.56164 8.08369 11.903 10.425 14.7808 10.425C17.6586 10.425 20 8.08365 20 5.20584C20.0004 4.62371 19.903 4.04565 19.7119 3.4958V3.49576ZM14.7808 0.572596C15.685 0.573536 16.5693 0.838658 17.3248 1.33537C18.0804 1.83209 18.6744 2.53875 19.0337 3.36849C17.9901 3.59939 16.9027 3.53355 15.8946 3.17842C14.3682 2.63263 13.4685 1.55459 13.0445 0.910486C13.596 0.686787 14.1857 0.572043 14.7808 0.572596ZM12.4613 1.19631C12.7182 2.04213 12.5471 2.96377 11.9925 3.61732C11.4232 4.28822 10.6396 4.45119 10.2034 4.4874C10.3114 3.80549 10.5702 3.15626 10.9607 2.58695C11.3513 2.01763 11.8639 1.54256 12.4612 1.19631H12.4613ZM14.7808 9.83904C13.5524 9.83765 12.3748 9.34906 11.5062 8.48046C10.6376 7.61187 10.149 6.43421 10.1476 5.20584C10.1476 5.16342 10.1482 5.12116 10.1494 5.07908C10.6707 5.05287 11.6889 4.8806 12.4392 3.99642C12.9036 3.44121 13.1597 2.74142 13.1636 2.01763C13.8532 2.78963 14.7238 3.37811 15.6973 3.73013C17.1421 4.24678 18.4507 4.10502 19.2336 3.92408C19.4319 4.614 19.4673 5.34056 19.3369 6.04649C19.2065 6.75242 18.9139 7.41841 18.4822 7.99193C18.0504 8.56546 17.4914 9.03084 16.849 9.35139C16.2067 9.67193 15.4987 9.83887 14.7808 9.83904ZM16.5386 4.91287C16.4807 4.91287 16.424 4.93005 16.3759 4.96224C16.3277 4.99444 16.2901 5.04019 16.268 5.09372C16.2458 5.14726 16.24 5.20616 16.2513 5.26299C16.2626 5.31982 16.2905 5.37203 16.3315 5.413C16.3724 5.45397 16.4246 5.48187 16.4815 5.49318C16.5383 5.50448 16.5972 5.49868 16.6507 5.47651C16.7043 5.45433 16.75 5.41678 16.7822 5.3686C16.8144 5.32042 16.8316 5.26378 16.8316 5.20584C16.8316 5.12814 16.8007 5.05362 16.7458 4.99868C16.6908 4.94374 16.6163 4.91287 16.5386 4.91287ZM9.69683 15.1429C9.63889 15.1429 9.58225 15.1601 9.53407 15.1922C9.48589 15.2244 9.44834 15.2702 9.42617 15.3237C9.40399 15.3773 9.39819 15.4362 9.40949 15.493C9.4208 15.5498 9.4487 15.602 9.48967 15.643C9.53065 15.684 9.58285 15.7119 9.63968 15.7232C9.69651 15.7345 9.75541 15.7287 9.80895 15.7065C9.86248 15.6843 9.90824 15.6468 9.94043 15.5986C9.97262 15.5504 9.9898 15.4938 9.9898 15.4358C9.9898 15.3581 9.95894 15.2836 9.90399 15.2287C9.84905 15.1737 9.77453 15.1429 9.69683 15.1429ZM15.4597 7.26138C15.2577 7.39321 15.0219 7.46385 14.7807 7.46482H14.7738C14.5351 7.46246 14.3019 7.39189 14.1019 7.26142C14.0698 7.23987 14.0337 7.22489 13.9958 7.21736C13.9578 7.20983 13.9187 7.2099 13.8808 7.21755C13.8429 7.22521 13.8068 7.2403 13.7748 7.26196C13.7427 7.28362 13.7152 7.31142 13.694 7.34375C13.6727 7.37608 13.6581 7.4123 13.6509 7.45033C13.6437 7.48835 13.6441 7.52742 13.6521 7.56528C13.6601 7.60314 13.6755 7.63904 13.6975 7.67091C13.7194 7.70278 13.7475 7.72999 13.78 7.75096C14.0742 7.94471 14.4183 8.04886 14.7705 8.05076H14.7804C15.1361 8.04962 15.4838 7.94551 15.7816 7.75099C15.8466 7.7083 15.8919 7.64156 15.9076 7.56546C15.9233 7.48937 15.9082 7.41014 15.8655 7.34521C15.8228 7.28029 15.756 7.23498 15.6799 7.21926C15.6038 7.20354 15.5246 7.21869 15.4597 7.26138ZM13.023 4.91283C12.965 4.91283 12.9084 4.93001 12.8602 4.9622C12.812 4.9944 12.7745 5.04015 12.7523 5.09368C12.7301 5.14722 12.7243 5.20612 12.7356 5.26295C12.7469 5.31978 12.7748 5.37199 12.8158 5.41296C12.8568 5.45393 12.909 5.48183 12.9658 5.49314C13.0226 5.50444 13.0815 5.49864 13.1351 5.47647C13.1886 5.45429 13.2344 5.41674 13.2666 5.36856C13.2988 5.32038 13.3159 5.26374 13.3159 5.2058C13.3159 5.1281 13.2851 5.05358 13.2301 4.99864C13.1752 4.9437 13.1007 4.91283 13.023 4.91283Z" fill="#17343D"/>
</svg>
