<svg width="20" height="20" viewBox="0 0 20 20" fill="none" xmlns="http://www.w3.org/2000/svg">
<g clip-path="url(#clip0_114_12090)">
<path d="M5.07157 19.9292C4.29798 19.9206 3.53167 19.7787 2.80627 19.5098C2.27656 19.314 1.7973 19.0023 1.40353 18.5975C0.997602 18.2045 0.685428 17.7251 0.490196 17.1949C0.22152 16.4695 0.0798397 15.7033 0.0713725 14.9298C0.0119608 13.6439 0 13.2582 0 10C0 6.74176 0.0131373 6.35745 0.0707843 5.07059C0.0802789 4.29741 0.222134 3.53156 0.490196 2.80627C0.686378 2.27647 0.99811 1.79702 1.40275 1.40275C1.79603 0.997182 2.27551 0.685298 2.80569 0.490196C3.53108 0.221297 4.2974 0.0794173 5.07098 0.0707843C6.35725 0.0119608 6.74353 0 10 0C13.2565 0 13.6425 0.0131373 14.9294 0.0707843C15.7028 0.0802119 16.4688 0.222068 17.1943 0.490196C17.7243 0.685556 18.2036 0.997331 18.5971 1.40255C19.0024 1.79613 19.3143 2.27561 19.5098 2.80569C19.7788 3.53107 19.9207 4.29738 19.9294 5.07098C19.9882 6.35784 20.0002 6.74314 20.0002 10.0004C20.0002 13.2576 19.9882 13.6429 19.9294 14.9298C19.9201 15.7033 19.7781 16.4694 19.5098 17.1949C19.3068 17.721 18.9959 18.1988 18.5971 18.5975C18.1983 18.9962 17.7205 19.307 17.1943 19.5098C16.4689 19.7788 15.7026 19.9207 14.929 19.9294C13.6433 19.9882 13.2569 20.0002 9.99961 20.0002C6.74235 20.0002 6.35706 19.9888 5.07137 19.9294" fill="url(#paint0_radial_114_12090)"/>
<path d="M5.07157 19.9292C4.29798 19.9206 3.53167 19.7787 2.80627 19.5098C2.27656 19.314 1.7973 19.0023 1.40353 18.5975C0.997602 18.2045 0.685428 17.7251 0.490196 17.1949C0.22152 16.4695 0.0798397 15.7033 0.0713725 14.9298C0.0119608 13.6439 0 13.2582 0 10C0 6.74176 0.0131373 6.35745 0.0707843 5.07059C0.0802789 4.29741 0.222134 3.53156 0.490196 2.80627C0.686378 2.27647 0.99811 1.79702 1.40275 1.40275C1.79603 0.997182 2.27551 0.685298 2.80569 0.490196C3.53108 0.221297 4.2974 0.0794173 5.07098 0.0707843C6.35725 0.0119608 6.74353 0 10 0C13.2565 0 13.6425 0.0131373 14.9294 0.0707843C15.7028 0.0802119 16.4688 0.222068 17.1943 0.490196C17.7243 0.685556 18.2036 0.997331 18.5971 1.40255C19.0024 1.79613 19.3143 2.27561 19.5098 2.80569C19.7788 3.53107 19.9207 4.29738 19.9294 5.07098C19.9882 6.35784 20.0002 6.74314 20.0002 10.0004C20.0002 13.2576 19.9882 13.6429 19.9294 14.9298C19.9201 15.7033 19.7781 16.4694 19.5098 17.1949C19.3068 17.721 18.9959 18.1988 18.5971 18.5975C18.1983 18.9962 17.7205 19.307 17.1943 19.5098C16.4689 19.7788 15.7026 19.9207 14.929 19.9294C13.6433 19.9882 13.2569 20.0002 9.99961 20.0002C6.74235 20.0002 6.35706 19.9888 5.07137 19.9294" fill="url(#paint1_radial_114_12090)"/>
<path d="M7.54452 10.0424C7.54456 9.55255 7.68985 9.07372 7.96203 8.66645C8.23421 8.25918 8.62105 7.94177 9.07363 7.75436C9.5262 7.56695 10.0242 7.51795 10.5046 7.61357C10.985 7.70919 11.4263 7.94512 11.7727 8.29153C12.119 8.63795 12.3548 9.07929 12.4503 9.55974C12.5458 10.0402 12.4967 10.5382 12.3092 10.9907C12.1217 11.4432 11.8042 11.83 11.3968 12.1021C10.9895 12.3742 10.5106 12.5193 10.0208 12.5193C9.36397 12.5192 8.73409 12.2582 8.2697 11.7937C7.80532 11.3292 7.54446 10.6992 7.54452 10.0424ZM6.20549 10.0424C6.20549 10.797 6.42926 11.5346 6.84849 12.1621C7.26772 12.7895 7.86359 13.2785 8.56074 13.5673C9.25789 13.856 10.025 13.9316 10.7651 13.7844C11.5052 13.6372 12.185 13.2738 12.7186 12.7402C13.2522 12.2066 13.6156 11.5268 13.7628 10.7867C13.91 10.0466 13.8344 9.2795 13.5457 8.58235C13.2569 7.88519 12.7679 7.28933 12.1405 6.8701C11.513 6.45087 10.7754 6.2271 10.0208 6.2271C9.51975 6.22708 9.02361 6.32575 8.56071 6.51748C8.09781 6.7092 7.6772 6.99023 7.32291 7.34452C6.96862 7.69881 6.68759 8.11941 6.49587 8.58232C6.30414 9.04522 6.20547 9.54136 6.20549 10.0424ZM13.0955 6.07593C13.0954 6.25226 13.1476 6.42466 13.2455 6.57132C13.3434 6.71798 13.4826 6.83232 13.6455 6.89987C13.8084 6.96742 13.9877 6.98516 14.1606 6.95084C14.3336 6.91651 14.4925 6.83166 14.6172 6.70703C14.742 6.5824 14.8269 6.42358 14.8614 6.25064C14.8959 6.07771 14.8783 5.89844 14.8109 5.7355C14.7435 5.57255 14.6293 5.43326 14.4827 5.33523C14.3361 5.2372 14.1638 5.18483 13.9875 5.18475C13.7511 5.18486 13.5244 5.27877 13.3573 5.44587C13.1901 5.61296 13.0961 5.83957 13.0959 6.07593M7.01942 16.0904C6.54826 16.0853 6.08151 15.999 5.63961 15.8355C5.31914 15.712 5.02808 15.5228 4.78517 15.2799C4.54225 15.0371 4.35288 14.7462 4.22922 14.4257C4.06564 13.9839 3.97942 13.5171 3.97432 13.0459C3.93824 12.2628 3.93118 12.0275 3.93118 10.0434C3.93118 8.05926 3.93902 7.82456 3.97432 7.04064C3.98004 6.56954 4.06624 6.10288 4.22922 5.66083C4.35273 5.34025 4.54206 5.04912 4.78498 4.8062C5.0279 4.56328 5.31904 4.37395 5.63961 4.25044C6.08149 4.08687 6.54826 4.00064 7.01942 3.99554C7.80255 3.95946 8.03785 3.9524 10.0212 3.9524C12.0045 3.9524 12.24 3.96005 13.0239 3.99574C13.495 4.00145 13.9617 4.08766 14.4037 4.25064C14.7243 4.37416 15.0154 4.56349 15.2583 4.80641C15.5013 5.04933 15.6906 5.34046 15.8141 5.66103C15.9777 6.10291 16.0639 6.56967 16.069 7.04083C16.1051 7.82515 16.1122 8.05926 16.1122 10.0436C16.1122 12.0279 16.1049 12.2624 16.069 13.0463C16.0635 13.5174 15.9773 13.9841 15.8141 14.4261C15.6905 14.7465 15.5011 15.0375 15.2582 15.2803C15.0153 15.5231 14.7242 15.7124 14.4037 15.8359C13.9618 15.9995 13.4951 16.0857 13.0239 16.0908C12.2408 16.1269 12.0055 16.134 10.0212 16.134C8.03687 16.134 7.80236 16.1267 7.01942 16.0908M6.95785 2.6577C6.34135 2.66982 5.73137 2.7865 5.15393 3.00279C4.6603 3.19365 4.212 3.48555 3.83777 3.85978C3.46355 4.23401 3.17164 4.6823 2.98079 5.17593C2.76453 5.75338 2.64784 6.36335 2.63569 6.97985C2.59903 7.77201 2.59079 8.02534 2.59079 10.0432C2.59079 12.061 2.59922 12.3142 2.63569 13.1065C2.64784 13.723 2.76453 14.333 2.98079 14.9104C3.17165 15.4041 3.46356 15.8524 3.83779 16.2266C4.21201 16.6008 4.66031 16.8927 5.15393 17.0836C5.7314 17.2998 6.34136 17.4165 6.95785 17.4287C7.7504 17.4648 8.00334 17.4736 10.0212 17.4736C12.039 17.4736 12.2922 17.4651 13.0845 17.4287C13.701 17.4165 14.311 17.2998 14.8884 17.0836C15.3821 16.8927 15.8303 16.6008 16.2046 16.2266C16.5788 15.8524 16.8707 15.4041 17.0616 14.9104C17.2781 14.3331 17.3948 13.7231 17.4067 13.1065C17.4428 12.3138 17.451 12.061 17.451 10.0432C17.451 8.02534 17.4426 7.77221 17.4067 6.97985C17.3946 6.36335 17.2779 5.75337 17.0616 5.17593C16.8707 4.6824 16.5789 4.23417 16.2048 3.85995C15.8307 3.48573 15.3825 3.19378 14.889 3.00279C14.3116 2.78636 13.7016 2.66967 13.0851 2.6577C12.2927 2.62142 12.0396 2.61279 10.0222 2.61279C8.00471 2.61279 7.75098 2.62123 6.95824 2.6577" fill="white"/>
</g>
<defs>
<radialGradient id="paint0_radial_114_12090" cx="0" cy="0" r="1" gradientUnits="userSpaceOnUse" gradientTransform="translate(1.29431 19.562) scale(25.3925)">
<stop offset="0.09" stop-color="#FA8F21"/>
<stop offset="0.78" stop-color="#D82D7E"/>
</radialGradient>
<radialGradient id="paint1_radial_114_12090" cx="0" cy="0" r="1" gradientUnits="userSpaceOnUse" gradientTransform="translate(13.8533 18.9196) scale(22.3457)">
<stop offset="0.64" stop-color="#8C3AAA" stop-opacity="0"/>
<stop offset="1" stop-color="#8C3AAA"/>
</radialGradient>
<clipPath id="clip0_114_12090">
<rect width="20" height="20" fill="white"/>
</clipPath>
</defs>
</svg>
