<svg width="20" height="18" viewBox="0 0 20 18" fill="none" xmlns="http://www.w3.org/2000/svg">
<path d="M18.2256 9.91975C18.0039 9.91932 17.7853 9.97159 17.5879 10.0723L13.224 12.2727H12.6366C12.7555 12.0619 12.8179 11.8239 12.8176 11.5818C12.8176 10.7998 12.1776 10.1636 11.391 10.1636H6.85647C6.8012 10.1636 6.74669 10.1762 6.69705 10.2005L3.6 11.7112V11.639C3.6 11.1349 3.17709 10.7091 2.67651 10.7091H1.22258C0.728907 10.7091 0.327271 11.1262 0.327271 11.6389V16.2914C0.327271 16.7907 0.720543 17.1818 1.22258 17.1818H2.67647C3.18571 17.1818 3.6 16.7824 3.6 16.2914V16.2364H7.03818C7.05989 16.2364 7.08152 16.2344 7.10291 16.2306L14.3452 14.9208C14.3798 14.9146 14.4132 14.9034 14.4446 14.8875L18.8861 12.6413C19.5909 12.2838 19.874 11.4204 19.5172 10.7167C19.2679 10.2251 18.773 9.91975 18.2256 9.91975ZM2.87273 16.2914C2.87273 16.3922 2.77087 16.4546 2.67651 16.4546H1.22258C1.12051 16.4546 1.05454 16.3905 1.05454 16.2914V11.6389C1.05454 11.5431 1.12356 11.4364 1.22258 11.4364H2.67647C2.77552 11.4364 2.87269 11.5367 2.87269 11.6389V16.2914H2.87273ZM18.5575 11.9925L14.1636 14.2146L7.00556 15.5091H3.6V12.5204L6.94043 10.8909H11.3911C11.7767 10.8909 12.0904 11.2008 12.0904 11.5818C12.0904 11.9628 11.7767 12.2727 11.3911 12.2727H7.34545C7.14462 12.2727 6.98182 12.4356 6.98182 12.6364C6.98182 12.8372 7.14462 13 7.34545 13H13.3105C13.3674 13 13.4234 12.9867 13.4742 12.9611L17.9161 10.7212C18.0119 10.6723 18.118 10.6469 18.2256 10.647C18.4934 10.647 18.7458 10.8035 18.8686 11.0456C19.0441 11.3917 18.9044 11.8165 18.5575 11.9925ZM6.08123 4.7611C6.08123 6.93913 7.8532 8.71106 10.0312 8.71106C12.2093 8.71106 13.9812 6.9391 13.9812 4.7611C13.9812 2.58306 12.2092 0.811096 10.0312 0.811096C7.85323 0.811096 6.08123 2.58302 6.08123 4.7611ZM13.2539 4.7611C13.2539 6.53808 11.8083 7.98379 10.0312 7.98379C8.25422 7.98379 6.80851 6.53808 6.80851 4.7611C6.80851 2.98408 8.25422 1.53837 10.0312 1.53837C11.8083 1.53837 13.2539 2.98408 13.2539 4.7611Z" fill="#17343D"/>
</svg>
