<svg width="18" height="18" viewBox="0 0 18 18" fill="none" xmlns="http://www.w3.org/2000/svg">
<path d="M17.5687 9.44375L15.0687 11.9437L14.1812 11.0563L15.6187 9.625H12.125C11.6277 9.625 11.1508 9.42746 10.7992 9.07583C10.4475 8.72419 10.25 8.24728 10.25 7.75V2.125C10.25 1.95924 10.1842 1.80027 10.0669 1.68306C9.94973 1.56585 9.79076 1.5 9.625 1.5H2.125C1.95924 1.5 1.80027 1.56585 1.68306 1.68306C1.56585 1.80027 1.5 1.95924 1.5 2.125V15.875C1.5 16.0408 1.56585 16.1997 1.68306 16.3169C1.80027 16.4342 1.95924 16.5 2.125 16.5H9.625C9.79076 16.5 9.94973 16.4342 10.0669 16.3169C10.1842 16.1997 10.25 16.0408 10.25 15.875V11.5H11.5V15.875C11.5 16.3723 11.3025 16.8492 10.9508 17.2008C10.5992 17.5525 10.1223 17.75 9.625 17.75H2.125C1.62772 17.75 1.15081 17.5525 0.799175 17.2008C0.447544 16.8492 0.25 16.3723 0.25 15.875V2.125C0.25 1.62772 0.447544 1.15081 0.799175 0.799175C1.15081 0.447544 1.62772 0.25 2.125 0.25H9.625C10.1223 0.25 10.5992 0.447544 10.9508 0.799175C11.3025 1.15081 11.5 1.62772 11.5 2.125V7.75C11.5 7.91576 11.5658 8.07473 11.6831 8.19194C11.8003 8.30915 11.9592 8.375 12.125 8.375H15.625L14.2125 6.95L15.1 6.06875L17.5687 8.56875C17.6833 8.68558 17.7474 8.84265 17.7474 9.00625C17.7474 9.16985 17.6833 9.32692 17.5687 9.44375Z" fill="#FF3436"/>
</svg>
