<svg width="20" height="20" viewBox="0 0 20 20" fill="none" xmlns="http://www.w3.org/2000/svg">
<g clip-path="url(#clip0_114_12083)">
<path d="M15.5109 0H4.48909C2.00983 0 0 2.00983 0 4.48909V15.5109C0 17.9902 2.00983 20 4.48909 20H15.5109C17.9902 20 20 17.9902 20 15.5109V4.48909C20 2.00983 17.9902 0 15.5109 0Z" fill="#00C7FF"/>
<path fill-rule="evenodd" clip-rule="evenodd" d="M8.13302 12.5457C7.66053 12.534 7.20337 12.3757 6.82482 12.0928C6.44627 11.8098 6.16505 11.4161 6.0201 10.9662C6.3418 11.0375 6.67519 11.0375 6.99689 10.9662C6.69264 10.8947 6.40641 10.7613 6.15609 10.5741C5.90577 10.387 5.69675 10.1502 5.5421 9.87861C5.31586 9.51537 5.20031 9.09411 5.20957 8.66628C5.5201 8.83721 5.86671 8.93217 6.221 8.94338C5.74553 8.61616 5.41143 8.1212 5.28577 7.55786C5.15874 6.99792 5.25043 6.41059 5.5421 5.91602C6.11275 6.61962 6.82407 7.19627 7.63051 7.60903C8.43694 8.02179 9.32069 8.26156 10.2252 8.31297C10.2252 8.22291 10.2252 8.14671 10.1905 8.06358C10.1282 7.59206 10.2154 7.11288 10.4399 6.69356C10.6644 6.27424 11.0147 5.93592 11.4417 5.72628C11.8686 5.51665 12.3505 5.44626 12.8196 5.52504C13.2886 5.60382 13.7211 5.8278 14.0561 6.16541C14.0707 6.18145 14.0894 6.19318 14.1101 6.19929C14.1309 6.2054 14.153 6.20566 14.1739 6.20005C14.6385 6.10124 15.085 5.93062 15.4971 5.69433C15.3315 6.20208 14.9964 6.63746 14.548 6.92745C14.9853 6.87884 15.4127 6.7644 15.8157 6.58799L15.5871 6.92745C15.3468 7.22247 15.0698 7.48555 14.7627 7.71027C14.7513 7.71766 14.7421 7.72799 14.736 7.74018C14.7299 7.75236 14.7272 7.76595 14.7281 7.77954C14.7414 8.11726 14.7275 8.45549 14.6865 8.79097C14.5983 9.49212 14.3995 10.1749 14.0977 10.8138C13.7919 11.4761 13.3774 12.0826 12.8715 12.6081C12.0281 13.488 10.9394 14.0938 9.74715 14.3469C9.3303 14.4375 8.90584 14.4885 8.4794 14.4993C7.19904 14.5431 5.93484 14.2029 4.84934 13.5225L4.79391 13.4879C5.56211 13.5708 6.33881 13.4588 7.05231 13.1623C7.43923 13.0075 7.8029 12.8001 8.13302 12.5457Z" fill="white"/>
</g>
<defs>
<clipPath id="clip0_114_12083">
<rect width="20" height="20" fill="white"/>
</clipPath>
</defs>
</svg>
