<svg width="268" height="80" viewBox="0 0 268 80" fill="none" xmlns="http://www.w3.org/2000/svg">
<g clip-path="url(#clip0_968_26275)">
<path d="M131.196 4.91769H138.08V26.3447C138.08 30.1208 136.917 33.0187 134.504 34.9506C129.051 38.9023 121.72 38.9023 116.267 34.9506C113.853 33.0187 112.691 30.1208 112.691 26.3447V4.91769H119.575V26.3447C119.575 28.5401 120.111 30.033 121.184 30.9989C123.687 32.9309 127.263 32.9309 129.766 30.9989C130.839 30.033 131.286 28.4523 131.286 26.3447L131.196 4.91769ZM153.187 18.0022C151.489 17.9144 149.79 18.7926 148.986 20.2854V37.4095H142.371V13.2602H148.539L148.718 15.9825C150.416 13.8749 153.098 12.6455 155.78 12.7333C157.836 12.6455 159.892 13.348 161.412 14.753C162.842 16.1581 163.557 18.5291 163.557 21.9539V37.3217H156.942V22.0417C156.942 20.4611 156.584 19.4073 155.959 18.8804C155.243 18.2657 154.26 17.9144 153.187 18.0022ZM168.027 7.02526C168.027 6.14711 168.385 5.26895 169.01 4.65424C170.53 3.42482 172.854 3.42482 174.374 4.65424C175 5.26895 175.447 6.14711 175.357 7.02526C175.357 7.90342 175 8.78158 174.374 9.39629C172.854 10.6257 170.53 10.6257 169.01 9.39629C168.385 8.78158 168.027 7.90342 168.027 7.02526ZM175.089 13.2602V37.4095H168.474V13.2602H175.089ZM192.164 37.3217C190.912 37.7607 189.571 37.9364 188.23 37.9364C186.353 38.0242 184.565 37.4095 183.045 36.2679C181.794 35.2141 181.168 33.37 181.168 30.7355V18.0022H177.503V13.2602H181.168V7.28871H187.783V13.2602H191.985V18.0022H187.783V30.1208C187.694 30.8233 187.873 31.6136 188.409 32.1405C188.946 32.4918 189.661 32.6674 190.286 32.6674C190.644 32.6674 191.002 32.6674 191.359 32.5796C191.717 32.5796 191.985 32.4918 192.164 32.4918V37.3217ZM215.943 33.5456C214.96 34.775 213.797 35.8288 212.367 36.5313C210.49 37.4973 208.434 37.9364 206.378 37.9364C202.534 37.9364 199.494 36.7948 197.349 34.5116C195.203 32.2284 194.041 29.3304 194.131 26.2569V25.3787C193.952 22.1296 195.114 18.8804 197.259 16.4215C199.405 14.0505 202.444 12.7333 205.662 12.9089C209.238 12.9089 211.92 13.9627 213.708 16.1581C215.496 18.3535 216.479 21.2514 216.479 24.764V27.4863H200.835C201.014 28.8914 201.64 30.2964 202.712 31.2624C203.785 32.2284 205.305 32.7552 206.825 32.6674C209.149 32.7552 211.384 31.7893 212.725 29.9451L215.943 33.5456ZM205.573 18.0022C204.322 17.9144 203.159 18.4413 202.355 19.4073C201.55 20.4611 201.014 21.6905 200.835 23.0077H209.953V22.4808C209.953 21.3392 209.596 20.1976 208.881 19.2316C208.076 18.3535 206.825 17.9144 205.573 18.0022ZM234.805 37.4973L234.448 34.9506C233.733 35.8288 232.839 36.6191 231.766 37.146C230.693 37.6729 229.442 37.9364 228.19 37.9364C225.329 38.0242 222.648 36.707 221.128 34.4237C219.34 31.7893 218.446 28.7157 218.625 25.6422V25.2031C218.625 21.5148 219.429 18.5291 221.128 16.2459C222.737 13.9627 225.419 12.7333 228.28 12.8211C230.604 12.7333 232.749 13.6993 234.18 15.4556V3.16138H240.795V37.4973H234.805ZM225.151 25.6422C225.061 27.3107 225.419 29.067 226.223 30.5599C226.939 31.8771 228.369 32.7552 229.889 32.5796C231.677 32.6674 233.375 31.7015 234.18 30.1208V20.5489C233.464 18.9682 231.766 17.9144 229.889 18.0022C228.369 17.9144 226.939 18.7047 226.223 20.1098C225.419 21.6905 225.061 23.4468 225.151 25.2031V25.6422ZM139.867 43.82V76.3996H133.073L119.754 54.8848V76.3996H112.87V43.82H119.754L133.073 65.3349V43.82H139.867ZM159.087 76.3996C158.73 75.6971 158.551 74.9946 158.462 74.2042C157.747 74.9946 156.942 75.6093 155.959 76.0484C154.797 76.5752 153.545 76.8387 152.204 76.8387C150.059 76.9265 147.913 76.1362 146.304 74.8189C144.695 73.5017 143.89 71.6576 143.89 69.6378C143.801 67.3546 144.874 65.0714 146.751 63.7542C148.628 62.3491 151.489 61.6466 155.243 61.6466H158.194V60.2415C158.283 59.2756 157.925 58.3096 157.3 57.5193C156.584 56.8167 155.601 56.4655 154.528 56.5533C152.204 56.5533 151.042 57.5193 151.042 59.4512H144.427C144.427 57.3436 145.499 55.3239 147.287 54.0066C149.522 52.4259 152.204 51.6356 154.886 51.7234C157.389 51.6356 159.892 52.3381 161.948 53.831C163.825 55.236 164.719 57.3436 164.719 60.2415V70.4282C164.719 71.5698 164.809 72.6236 164.988 73.7652C165.166 74.5555 165.345 75.258 165.703 75.9605V76.3996H159.087ZM153.634 71.921C154.618 71.921 155.601 71.6576 156.495 71.2185C157.21 70.8672 157.747 70.2525 158.194 69.6378V65.4227H155.512C154.171 65.3349 152.74 65.6861 151.668 66.4764C150.863 67.179 150.416 68.1449 150.416 69.1109C150.416 69.9013 150.684 70.6038 151.221 71.1307C151.936 71.6576 152.83 71.921 153.634 71.921ZM181.615 76.224C180.989 76.3996 180.453 76.5753 179.827 76.6631C179.112 76.7509 178.397 76.8387 177.682 76.8387C175.804 76.9265 174.017 76.3118 172.497 75.1702C171.245 74.1164 170.62 72.2723 170.62 69.6378V56.9045H166.954V52.1625H170.62V46.191H177.235V52.1625H181.436V56.9045H177.235V69.0231C177.145 69.7256 177.324 70.516 177.861 71.0429C178.397 71.3941 179.112 71.5698 179.738 71.5698C180.095 71.5698 180.453 71.5698 180.811 71.4819C181.168 71.4819 181.436 71.3941 181.615 71.3941V76.224ZM184.386 45.9276C184.386 45.0494 184.744 44.1713 185.37 43.5566C186.889 42.3272 189.214 42.3272 190.733 43.5566C192.074 44.8738 192.074 46.9814 190.733 48.3864C189.214 49.6158 186.889 49.6158 185.37 48.3864C184.655 47.6839 184.297 46.8057 184.386 45.9276ZM191.359 52.1625V76.3996H184.744V52.1625H191.359ZM195.114 64.5445V64.1054C195.024 60.9441 196.097 57.7827 198.153 55.3239C200.209 52.9528 203.07 51.8112 206.735 51.8112C210.49 51.8112 213.35 52.9528 215.407 55.3239C217.463 57.7827 218.535 60.9441 218.446 64.1054V64.5445C218.535 67.7059 217.463 70.8672 215.407 73.3261C213.35 75.6971 210.49 76.8387 206.825 76.8387C203.07 76.8387 200.209 75.6971 198.153 73.3261C196.097 70.8672 195.024 67.7059 195.114 64.5445ZM201.729 64.0176V64.4567C201.64 66.213 202.087 67.9693 202.891 69.4622C204.322 71.5698 207.272 72.1845 209.417 70.7794C209.953 70.4282 210.4 69.9891 210.758 69.4622C211.563 67.8815 211.92 66.213 211.92 64.4567V64.0176C212.01 62.2613 211.563 60.5928 210.758 59.0121C209.953 57.6071 208.434 56.7289 206.825 56.9045C205.216 56.8167 203.696 57.6071 202.891 59.0121C202.087 60.5928 201.64 62.3491 201.729 64.0176ZM232.571 56.9924C230.872 56.9045 229.173 57.7827 228.369 59.3634V76.3996H221.754V52.1625H227.922L228.19 54.9726C229.889 52.865 232.481 51.6356 235.252 51.7234C237.398 51.6356 239.454 52.3381 240.974 53.7432C242.404 55.1482 243.119 57.5193 243.119 60.9441V76.3996H236.504V60.9441C236.504 59.3634 236.146 58.3096 235.521 57.7827C234.627 57.168 233.554 56.9045 232.571 56.9924ZM260.819 69.6378C260.819 68.9353 260.462 68.2328 259.836 67.8815C258.585 67.179 257.154 66.7399 255.813 66.5643C253.578 66.1252 251.433 65.3349 249.556 64.1054C247.947 63.0516 246.963 61.2075 247.053 59.2756C247.053 57.2558 248.036 55.3239 249.645 54.0066C251.433 52.5138 253.757 51.7234 256.886 51.7234C260.015 51.7234 262.607 52.426 264.485 53.9188C266.273 55.2361 267.256 57.3436 267.256 59.539H260.641C260.641 58.6609 260.372 57.8705 259.747 57.2558C258.942 56.6411 257.959 56.2898 256.886 56.3777C255.992 56.2898 255.098 56.5533 254.294 57.0802C253.757 57.5193 253.4 58.2218 253.4 58.9243C253.4 59.6268 253.757 60.3294 254.383 60.6806C255.456 61.2953 256.707 61.6466 257.959 61.8222C260.283 62.2613 262.518 63.0516 264.574 64.1932C266.362 65.247 267.256 67.0033 267.256 69.3744C267.256 71.4819 266.183 73.4139 264.485 74.6433C262.607 76.0484 260.104 76.7509 256.886 76.7509C253.489 76.7509 250.807 75.8727 249.019 74.1164C247.321 72.7114 246.337 70.6916 246.248 68.584H252.506C252.506 69.6378 253.042 70.6916 253.936 71.3063C254.83 71.8332 255.903 72.1845 257.065 72.0966C259.479 72.2723 260.819 71.3941 260.819 69.6378Z" fill="black"/>
<path d="M77.7377 72.9746C75.1453 74.2041 72.2846 74.5553 69.424 73.9406C67.4572 73.5015 65.6693 72.8868 63.8814 72.0965L59.948 70.5158C56.551 69.462 52.8858 69.3742 49.3994 70.2524H49.0418C45.5554 69.2864 41.8902 69.3742 38.4931 70.5158C37.1522 70.9549 35.9007 71.5696 34.5597 72.0965C32.7718 72.8868 30.8945 73.5894 29.0172 74.0284C26.246 74.6431 23.2959 74.2919 20.7034 73.0625L20.3459 72.8868C20.2565 72.8868 20.2565 72.8868 20.2565 72.9746C21.955 74.731 24.1899 75.9604 26.5141 76.5751C28.1233 77.0142 29.8218 77.102 31.4309 76.9263C33.934 76.5751 36.3476 75.6969 38.4037 74.2919L42.1583 71.833C43.5887 70.9549 45.2872 70.6036 46.8963 70.9549C47.7903 71.0427 47.0751 71.4818 46.9857 71.5696C44.7508 72.6234 42.6053 73.9406 40.6386 75.4335C39.2977 76.3994 36.884 78.6827 36.884 78.6827L38.6719 80.1755L40.6386 78.0679C43.0523 75.6091 45.8236 73.5015 48.863 71.833C49.1312 71.6574 49.3994 71.6574 49.6676 71.833C52.707 73.5015 55.4783 75.6091 57.8919 78.0679L59.8586 80.1755L61.6465 78.6827L57.8919 75.4335C55.9252 73.9406 53.7798 72.6234 51.5449 71.5696C51.3661 71.4818 50.7403 71.0427 51.6343 70.9549C53.2434 70.6036 54.9419 70.9549 56.3722 71.833L60.1268 74.2919C62.1829 75.6969 64.5966 76.5751 67.0997 76.9263C68.7088 77.102 70.4073 77.0142 72.0164 76.5751C74.3407 75.8726 76.5756 74.6431 78.2741 72.9746C78.2741 72.9746 78.1847 72.8868 78.0953 72.8868L77.7377 72.9746ZM86.4985 65.3347C85.3363 66.2128 84.0848 66.8275 82.7439 67.2666C80.8666 67.7935 78.8105 68.1448 76.8438 68.1448C74.2513 68.2326 71.7482 68.4082 69.1558 68.7595C68.977 68.7595 68.8876 68.7595 68.977 68.6717C71.2119 67.7935 72.9998 66.0372 73.9831 63.9296L76.4862 58.9241C76.4862 58.8363 76.4862 58.8363 76.4862 58.7485C76.3074 58.8363 73.8043 60.9439 72.6422 61.9977L68.4406 66.0372C66.5633 67.6179 64.3284 68.7595 61.9147 69.3742H61.8253L61.7359 69.462L66.5633 70.6036C68.6194 71.2183 70.7649 71.5696 72.9104 71.7452C78.3635 72.2721 83.6378 69.8133 86.6773 65.4225C86.6773 65.3347 86.5879 65.3347 86.4985 65.3347ZM94.3653 53.5674C93.1137 55.0603 91.594 56.3775 89.8955 57.4313C88.4652 58.3973 86.9454 59.1876 85.3363 59.8901C83.2802 60.6805 81.4029 61.8221 79.7044 63.1393L79.3468 63.4027C79.2574 63.4027 79.2574 63.4027 79.2574 63.3149C79.2574 63.2271 81.9393 60.5926 82.7439 55.0603C82.8333 53.0405 83.1908 51.1086 83.6378 49.1766C83.6378 49.0888 83.6378 49.0888 83.6378 49.001C81.7605 51.2842 80.3302 53.8308 79.3468 56.5531L77.7377 61.0317C77.112 63.0515 75.9498 64.8956 74.4301 66.3885L74.2513 66.5641V66.6519C74.4301 66.6519 74.6089 66.5641 74.7877 66.5641L79.9726 65.5103C82.8333 65.0712 85.5151 63.9296 87.8394 62.2611C90.2531 60.5926 92.1304 58.3094 93.4713 55.7628C93.8289 55.0603 94.0971 54.3577 94.3653 53.6552C94.5441 53.4796 94.4547 53.4796 94.3653 53.5674ZM97.7623 40.3951C96.9577 42.7661 95.5274 44.9615 93.6501 46.7178C91.5046 48.7375 89.5379 51.0207 87.75 53.304C87.75 53.3918 87.5712 53.3039 87.6606 53.2161C88.3758 50.8451 88.5546 48.2985 88.197 45.7518C87.8394 43.6442 86.9454 41.361 86.6773 38.8144L86.5879 38.7266C86.5879 38.8144 86.4985 38.9022 86.4985 38.99C85.9621 40.6585 85.6045 42.327 85.4257 44.0833C85.3363 46.1909 85.6939 48.9132 85.5151 51.0207C85.3363 53.4796 85.1575 56.0262 83.9954 58.2216C83.9954 58.3094 83.9954 58.3094 83.9954 58.3973L89.3591 55.1481C91.594 53.743 93.4713 51.9867 94.991 49.8791C96.9577 47.1569 97.9411 43.9955 97.9411 40.6585C97.9411 40.5707 97.9411 40.3951 97.9411 40.3072C97.8517 40.3072 97.7623 40.3951 97.7623 40.3951Z" fill="#009EDB"/>
<path d="M92.0408 41.8002C92.1302 41.8002 92.1302 41.8002 92.0408 41.8002C92.0408 41.0977 92.0408 40.3951 91.9514 39.6926C91.7726 37.2338 90.2529 35.214 88.9119 33.1064C88.018 31.7892 87.2134 30.3842 86.4983 28.8913C86.4983 28.8913 86.4089 28.8035 86.3195 28.8035C86.3195 28.9791 86.3195 29.7695 86.4089 30.2085C86.8558 33.7212 87.7498 37.2338 89.0907 40.5708C89.8953 42.6783 90.1635 44.8737 89.9847 47.0691C89.9847 47.2448 89.9847 47.2448 90.0741 47.3326C90.8786 46.191 92.4878 44.6103 93.4711 43.3809C94.4545 42.1515 99.8182 36.18 97.2257 27.9253C97.1363 27.5741 96.9575 27.2228 96.7787 26.8715L96.6893 26.9594C96.6893 32.9308 93.7393 35.4775 92.5771 39.517C92.309 40.483 92.1302 41.1855 92.0408 41.8002ZM92.1302 29.506L91.5938 28.101L91.2362 27.3106C90.3423 25.7299 89.0907 24.3249 87.571 23.2711C86.3195 22.2173 85.2467 21.0757 84.3528 19.7585C84.3528 19.7585 84.2634 19.7585 84.174 19.7585H84.0846C84.174 20.0219 84.9785 22.6564 85.5149 23.8858C86.4089 25.5543 87.4816 27.2228 88.7331 28.6278L89.0013 28.9791C90.5211 30.9989 91.6832 33.1943 92.4878 35.5653C92.4878 35.6531 92.5771 35.6531 92.5771 35.6531L94.0969 31.0867C94.6332 29.506 95.0802 27.8375 95.4378 26.169C95.9742 22.2173 94.7226 17.2118 92.3984 14.4017C92.3984 14.4017 92.309 14.4895 92.309 14.5774L92.3984 14.9286L92.5771 15.4555C93.0241 17.5631 93.1135 19.8463 92.6665 21.9539C92.309 23.6224 92.2196 25.3787 92.2196 27.135C92.2196 27.3984 92.3984 29.5938 92.3984 29.6816C92.3984 29.7694 92.309 29.6816 92.2196 29.6816M84.9785 7.46429C85.6937 8.16681 86.3195 8.95715 86.6771 9.92312C87.3028 11.416 87.4816 13.6114 87.9286 15.2799L88.7331 18.1778C88.7331 18.2656 88.6438 18.3534 88.5544 18.2656C87.2134 16.6849 85.6043 15.3677 83.727 14.3139C82.4755 13.6114 81.4921 12.6454 80.5982 11.5916L80.1512 10.9769C80.1512 10.9769 80.0618 10.8891 79.9724 10.9769C79.9724 11.0647 79.9724 11.1525 79.9724 11.2404C80.4194 13.1723 81.3133 15.0164 82.7437 16.5093C83.9058 17.5631 85.1573 18.5291 86.3195 19.495C87.8392 20.7244 89.2695 22.2173 90.6105 23.7102C90.6105 23.7102 90.6998 23.798 90.6998 23.7102V22.3051L90.7892 18.09V16.6849C90.7892 15.2799 90.5211 13.787 89.9847 12.4698C89.0907 10.2744 87.3922 8.51807 85.3361 7.46429C85.2467 7.37647 85.0679 7.37647 84.8891 7.28865C84.8891 7.28865 84.8891 7.37647 84.9785 7.46429ZM75.7708 3.33695C77.0223 4.47855 78.0951 5.79579 79.0784 7.20084C79.9724 8.60589 80.9557 9.83531 82.2073 10.9769C83.0118 11.7673 85.4255 13.6114 86.0513 14.1383C85.9619 13.4357 84.7998 8.43026 81.6709 5.97142C79.883 4.56637 77.7375 3.51258 75.5026 2.98569C75.5026 3.07351 75.5026 3.07351 75.5026 3.16132L75.7708 3.33695ZM25.7094 71.7453C27.7655 71.5697 29.911 71.2184 31.8777 70.6037L36.705 69.4621H36.7944C36.7944 69.4621 36.7944 69.3743 36.705 69.3743H36.6156C34.202 68.7596 31.9671 67.618 30.0004 66.0373L25.7988 62.0856L21.9548 58.8364V59.012C22.3124 59.5389 23.6533 62.4369 24.4579 64.0175C25.4412 66.2129 27.2291 67.8814 29.464 68.7596C29.5534 68.8474 29.464 68.8474 29.2852 68.8474C26.7821 68.4961 24.1897 68.3205 21.5972 68.2327C19.6305 68.2327 17.5744 67.8814 15.6971 67.3545C14.3562 66.9155 13.1046 66.3007 11.9425 65.4226C11.8531 65.4226 11.8531 65.4226 11.7637 65.4226C13.5516 67.8814 16.0547 69.8134 18.9153 70.8672C21.1502 71.5697 23.3851 71.8331 25.7094 71.7453ZM23.6533 66.5642C23.8321 66.5642 23.9215 66.652 24.1897 66.652V66.5642L24.0109 66.3886C22.4912 64.8957 21.4184 63.0516 20.7033 61.0318L19.0941 56.5532C18.1108 53.8309 16.6805 51.2843 14.8032 49.0011C14.8032 49.0889 14.8032 49.0889 14.8032 49.1767C15.3395 51.1086 15.6077 53.0406 15.7865 55.0603C16.5911 60.5049 19.2729 63.1394 19.2729 63.2272C19.2729 63.315 19.2729 63.4028 19.1835 63.315L18.826 63.0516C17.1274 61.7343 15.2501 60.5927 13.194 59.8024C11.5849 59.0999 10.0652 58.3095 8.63488 57.3436C6.93637 56.2898 5.41664 54.9725 4.16511 53.4797H4.07571C4.3439 54.1822 4.61208 54.8847 4.96967 55.5872C6.3106 58.1339 8.2773 60.4171 10.691 62.0856C13.0153 63.8419 15.6971 64.9835 18.5578 65.3348C20.2563 65.7739 21.9548 66.2129 23.6533 66.5642ZM9.26064 55.1482L14.6244 58.3973C14.6244 58.3973 14.7138 58.3095 14.7138 58.2217C13.5516 55.9385 13.3728 53.4797 13.194 51.0208C13.0153 48.8254 13.3728 46.191 13.2834 44.0834C13.1046 42.3271 12.7471 40.5708 12.2107 38.9023C12.2107 38.8145 12.1213 38.7266 12.1213 38.6388L12.0319 38.7266C11.8531 41.2733 10.8698 43.5565 10.5122 45.6641C10.1546 48.1229 10.3334 50.6696 11.0486 53.1284C11.1379 53.2162 10.9592 53.304 10.9592 53.2162C9.17125 50.8452 7.20455 48.6498 5.05906 46.63C3.18176 44.8737 1.75143 42.7662 0.946873 40.3951C0.946873 40.3951 0.857478 40.3073 0.768082 40.3073C0.678687 40.3073 0.768082 40.483 0.768082 40.6586C0.768082 43.9078 1.75143 47.1569 3.71813 49.8792C5.14846 51.899 7.02576 53.7431 9.26064 55.1482ZM8.2773 47.4204C8.36669 47.3326 8.36669 47.3326 8.36669 47.1569C8.1879 44.9615 8.45609 42.6783 9.35004 40.6586C10.6016 37.3216 11.4955 33.8968 12.0319 30.2963C12.0319 29.8573 12.1213 29.0669 12.1213 28.8913C12.0319 28.8913 12.0319 28.8913 12.0319 28.9791C11.3167 30.472 10.5122 31.877 9.61823 33.1943C8.1879 35.1262 6.75757 37.2338 6.57878 39.6926C6.48939 40.3951 6.48939 41.0977 6.57878 41.8002C6.57878 41.8002 6.57878 41.888 6.48939 41.888C6.48939 41.888 6.48939 41.888 6.48939 41.8002L5.86362 39.6926C4.61208 35.6531 1.75143 33.1064 1.75143 27.135L1.66204 27.0472C1.48325 27.3984 1.39385 27.7497 1.21506 28.101C-1.37741 36.3556 3.89692 42.3271 4.96967 43.5565C6.04241 44.7859 7.47274 46.2788 8.2773 47.4204ZM4.52269 30.9989L6.04241 35.5653C6.04241 35.5653 6.13181 35.5653 6.13181 35.4775C6.93636 33.1064 8.1879 30.9111 9.61823 28.8913L9.88641 28.54C11.1379 27.0472 12.2107 25.4665 13.1046 23.798C13.641 22.5686 14.4456 19.9341 14.535 19.6707H14.4456C14.3562 19.6707 14.3562 19.6707 14.2668 19.6707C13.3728 20.9879 12.3001 22.1295 11.0486 23.1833C9.52883 24.2371 8.1879 25.6421 7.29395 27.3106C7.20455 27.5741 7.02576 27.8375 6.93636 28.101L6.39999 29.5938C6.39999 29.5938 6.3106 29.7694 6.3106 29.5938C6.3106 29.4182 6.48939 27.3984 6.48939 27.0472C6.48939 25.2909 6.3106 23.5345 5.95301 21.866C5.50604 19.6707 5.59543 17.4753 6.04241 15.3677C6.04241 15.1921 6.13181 15.0164 6.2212 14.8408C6.2212 14.753 6.3106 14.5773 6.3106 14.4895C6.3106 14.4017 6.3106 14.4017 6.2212 14.3139C3.89692 17.124 2.55599 22.2173 3.09236 26.0812C3.53934 27.7497 3.98632 29.4182 4.52269 30.9989ZM7.74092 18.1778L7.83032 22.3929V23.7102H7.91971C9.17125 22.1295 10.6016 20.7244 12.1213 19.4072L15.6971 16.4215C17.1274 14.9286 18.0214 13.0845 18.4684 11.1525C18.4684 11.0647 18.4684 10.9769 18.4684 10.8891H18.379L17.932 11.5038C17.1274 12.5576 16.0547 13.5236 14.8926 14.2261C12.7471 15.5433 11.3167 16.5093 10.0652 18.1778C9.97581 18.2656 9.88641 18.2656 9.97581 18.09L10.7804 15.1921C11.2273 13.5236 11.4061 11.3282 12.0319 9.83531C12.3895 8.95715 13.0153 8.07899 13.7304 7.37647C13.7304 7.28865 13.7304 7.28865 13.7304 7.20084C13.5516 7.20084 13.4622 7.28865 13.2834 7.37647C11.0486 8.51807 9.43944 10.3622 8.54548 12.4698C8.00911 13.787 7.65153 15.1921 7.74092 16.6849V18.1778ZM12.4789 14.0505L16.4123 10.8891C17.5744 9.74749 18.6472 8.51807 19.5411 7.11302C20.4351 5.70797 21.5972 4.39074 22.8487 3.24914L23.1169 2.98569C23.1169 2.89787 23.1169 2.89787 23.1169 2.81006C20.882 3.33695 18.7366 4.30292 16.9486 5.79579C13.641 8.34244 12.5683 13.3479 12.4789 14.0505ZM48.4158 41.2733C48.684 40.922 48.0582 40.6586 47.8795 41.2733C47.7007 41.888 48.1476 41.7124 48.4158 41.2733ZM55.2099 25.8177C54.9417 25.7299 53.9583 26.8715 54.1371 27.0472C54.5841 26.7837 54.9417 26.3446 55.2099 25.8177ZM55.3887 25.6421C55.5675 25.7299 56.1932 25.3787 56.1038 25.2909C56.0144 25.203 55.2099 24.8518 55.2099 25.0274C55.2099 25.3787 55.2993 25.5543 55.3887 25.6421ZM67.457 36.5312C67.8146 36.4434 67.7252 35.9165 67.457 35.9165C67.1889 35.9165 66.8313 36.3556 66.9207 36.3556C67.0101 36.3556 67.2783 36.6191 67.457 36.5312ZM63.0767 24.8518C62.8085 24.8518 62.7191 25.1152 62.9873 25.2909C63.2555 25.3787 63.4342 25.2909 63.613 25.203C63.7918 25.1152 63.9706 24.9396 63.9706 24.6761C63.9706 24.4127 63.613 24.0614 63.7918 23.8858C63.9706 23.7102 64.2388 23.9736 64.4176 23.8858C64.5964 23.798 64.6858 23.6224 64.6858 23.4467C64.6858 23.2711 64.5964 22.7442 64.2388 22.7442C63.8812 22.7442 63.5236 23.4467 63.5236 23.4467C63.4342 23.6224 63.4342 23.8858 63.5236 24.0614C63.613 24.4127 63.5236 24.8518 63.0767 24.8518Z" fill="#009EDB"/>
<path d="M68.977 24.9395C68.977 25.1151 69.424 26.2567 69.5134 26.5202C69.6028 26.7836 69.6922 27.7496 69.8709 27.6618C70.0497 27.574 70.0497 27.0471 69.9603 26.7836C69.8709 26.1689 69.6922 25.4664 69.5134 24.9395C69.424 24.5882 68.7982 23.271 68.6194 23.3588C68.4406 23.4466 68.8876 24.237 68.977 24.5882C69.0664 24.9395 68.8876 24.7639 68.977 24.9395ZM65.8482 10.0109C66.1163 10.0987 66.1163 9.57177 65.6694 9.22051C65.2224 8.86925 64.5072 9.04488 64.686 9.22051C65.0436 9.48396 65.4012 9.83522 65.8482 10.0109ZM52.4388 6.23478C51.8131 5.88352 52.3494 5.35663 51.9025 5.00536C51.3661 4.82973 50.8297 4.91755 50.4721 5.26881C50.0252 5.7957 51.0085 5.62007 51.2767 5.7957C51.5449 5.97134 52.4388 6.58604 52.5282 6.49823C52.6176 6.41041 52.5282 6.23478 52.4388 6.23478ZM56.0147 4.47847C55.2101 4.12721 52.2601 4.12721 52.3494 4.91755C52.4388 5.70789 54.048 4.91755 54.4949 4.91755C54.9419 4.91755 56.7298 4.82973 56.0147 4.47847ZM47.8797 38.3753C47.7009 38.2875 47.4327 38.4631 47.3433 38.2875C47.2539 38.1118 47.0751 38.1997 47.0751 38.2875C47.0751 38.3753 46.9857 38.5509 47.1645 38.7265C47.3433 38.9022 47.7009 38.9022 47.8797 38.7265C47.9691 38.6387 47.9691 38.4631 47.8797 38.3753ZM46.1812 32.4916C46.4494 32.4916 46.4494 32.316 46.5387 32.316C46.6281 32.316 46.5387 32.4916 46.8069 32.4916C47.0751 32.4916 47.3433 31.8769 46.5387 31.8769C45.913 31.8769 46.0024 32.4916 46.1812 32.4916ZM47.2539 33.1942C46.8069 33.1064 46.8963 33.3698 46.5387 33.3698C46.0024 33.4576 46.4494 33.0185 46.2706 32.8429C46.1812 32.7551 45.913 33.1942 45.8236 33.4576C45.8236 33.6332 45.8236 33.9845 46.0024 34.0723L47.7009 34.248C48.0585 34.248 47.7009 33.282 47.2539 33.1942ZM41.7114 38.9022C41.8902 38.9022 41.9796 38.3753 41.8902 38.1118C41.8008 37.8484 41.2644 38.024 41.2644 38.1997C41.2644 38.3753 41.622 38.9022 41.7114 38.9022ZM34.5598 38.9022C34.5598 38.7266 34.5598 38.024 34.381 37.8484C34.2022 37.6728 34.2022 37.9362 34.1128 37.9362C34.0234 37.9362 34.0234 37.5849 33.934 37.5849C33.8446 37.5849 33.934 38.1118 34.1128 38.4631C34.2916 38.8144 34.5598 39.3413 34.5598 38.9022ZM34.381 37.3215C34.5598 36.7946 34.6492 36.2677 34.6492 35.7408C34.6492 35.3017 34.381 34.9505 34.2916 34.9505C34.2022 34.9505 34.2916 35.2139 34.381 35.653C34.381 36.0921 34.2022 36.5312 34.1128 36.9702C34.1128 37.0581 34.2916 37.4971 34.381 37.3215Z" fill="#009EDB"/>
<path d="M25.2625 56.9923C38.5824 70.0768 60.0373 70.0768 73.3572 56.9923C86.6772 43.9078 86.6772 22.832 73.3572 9.74748C60.0373 -3.33705 38.5824 -3.33705 25.2625 9.74748C11.9426 22.832 11.9426 43.9956 25.2625 56.9923ZM16.77 34.0724H21.9549C22.0443 36.7069 22.4913 39.2535 23.2958 41.7124C23.0276 41.6246 22.7594 41.5367 22.4913 41.3611C22.1337 41.1855 21.8655 41.4489 21.7761 41.4489C21.4185 41.4489 20.9715 41.1855 20.9715 41.4489C20.9715 41.7124 21.3291 41.5367 21.3291 41.7124C21.3291 41.888 20.4352 41.888 20.3458 41.5367C20.2564 41.1855 20.0776 40.8342 19.9882 41.2733C19.8988 41.7124 19.5412 41.6246 19.3624 41.7124C19.273 41.8002 19.1836 41.9758 19.1836 42.1514C19.1836 42.3271 18.7367 42.2393 18.7367 42.5027C18.7367 42.7662 19.0048 42.854 19.0942 43.1174C19.1836 43.3809 19.4518 43.5565 19.273 43.6443C19.0942 43.7321 19.1836 43.5565 19.0048 43.6443C18.8261 43.7321 19.8094 46.3666 19.9882 46.2788C20.167 46.191 19.72 45.4006 19.72 45.0494C19.72 44.6981 19.8094 44.6103 20.0776 44.4347C20.3458 44.259 21.0609 45.4884 21.3291 45.3128C21.5973 45.1372 21.2397 44.9615 21.5079 44.8737C21.7761 44.7859 22.5807 46.0153 22.8488 45.6641C23.0276 45.4006 23.2064 45.8397 23.2064 45.9275C23.4746 46.3666 23.9216 46.3666 24.1898 46.8935C24.458 47.4204 25.0837 48.3864 25.5307 48.3864C25.9777 48.3864 25.7095 47.9473 25.8883 47.9473C26.0671 47.9473 26.2459 48.562 26.5141 48.9132C26.6928 49.1767 26.961 49.3523 27.3186 49.4401C27.9444 50.2305 28.6595 51.0208 29.3747 51.8112L25.7095 55.4116C20.0776 49.7914 16.8594 42.1514 16.77 34.0724ZM46.3598 26.7837L46.0023 26.9593C45.4659 27.2228 45.0189 27.4862 44.6613 27.8375L40.9961 24.2371C43.1416 22.3929 45.8235 21.2513 48.5947 21.1635V26.2568C47.9689 26.3446 47.3432 26.4324 46.7174 26.6959C46.8962 26.3446 47.2538 25.9934 47.2538 25.9934C47.2538 25.9934 46.628 26.3446 46.3598 26.7837ZM43.5886 35.1262C43.5886 35.214 43.5886 35.3018 43.5886 35.3018C43.5886 35.1262 43.4992 35.0384 43.4098 34.8628C43.3204 34.7749 43.231 34.6871 43.1416 34.6871C43.0522 34.6871 42.9628 34.6871 42.8734 34.6871H42.6946L42.5158 34.7749H41.2643C41.0855 34.7749 40.9961 34.7749 40.9961 34.6871C40.9067 34.3359 41.4431 34.5993 41.8007 33.5455C41.8901 33.4577 41.8901 33.2821 41.9795 33.1943L42.0689 33.0186L42.1582 32.9308L42.2476 32.843C42.4264 32.6674 42.6052 32.6674 42.784 32.6674H42.9628L43.1416 32.843L43.4098 33.3699C43.4992 33.4577 43.5886 33.4577 43.5886 33.5455C43.7674 33.6333 43.8568 33.7211 43.9462 33.809L44.0356 33.8968V33.9846C44.1249 34.0724 44.125 34.0724 44.2143 34.0724H44.3037C44.3931 34.0724 44.3931 34.0724 44.4825 34.0724H44.5719C44.7507 33.9846 44.7507 34.0724 44.8401 34.0724V34.1602C44.8401 34.248 44.8401 34.248 44.7507 34.3359C44.7507 34.4237 44.6613 34.4237 44.6613 34.5115C44.5719 34.5993 44.4825 34.6871 44.3931 34.6871C44.2143 34.6871 44.0356 34.5993 43.9462 34.5993C43.8568 34.5993 43.7674 34.5993 43.7674 34.6871V35.1262M33.9339 43.5565C33.6657 43.1174 33.5763 42.5027 33.5763 41.9758C33.5763 41.4489 33.3975 40.922 33.1293 40.4829C33.0399 40.1317 32.9505 39.7804 32.9505 39.4292C32.9505 38.8145 32.4142 38.9901 32.4142 38.8145C32.4142 38.6388 32.8611 38.8145 32.8611 38.6388C32.8611 38.4632 32.3248 37.7607 31.8778 37.585C31.4308 37.4094 31.6096 37.146 31.6096 36.8825C31.6096 36.6191 31.6096 36.3556 31.4308 36.18C31.3414 35.8287 31.4308 35.214 31.8778 35.214C32.0566 35.214 32.3248 35.3896 32.5929 35.214C32.8611 35.0384 32.6823 34.5115 32.6823 34.0724H35.1854C35.1854 34.4237 35.2748 34.8627 35.2748 35.214C35.096 35.3018 35.0066 35.4775 35.096 35.5653C35.1854 35.6531 35.2748 35.7409 35.3642 35.6531C35.8112 38.1997 36.9733 40.5708 38.7612 42.5027L35.096 46.1031C34.8278 45.8397 34.5596 45.4884 34.2915 45.1372C34.2915 45.0494 34.2915 44.9615 34.2915 44.8737C34.2915 44.259 33.8445 43.9078 33.6657 43.3809M30.4475 37.4094C30.1793 36.3556 30.0899 35.214 30.0005 34.0724H32.146C31.9672 34.3359 31.5202 34.5993 31.4308 34.8628C31.3414 35.1262 30.805 36.0044 31.1626 36.3556C31.9672 37.2338 30.9838 37.585 30.4475 37.4094ZM30.8944 50.4061L30.4475 50.8452C30.2687 50.6696 30.0005 50.4061 29.8217 50.2305C30.1793 50.0549 30.5368 50.1427 30.8944 50.4061ZM36.4369 27.8375C36.3475 27.8375 36.3475 27.9253 36.2582 27.9253C35.99 28.1888 35.2748 28.1009 35.3642 28.3644C35.4536 28.6278 37.3309 27.7497 37.3309 27.9253C37.3309 28.1009 36.5263 28.3644 35.99 28.6278C35.4536 28.8913 35.2748 29.3304 34.3808 29.3304C33.9339 29.3304 33.7551 29.6816 33.5763 29.9451C33.3081 30.2963 33.1293 30.6476 32.9505 30.9989C32.9505 31.5258 32.8611 32.0526 32.5929 32.5795H30.0005C30.1793 28.1009 31.9672 23.798 35.096 20.461L38.7612 24.0614C37.8673 25.2908 37.0627 26.5203 36.4369 27.8375ZM39.834 25.203L43.0522 28.3644C42.9628 28.3644 42.8734 28.3644 42.6946 28.3644C42.337 28.3644 42.337 28.1009 42.0689 28.1009C41.5325 28.1888 41.4431 28.3644 41.3537 28.2766C40.9961 27.9253 40.5491 27.6619 40.0128 27.3984C39.387 27.2228 38.7612 27.2228 38.2249 27.4862C38.1355 27.4862 38.1355 27.5741 38.0461 27.5741C38.6718 26.7837 39.2976 25.9934 39.834 25.203ZM35.3642 31.6136C35.3642 31.9648 35.2748 32.3161 35.2748 32.6674H33.3975C33.3081 32.4039 33.3975 32.1405 33.5763 31.877C33.7551 31.5258 34.2021 31.3501 34.649 31.4379C34.8278 31.4379 35.096 31.5258 35.3642 31.6136ZM36.9733 35.7409L37.1521 36.0044C37.3309 36.18 37.5097 36.3556 37.6885 36.2678C37.8673 36.18 38.3142 36.2678 38.4036 36.2678C38.6718 36.3556 38.8506 36.5312 39.0294 36.7069C39.2082 36.9703 39.5658 36.7947 39.834 36.9703C40.1022 37.146 40.3703 37.3216 40.0128 37.4972C39.6552 37.6729 40.3703 38.0241 40.4597 38.0241C40.5491 38.0241 40.6385 37.8485 40.6385 37.585C40.6385 37.4972 40.8173 37.146 41.0855 37.2338C41.3537 37.3216 42.1583 38.2876 42.4264 37.9363C42.6946 37.585 42.5158 37.146 42.6052 36.9703C42.6052 36.8825 42.6946 36.7947 42.784 36.7947C43.0522 37.2338 43.231 37.585 43.5886 37.9363L39.9234 41.5367C38.4036 39.9561 37.3309 37.9363 36.9733 35.7409ZM39.834 23.1833L36.2582 19.5828C39.6552 16.5093 44.0356 14.753 48.5947 14.5773V19.6706C45.3765 19.7585 42.337 20.9879 39.834 23.1833ZM35.1854 18.529L31.5202 14.9286C36.1688 10.6256 42.2476 8.1668 48.5947 7.99117V13.0845C43.5886 13.2601 38.7612 15.192 35.1854 18.529ZM34.1127 19.495C30.7156 23.0955 28.7489 27.7497 28.5701 32.6674H23.3852C23.564 26.4324 26.0671 20.461 30.4475 15.8946L34.1127 19.495ZM28.5701 34.0724C28.5701 35.0384 28.6595 35.9165 28.8383 36.8825C28.7489 36.8825 28.7489 36.6191 28.4808 36.7069C28.2126 36.7947 27.2292 38.4632 26.7822 39.1657C26.4247 39.7804 26.961 41.0977 26.4247 41.5367C25.8883 41.7124 25.3519 41.8002 24.8155 41.8002H24.7261C23.8322 39.3413 23.3852 36.7947 23.2958 34.248L28.5701 34.0724ZM48.5053 65.3348C40.3703 65.1591 32.5929 61.9978 26.7822 56.4654L30.4475 52.865C35.3642 57.4314 41.8007 60.0658 48.5053 60.2415V65.3348ZM48.5053 58.8364C42.1583 58.6608 36.0794 56.2019 31.4308 51.899L32.0566 51.2843C32.146 51.3721 32.3248 51.4599 32.5035 51.5477C32.8611 51.7234 33.3081 51.8112 33.7551 51.7234C34.1127 51.6355 34.8278 51.0208 35.2748 51.0208C35.7218 51.0208 36.4369 51.1965 36.8839 50.933C37.3309 50.6696 36.6157 49.7914 36.3475 49.3523C36.2582 49.2645 36.2582 49.1767 36.1688 49.0889C39.6552 51.9868 44.125 53.6553 48.6841 53.7431L48.5053 58.8364ZM48.5053 52.2502C43.9462 52.0746 39.5658 50.3183 36.1688 47.2448L39.834 43.6443C41.5325 45.1372 43.5886 46.2788 45.9129 46.8057C45.1083 47.1569 44.7507 47.6838 44.8401 48.1229C44.9295 48.562 44.3037 48.8254 44.3037 49.3523C44.3037 49.8792 45.0189 50.2305 45.1083 50.7574C45.1977 51.0208 45.8235 51.4599 46.3598 51.8112C47.075 51.9868 47.7902 52.0746 48.4159 51.9868L48.5053 52.2502ZM48.3265 45.225C48.0583 45.0494 47.8796 45.4006 47.522 45.5763C45.0189 45.225 42.784 44.1712 40.9067 42.5905L44.5719 38.9901C45.7341 39.8682 47.075 40.483 48.5053 40.5708C48.5053 40.7464 48.6841 40.922 48.6841 41.2733C48.6841 41.6246 48.4159 41.8002 48.5053 41.9758C48.5947 42.1514 49.3993 41.9758 49.4887 41.7124C49.5781 41.4489 49.2205 41.2733 49.1311 41.0098C49.0417 40.8342 49.0417 40.7464 48.9523 40.5708H49.2205C49.4887 40.5708 49.7569 40.5708 50.025 40.4829C50.1144 40.4829 50.2038 40.3951 50.2038 40.3073C50.2038 40.2195 50.2932 40.1317 50.2932 40.0439C50.2932 39.9561 50.3826 39.9561 50.3826 39.8682L50.472 39.9561C50.5614 40.1317 50.7402 40.6586 50.919 40.5708C51.0978 40.483 51.1872 39.6926 51.0978 39.517C50.919 39.2535 50.919 38.9901 51.0978 38.7266C51.0978 38.6388 51.1872 38.1119 51.366 38.1997C51.5448 38.2876 51.366 38.7266 51.366 38.9023C51.366 39.1657 51.5448 39.517 51.813 39.3413C51.9917 39.2535 52.1705 38.9901 52.3493 39.0779C52.5281 39.1657 51.9024 39.3413 51.813 39.517C51.7236 39.6926 52.0811 39.7804 51.9917 39.8682C51.9023 39.9561 51.813 39.8682 51.7236 39.9561C51.6342 40.0439 51.9023 40.5708 51.7236 40.6586C51.5448 40.7464 50.919 40.922 50.7402 41.0098C50.5614 41.0977 50.3826 40.922 50.472 40.8342C50.5614 40.7464 50.472 40.3951 50.2932 40.3951C50.1144 40.3951 50.1144 40.4829 50.1144 40.6586C50.1144 40.8342 50.2932 41.0977 50.2932 41.1855C50.2932 41.2733 50.025 41.3611 49.8463 41.4489C49.6675 41.7124 49.3993 41.9758 49.1311 42.1514C48.8629 42.3271 48.3265 42.3271 48.3265 42.5027C48.3265 42.6783 48.5947 42.6783 48.6841 42.7662C48.8629 43.0296 48.9523 43.3809 48.5947 43.5565C48.2371 43.7321 47.7902 43.2931 47.6114 43.3809C47.4326 43.4687 47.3432 43.9078 47.2538 44.4347C47.1644 44.9615 48.2371 45.1372 48.7735 44.8737C49.1311 44.6981 49.0417 44.1712 49.3993 43.9956C49.7569 43.8199 49.6675 43.4687 50.025 43.5565C50.3826 43.6443 50.2932 43.293 50.6508 43.293C51.0084 43.293 51.0084 43.5565 51.4554 43.6443C52.1705 43.8199 52.1705 44.3468 52.2599 44.0834C52.3493 43.8199 52.4387 43.6443 51.9023 43.4687C51.366 43.293 51.0978 42.6783 51.5448 42.854C52.0811 43.1174 52.5281 43.1174 52.6175 43.3809C52.7069 43.6443 53.2433 43.5565 53.3327 43.8199C53.4221 44.259 53.7797 43.8199 53.5115 43.5565C53.2433 43.293 53.3327 43.2052 53.5115 43.0296C53.6903 42.854 53.7797 43.1174 54.0478 42.7662C54.316 42.4149 53.9584 42.5027 53.869 42.3271C53.7797 42.1514 53.869 41.1855 54.2266 41.3611C54.5842 41.5367 54.9418 41.2733 54.763 41.1855C54.5842 41.0977 54.8524 40.5708 54.9418 40.5708C55.0312 40.5708 54.9418 40.922 55.0312 41.0098C55.1206 41.0977 56.0145 40.7464 56.1039 41.1855C56.1933 41.6246 55.4782 41.888 55.2994 41.888C54.9418 41.888 54.6736 42.2393 54.4054 42.5905C54.1372 42.9418 53.869 43.0296 54.0478 43.3809C54.2266 43.7321 54.5842 43.6443 54.9418 43.4687C55.2994 43.293 55.5676 43.0296 55.7463 42.9418C56.1039 42.7662 56.3721 43.8199 56.1933 43.9956C56.0145 44.1712 55.657 44.259 55.4782 44.4347C54.9418 44.6981 54.4054 44.9615 53.7797 44.9615C53.4221 45.0494 53.4221 45.1372 53.3327 45.4884C53.2433 45.8397 51.6342 45.5763 51.2766 45.5763C50.919 45.5763 51.5448 44.7859 51.0084 44.8737C50.472 44.9615 49.9356 45.0494 49.3993 45.1372C49.3099 45.1372 48.7735 45.5763 48.3265 45.225ZM53.0645 53.3918C53.5115 53.5675 53.9584 53.9187 54.2266 54.27C54.4948 54.7091 54.5842 54.8847 54.4054 55.3238C53.9584 56.1141 54.1372 56.641 55.0312 56.9045C55.5676 57.0801 55.7464 57.607 56.1039 57.9583C54.1372 58.4851 52.0811 58.7486 50.025 58.8364V53.7431C51.0084 53.6553 52.0811 53.5675 53.0645 53.3918ZM50.025 52.3381V51.7234C51.1872 51.5477 50.919 52.2502 51.7236 51.9868C51.9917 51.899 52.2599 51.9868 52.4387 52.1624C51.6342 52.1624 50.8296 52.2502 50.025 52.3381ZM50.025 65.4226V60.2415C52.7069 60.1536 55.3888 59.7146 57.9812 58.8364C58.0706 58.9242 58.16 58.9242 58.2494 58.9242C58.607 58.9242 58.9646 58.7486 59.2328 58.573C60.1267 58.2217 60.9313 57.7826 61.6465 57.2557C63.9707 56.1141 66.2056 54.5335 68.0829 52.7771L71.7481 56.3776C65.9374 61.9978 58.16 65.1591 50.025 65.4226ZM64.5071 19.495L65.7586 18.2656C66.1162 18.6169 66.4738 18.8803 67.0102 18.9681C67.4571 19.0559 67.6359 19.2316 67.7253 19.6706C67.8147 20.1097 68.2617 20.2854 68.7087 20.3732C69.1557 20.461 69.4238 20.9879 69.7814 20.9879C70.139 20.9879 71.3011 22.5686 71.7481 23.0955C72.0163 23.3589 72.3739 23.798 72.6421 23.4467C72.9103 23.0955 72.9103 23.1833 73.0891 23.0955C74.43 26.0812 75.2345 29.4182 75.3239 32.6674H70.139C70.139 31.5258 69.9602 30.3842 69.692 29.2425C69.8708 28.8913 69.9602 28.54 69.9602 28.1009C69.9602 27.7497 69.6026 27.5741 69.3345 27.8375C69.1557 27.135 68.8875 26.5203 68.6193 25.9056C68.5299 25.5543 68.4405 25.1152 68.3511 24.764C68.3511 24.6761 68.1723 24.5883 67.9935 24.4127C67.8147 24.0614 67.7253 23.798 67.5465 23.5345C67.8147 23.3589 67.9041 22.9198 67.5465 23.0076C67.0102 23.0955 67.3678 22.7442 67.189 22.5686C67.0102 22.3929 67.0102 22.5686 66.9208 22.6564C66.2056 21.6026 65.4904 20.6366 64.5965 19.6706C64.5965 19.6706 64.5965 19.6706 64.5965 19.5828C64.4177 19.5828 64.4177 19.495 64.5071 19.495ZM67.6359 49.2645C67.4571 48.9132 67.3678 48.4742 67.189 48.1229C67.0996 47.7716 66.3844 47.7716 66.3844 47.9473C66.3844 48.2985 66.3844 48.6498 66.295 49.0011V49.0889L64.4177 47.2448C67.8147 43.6443 69.7814 38.9901 69.9602 34.0724H75.1452C74.9664 40.3073 72.4633 46.2788 68.0829 50.7574L67.8147 50.4939C67.9041 50.1427 67.8147 49.7036 67.6359 49.2645ZM63.345 52.7771C63.6131 52.3381 64.1495 51.5477 64.4177 51.1086C64.6859 50.6696 63.7025 50.0549 63.1662 49.8792C62.6298 49.7036 62.6298 49.4401 62.6298 49.0011C62.898 48.8254 63.1662 48.562 63.4344 48.2985L67.0996 51.899C65.848 53.0406 64.5965 54.0066 63.1662 54.8847C63.0768 54.7091 63.7025 54.0944 63.8813 53.8309C64.0601 53.5675 63.1662 53.2162 63.345 52.7771ZM65.5798 31.7892C65.1329 31.1745 65.7586 31.0867 66.3844 30.8232C66.742 30.6476 67.189 30.911 67.189 30.7354C67.189 30.5598 67.3678 30.2085 67.5465 30.1207C67.7253 30.0329 67.9935 29.8573 68.0829 29.6816C68.0829 29.8573 68.1723 30.0329 68.1723 30.2085C67.9935 30.5598 67.9041 30.8232 67.9041 31.1745C67.9041 31.4379 67.9041 31.7892 68.1723 31.1745C68.1723 31.0867 68.2617 31.0867 68.2617 30.9989C68.4405 31.6136 68.4405 32.1405 68.4405 32.6674H64.5965C64.5965 32.6674 64.5965 32.6674 64.5965 32.5795C64.8647 32.1405 65.848 32.2283 65.5798 31.7892ZM66.295 24.5883C66.295 24.5883 66.295 24.6761 66.2056 24.6761C66.1162 24.764 65.6692 24.0614 65.6692 24.5883C65.6692 25.1152 65.848 25.2908 66.2056 25.3787C66.5632 25.4665 66.3844 25.6421 66.6526 25.7299C66.742 25.7299 66.9208 25.8177 67.0102 25.9056C67.4571 26.8715 67.7253 27.8375 67.9935 28.8913C67.8147 28.9791 67.7253 29.0669 67.6359 29.1547C67.4571 29.3304 67.5465 29.6816 67.3678 29.9451C67.0996 30.3842 67.0102 30.6476 66.295 30.472C65.848 30.2963 66.2056 29.7694 66.295 29.3304C66.3844 28.8913 66.5632 28.9791 66.5632 28.7157C66.5632 28.4522 65.6692 27.4862 65.2223 27.8375C64.7753 28.1888 64.8647 28.54 64.5071 28.8913C64.3283 29.0669 64.1495 29.0669 63.8813 28.8913C63.6131 28.7157 63.5238 28.54 63.6131 28.3644C63.7025 28.1888 62.9874 27.3984 62.7192 27.0472C62.3616 26.6081 61.8252 26.3446 61.2889 26.3446C60.8419 25.5543 60.2161 24.764 59.5904 24.0614L63.2556 20.461C64.5071 21.7782 65.4904 23.0955 66.295 24.5883ZM60.1267 27.0472L59.9479 27.3106C59.8585 27.4862 59.4116 27.135 59.3222 27.2228C59.2328 27.3106 59.9479 28.1888 59.2328 27.9253C58.5176 27.6619 58.9646 27.6619 58.9646 27.3984C58.9646 27.135 58.3388 26.9593 58.6964 26.7837C59.054 26.6081 58.6964 26.3446 59.054 26.2568C59.4116 26.169 59.3222 25.8177 58.8752 25.7299C58.4282 25.6421 58.5176 26.6959 58.2494 26.5203C57.9812 26.4324 57.7131 26.4324 57.4449 26.4324L58.6964 25.203C58.8752 25.2908 58.9646 25.2908 59.1434 25.2908C59.3222 25.9934 59.7691 26.5203 60.1267 27.0472ZM58.6964 44.8737C59.2328 44.9615 59.8585 45.0494 60.3949 45.225C60.7525 45.4006 61.0207 45.7519 61.2889 45.3128C61.8252 44.5225 62.1828 43.6443 62.3616 42.6783C62.5404 41.3611 62.2722 40.922 62.0934 40.922C61.9146 40.922 61.5571 41.2733 61.1995 41.2733C61.0207 41.2733 61.0207 41.6246 61.0207 41.888C61.0207 42.1514 60.6631 42.4149 60.5737 42.2393C60.4843 42.0636 60.3055 42.1514 60.3949 42.3271C60.4843 42.5027 59.6798 42.4149 59.3222 42.2393C58.7858 41.9758 59.9479 41.9758 60.4843 41.5367C60.9313 41.1855 61.3783 40.7464 61.8252 40.3073C62.0934 39.8682 62.0934 39.3413 62.5404 38.9901C62.9874 38.6388 63.7025 38.7266 63.7919 38.1997C63.8813 37.6729 63.9707 37.7607 64.2389 37.8485C64.5071 37.9363 67.0102 37.7607 67.0102 36.9703C67.0102 36.6191 66.4738 36.18 65.9374 36.0922C65.5798 36.0922 65.4904 35.3896 65.3117 35.0384C65.1329 34.6871 64.9541 34.3359 64.6859 33.9846H68.4405C68.2617 38.4632 66.4738 42.7662 63.345 46.1031L63.2556 46.0153V45.6641C63.345 44.9615 62.8086 43.8199 62.6298 43.9956C62.451 44.1712 62.6298 44.1712 62.0934 44.9615C61.9146 45.225 61.6464 45.6641 61.2889 45.6641C60.9313 45.6641 60.9313 45.4884 60.3949 45.5763C59.9479 45.6641 59.4116 45.6641 58.9646 45.5763C58.16 45.3128 57.3555 44.9615 56.5509 44.4347C56.6403 44.3468 56.9085 44.5225 56.9085 44.259C56.9085 43.9956 58.3388 44.7859 58.6964 44.8737ZM72.7315 55.4994L69.0663 51.899C73.7148 47.0691 76.3967 40.7464 76.5755 34.1602H81.8498C81.671 42.1514 78.4528 49.7036 72.7315 55.4994ZM81.8498 32.6674H76.5755C76.4861 28.8913 75.5921 25.203 73.8936 21.7782L73.983 21.6904C74.3406 21.3391 72.2845 18.7047 71.9269 18.4412C71.5693 18.1778 71.2118 17.7387 70.7648 17.2996C70.0496 16.5971 69.3345 15.8068 68.7981 15.0164L72.6421 11.2403C78.4528 17.0362 81.671 24.6761 81.8498 32.6674ZM50.025 1.40499C58.16 1.58062 65.9374 4.74199 71.8375 10.2744L68.2617 13.787C68.0829 13.6992 67.9041 13.6114 67.9935 13.4357C68.1723 13.1723 67.7253 13.1723 67.6359 12.4698C67.4571 11.7672 66.9208 11.1525 66.295 10.8013C65.848 10.5378 65.5798 10.1866 65.1329 10.0109C64.6859 9.83529 63.7919 9.3084 63.345 9.48403C63.0768 9.57185 62.7192 9.65966 62.451 9.65966C58.607 7.6399 54.4054 6.58612 50.1144 6.4983L50.025 1.40499ZM50.025 7.99117C53.869 8.07898 57.5343 9.04495 61.0207 10.7135C61.1101 11.2403 61.3783 11.8551 61.7358 12.2941C61.9146 12.7332 62.1828 13.0845 62.451 13.5235C62.7192 13.787 62.5404 14.3139 62.6298 14.753C62.6298 14.9286 62.8086 15.1042 62.898 15.2799C62.898 15.5433 62.898 15.7189 62.898 15.9824C62.898 16.0702 63.2556 16.0702 63.5238 15.8946C63.7919 15.7189 63.9707 15.3677 64.3283 15.4555C64.6859 15.5433 65.1329 16.2458 65.4011 16.6849L63.7025 18.3534C63.5237 18.0021 63.345 17.5631 63.4344 17.5631C63.5238 17.5631 63.7025 17.6509 63.7919 17.6509C64.1495 17.6509 63.5238 17.3874 63.5238 17.2996C63.2556 17.0362 63.2556 16.6849 62.898 16.4215C62.5404 16.158 62.004 16.3337 61.8252 15.9824C61.4677 15.3677 61.0207 14.8408 60.3949 14.4017C60.3055 14.4017 61.1101 15.3677 60.8419 15.5433C60.5737 15.7189 59.5904 14.9286 59.501 15.1042C59.4116 15.2799 60.5737 15.7189 60.9313 16.0702C61.1101 16.2458 61.4677 16.7727 61.8252 17.2118C58.4282 14.6652 54.316 13.2601 50.025 13.0845V7.99117ZM50.025 14.4895C54.5842 14.6652 58.9646 16.4215 62.3616 19.495L58.6964 23.0955C56.2827 20.9879 53.2433 19.7585 50.025 19.5828V14.4895ZM50.025 21.0757C52.8857 21.2513 55.5676 22.3051 57.6237 24.1492L57.4449 24.3249L57.2661 24.2371C56.8191 24.0614 55.9251 24.9396 56.1039 25.0274C56.2827 25.1152 56.6403 24.6761 56.8191 24.764H56.9085L55.3888 26.3446C54.9418 26.5203 54.4948 26.8715 54.4948 27.135C54.4948 27.135 54.4948 27.135 54.4948 27.2228L53.9584 27.7497L53.6903 27.4862C53.2433 27.135 52.7963 26.8715 52.2599 26.6959C52.5281 26.5203 52.6175 26.2568 52.7069 25.9056C52.7069 25.3787 52.5281 25.5543 52.2599 25.8177C51.9917 26.0812 51.7236 26.169 51.5448 26.4324C51.0978 26.2568 50.5614 26.169 50.1144 26.169V21.0757H50.025ZM49.3993 27.5741C49.4887 27.7497 49.3993 27.9253 49.3099 28.0131C49.1311 28.1888 48.5947 27.5741 48.5053 28.1009C48.3265 28.6278 48.8629 28.3644 48.8629 28.4522C49.1311 28.8035 49.4887 28.9791 49.9356 29.0669C50.2932 29.0669 50.8296 29.0669 50.8296 29.4182C50.8296 29.5938 51.2766 29.5938 51.366 29.7694C51.366 30.0329 51.6342 30.472 51.813 30.3842C51.9917 30.2963 52.2599 30.472 52.3493 30.6476C52.4387 30.8232 52.3493 30.911 52.2599 31.0867C51.9917 31.3501 52.5281 31.2623 52.6175 31.7892C52.7069 32.3161 52.1705 31.9648 52.0811 32.3161C51.9023 32.5795 51.7236 32.7552 51.5448 33.0186C51.4554 33.1064 51.6342 33.2821 51.7236 33.1943C51.813 33.1064 51.9917 32.843 52.2599 32.843C52.5281 32.843 52.7963 33.809 53.0645 33.8968C53.3327 33.9846 53.2433 34.3359 53.3327 34.4237C53.4221 34.5115 52.8857 34.4237 52.9751 34.5993C53.0645 34.7749 53.6009 34.8628 53.6009 35.1262C53.5115 35.3896 53.3327 35.6531 52.9751 35.6531C52.7069 35.6531 52.2599 35.0384 52.2599 35.214C52.2599 35.3896 52.4387 35.9165 52.7069 35.9165C52.9751 35.9165 53.6009 35.6531 53.3327 36.0044C53.0645 36.3556 53.1539 36.8825 52.9751 36.8825C52.7963 36.8825 52.7069 36.8825 52.8857 37.146C52.9751 37.4094 52.8857 37.6729 52.7069 37.9363C52.5281 38.1119 52.0811 37.9363 52.0811 37.8485C52.0811 37.7607 52.6175 37.7607 52.6175 37.4972C52.6175 37.2338 52.3493 37.146 51.813 37.3216C51.5448 37.4094 51.4554 37.2338 51.2766 37.2338C51.0978 37.2338 50.5614 37.8485 50.5614 37.9363C50.5614 38.0241 50.5614 38.1997 50.5614 38.3754C50.5614 38.7266 50.472 38.9901 50.2932 39.2535C49.9356 39.3413 49.6675 39.3413 49.3099 39.3413C47.8796 39.3413 46.4492 38.7266 45.3765 37.8485C45.5553 37.7607 45.8235 37.6729 46.0916 37.6729C46.3598 37.7607 46.4492 37.585 46.628 37.4972C46.8068 37.4094 47.2538 37.6729 47.522 37.4972C47.7902 37.3216 48.4159 36.18 48.3265 35.9165C48.2371 35.6531 48.9523 35.214 48.8629 35.1262C48.7735 35.0384 48.6841 35.214 48.6841 35.1262C48.6841 35.0384 48.8629 35.0384 48.6841 34.6871C48.5053 34.3359 48.2371 34.5115 48.0583 34.5115C47.7902 34.3359 47.3432 34.248 47.2538 34.3359C47.1644 34.4237 46.8962 34.1602 46.8068 34.248C46.7174 34.248 46.5386 34.3359 46.5386 34.5115C46.4492 34.6871 46.628 34.8628 46.628 35.0384C46.5386 35.3896 46.0023 35.6531 46.0023 35.9165C46.0023 36.18 45.7341 36.0044 45.6447 36.0922C45.5553 36.18 45.6447 36.3556 45.4659 36.3556C45.2871 36.3556 45.0189 36.7947 44.8401 37.146C44.5719 36.7947 44.3037 36.3556 44.0356 36.0044C44.2143 35.9165 44.3931 35.8287 44.4825 35.9165C44.7507 36.0922 45.8235 34.248 45.6447 33.7211C45.4659 33.1943 45.1977 33.5455 44.9295 33.6333C44.6613 33.7211 44.6613 33.4577 44.7507 33.3699C44.8401 33.2821 46.0023 33.2821 45.3765 32.9308C45.1083 32.7552 44.3931 32.7552 44.4825 32.4917C44.5719 32.2283 44.9295 32.4917 45.0189 32.4917C45.4659 32.6674 45.7341 31.7892 46.0023 31.7892C46.4492 31.7892 46.2704 30.911 45.8235 31.1745C45.3765 31.4379 45.1977 31.3501 45.0189 31.6136C44.8401 31.877 44.3931 32.2283 44.3931 31.877C44.3931 31.7014 45.3765 31.1745 45.5553 30.911C45.7341 30.7354 45.9129 30.472 46.0023 30.2085C46.0916 29.9451 47.3432 29.7694 47.6114 29.5938C47.7902 29.4182 47.9689 29.1547 47.9689 28.8913C47.9689 28.6278 47.6114 28.7157 47.522 28.54C47.4326 28.3644 47.9689 28.54 47.9689 28.2766C47.9689 28.0131 47.522 28.2766 47.3432 28.1009C47.3432 28.0131 47.3432 28.0131 47.4326 27.9253C48.2371 27.6619 48.7735 27.5741 49.3993 27.5741H49.5781H49.3993ZM48.5947 1.40499V6.4983C41.8901 6.67393 35.4536 9.3084 30.5368 13.8748L26.8716 10.2744C32.6823 4.74199 40.4597 1.58062 48.5947 1.40499ZM25.7095 11.3282L29.3747 14.9286C24.7261 19.7585 22.0443 26.0812 21.8655 32.6674H16.6806C16.9487 24.6761 20.167 17.0362 25.7095 11.3282Z" fill="#009EDB"/>
</g>
<defs>
<clipPath id="clip0_968_26275">
<rect width="266.667" height="80" fill="white" transform="translate(0.5)"/>
</clipPath>
</defs>
</svg>
