<svg width="62" height="97" viewBox="0 0 62 97" fill="none" xmlns="http://www.w3.org/2000/svg">
<path d="M10.3062 41.603L10.4146 41.5214C13.6306 39.1204 18.301 36.4209 24.4316 33.4238C32.2412 29.6039 37.5145 26.6116 40.2505 24.4449C41.7327 23.1911 42.759 20.4542 43.3292 16.2359C43.8994 10.9914 44.5254 7.6852 45.2098 6.31624C47.6041 2.21224 50.6252 0.15976 54.2742 0.15976C55.0719 0.15976 55.8697 0.273999 56.6684 0.501519C60.6591 2.21128 62.3113 4.43464 61.6278 7.1716C56.4975 21.1953 53.9314 36.8721 53.9314 54.202L53.9353 55.1687V55.1918L38.7279 50.4551L38.7346 50.4023C39.1753 46.7178 39.3961 43.8225 39.3961 41.7182C33.9241 41.7182 29.0214 42.9719 24.6889 45.4804C24.493 45.5908 24.301 45.7031 24.1138 45.8174L24.0198 45.874L10.3062 41.603Z" fill="#44AF89"/>
<path d="M0.74559 59.6749C0.74559 53.4052 3.19743 47.9889 8.09919 43.4289C8.73375 42.8404 9.47007 42.2327 10.3062 41.6029L24.0198 45.874C19.2563 48.7895 17.2557 52.5921 18.0189 57.2797C18.5891 60.8145 20.3843 64.0065 23.4064 66.8567C26.4275 69.7069 29.7337 71.1325 33.3251 71.1325C34.6653 71.1325 36.0045 70.9041 37.3437 70.4481C37.3437 68.6241 37.3437 66.6849 37.3437 64.6333C37.3437 62.1249 37.6854 58.3338 38.3699 53.2612C38.5024 52.2801 38.6214 51.3441 38.729 50.4541L53.9363 55.1908C54.0016 66.6637 55.1968 79.1601 57.5248 92.6807C57.5248 93.4785 56.727 94.3626 55.1306 95.3313C53.5341 96.2999 52.1094 96.7847 50.8547 96.7847C48.1187 97.0132 45.7811 95.3025 43.8429 91.6545C41.9046 88.0055 40.4224 86.0673 39.3961 85.8397C38.3699 85.8397 36.831 85.954 34.7785 86.1815C32.7261 86.409 31.2448 86.5242 30.3318 86.5242C26.1136 86.5242 22.5789 85.5546 19.7286 83.6164C13.2294 79.2839 9.01119 76.1485 7.07295 74.2103C2.85471 69.9921 0.744629 65.146 0.744629 59.673L0.74559 59.6749Z" fill="#A9DF91"/>
</svg>
