<svg width="55" height="74" viewBox="0 0 55 74" fill="none" xmlns="http://www.w3.org/2000/svg">
<path d="M28.4375 0.517181L28.7927 0.562299L29.0845 0.602623C36.7607 1.69606 43.1466 5.57062 48.2442 12.2282C53.3418 18.8849 55.2801 26.1002 54.058 33.8724C52.7409 36.5805 48.7578 39.4212 42.1079 42.3914L42.0445 42.4202L37.3482 27.9597L37.4529 27.7687C37.5479 27.5921 37.6401 27.4116 37.7303 27.2282C38.3101 26.3892 38.6653 25.5185 38.793 24.6151C39.1309 22.2449 38.1623 20.1492 35.8881 18.3281C35.2986 17.8557 34.6833 17.4305 34.041 17.0513C33.945 16.9946 33.849 16.9389 33.7521 16.8842L28.4375 0.517181Z" fill="#F9AB3C"/>
<path d="M0.700137 24.0247C1.6803 16.3341 4.85022 10.2497 10.2099 5.77319C15.4093 1.43015 21.4841 -0.320895 28.4374 0.516225L33.752 16.8833C31.9933 15.8945 30.0445 15.2484 27.9046 14.9441C25.6467 14.6225 23.6643 14.801 21.9555 15.4788C18.4409 16.7057 16.2982 20.0282 15.5264 25.4455C14.6749 31.4282 15.4736 34.7085 17.9245 35.2884C27.6377 36.2292 34.111 33.785 37.3472 27.9578L42.0435 42.4183C41.3091 42.7457 40.543 43.0749 39.7433 43.4052C29.6998 47.6177 24.0982 50.1588 22.9376 51.0305C20.8899 51.6602 19.7936 52.4829 19.6486 53.4986C19.3913 55.3044 20.4041 57.09 22.687 58.8545C24.9689 60.6189 27.0694 61.6385 28.9885 61.9111C32.7133 62.442 38.3321 61.3994 45.8451 58.7844C47.7641 60.6698 48.5312 62.9671 48.1453 65.6762C47.84 67.8209 46.8809 69.6996 45.2691 71.3133C43.6573 72.9261 41.7545 73.7498 39.5629 73.7825C32.1776 73.8823 27.5254 73.7949 25.6073 73.5223C21.7693 72.9761 18.4237 71.8087 15.5686 70.0202C2.98878 62.1242 -1.9677 46.793 0.700137 24.0247Z" fill="#44AF89"/>
</svg>
