<svg width="55" height="74" viewBox="0 0 55 74" fill="none" xmlns="http://www.w3.org/2000/svg">
<path d="M21.4607 57.4557L21.5461 57.5498C21.9551 57.9866 22.4389 58.4215 23.0005 58.8564C25.2824 60.6209 27.3839 61.6404 29.3019 61.913C33.0267 62.4439 38.6456 61.4013 46.1586 58.7863C48.0776 60.6717 48.8447 62.969 48.4588 65.6782C48.1525 67.8228 47.1944 69.7015 45.5826 71.3143C43.9708 72.9271 42.069 73.7508 39.8764 73.7834C32.4911 73.8833 27.8389 73.7959 25.9208 73.5233C22.0828 72.977 18.7371 71.8097 15.8821 70.0212C12.5989 67.961 9.837 65.3921 7.59252 62.3191L7.49268 62.1847L21.4588 57.4557H21.4607Z" fill="#A9DF91"/>
<path d="M1.01431 24.0257C1.99447 16.3342 5.1644 10.2497 10.5231 5.7732C15.8828 1.29672 22.1746 -0.427444 29.3977 0.601676C37.0738 1.69512 43.4598 5.56967 48.5574 12.2273C53.6559 18.8839 55.5932 26.0993 54.3711 33.8714C52.9052 36.8868 48.133 40.0654 40.0565 43.4062C30.013 47.6186 24.4114 50.1597 23.2508 51.0314C21.2031 51.6612 20.1068 52.4839 19.9618 53.4996C19.7727 54.8292 20.2719 56.1473 21.4585 57.4548L7.49239 62.1838C1.21207 53.4833 -0.948888 40.7642 1.01239 24.0247L1.01431 24.0257ZM18.2386 35.2894C28.3484 36.2686 34.9503 33.5815 38.0434 27.2273C38.6233 26.3882 38.9785 25.5175 39.1071 24.6142C39.445 22.2439 38.4764 20.1482 36.2022 18.3271C33.9279 16.506 31.2668 15.378 28.2197 14.9441C25.9618 14.6225 23.9794 14.801 22.2697 15.4788C18.7551 16.7057 16.6124 20.0282 15.8405 25.4455C14.989 31.4282 15.7877 34.7085 18.2386 35.2884V35.2894Z" fill="#44AF89"/>
</svg>
