<svg width="60" height="115" viewBox="0 0 60 115" fill="none" xmlns="http://www.w3.org/2000/svg">
<path fill-rule="evenodd" clip-rule="evenodd" d="M0.974609 13.4711C2.38581 14.8449 6.07892 15.7309 7.99796 16.9213C8.96372 21.0954 7.33844 23.2055 7.45652 24.5745C7.81556 28.7543 6.52052 29.6385 6.57332 32.8189L10.5938 32.8151C10.7484 30.2855 9.37269 27.7924 9.65877 25.2724C10.0927 21.442 8.92532 25.9329 8.98292 17.4781L14.9752 19.9693C15.0386 30.7703 13.8396 30.7079 18.125 32.5655C31.8117 38.4964 26.91 39.3729 40.0764 33.4122C46.4719 30.5169 44.6421 32.2151 44.9858 22.4452C41.3349 22.7437 32.9695 28.7169 29.9944 28.2148C30.1903 25.8743 32.189 25.6285 36.366 23.8391C39.966 22.2964 58.0927 14.3812 59.0143 13.5364C56.8428 12.3585 31.0082 0.603261 30.2181 0.547581C28.517 0.428541 4.94805 11.9044 0.974609 13.4711Z" fill="#44AF89"/>
<path fill-rule="evenodd" clip-rule="evenodd" d="M15.2135 43.3703C14.8161 45.9393 15.6618 46.3377 17.5962 47.1873L27.033 51.4228C28.9242 52.2369 30.4122 52.5921 29.626 55.3319C26.9447 55.6093 17.9044 49.4932 15.2279 49.954C14.8334 52.5652 15.633 52.9482 17.6202 53.8046L26.7806 57.9316C28.979 58.8647 30.0465 58.7543 29.8151 61.7937C26.5012 62.2986 18.2462 56.1758 15.225 56.5876C14.889 58.6132 15.0484 59.1738 16.8119 60.082C18.1655 60.7799 19.5623 61.3156 20.8708 61.8983C30.706 66.2769 28.5527 66.754 36.7626 62.9351C39.1271 61.8359 43.1946 60.369 44.6385 59.1412C44.9956 56.9255 45.0148 55.5949 44.6116 53.4023C44.1297 50.7834 45.01 50.4714 44.9159 47.8065C44.8122 44.818 44.1518 45.6148 44.7018 42.6705C45.178 40.1207 44.7575 39.131 44.4052 36.8826C40.4078 36.8807 33.0858 42.3738 29.8948 42.3229C26.6855 42.2711 18.3738 36.2519 15.0234 36.8942C15.0551 40.2302 15.9911 39.8077 21.6542 42.3469C23.675 43.2532 28.8234 45.1636 29.6692 46.4759C30.514 47.7873 29.7902 49.2436 27.9959 48.5514C25.4519 47.5703 17.3178 43.0055 15.2145 43.3713L15.2135 43.3703Z" fill="#A1D890"/>
<path fill-rule="evenodd" clip-rule="evenodd" d="M31.7069 86.5713L31.5686 75.5332C31.5686 71.5953 32.5699 72.1473 35.9318 70.6641C37.8557 69.8164 40.5456 68.1114 42.8371 68.0788C42.9206 70.8781 43.5859 81.0349 42.1152 82.3137C42.1114 82.3165 32.9693 86.673 31.7059 86.5713H31.7069ZM15.2285 64.3962C14.6717 67.2973 14.2905 82.6151 15.9331 83.9908C17.0208 84.9018 28.9593 90.0061 30.2515 89.9601C31.2297 89.9255 43.4553 84.6743 44.3078 83.7316C45.6307 82.2695 45 76.7466 45.0086 74.3629C45.0173 71.7527 45.3053 66.7636 44.8473 64.4433C42.7833 64.0909 39.3984 66.3105 37.4669 67.1332C36.0509 67.7361 31.0665 70.1351 29.8925 70.0861C26.9222 69.9604 17.8195 63.994 15.2294 64.3972L15.2285 64.3962Z" fill="#F9AB3C"/>
<path fill-rule="evenodd" clip-rule="evenodd" d="M44.7104 89.2209C41.2592 88.2551 33.5696 94.5594 29.9072 94.4788C26.6144 94.4058 18.7952 88.5508 15.2864 89.1028C14.7296 91.2302 17.025 94.1006 18.1079 95.889L25.6496 108.642C29.6346 115.468 29.8592 116.356 32.3572 111.996L38.0452 102.443C39.3575 100.223 40.5325 98.1614 41.7671 96.0292C42.85 94.1563 45.1588 91.6046 44.7104 89.2199V89.2209Z" fill="#44AF89"/>
<path fill-rule="evenodd" clip-rule="evenodd" d="M31.7071 86.5713C32.9695 86.673 42.1126 82.3166 42.1164 82.3137C43.5862 81.035 42.9209 70.8782 42.8383 68.0788C40.5468 68.1124 37.8559 69.8164 35.933 70.6641C32.5711 72.1473 31.5698 71.5953 31.5698 75.5332L31.7081 86.5713H31.7071Z" fill="#FEFEFE"/>
</svg>
