<svg width="64" height="110" viewBox="0 0 64 110" fill="none" xmlns="http://www.w3.org/2000/svg">
<path d="M28.9726 37.6429C30.6823 37.6429 33.6478 35.9044 37.866 32.4273C42.0842 28.9502 43.9082 26.5271 43.338 25.1591C42.883 23.9054 41.8846 22.7927 40.3457 21.8241C38.8068 20.8554 37.3534 20.3706 35.9844 20.3706C35.2999 20.3706 34.7306 20.4849 34.2746 20.7124C33.2484 21.5101 31.9658 23.7911 30.427 27.5534C28.8881 31.3156 28.1182 34.1658 28.1182 36.1041C28.1182 37.1303 28.4033 37.6439 28.9735 37.6439L28.9726 37.6429Z" fill="#F9AB3C"/>
<path d="M19.4891 84.1309L19.4881 84.2461C19.4699 86.481 19.7531 89.53 20.3377 93.394C21.0788 98.2967 21.3352 101.888 21.1076 104.168C20.6516 108.045 17.9147 109.983 12.8987 109.983C10.276 109.983 8.62285 109.298 7.93837 107.93C5.97133 103.322 4.45069 98.1613 3.37645 92.4474L3.34668 92.2881L19.4891 84.13V84.1309Z" fill="#A9DF91"/>
<path d="M38.8051 74.3687L38.8378 74.3966C45.5155 79.9962 53.4576 87.0695 62.664 95.6183C63.3485 96.5303 63.6903 97.4423 63.6903 98.3543C63.6903 100.293 62.6074 101.946 60.4407 103.314C58.8442 105.365 56.6784 106.391 53.9415 106.391C51.6615 106.391 49.9508 105.65 48.8112 104.169C46.3844 101.632 37.8759 94.3454 23.2858 82.3127L23.209 82.2503L38.8042 74.3687H38.8051Z" fill="#A9DF91"/>
<path d="M2.636 42.6023C2.86352 39.5236 2.63599 35.1345 1.95151 29.434C1.15375 23.05 0.754395 18.6599 0.754395 16.2657C0.754395 12.0474 1.38224 8.51271 2.6072 5.66247C3.9752 2.24199 7.36688 0.532227 12.7832 0.532227C14.0379 0.532227 15.2062 0.703103 16.3457 1.04486C17.7992 2.5271 18.5403 3.78086 18.5403 4.8071C18.5403 9.3671 18.2264 17.7479 17.6283 29.9466C17.0869 40.3214 16.9438 48.6445 17.1723 54.9153C17.5141 55.3713 18.8254 55.5997 21.1064 55.5997C24.4126 53.0913 27.6622 50.5828 30.8542 48.0743C34.7307 45.4525 38.2654 44.1412 41.4574 44.1412C43.9659 44.1412 46.4168 44.8823 48.811 46.3646C50.2933 47.1623 51.0344 48.1319 51.0344 49.2714C51.0344 51.5514 49.5522 53.433 46.5886 54.9143C45.5624 55.5988 42.5979 57.3086 37.6952 60.0446C33.8187 62.2113 30.8542 64.3204 28.8027 66.3729C31.7422 68.577 35.0763 71.242 38.8049 74.3677L23.2097 82.2493L21.7909 81.0801C21.2206 80.6241 20.708 80.3956 20.252 80.3956C19.4542 80.3956 19.2258 81.1367 19.5675 82.6189C19.5224 83.0711 19.4955 83.5751 19.4888 84.13L3.34639 92.2881C2.07535 85.4615 1.43886 77.8487 1.43886 69.4506C1.43886 63.6359 1.83824 54.6858 2.636 42.6004V42.6023Z" fill="#44AF89"/>
</svg>
